<?xml version="1.0" encoding="UTF-8"?>
<!DOCTYPE svg PUBLIC "-//W3C//DTD SVG 1.1//EN" "http://www.w3.org/Graphics/SVG/1.1/DTD/svg11.dtd">
<!-- Creator: CorelDRAW 2021 (64-Bit) -->
<svg xmlns="http://www.w3.org/2000/svg" xml:space="preserve" width="40px" height="63px" version="1.1" style="shape-rendering:geometricPrecision; text-rendering:geometricPrecision; image-rendering:optimizeQuality; fill-rule:evenodd; clip-rule:evenodd"
viewBox="0 0 0.59 0.92"
 xmlns:xlink="http://www.w3.org/1999/xlink"
 xmlns:xodm="http://www.corel.com/coreldraw/odm/2003">
 <defs>
  <style type="text/css">
   <![CDATA[
    .str0 {stroke:white;stroke-width:0.01;stroke-miterlimit:10}
    .fil1 {fill:none}
    .fil0 {fill:#5EB623}
   ]]>
  </style>
   <clipPath id="id0">
    <path d="M0 0l0.59 0 0 0.92 -0.59 0 0 -0.92z"/>
   </clipPath>
 </defs>
 <g id="Capa_x0020_1">
  <metadata id="CorelCorpID_0Corel-Layer"/>
  <g>
  </g>
  <g style="clip-path:url(#id0)">
   <g>
    <polygon class="fil0" points="3.6,3.8 -2.03,3.8 -2.03,-1.84 3.6,-1.84 "/>
    <path class="fil1 str0" d="M-1.92 -1.85l0 -0.02 0 -0.21c0,0 -0.02,-0.02 -0.02,-0.02 -0.06,-0.09 -0.05,-0.22 0.04,-0.28 0.09,0.06 0.11,0.18 0.06,0.26 -0.01,0.01 -0.03,0.04 -0.03,0.04l0 0.21 0 0.02c-0.01,0.02 -0.04,0.02 -0.05,0l0 0z"/>
    <path class="fil1 str0" d="M-1.95 -1.97c-0.12,0.03 -0.24,-0.09 -0.21,-0.21 0.12,-0.03 0.24,0.09 0.21,0.21l0 0z"/>
    <path class="fil1 str0" d="M-1.63 -2.19c0.03,0.12 -0.08,0.24 -0.2,0.23 -0.01,-0.01 -0.01,-0.01 -0.01,-0.01 -0.01,-0.01 -0.01,-0.06 0,-0.08 0.02,-0.09 0.12,-0.15 0.21,-0.14l0 0z"/>
    <path class="fil1 str0" d="M-1.33 -1.85l-0.01 -0.02 0 -0.21c0,0 -0.01,-0.02 -0.02,-0.02 -0.06,-0.09 -0.04,-0.22 0.05,-0.28 0.08,0.06 0.11,0.18 0.05,0.26 0,0.01 -0.02,0.04 -0.02,0.04l0 0.21 -0.01 0.02c-0.01,0.02 -0.03,0.02 -0.04,0l0 0z"/>
    <path class="fil1 str0" d="M-1.36 -1.97c-0.12,0.03 -0.25,-0.09 -0.22,-0.21 0.13,-0.03 0.24,0.09 0.22,0.21l0 0z"/>
    <path class="fil1 str0" d="M-1.04 -2.19c0.02,0.12 -0.08,0.24 -0.21,0.23 0,-0.01 -0.01,-0.01 -0.01,-0.01 -0.01,-0.01 0,-0.06 0,-0.08 0.03,-0.09 0.12,-0.15 0.22,-0.14l0 0z"/>
    <path class="fil1 str0" d="M-0.75 -1.85l0 -0.02 0 -0.21c0,0 -0.02,-0.02 -0.02,-0.02 -0.06,-0.09 -0.05,-0.22 0.05,-0.28 0.08,0.06 0.1,0.18 0.05,0.26 0,0.01 -0.03,0.04 -0.03,0.04l0 0.21 0 0.02c-0.01,0.02 -0.04,0.02 -0.05,0l0 0z"/>
    <path class="fil1 str0" d="M-0.78 -1.97c-0.12,0.03 -0.24,-0.09 -0.21,-0.21 0.12,-0.03 0.24,0.09 0.21,0.21l0 0z"/>
    <path class="fil1 str0" d="M-0.46 -2.19c0.03,0.12 -0.08,0.24 -0.2,0.23 -0.01,-0.01 -0.01,-0.01 -0.01,-0.01 -0.01,-0.01 -0.01,-0.06 0,-0.08 0.02,-0.09 0.12,-0.15 0.21,-0.14l0 0z"/>
    <path class="fil1 str0" d="M-0.16 -1.85l-0.01 -0.02 0 -0.21c0,0 -0.01,-0.02 -0.02,-0.02 -0.05,-0.09 -0.04,-0.22 0.05,-0.28 0.08,0.06 0.11,0.18 0.06,0.26 -0.01,0.01 -0.03,0.04 -0.03,0.04l0 0.21 -0.01 0.02c-0.01,0.02 -0.03,0.02 -0.04,0l0 0z"/>
    <path class="fil1 str0" d="M-0.19 -1.97c-0.12,0.03 -0.25,-0.09 -0.22,-0.21 0.13,-0.03 0.24,0.09 0.22,0.21l0 0z"/>
    <path class="fil1 str0" d="M0.13 -2.19c0.02,0.12 -0.08,0.24 -0.21,0.23 0,-0.01 -0.01,-0.01 -0.01,-0.01 -0.01,-0.01 0,-0.06 0,-0.08 0.03,-0.09 0.12,-0.15 0.22,-0.14l0 0z"/>
    <path class="fil1 str0" d="M0.42 -1.85l0 -0.02 0 -0.21c0,0 -0.02,-0.02 -0.02,-0.02 -0.06,-0.09 -0.05,-0.22 0.05,-0.28 0.08,0.06 0.1,0.18 0.05,0.26 0,0.01 -0.03,0.04 -0.03,0.04l0 0.21 0 0.02c-0.01,0.02 -0.04,0.02 -0.05,0l0 0z"/>
    <path class="fil1 str0" d="M0.39 -1.97c-0.12,0.03 -0.24,-0.09 -0.21,-0.21 0.12,-0.03 0.24,0.09 0.21,0.21l0 0z"/>
    <path class="fil1 str0" d="M0.71 -2.19c0.03,0.12 -0.08,0.24 -0.2,0.23 0,-0.01 -0.01,-0.01 -0.01,-0.01 -0.01,-0.01 -0.01,-0.06 0,-0.08 0.02,-0.09 0.12,-0.15 0.21,-0.14l0 0z"/>
    <path class="fil1 str0" d="M1.01 -1.85l-0.01 -0.02 0 -0.21c0,0 -0.01,-0.02 -0.02,-0.02 -0.05,-0.09 -0.04,-0.22 0.05,-0.28 0.08,0.06 0.11,0.18 0.06,0.26 -0.01,0.01 -0.03,0.04 -0.03,0.04l0 0.21 -0.01 0.02c-0.01,0.02 -0.03,0.02 -0.04,0l0 0z"/>
    <path class="fil1 str0" d="M0.98 -1.97c-0.12,0.03 -0.24,-0.09 -0.22,-0.21 0.13,-0.03 0.25,0.09 0.22,0.21l0 0z"/>
    <path class="fil1 str0" d="M1.3 -2.19c0.02,0.12 -0.08,0.24 -0.21,0.23 0,-0.01 0,-0.01 -0.01,-0.01 -0.01,-0.01 0,-0.06 0,-0.08 0.03,-0.09 0.12,-0.15 0.22,-0.14l0 0z"/>
    <path class="fil1 str0" d="M1.59 -1.85l0 -0.02 0 -0.21c0,0 -0.02,-0.02 -0.02,-0.02 -0.06,-0.09 -0.04,-0.22 0.05,-0.28 0.08,0.06 0.1,0.18 0.05,0.26 0,0.01 -0.03,0.04 -0.03,0.04l0 0.21 0 0.02c-0.01,0.02 -0.04,0.02 -0.05,0l0 0z"/>
    <path class="fil1 str0" d="M1.56 -1.97c-0.12,0.03 -0.24,-0.09 -0.21,-0.21 0.12,-0.03 0.24,0.09 0.21,0.21l0 0z"/>
    <path class="fil1 str0" d="M1.88 -2.19c0.03,0.12 -0.08,0.24 -0.2,0.23 0,-0.01 -0.01,-0.01 -0.01,-0.01 -0.01,-0.01 0,-0.06 0,-0.08 0.02,-0.09 0.12,-0.15 0.21,-0.14l0 0z"/>
    <path class="fil1 str0" d="M2.18 -1.85l-0.01 -0.02 0 -0.21c0,0 -0.01,-0.02 -0.02,-0.02 -0.05,-0.09 -0.04,-0.22 0.05,-0.28 0.09,0.06 0.11,0.18 0.06,0.26 -0.01,0.01 -0.03,0.04 -0.03,0.04l0 0.21 -0.01 0.02c-0.01,0.02 -0.03,0.02 -0.04,0l0 0z"/>
    <path class="fil1 str0" d="M2.15 -1.97c-0.12,0.03 -0.24,-0.09 -0.21,-0.21 0.12,-0.03 0.24,0.09 0.21,0.21l0 0z"/>
    <path class="fil1 str0" d="M2.47 -2.19c0.02,0.12 -0.08,0.24 -0.2,0.23 -0.01,-0.01 -0.01,-0.01 -0.02,-0.01 -0.01,-0.01 0,-0.06 0,-0.08 0.03,-0.09 0.12,-0.15 0.22,-0.14l0 0z"/>
    <path class="fil1 str0" d="M2.76 -1.85l0 -0.02 0 -0.21c0,0 -0.02,-0.02 -0.02,-0.02 -0.06,-0.09 -0.04,-0.22 0.05,-0.28 0.08,0.06 0.1,0.18 0.05,0.26 0,0.01 -0.03,0.04 -0.03,0.04l0 0.21 0 0.02c-0.01,0.02 -0.04,0.02 -0.05,0l0 0z"/>
    <path class="fil1 str0" d="M2.74 -1.97c-0.13,0.03 -0.25,-0.09 -0.22,-0.21 0.12,-0.03 0.24,0.09 0.22,0.21l0 0z"/>
    <path class="fil1 str0" d="M3.05 -2.19c0.03,0.12 -0.08,0.24 -0.2,0.23 0,-0.01 -0.01,-0.01 -0.01,-0.01 -0.01,-0.01 0,-0.06 0,-0.08 0.02,-0.09 0.12,-0.15 0.21,-0.14l0 0z"/>
    <path class="fil1 str0" d="M3.35 -1.85l-0.01 -0.02 0 -0.21c0,0 -0.01,-0.02 -0.01,-0.02 -0.06,-0.09 -0.05,-0.22 0.04,-0.28 0.09,0.06 0.11,0.18 0.06,0.26 -0.01,0.01 -0.03,0.04 -0.03,0.04l0 0.21 -0.01 0.02c0,0.02 -0.03,0.02 -0.04,0l0 0z"/>
    <path class="fil1 str0" d="M3.32 -1.97c-0.12,0.03 -0.24,-0.09 -0.21,-0.21 0.12,-0.03 0.24,0.09 0.21,0.21l0 0z"/>
    <path class="fil1 str0" d="M3.64 -2.19c0.02,0.12 -0.08,0.24 -0.2,0.23 -0.01,-0.01 -0.01,-0.01 -0.02,-0.01 -0.01,-0.01 0,-0.06 0.01,-0.08 0.02,-0.09 0.11,-0.15 0.21,-0.14l0 0z"/>
    <path class="fil1 str0" d="M-1.63 -1.38l0 -0.02 0 -0.21c0,0 -0.02,-0.02 -0.02,-0.03 -0.06,-0.09 -0.04,-0.21 0.05,-0.27 0.08,0.06 0.1,0.18 0.05,0.26 0,0.01 -0.03,0.04 -0.03,0.04l0 0.21 0 0.02c-0.01,0.02 -0.04,0.02 -0.05,0l0 0z"/>
    <path class="fil1 str0" d="M-1.65 -1.5c-0.13,0.03 -0.25,-0.09 -0.22,-0.22 0.12,-0.02 0.24,0.1 0.22,0.22l0 0z"/>
    <path class="fil1 str0" d="M-1.34 -1.72c0.03,0.12 -0.08,0.24 -0.2,0.22 0,0 -0.01,0 -0.01,0 -0.01,-0.01 0,-0.06 0,-0.08 0.02,-0.09 0.12,-0.15 0.21,-0.14l0 0z"/>
    <path class="fil1 str0" d="M-1.04 -1.38l-0.01 -0.02 0 -0.21c0,0 -0.01,-0.02 -0.01,-0.03 -0.06,-0.09 -0.05,-0.21 0.04,-0.27 0.09,0.06 0.11,0.18 0.06,0.26 -0.01,0.01 -0.03,0.04 -0.03,0.04l0 0.21 -0.01 0.02c0,0.02 -0.03,0.02 -0.04,0l0 0z"/>
    <path class="fil1 str0" d="M-1.07 -1.5c-0.12,0.03 -0.24,-0.09 -0.21,-0.22 0.12,-0.02 0.24,0.1 0.21,0.22l0 0z"/>
    <path class="fil1 str0" d="M-0.75 -1.72c0.02,0.12 -0.08,0.24 -0.2,0.22 -0.01,0 -0.01,0 -0.02,0 -0.01,-0.01 0,-0.06 0.01,-0.08 0.02,-0.09 0.11,-0.15 0.21,-0.14l0 0z"/>
    <path class="fil1 str0" d="M-0.45 -1.38l-0.01 -0.02 0 -0.21c0,0 -0.02,-0.02 -0.02,-0.03 -0.06,-0.09 -0.04,-0.21 0.05,-0.27 0.08,0.06 0.1,0.18 0.05,0.26 0,0.01 -0.03,0.04 -0.03,0.04l0 0.21 0 0.02c-0.01,0.02 -0.04,0.02 -0.04,0l0 0z"/>
    <path class="fil1 str0" d="M-0.48 -1.5c-0.13,0.03 -0.25,-0.09 -0.22,-0.22 0.12,-0.02 0.24,0.1 0.22,0.22l0 0z"/>
    <path class="fil1 str0" d="M-0.17 -1.72c0.03,0.12 -0.08,0.24 -0.2,0.22 0,0 -0.01,0 -0.01,0 -0.01,-0.01 0,-0.06 0,-0.08 0.02,-0.09 0.12,-0.15 0.21,-0.14l0 0z"/>
    <path class="fil1 str0" d="M0.13 -1.38l-0.01 -0.02 0 -0.21c0,0 -0.01,-0.02 -0.01,-0.03 -0.06,-0.09 -0.05,-0.21 0.04,-0.27 0.09,0.06 0.11,0.18 0.06,0.26 -0.01,0.01 -0.03,0.04 -0.03,0.04l0 0.21 -0.01 0.02c0,0.02 -0.03,0.02 -0.04,0l0 0z"/>
    <path class="fil1 str0" d="M0.1 -1.5c-0.12,0.03 -0.24,-0.09 -0.21,-0.22 0.12,-0.02 0.24,0.1 0.21,0.22l0 0z"/>
    <path class="fil1 str0" d="M0.42 -1.72c0.03,0.12 -0.08,0.24 -0.2,0.22 -0.01,0 -0.01,0 -0.02,0 0,-0.01 0,-0.06 0.01,-0.08 0.02,-0.09 0.12,-0.15 0.21,-0.14l0 0z"/>
    <path class="fil1 str0" d="M0.72 -1.38l-0.01 -0.02 0 -0.21c0,0 -0.02,-0.02 -0.02,-0.03 -0.06,-0.09 -0.04,-0.21 0.05,-0.27 0.08,0.06 0.11,0.18 0.05,0.26 0,0.01 -0.02,0.04 -0.02,0.04l0 0.21 -0.01 0.02c-0.01,0.02 -0.03,0.02 -0.04,0l0 0z"/>
    <path class="fil1 str0" d="M0.69 -1.5c-0.12,0.03 -0.25,-0.09 -0.22,-0.22 0.13,-0.02 0.24,0.1 0.22,0.22l0 0z"/>
    <path class="fil1 str0" d="M1.01 -1.72c0.02,0.12 -0.09,0.24 -0.21,0.22 0,0 -0.01,0 -0.01,0 -0.01,-0.01 0,-0.06 0,-0.08 0.02,-0.09 0.12,-0.15 0.22,-0.14l0 0z"/>
    <path class="fil1 str0" d="M1.3 -1.38l0 -0.02 0 -0.21c0,0 -0.02,-0.02 -0.02,-0.03 -0.06,-0.09 -0.05,-0.21 0.04,-0.27 0.09,0.06 0.11,0.18 0.06,0.26 -0.01,0.01 -0.03,0.04 -0.03,0.04l0 0.21 0 0.02c-0.01,0.02 -0.04,0.02 -0.05,0l0 0z"/>
    <path class="fil1 str0" d="M1.27 -1.5c-0.12,0.03 -0.24,-0.09 -0.21,-0.22 0.12,-0.02 0.24,0.1 0.21,0.22l0 0z"/>
    <path class="fil1 str0" d="M1.59 -1.72c0.03,0.12 -0.08,0.24 -0.2,0.22 -0.01,0 -0.01,0 -0.01,0 -0.01,-0.01 -0.01,-0.06 0,-0.08 0.02,-0.09 0.12,-0.15 0.21,-0.14l0 0z"/>
    <path class="fil1 str0" d="M1.89 -1.38l-0.01 -0.02 0 -0.21c0,0 -0.01,-0.02 -0.02,-0.03 -0.06,-0.09 -0.04,-0.21 0.05,-0.27 0.08,0.06 0.11,0.18 0.05,0.26 0,0.01 -0.02,0.04 -0.02,0.04l0 0.21 -0.01 0.02c-0.01,0.02 -0.03,0.02 -0.04,0l0 0z"/>
    <path class="fil1 str0" d="M1.86 -1.5c-0.12,0.03 -0.25,-0.09 -0.22,-0.22 0.13,-0.02 0.24,0.1 0.22,0.22l0 0z"/>
    <path class="fil1 str0" d="M2.18 -1.72c0.02,0.12 -0.09,0.24 -0.21,0.22 0,0 -0.01,0 -0.01,0 -0.01,-0.01 0,-0.06 0,-0.08 0.03,-0.09 0.12,-0.15 0.22,-0.14l0 0z"/>
    <path class="fil1 str0" d="M2.47 -1.38l0 -0.02 0 -0.21c0,0 -0.02,-0.02 -0.02,-0.03 -0.06,-0.09 -0.05,-0.21 0.05,-0.27 0.08,0.06 0.1,0.18 0.05,0.26 0,0.01 -0.03,0.04 -0.03,0.04l0 0.21 0 0.02c-0.01,0.02 -0.04,0.02 -0.05,0l0 0z"/>
    <path class="fil1 str0" d="M2.44 -1.5c-0.12,0.03 -0.24,-0.09 -0.21,-0.22 0.12,-0.02 0.24,0.1 0.21,0.22l0 0z"/>
    <path class="fil1 str0" d="M2.76 -1.72c0.03,0.12 -0.08,0.24 -0.2,0.22 -0.01,0 -0.01,0 -0.01,0 -0.01,-0.01 -0.01,-0.06 0,-0.08 0.02,-0.09 0.12,-0.15 0.21,-0.14l0 0z"/>
    <path class="fil1 str0" d="M3.06 -1.38l-0.01 -0.02 0 -0.21c0,0 -0.01,-0.02 -0.02,-0.03 -0.06,-0.09 -0.04,-0.21 0.05,-0.27 0.08,0.06 0.11,0.18 0.06,0.26 -0.01,0.01 -0.03,0.04 -0.03,0.04l0 0.21 -0.01 0.02c-0.01,0.02 -0.03,0.02 -0.04,0l0 0z"/>
    <path class="fil1 str0" d="M3.03 -1.5c-0.12,0.03 -0.25,-0.09 -0.22,-0.22 0.13,-0.02 0.24,0.1 0.22,0.22l0 0z"/>
    <path class="fil1 str0" d="M3.35 -1.72c0.02,0.12 -0.08,0.24 -0.21,0.22 0,0 -0.01,0 -0.01,0 -0.01,-0.01 0,-0.06 0,-0.08 0.03,-0.09 0.12,-0.15 0.22,-0.14l0 0z"/>
    <path class="fil1 str0" d="M3.64 -1.38l0 -0.02 0 -0.21c0,0 -0.02,-0.02 -0.02,-0.03 -0.06,-0.09 -0.05,-0.21 0.05,-0.27 0.08,0.06 0.1,0.18 0.05,0.26 0,0.01 -0.03,0.04 -0.03,0.04l0 0.21 0 0.02c-0.01,0.02 -0.04,0.02 -0.05,0l0 0z"/>
    <path class="fil1 str0" d="M3.61 -1.5c-0.12,0.03 -0.24,-0.09 -0.21,-0.22 0.12,-0.02 0.24,0.1 0.21,0.22l0 0z"/>
    <path class="fil1 str0" d="M3.93 -1.72c0.03,0.12 -0.08,0.24 -0.2,0.22 0,0 -0.01,0 -0.01,0 -0.01,-0.01 -0.01,-0.06 0,-0.08 0.02,-0.09 0.12,-0.15 0.21,-0.14l0 0z"/>
    <path class="fil1 str0" d="M-1.92 -0.93l0 -0.02 0 -0.21c0,0 -0.02,-0.02 -0.02,-0.03 -0.06,-0.09 -0.05,-0.21 0.04,-0.27 0.09,0.06 0.11,0.18 0.06,0.26 -0.01,0.01 -0.03,0.04 -0.03,0.04l0 0.21 0 0.02c-0.01,0.02 -0.04,0.02 -0.05,0l0 0z"/>
    <path class="fil1 str0" d="M-1.95 -1.05c-0.12,0.03 -0.24,-0.09 -0.21,-0.22 0.12,-0.02 0.24,0.1 0.21,0.22l0 0z"/>
    <path class="fil1 str0" d="M-1.63 -1.27c0.03,0.12 -0.08,0.24 -0.2,0.22 -0.01,0 -0.01,0 -0.01,0 -0.01,-0.01 -0.01,-0.06 0,-0.08 0.02,-0.09 0.12,-0.15 0.21,-0.14l0 0z"/>
    <path class="fil1 str0" d="M-1.33 -0.93l-0.01 -0.02 0 -0.21c0,0 -0.01,-0.02 -0.02,-0.03 -0.06,-0.09 -0.04,-0.21 0.05,-0.27 0.08,0.06 0.11,0.18 0.05,0.26 0,0.01 -0.02,0.04 -0.02,0.04l0 0.21 -0.01 0.02c-0.01,0.02 -0.03,0.02 -0.04,0l0 0z"/>
    <path class="fil1 str0" d="M-1.36 -1.05c-0.12,0.03 -0.25,-0.09 -0.22,-0.22 0.13,-0.02 0.24,0.1 0.22,0.22l0 0z"/>
    <path class="fil1 str0" d="M-1.04 -1.27c0.02,0.12 -0.08,0.24 -0.21,0.22 0,0 -0.01,0 -0.01,0 -0.01,-0.01 0,-0.06 0,-0.08 0.03,-0.09 0.12,-0.15 0.22,-0.14l0 0z"/>
    <path class="fil1 str0" d="M-0.75 -0.93l0 -0.02 0 -0.21c0,0 -0.02,-0.02 -0.02,-0.03 -0.06,-0.09 -0.05,-0.21 0.05,-0.27 0.08,0.06 0.1,0.18 0.05,0.26 0,0.01 -0.03,0.04 -0.03,0.04l0 0.21 0 0.02c-0.01,0.02 -0.04,0.02 -0.05,0l0 0z"/>
    <path class="fil1 str0" d="M-0.78 -1.05c-0.12,0.03 -0.24,-0.09 -0.21,-0.22 0.12,-0.02 0.24,0.1 0.21,0.22l0 0z"/>
    <path class="fil1 str0" d="M-0.46 -1.27c0.03,0.12 -0.08,0.24 -0.2,0.22 -0.01,0 -0.01,0 -0.01,0 -0.01,-0.01 -0.01,-0.06 0,-0.08 0.02,-0.09 0.12,-0.15 0.21,-0.14l0 0z"/>
    <path class="fil1 str0" d="M-0.16 -0.93l-0.01 -0.02 0 -0.21c0,0 -0.01,-0.02 -0.02,-0.03 -0.05,-0.09 -0.04,-0.21 0.05,-0.27 0.08,0.06 0.11,0.18 0.06,0.26 -0.01,0.01 -0.03,0.04 -0.03,0.04l0 0.21 -0.01 0.02c-0.01,0.02 -0.03,0.02 -0.04,0l0 0z"/>
    <path class="fil1 str0" d="M-0.19 -1.05c-0.12,0.03 -0.25,-0.09 -0.22,-0.22 0.13,-0.02 0.24,0.1 0.22,0.22l0 0z"/>
    <path class="fil1 str0" d="M0.13 -1.27c0.02,0.12 -0.08,0.24 -0.21,0.22 0,0 -0.01,0 -0.01,0 -0.01,-0.01 0,-0.06 0,-0.08 0.03,-0.09 0.12,-0.15 0.22,-0.14l0 0z"/>
    <path class="fil1 str0" d="M0.42 -0.93l0 -0.02 0 -0.21c0,0 -0.02,-0.02 -0.02,-0.03 -0.06,-0.09 -0.05,-0.21 0.05,-0.27 0.08,0.06 0.1,0.18 0.05,0.26 0,0.01 -0.03,0.04 -0.03,0.04l0 0.21 0 0.02c-0.01,0.02 -0.04,0.02 -0.05,0l0 0z"/>
    <path class="fil1 str0" d="M0.39 -1.05c-0.12,0.03 -0.24,-0.09 -0.21,-0.22 0.12,-0.02 0.24,0.1 0.21,0.22l0 0z"/>
    <path class="fil1 str0" d="M0.71 -1.27c0.03,0.12 -0.08,0.24 -0.2,0.22 0,0 -0.01,0 -0.01,0 -0.01,-0.01 -0.01,-0.06 0,-0.08 0.02,-0.09 0.12,-0.15 0.21,-0.14l0 0z"/>
    <path class="fil1 str0" d="M1.01 -0.93l-0.01 -0.02 0 -0.21c0,0 -0.01,-0.02 -0.02,-0.03 -0.05,-0.09 -0.04,-0.21 0.05,-0.27 0.08,0.06 0.11,0.18 0.06,0.26 -0.01,0.01 -0.03,0.04 -0.03,0.04l0 0.21 -0.01 0.02c-0.01,0.02 -0.03,0.02 -0.04,0l0 0z"/>
    <path class="fil1 str0" d="M0.98 -1.05c-0.12,0.03 -0.24,-0.09 -0.22,-0.22 0.13,-0.02 0.25,0.1 0.22,0.22l0 0z"/>
    <path class="fil1 str0" d="M1.3 -1.27c0.02,0.12 -0.08,0.24 -0.21,0.22 0,0 0,0 -0.01,0 -0.01,-0.01 0,-0.06 0,-0.08 0.03,-0.09 0.12,-0.15 0.22,-0.14l0 0z"/>
    <path class="fil1 str0" d="M1.59 -0.93l0 -0.02 0 -0.21c0,0 -0.02,-0.02 -0.02,-0.03 -0.06,-0.09 -0.04,-0.21 0.05,-0.27 0.08,0.06 0.1,0.18 0.05,0.26 0,0.01 -0.03,0.04 -0.03,0.04l0 0.21 0 0.02c-0.01,0.02 -0.04,0.02 -0.05,0l0 0z"/>
    <path class="fil1 str0" d="M1.56 -1.05c-0.12,0.03 -0.24,-0.09 -0.21,-0.22 0.12,-0.02 0.24,0.1 0.21,0.22l0 0z"/>
    <path class="fil1 str0" d="M1.88 -1.27c0.03,0.12 -0.08,0.24 -0.2,0.22 0,0 -0.01,0 -0.01,0 -0.01,-0.01 0,-0.06 0,-0.08 0.02,-0.09 0.12,-0.15 0.21,-0.14l0 0z"/>
    <path class="fil1 str0" d="M2.18 -0.93l-0.01 -0.02 0 -0.21c0,0 -0.01,-0.02 -0.02,-0.03 -0.05,-0.09 -0.04,-0.21 0.05,-0.27 0.09,0.06 0.11,0.18 0.06,0.26 -0.01,0.01 -0.03,0.04 -0.03,0.04l0 0.21 -0.01 0.02c-0.01,0.02 -0.03,0.02 -0.04,0l0 0z"/>
    <path class="fil1 str0" d="M2.15 -1.05c-0.12,0.03 -0.24,-0.09 -0.21,-0.22 0.12,-0.02 0.24,0.1 0.21,0.22l0 0z"/>
    <path class="fil1 str0" d="M2.47 -1.27c0.02,0.12 -0.08,0.24 -0.2,0.22 -0.01,0 -0.01,0 -0.02,0 -0.01,-0.01 0,-0.06 0,-0.08 0.03,-0.09 0.12,-0.15 0.22,-0.14l0 0z"/>
    <path class="fil1 str0" d="M2.76 -0.93l0 -0.02 0 -0.21c0,0 -0.02,-0.02 -0.02,-0.03 -0.06,-0.09 -0.04,-0.21 0.05,-0.27 0.08,0.06 0.1,0.18 0.05,0.26 0,0.01 -0.03,0.04 -0.03,0.04l0 0.21 0 0.02c-0.01,0.02 -0.04,0.02 -0.05,0l0 0z"/>
    <path class="fil1 str0" d="M2.74 -1.05c-0.13,0.03 -0.25,-0.09 -0.22,-0.22 0.12,-0.02 0.24,0.1 0.22,0.22l0 0z"/>
    <path class="fil1 str0" d="M3.05 -1.27c0.03,0.12 -0.08,0.24 -0.2,0.22 0,0 -0.01,0 -0.01,0 -0.01,-0.01 0,-0.06 0,-0.08 0.02,-0.09 0.12,-0.15 0.21,-0.14l0 0z"/>
    <path class="fil1 str0" d="M3.35 -0.93l-0.01 -0.02 0 -0.21c0,0 -0.01,-0.02 -0.01,-0.03 -0.06,-0.09 -0.05,-0.21 0.04,-0.27 0.09,0.06 0.11,0.18 0.06,0.26 -0.01,0.01 -0.03,0.04 -0.03,0.04l0 0.21 -0.01 0.02c0,0.02 -0.03,0.02 -0.04,0l0 0z"/>
    <path class="fil1 str0" d="M3.32 -1.05c-0.12,0.03 -0.24,-0.09 -0.21,-0.22 0.12,-0.02 0.24,0.1 0.21,0.22l0 0z"/>
    <path class="fil1 str0" d="M3.64 -1.27c0.02,0.12 -0.08,0.24 -0.2,0.22 -0.01,0 -0.01,0 -0.02,0 -0.01,-0.01 0,-0.06 0.01,-0.08 0.02,-0.09 0.11,-0.15 0.21,-0.14l0 0z"/>
    <path class="fil1 str0" d="M-1.63 -0.46l0 -0.02 0 -0.21c0,-0.01 -0.02,-0.02 -0.02,-0.03 -0.06,-0.09 -0.04,-0.21 0.05,-0.27 0.08,0.06 0.1,0.18 0.05,0.26 0,0.01 -0.03,0.04 -0.03,0.04l0 0.21 0 0.02c-0.01,0.01 -0.04,0.02 -0.05,0l0 0z"/>
    <path class="fil1 str0" d="M-1.65 -0.58c-0.13,0.03 -0.25,-0.09 -0.22,-0.22 0.12,-0.02 0.24,0.1 0.22,0.22l0 0z"/>
    <path class="fil1 str0" d="M-1.34 -0.8c0.03,0.12 -0.08,0.24 -0.2,0.22 0,0 -0.01,0 -0.01,0 -0.01,-0.01 0,-0.06 0,-0.08 0.02,-0.09 0.12,-0.15 0.21,-0.14l0 0z"/>
    <path class="fil1 str0" d="M-1.04 -0.46l-0.01 -0.02 0 -0.21c0,-0.01 -0.01,-0.02 -0.01,-0.03 -0.06,-0.09 -0.05,-0.21 0.04,-0.27 0.09,0.06 0.11,0.18 0.06,0.26 -0.01,0.01 -0.03,0.04 -0.03,0.04l0 0.21 -0.01 0.02c0,0.01 -0.03,0.02 -0.04,0l0 0z"/>
    <path class="fil1 str0" d="M-1.07 -0.58c-0.12,0.03 -0.24,-0.09 -0.21,-0.22 0.12,-0.02 0.24,0.1 0.21,0.22l0 0z"/>
    <path class="fil1 str0" d="M-0.75 -0.8c0.02,0.12 -0.08,0.24 -0.2,0.22 -0.01,0 -0.01,0 -0.02,0 -0.01,-0.01 0,-0.06 0.01,-0.08 0.02,-0.09 0.11,-0.15 0.21,-0.14l0 0z"/>
    <path class="fil1 str0" d="M-0.45 -0.46l-0.01 -0.02 0 -0.21c0,-0.01 -0.02,-0.02 -0.02,-0.03 -0.06,-0.09 -0.04,-0.21 0.05,-0.27 0.08,0.06 0.1,0.18 0.05,0.26 0,0.01 -0.03,0.04 -0.03,0.04l0 0.21 0 0.02c-0.01,0.01 -0.04,0.02 -0.04,0l0 0z"/>
    <path class="fil1 str0" d="M-0.48 -0.58c-0.13,0.03 -0.25,-0.09 -0.22,-0.22 0.12,-0.02 0.24,0.1 0.22,0.22l0 0z"/>
    <path class="fil1 str0" d="M-0.17 -0.8c0.03,0.12 -0.08,0.24 -0.2,0.22 0,0 -0.01,0 -0.01,0 -0.01,-0.01 0,-0.06 0,-0.08 0.02,-0.09 0.12,-0.15 0.21,-0.14l0 0z"/>
    <path class="fil1 str0" d="M0.13 -0.46l-0.01 -0.02 0 -0.21c0,-0.01 -0.01,-0.02 -0.01,-0.03 -0.06,-0.09 -0.05,-0.21 0.04,-0.27 0.09,0.06 0.11,0.18 0.06,0.26 -0.01,0.01 -0.03,0.04 -0.03,0.04l0 0.21 -0.01 0.02c0,0.01 -0.03,0.02 -0.04,0l0 0z"/>
    <path class="fil1 str0" d="M0.1 -0.58c-0.12,0.03 -0.24,-0.09 -0.21,-0.22 0.12,-0.02 0.24,0.1 0.21,0.22l0 0z"/>
    <path class="fil1 str0" d="M0.42 -0.8c0.03,0.12 -0.08,0.24 -0.2,0.22 -0.01,0 -0.01,0 -0.02,0 0,-0.01 0,-0.06 0.01,-0.08 0.02,-0.09 0.12,-0.15 0.21,-0.14l0 0z"/>
    <path class="fil1 str0" d="M0.72 -0.46l-0.01 -0.02 0 -0.21c0,-0.01 -0.02,-0.02 -0.02,-0.03 -0.06,-0.09 -0.04,-0.21 0.05,-0.27 0.08,0.06 0.11,0.18 0.05,0.26 0,0.01 -0.02,0.04 -0.02,0.04l0 0.21 -0.01 0.02c-0.01,0.01 -0.03,0.02 -0.04,0l0 0z"/>
    <path class="fil1 str0" d="M0.69 -0.58c-0.12,0.03 -0.25,-0.09 -0.22,-0.22 0.13,-0.02 0.24,0.1 0.22,0.22l0 0z"/>
    <path class="fil1 str0" d="M1.01 -0.8c0.02,0.12 -0.09,0.24 -0.21,0.22 0,0 -0.01,0 -0.01,0 -0.01,-0.01 0,-0.06 0,-0.08 0.02,-0.09 0.12,-0.15 0.22,-0.14l0 0z"/>
    <path class="fil1 str0" d="M1.3 -0.46l0 -0.02 0 -0.21c0,-0.01 -0.02,-0.02 -0.02,-0.03 -0.06,-0.09 -0.05,-0.21 0.04,-0.27 0.09,0.06 0.11,0.18 0.06,0.26 -0.01,0.01 -0.03,0.04 -0.03,0.04l0 0.21 0 0.02c-0.01,0.01 -0.04,0.02 -0.05,0l0 0z"/>
    <path class="fil1 str0" d="M1.27 -0.58c-0.12,0.03 -0.24,-0.09 -0.21,-0.22 0.12,-0.02 0.24,0.1 0.21,0.22l0 0z"/>
    <path class="fil1 str0" d="M1.59 -0.8c0.03,0.12 -0.08,0.24 -0.2,0.22 -0.01,0 -0.01,0 -0.01,0 -0.01,-0.01 -0.01,-0.06 0,-0.08 0.02,-0.09 0.12,-0.15 0.21,-0.14l0 0z"/>
    <path class="fil1 str0" d="M1.89 -0.46l-0.01 -0.02 0 -0.21c0,-0.01 -0.01,-0.02 -0.02,-0.03 -0.06,-0.09 -0.04,-0.21 0.05,-0.27 0.08,0.06 0.11,0.18 0.05,0.26 0,0.01 -0.02,0.04 -0.02,0.04l0 0.21 -0.01 0.02c-0.01,0.01 -0.03,0.02 -0.04,0l0 0z"/>
    <path class="fil1 str0" d="M1.86 -0.58c-0.12,0.03 -0.25,-0.09 -0.22,-0.22 0.13,-0.02 0.24,0.1 0.22,0.22l0 0z"/>
    <path class="fil1 str0" d="M2.18 -0.8c0.02,0.12 -0.09,0.24 -0.21,0.22 0,0 -0.01,0 -0.01,0 -0.01,-0.01 0,-0.06 0,-0.08 0.03,-0.09 0.12,-0.15 0.22,-0.14l0 0z"/>
    <path class="fil1 str0" d="M2.47 -0.46l0 -0.02 0 -0.21c0,-0.01 -0.02,-0.02 -0.02,-0.03 -0.06,-0.09 -0.05,-0.21 0.05,-0.27 0.08,0.06 0.1,0.18 0.05,0.26 0,0.01 -0.03,0.04 -0.03,0.04l0 0.21 0 0.02c-0.01,0.01 -0.04,0.02 -0.05,0l0 0z"/>
    <path class="fil1 str0" d="M2.44 -0.58c-0.12,0.03 -0.24,-0.09 -0.21,-0.22 0.12,-0.02 0.24,0.1 0.21,0.22l0 0z"/>
    <path class="fil1 str0" d="M2.76 -0.8c0.03,0.12 -0.08,0.24 -0.2,0.22 -0.01,0 -0.01,0 -0.01,0 -0.01,-0.01 -0.01,-0.06 0,-0.08 0.02,-0.09 0.12,-0.15 0.21,-0.14l0 0z"/>
    <path class="fil1 str0" d="M3.06 -0.46l-0.01 -0.02 0 -0.21c0,-0.01 -0.01,-0.02 -0.02,-0.03 -0.06,-0.09 -0.04,-0.21 0.05,-0.27 0.08,0.06 0.11,0.18 0.06,0.26 -0.01,0.01 -0.03,0.04 -0.03,0.04l0 0.21 -0.01 0.02c-0.01,0.01 -0.03,0.02 -0.04,0l0 0z"/>
    <path class="fil1 str0" d="M3.03 -0.58c-0.12,0.03 -0.25,-0.09 -0.22,-0.22 0.13,-0.02 0.24,0.1 0.22,0.22l0 0z"/>
    <path class="fil1 str0" d="M3.35 -0.8c0.02,0.12 -0.08,0.24 -0.21,0.22 0,0 -0.01,0 -0.01,0 -0.01,-0.01 0,-0.06 0,-0.08 0.03,-0.09 0.12,-0.15 0.22,-0.14l0 0z"/>
    <path class="fil1 str0" d="M3.64 -0.46l0 -0.02 0 -0.21c0,-0.01 -0.02,-0.02 -0.02,-0.03 -0.06,-0.09 -0.05,-0.21 0.05,-0.27 0.08,0.06 0.1,0.18 0.05,0.26 0,0.01 -0.03,0.04 -0.03,0.04l0 0.21 0 0.02c-0.01,0.01 -0.04,0.02 -0.05,0l0 0z"/>
    <path class="fil1 str0" d="M3.61 -0.58c-0.12,0.03 -0.24,-0.09 -0.21,-0.22 0.12,-0.02 0.24,0.1 0.21,0.22l0 0z"/>
    <path class="fil1 str0" d="M3.93 -0.8c0.03,0.12 -0.08,0.24 -0.2,0.22 0,0 -0.01,0 -0.01,0 -0.01,-0.01 -0.01,-0.06 0,-0.08 0.02,-0.09 0.12,-0.15 0.21,-0.14l0 0z"/>
    <path class="fil1 str0" d="M-1.92 -0.01l0 -0.02 0 -0.21c0,-0.01 -0.02,-0.02 -0.02,-0.03 -0.06,-0.09 -0.05,-0.21 0.04,-0.27 0.09,0.06 0.11,0.17 0.06,0.26 -0.01,0.01 -0.03,0.04 -0.03,0.04l0 0.21 0 0.02c-0.01,0.01 -0.04,0.01 -0.05,0l0 0z"/>
    <path class="fil1 str0" d="M-1.95 -0.13c-0.12,0.03 -0.24,-0.09 -0.21,-0.22 0.12,-0.02 0.24,0.1 0.21,0.22l0 0z"/>
    <path class="fil1 str0" d="M-1.63 -0.35c0.03,0.12 -0.08,0.24 -0.2,0.22 -0.01,0 -0.01,0 -0.01,0 -0.01,-0.01 -0.01,-0.06 0,-0.08 0.02,-0.09 0.12,-0.15 0.21,-0.14l0 0z"/>
    <path class="fil1 str0" d="M-1.33 -0.01l-0.01 -0.02 0 -0.21c0,-0.01 -0.01,-0.02 -0.02,-0.03 -0.06,-0.09 -0.04,-0.21 0.05,-0.27 0.08,0.06 0.11,0.17 0.05,0.26 0,0.01 -0.02,0.04 -0.02,0.04l0 0.21 -0.01 0.02c-0.01,0.01 -0.03,0.01 -0.04,0l0 0z"/>
    <path class="fil1 str0" d="M-1.36 -0.13c-0.12,0.03 -0.25,-0.09 -0.22,-0.22 0.13,-0.02 0.24,0.1 0.22,0.22l0 0z"/>
    <path class="fil1 str0" d="M-1.04 -0.35c0.02,0.12 -0.08,0.24 -0.21,0.22 0,0 -0.01,0 -0.01,0 -0.01,-0.01 0,-0.06 0,-0.08 0.03,-0.09 0.12,-0.15 0.22,-0.14l0 0z"/>
    <path class="fil1 str0" d="M-0.75 -0.01l0 -0.02 0 -0.21c0,-0.01 -0.02,-0.02 -0.02,-0.03 -0.06,-0.09 -0.05,-0.21 0.05,-0.27 0.08,0.06 0.1,0.17 0.05,0.26 0,0.01 -0.03,0.04 -0.03,0.04l0 0.21 0 0.02c-0.01,0.01 -0.04,0.01 -0.05,0l0 0z"/>
    <path class="fil1 str0" d="M-0.78 -0.13c-0.12,0.03 -0.24,-0.09 -0.21,-0.22 0.12,-0.02 0.24,0.1 0.21,0.22l0 0z"/>
    <path class="fil1 str0" d="M-0.46 -0.35c0.03,0.12 -0.08,0.24 -0.2,0.22 -0.01,0 -0.01,0 -0.01,0 -0.01,-0.01 -0.01,-0.06 0,-0.08 0.02,-0.09 0.12,-0.15 0.21,-0.14l0 0z"/>
    <path class="fil1 str0" d="M-0.16 -0.01l-0.01 -0.02 0 -0.21c0,-0.01 -0.01,-0.02 -0.02,-0.03 -0.05,-0.09 -0.04,-0.21 0.05,-0.27 0.08,0.06 0.11,0.17 0.06,0.26 -0.01,0.01 -0.03,0.04 -0.03,0.04l0 0.21 -0.01 0.02c-0.01,0.01 -0.03,0.01 -0.04,0l0 0z"/>
    <path class="fil1 str0" d="M-0.19 -0.13c-0.12,0.03 -0.25,-0.09 -0.22,-0.22 0.13,-0.02 0.24,0.1 0.22,0.22l0 0z"/>
    <path class="fil1 str0" d="M0.13 -0.35c0.02,0.12 -0.08,0.24 -0.21,0.22 0,0 -0.01,0 -0.01,0 -0.01,-0.01 0,-0.06 0,-0.08 0.03,-0.09 0.12,-0.15 0.22,-0.14l0 0z"/>
    <path class="fil1 str0" d="M0.42 -0.01l0 -0.02 0 -0.21c0,-0.01 -0.02,-0.02 -0.02,-0.03 -0.06,-0.09 -0.05,-0.21 0.05,-0.27 0.08,0.06 0.1,0.17 0.05,0.26 0,0.01 -0.03,0.04 -0.03,0.04l0 0.21 0 0.02c-0.01,0.01 -0.04,0.01 -0.05,0l0 0z"/>
    <path class="fil1 str0" d="M0.39 -0.13c-0.12,0.03 -0.24,-0.09 -0.21,-0.22 0.12,-0.02 0.24,0.1 0.21,0.22l0 0z"/>
    <path class="fil1 str0" d="M0.71 -0.35c0.03,0.12 -0.08,0.24 -0.2,0.22 0,0 -0.01,0 -0.01,0 -0.01,-0.01 -0.01,-0.06 0,-0.08 0.02,-0.09 0.12,-0.15 0.21,-0.14l0 0z"/>
    <path class="fil1 str0" d="M1.01 -0.01l-0.01 -0.02 0 -0.21c0,-0.01 -0.01,-0.02 -0.02,-0.03 -0.05,-0.09 -0.04,-0.21 0.05,-0.27 0.08,0.06 0.11,0.17 0.06,0.26 -0.01,0.01 -0.03,0.04 -0.03,0.04l0 0.21 -0.01 0.02c-0.01,0.01 -0.03,0.01 -0.04,0l0 0z"/>
    <path class="fil1 str0" d="M0.98 -0.13c-0.12,0.03 -0.24,-0.09 -0.22,-0.22 0.13,-0.02 0.25,0.1 0.22,0.22l0 0z"/>
    <path class="fil1 str0" d="M1.3 -0.35c0.02,0.12 -0.08,0.24 -0.21,0.22 0,0 0,0 -0.01,0 -0.01,-0.01 0,-0.06 0,-0.08 0.03,-0.09 0.12,-0.15 0.22,-0.14l0 0z"/>
    <path class="fil1 str0" d="M1.59 -0.01l0 -0.02 0 -0.21c0,-0.01 -0.02,-0.02 -0.02,-0.03 -0.06,-0.09 -0.04,-0.21 0.05,-0.27 0.08,0.06 0.1,0.17 0.05,0.26 0,0.01 -0.03,0.04 -0.03,0.04l0 0.21 0 0.02c-0.01,0.01 -0.04,0.01 -0.05,0l0 0z"/>
    <path class="fil1 str0" d="M1.56 -0.13c-0.12,0.03 -0.24,-0.09 -0.21,-0.22 0.12,-0.02 0.24,0.1 0.21,0.22l0 0z"/>
    <path class="fil1 str0" d="M1.88 -0.35c0.03,0.12 -0.08,0.24 -0.2,0.22 0,0 -0.01,0 -0.01,0 -0.01,-0.01 0,-0.06 0,-0.08 0.02,-0.09 0.12,-0.15 0.21,-0.14l0 0z"/>
    <path class="fil1 str0" d="M2.18 -0.01l-0.01 -0.02 0 -0.21c0,-0.01 -0.01,-0.02 -0.02,-0.03 -0.05,-0.09 -0.04,-0.21 0.05,-0.27 0.09,0.06 0.11,0.17 0.06,0.26 -0.01,0.01 -0.03,0.04 -0.03,0.04l0 0.21 -0.01 0.02c-0.01,0.01 -0.03,0.01 -0.04,0l0 0z"/>
    <path class="fil1 str0" d="M2.15 -0.13c-0.12,0.03 -0.24,-0.09 -0.21,-0.22 0.12,-0.02 0.24,0.1 0.21,0.22l0 0z"/>
    <path class="fil1 str0" d="M2.47 -0.35c0.02,0.12 -0.08,0.24 -0.2,0.22 -0.01,0 -0.01,0 -0.02,0 -0.01,-0.01 0,-0.06 0,-0.08 0.03,-0.09 0.12,-0.15 0.22,-0.14l0 0z"/>
    <path class="fil1 str0" d="M2.76 -0.01l0 -0.02 0 -0.21c0,-0.01 -0.02,-0.02 -0.02,-0.03 -0.06,-0.09 -0.04,-0.21 0.05,-0.27 0.08,0.06 0.1,0.17 0.05,0.26 0,0.01 -0.03,0.04 -0.03,0.04l0 0.21 0 0.02c-0.01,0.01 -0.04,0.01 -0.05,0l0 0z"/>
    <path class="fil1 str0" d="M2.74 -0.13c-0.13,0.03 -0.25,-0.09 -0.22,-0.22 0.12,-0.02 0.24,0.1 0.22,0.22l0 0z"/>
    <path class="fil1 str0" d="M3.05 -0.35c0.03,0.12 -0.08,0.24 -0.2,0.22 0,0 -0.01,0 -0.01,0 -0.01,-0.01 0,-0.06 0,-0.08 0.02,-0.09 0.12,-0.15 0.21,-0.14l0 0z"/>
    <path class="fil1 str0" d="M3.35 -0.01l-0.01 -0.02 0 -0.21c0,-0.01 -0.01,-0.02 -0.01,-0.03 -0.06,-0.09 -0.05,-0.21 0.04,-0.27 0.09,0.06 0.11,0.17 0.06,0.26 -0.01,0.01 -0.03,0.04 -0.03,0.04l0 0.21 -0.01 0.02c0,0.01 -0.03,0.01 -0.04,0l0 0z"/>
    <path class="fil1 str0" d="M3.32 -0.13c-0.12,0.03 -0.24,-0.09 -0.21,-0.22 0.12,-0.02 0.24,0.1 0.21,0.22l0 0z"/>
    <path class="fil1 str0" d="M3.64 -0.35c0.02,0.12 -0.08,0.24 -0.2,0.22 -0.01,0 -0.01,0 -0.02,0 -0.01,-0.01 0,-0.06 0.01,-0.08 0.02,-0.09 0.11,-0.15 0.21,-0.14l0 0z"/>
    <path class="fil1 str0" d="M-1.63 0.46l0 -0.02 0 -0.21c0,-0.01 -0.02,-0.02 -0.02,-0.03 -0.06,-0.09 -0.04,-0.21 0.05,-0.27 0.08,0.06 0.1,0.17 0.05,0.26 0,0.01 -0.03,0.04 -0.03,0.04l0 0.21 0 0.01c-0.01,0.02 -0.04,0.02 -0.05,0.01l0 0z"/>
    <path class="fil1 str0" d="M-1.65 0.34c-0.13,0.03 -0.25,-0.09 -0.22,-0.22 0.12,-0.02 0.24,0.1 0.22,0.22l0 0z"/>
    <path class="fil1 str0" d="M-1.34 0.12c0.03,0.12 -0.08,0.24 -0.2,0.22 0,0 -0.01,0 -0.01,0 -0.01,-0.01 0,-0.06 0,-0.08 0.02,-0.09 0.12,-0.15 0.21,-0.14l0 0z"/>
    <path class="fil1 str0" d="M-1.04 0.46l-0.01 -0.02 0 -0.21c0,-0.01 -0.01,-0.02 -0.01,-0.03 -0.06,-0.09 -0.05,-0.21 0.04,-0.27 0.09,0.06 0.11,0.17 0.06,0.26 -0.01,0.01 -0.03,0.04 -0.03,0.04l0 0.21 -0.01 0.01c0,0.02 -0.03,0.02 -0.04,0.01l0 0z"/>
    <path class="fil1 str0" d="M-1.07 0.34c-0.12,0.03 -0.24,-0.09 -0.21,-0.22 0.12,-0.02 0.24,0.1 0.21,0.22l0 0z"/>
    <path class="fil1 str0" d="M-0.75 0.12c0.02,0.12 -0.08,0.24 -0.2,0.22 -0.01,0 -0.01,0 -0.02,0 -0.01,-0.01 0,-0.06 0.01,-0.08 0.02,-0.09 0.11,-0.15 0.21,-0.14l0 0z"/>
    <path class="fil1 str0" d="M-0.45 0.46l-0.01 -0.02 0 -0.21c0,-0.01 -0.02,-0.02 -0.02,-0.03 -0.06,-0.09 -0.04,-0.21 0.05,-0.27 0.08,0.06 0.1,0.17 0.05,0.26 0,0.01 -0.03,0.04 -0.03,0.04l0 0.21 0 0.01c-0.01,0.02 -0.04,0.02 -0.04,0.01l0 0z"/>
    <path class="fil1 str0" d="M-0.48 0.34c-0.13,0.03 -0.25,-0.09 -0.22,-0.22 0.12,-0.02 0.24,0.1 0.22,0.22l0 0z"/>
    <path class="fil1 str0" d="M-0.17 0.12c0.03,0.12 -0.08,0.24 -0.2,0.22 0,0 -0.01,0 -0.01,0 -0.01,-0.01 0,-0.06 0,-0.08 0.02,-0.09 0.12,-0.15 0.21,-0.14l0 0z"/>
    <path class="fil1 str0" d="M0.13 0.46l-0.01 -0.02 0 -0.21c0,-0.01 -0.01,-0.02 -0.01,-0.03 -0.06,-0.09 -0.05,-0.21 0.04,-0.27 0.09,0.06 0.11,0.17 0.06,0.26 -0.01,0.01 -0.03,0.04 -0.03,0.04l0 0.21 -0.01 0.01c0,0.02 -0.03,0.02 -0.04,0.01l0 0z"/>
    <path class="fil1 str0" d="M0.1 0.34c-0.12,0.03 -0.24,-0.09 -0.21,-0.22 0.12,-0.02 0.24,0.1 0.21,0.22l0 0z"/>
    <path class="fil1 str0" d="M0.42 0.12c0.03,0.12 -0.08,0.24 -0.2,0.22 -0.01,0 -0.01,0 -0.02,0 0,-0.01 0,-0.06 0.01,-0.08 0.02,-0.09 0.12,-0.15 0.21,-0.14l0 0z"/>
    <path class="fil1 str0" d="M0.72 0.46l-0.01 -0.02 0 -0.21c0,-0.01 -0.02,-0.02 -0.02,-0.03 -0.06,-0.09 -0.04,-0.21 0.05,-0.27 0.08,0.06 0.11,0.17 0.05,0.26 0,0.01 -0.02,0.04 -0.02,0.04l0 0.21 -0.01 0.01c-0.01,0.02 -0.03,0.02 -0.04,0.01l0 0z"/>
    <path class="fil1 str0" d="M0.69 0.34c-0.13,0.03 -0.25,-0.09 -0.22,-0.22 0.13,-0.02 0.24,0.1 0.22,0.22l0 0z"/>
    <path class="fil1 str0" d="M1.01 0.12c0.02,0.12 -0.09,0.24 -0.21,0.22 0,0 -0.01,0 -0.01,0 -0.01,-0.01 0,-0.06 0,-0.08 0.02,-0.09 0.12,-0.15 0.22,-0.14l0 0z"/>
    <path class="fil1 str0" d="M1.3 0.46l0 -0.02 0 -0.21c0,-0.01 -0.02,-0.02 -0.02,-0.03 -0.06,-0.09 -0.05,-0.21 0.04,-0.27 0.09,0.06 0.11,0.17 0.06,0.26 -0.01,0.01 -0.03,0.04 -0.03,0.04l0 0.21 0 0.01c-0.01,0.02 -0.04,0.02 -0.05,0.01l0 0z"/>
    <path class="fil1 str0" d="M1.27 0.34c-0.12,0.03 -0.24,-0.09 -0.21,-0.22 0.12,-0.02 0.24,0.1 0.21,0.22l0 0z"/>
    <path class="fil1 str0" d="M1.59 0.12c0.03,0.12 -0.08,0.24 -0.2,0.22 -0.01,0 -0.01,0 -0.01,0 -0.01,-0.01 -0.01,-0.06 0,-0.08 0.02,-0.09 0.12,-0.15 0.21,-0.14l0 0z"/>
    <path class="fil1 str0" d="M1.89 0.46l-0.01 -0.02 0 -0.21c0,-0.01 -0.01,-0.02 -0.02,-0.03 -0.06,-0.09 -0.04,-0.21 0.05,-0.27 0.08,0.06 0.11,0.17 0.05,0.26 0,0.01 -0.02,0.04 -0.02,0.04l0 0.21 -0.01 0.01c-0.01,0.02 -0.03,0.02 -0.04,0.01l0 0z"/>
    <path class="fil1 str0" d="M1.86 0.34c-0.12,0.03 -0.25,-0.09 -0.22,-0.22 0.13,-0.02 0.24,0.1 0.22,0.22l0 0z"/>
    <path class="fil1 str0" d="M2.18 0.12c0.02,0.12 -0.09,0.24 -0.21,0.22 0,0 -0.01,0 -0.01,0 -0.01,-0.01 0,-0.06 0,-0.08 0.03,-0.09 0.12,-0.15 0.22,-0.14l0 0z"/>
    <path class="fil1 str0" d="M2.47 0.46l0 -0.02 0 -0.21c0,-0.01 -0.02,-0.02 -0.02,-0.03 -0.06,-0.09 -0.05,-0.21 0.05,-0.27 0.08,0.06 0.1,0.17 0.05,0.26 0,0.01 -0.03,0.04 -0.03,0.04l0 0.21 0 0.01c-0.01,0.02 -0.04,0.02 -0.05,0.01l0 0z"/>
    <path class="fil1 str0" d="M2.44 0.34c-0.12,0.03 -0.24,-0.09 -0.21,-0.22 0.12,-0.02 0.24,0.1 0.21,0.22l0 0z"/>
    <path class="fil1 str0" d="M2.76 0.12c0.03,0.12 -0.08,0.24 -0.2,0.22 -0.01,0 -0.01,0 -0.01,0 -0.01,-0.01 -0.01,-0.06 0,-0.08 0.02,-0.09 0.12,-0.15 0.21,-0.14l0 0z"/>
    <path class="fil1 str0" d="M3.06 0.46l-0.01 -0.02 0 -0.21c0,-0.01 -0.01,-0.02 -0.02,-0.03 -0.06,-0.09 -0.04,-0.21 0.05,-0.27 0.08,0.06 0.11,0.17 0.06,0.26 -0.01,0.01 -0.03,0.04 -0.03,0.04l0 0.21 -0.01 0.01c-0.01,0.02 -0.03,0.02 -0.04,0.01l0 0z"/>
    <path class="fil1 str0" d="M3.03 0.34c-0.12,0.03 -0.25,-0.09 -0.22,-0.22 0.13,-0.02 0.24,0.1 0.22,0.22l0 0z"/>
    <path class="fil1 str0" d="M3.35 0.12c0.02,0.12 -0.08,0.24 -0.21,0.22 0,0 -0.01,0 -0.01,0 -0.01,-0.01 0,-0.06 0,-0.08 0.03,-0.09 0.12,-0.15 0.22,-0.14l0 0z"/>
    <path class="fil1 str0" d="M3.64 0.46l0 -0.02 0 -0.21c0,-0.01 -0.02,-0.02 -0.02,-0.03 -0.06,-0.09 -0.05,-0.21 0.05,-0.27 0.08,0.06 0.1,0.17 0.05,0.26 0,0.01 -0.03,0.04 -0.03,0.04l0 0.21 0 0.01c-0.01,0.02 -0.04,0.02 -0.05,0.01l0 0z"/>
    <path class="fil1 str0" d="M3.61 0.34c-0.12,0.03 -0.24,-0.09 -0.21,-0.22 0.12,-0.02 0.24,0.1 0.21,0.22l0 0z"/>
    <path class="fil1 str0" d="M3.93 0.12c0.03,0.12 -0.08,0.24 -0.2,0.22 0,0 -0.01,0 -0.01,0 -0.01,-0.01 -0.01,-0.06 0,-0.08 0.02,-0.09 0.12,-0.15 0.21,-0.14l0 0z"/>
    <path class="fil1 str0" d="M-1.92 0.9l0 -0.01 0 -0.22c0,0 -0.02,-0.01 -0.02,-0.02 -0.06,-0.09 -0.05,-0.21 0.04,-0.27 0.09,0.06 0.11,0.17 0.06,0.26 -0.01,0.01 -0.03,0.04 -0.03,0.04l0 0.21 0 0.01c-0.01,0.02 -0.04,0.02 -0.05,0l0 0z"/>
    <path class="fil1 str0" d="M-1.95 0.79c-0.12,0.03 -0.24,-0.1 -0.21,-0.22 0.12,-0.02 0.24,0.1 0.21,0.22l0 0z"/>
    <path class="fil1 str0" d="M-1.63 0.57c0.03,0.12 -0.08,0.24 -0.2,0.22 -0.01,0 -0.01,0 -0.01,0 -0.01,-0.01 -0.01,-0.06 0,-0.08 0.02,-0.09 0.12,-0.16 0.21,-0.14l0 0z"/>
    <path class="fil1 str0" d="M-1.33 0.9l-0.01 -0.01 0 -0.22c0,0 -0.01,-0.01 -0.02,-0.02 -0.06,-0.09 -0.04,-0.21 0.05,-0.27 0.08,0.06 0.11,0.17 0.05,0.26 0,0.01 -0.02,0.04 -0.02,0.04l0 0.21 -0.01 0.01c-0.01,0.02 -0.03,0.02 -0.04,0l0 0z"/>
    <path class="fil1 str0" d="M-1.36 0.79c-0.12,0.03 -0.25,-0.1 -0.22,-0.22 0.13,-0.02 0.24,0.1 0.22,0.22l0 0z"/>
    <path class="fil1 str0" d="M-1.04 0.57c0.02,0.12 -0.08,0.24 -0.21,0.22 0,0 -0.01,0 -0.01,0 -0.01,-0.01 0,-0.06 0,-0.08 0.03,-0.09 0.12,-0.16 0.22,-0.14l0 0z"/>
    <path class="fil1 str0" d="M-0.75 0.9l0 -0.01 0 -0.22c0,0 -0.02,-0.01 -0.02,-0.02 -0.06,-0.09 -0.05,-0.21 0.05,-0.27 0.08,0.06 0.1,0.17 0.05,0.26 0,0.01 -0.03,0.04 -0.03,0.04l0 0.21 0 0.01c-0.01,0.02 -0.04,0.02 -0.05,0l0 0z"/>
    <path class="fil1 str0" d="M-0.78 0.79c-0.12,0.03 -0.24,-0.1 -0.21,-0.22 0.12,-0.02 0.24,0.1 0.21,0.22l0 0z"/>
    <path class="fil1 str0" d="M-0.46 0.57c0.03,0.12 -0.08,0.24 -0.2,0.22 -0.01,0 -0.01,0 -0.01,0 -0.01,-0.01 -0.01,-0.06 0,-0.08 0.02,-0.09 0.12,-0.16 0.21,-0.14l0 0z"/>
    <path class="fil1 str0" d="M-0.16 0.9l-0.01 -0.01 0 -0.22c0,0 -0.01,-0.01 -0.02,-0.02 -0.05,-0.09 -0.04,-0.21 0.05,-0.27 0.08,0.06 0.11,0.17 0.06,0.26 -0.01,0.01 -0.03,0.04 -0.03,0.04l0 0.21 -0.01 0.01c-0.01,0.02 -0.03,0.02 -0.04,0l0 0z"/>
    <path class="fil1 str0" d="M-0.19 0.79c-0.12,0.03 -0.25,-0.1 -0.22,-0.22 0.13,-0.02 0.24,0.1 0.22,0.22l0 0z"/>
    <path class="fil1 str0" d="M0.13 0.57c0.02,0.12 -0.08,0.24 -0.21,0.22 0,0 -0.01,0 -0.01,0 -0.01,-0.01 0,-0.06 0,-0.08 0.03,-0.09 0.12,-0.16 0.22,-0.14l0 0z"/>
    <path class="fil1 str0" d="M0.42 0.9l0 -0.01 0 -0.22c0,0 -0.02,-0.01 -0.02,-0.02 -0.06,-0.09 -0.05,-0.21 0.05,-0.27 0.08,0.06 0.1,0.17 0.05,0.26 0,0.01 -0.03,0.04 -0.03,0.04l0 0.21 0 0.01c-0.01,0.02 -0.04,0.02 -0.05,0l0 0z"/>
    <path class="fil1 str0" d="M0.39 0.79c-0.12,0.03 -0.24,-0.1 -0.21,-0.22 0.12,-0.02 0.24,0.1 0.21,0.22zm0 0c0,0 0,0 0,0z"/>
    <path class="fil1 str0" d="M0.71 0.57c0.03,0.12 -0.08,0.24 -0.2,0.22 0,0 -0.01,0 -0.01,0 -0.01,-0.01 -0.01,-0.06 0,-0.08 0.02,-0.09 0.12,-0.16 0.21,-0.14l0 0z"/>
    <path class="fil1 str0" d="M1.01 0.9l-0.01 -0.01 0 -0.22c0,0 -0.01,-0.01 -0.02,-0.02 -0.05,-0.09 -0.04,-0.21 0.05,-0.27 0.08,0.06 0.11,0.17 0.06,0.26 -0.01,0.01 -0.03,0.04 -0.03,0.04l0 0.21 -0.01 0.01c-0.01,0.02 -0.03,0.02 -0.04,0l0 0z"/>
    <path class="fil1 str0" d="M0.98 0.79c-0.12,0.03 -0.24,-0.1 -0.22,-0.22 0.13,-0.02 0.25,0.1 0.22,0.22l0 0z"/>
    <path class="fil1 str0" d="M1.3 0.57c0.02,0.12 -0.08,0.24 -0.21,0.22 0,0 0,0 -0.01,0 -0.01,-0.01 0,-0.06 0,-0.08 0.03,-0.09 0.12,-0.16 0.22,-0.14l0 0z"/>
    <path class="fil1 str0" d="M1.59 0.9l0 -0.01 0 -0.22c0,0 -0.02,-0.01 -0.02,-0.02 -0.06,-0.09 -0.04,-0.21 0.05,-0.27 0.08,0.06 0.1,0.17 0.05,0.26 0,0.01 -0.03,0.04 -0.03,0.04l0 0.21 0 0.01c-0.01,0.02 -0.04,0.02 -0.05,0l0 0z"/>
    <path class="fil1 str0" d="M1.56 0.79c-0.12,0.03 -0.24,-0.1 -0.21,-0.22 0.12,-0.02 0.24,0.1 0.21,0.22l0 0z"/>
    <path class="fil1 str0" d="M1.88 0.57c0.03,0.12 -0.08,0.24 -0.2,0.22 0,0 -0.01,0 -0.01,0 -0.01,-0.01 0,-0.06 0,-0.08 0.02,-0.09 0.12,-0.16 0.21,-0.14l0 0z"/>
    <path class="fil1 str0" d="M2.18 0.9l-0.01 -0.01 0 -0.22c0,0 -0.01,-0.01 -0.02,-0.02 -0.05,-0.09 -0.04,-0.21 0.05,-0.27 0.09,0.06 0.11,0.17 0.06,0.26 -0.01,0.01 -0.03,0.04 -0.03,0.04l0 0.21 -0.01 0.01c-0.01,0.02 -0.03,0.02 -0.04,0l0 0z"/>
    <path class="fil1 str0" d="M2.15 0.79c-0.12,0.03 -0.24,-0.1 -0.21,-0.22 0.12,-0.02 0.24,0.1 0.21,0.22l0 0z"/>
    <path class="fil1 str0" d="M2.47 0.57c0.02,0.12 -0.08,0.24 -0.2,0.22 -0.01,0 -0.01,0 -0.02,0 -0.01,-0.01 0,-0.06 0,-0.08 0.03,-0.09 0.12,-0.16 0.22,-0.14l0 0z"/>
    <path class="fil1 str0" d="M2.76 0.9l0 -0.01 0 -0.22c0,0 -0.02,-0.01 -0.02,-0.02 -0.06,-0.09 -0.04,-0.21 0.05,-0.27 0.08,0.06 0.1,0.17 0.05,0.26 0,0.01 -0.03,0.04 -0.03,0.04l0 0.21 0 0.01c-0.01,0.02 -0.04,0.02 -0.05,0l0 0z"/>
    <path class="fil1 str0" d="M2.74 0.79c-0.13,0.03 -0.25,-0.1 -0.22,-0.22 0.12,-0.02 0.24,0.1 0.22,0.22l0 0z"/>
    <path class="fil1 str0" d="M3.05 0.57c0.03,0.12 -0.08,0.24 -0.2,0.22 0,0 -0.01,0 -0.01,0 -0.01,-0.01 0,-0.06 0,-0.08 0.02,-0.09 0.12,-0.16 0.21,-0.14l0 0z"/>
    <path class="fil1 str0" d="M3.35 0.9l-0.01 -0.01 0 -0.22c0,0 -0.01,-0.01 -0.01,-0.02 -0.06,-0.09 -0.05,-0.21 0.04,-0.27 0.09,0.06 0.11,0.17 0.06,0.26 -0.01,0.01 -0.03,0.04 -0.03,0.04l0 0.21 -0.01 0.01c0,0.02 -0.03,0.02 -0.04,0l0 0z"/>
    <path class="fil1 str0" d="M3.32 0.79c-0.12,0.03 -0.24,-0.1 -0.21,-0.22 0.12,-0.02 0.24,0.1 0.21,0.22l0 0z"/>
    <path class="fil1 str0" d="M3.64 0.57c0.02,0.12 -0.08,0.24 -0.2,0.22 -0.01,0 -0.01,0 -0.02,0 -0.01,-0.01 0,-0.06 0.01,-0.08 0.02,-0.09 0.11,-0.16 0.21,-0.14l0 0z"/>
    <path class="fil1 str0" d="M-1.63 1.37l0 -0.01 0 -0.22c0,0 -0.02,-0.01 -0.02,-0.02 -0.06,-0.09 -0.04,-0.21 0.05,-0.27 0.08,0.06 0.1,0.17 0.05,0.26 0,0.01 -0.03,0.03 -0.03,0.04l0 0.21 0 0.01c-0.01,0.02 -0.04,0.02 -0.05,0l0 0z"/>
    <path class="fil1 str0" d="M-1.65 1.26c-0.13,0.03 -0.25,-0.1 -0.22,-0.22 0.12,-0.02 0.24,0.09 0.22,0.22l0 0z"/>
    <path class="fil1 str0" d="M-1.34 1.04c0.03,0.12 -0.08,0.24 -0.2,0.22 0,0 -0.01,0 -0.01,0 -0.01,-0.01 0,-0.06 0,-0.08 0.02,-0.09 0.12,-0.16 0.21,-0.14l0 0z"/>
    <path class="fil1 str0" d="M-1.04 1.37l-0.01 -0.01 0 -0.22c0,0 -0.01,-0.01 -0.01,-0.02 -0.06,-0.09 -0.05,-0.21 0.04,-0.27 0.09,0.06 0.11,0.17 0.06,0.26 -0.01,0.01 -0.03,0.03 -0.03,0.04l0 0.21 -0.01 0.01c0,0.02 -0.03,0.02 -0.04,0l0 0z"/>
    <path class="fil1 str0" d="M-1.07 1.26c-0.12,0.03 -0.24,-0.1 -0.21,-0.22 0.12,-0.02 0.24,0.09 0.21,0.22l0 0z"/>
    <path class="fil1 str0" d="M-0.75 1.04c0.02,0.12 -0.08,0.24 -0.2,0.22 -0.01,0 -0.01,0 -0.02,0 -0.01,-0.01 0,-0.06 0.01,-0.08 0.02,-0.09 0.11,-0.16 0.21,-0.14l0 0z"/>
    <path class="fil1 str0" d="M-0.45 1.37l-0.01 -0.01 0 -0.22c0,0 -0.02,-0.01 -0.02,-0.02 -0.06,-0.09 -0.04,-0.21 0.05,-0.27 0.08,0.06 0.1,0.17 0.05,0.26 0,0.01 -0.03,0.03 -0.03,0.04l0 0.21 0 0.01c-0.01,0.02 -0.04,0.02 -0.04,0l0 0z"/>
    <path class="fil1 str0" d="M-0.48 1.26c-0.13,0.03 -0.25,-0.1 -0.22,-0.22 0.12,-0.02 0.24,0.09 0.22,0.22l0 0z"/>
    <path class="fil1 str0" d="M-0.17 1.04c0.03,0.12 -0.08,0.24 -0.2,0.22 0,0 -0.01,0 -0.01,0 -0.01,-0.01 0,-0.06 0,-0.08 0.02,-0.09 0.12,-0.16 0.21,-0.14l0 0z"/>
    <path class="fil1 str0" d="M0.13 1.37l-0.01 -0.01 0 -0.22c0,0 -0.01,-0.01 -0.01,-0.02 -0.06,-0.09 -0.05,-0.21 0.04,-0.27 0.09,0.06 0.11,0.17 0.06,0.26 -0.01,0.01 -0.03,0.03 -0.03,0.04l0 0.21 -0.01 0.01c0,0.02 -0.03,0.02 -0.04,0l0 0z"/>
    <path class="fil1 str0" d="M0.1 1.26c-0.12,0.03 -0.24,-0.1 -0.21,-0.22 0.12,-0.02 0.24,0.09 0.21,0.22l0 0z"/>
    <path class="fil1 str0" d="M0.42 1.04c0.03,0.12 -0.08,0.24 -0.2,0.22 -0.01,0 -0.01,0 -0.02,0 0,-0.01 0,-0.06 0.01,-0.08 0.02,-0.09 0.12,-0.16 0.21,-0.14l0 0z"/>
    <path class="fil1 str0" d="M0.72 1.37l-0.01 -0.01 0 -0.22c0,0 -0.02,-0.01 -0.02,-0.02 -0.06,-0.09 -0.04,-0.21 0.05,-0.27 0.08,0.06 0.11,0.17 0.05,0.26 0,0.01 -0.02,0.03 -0.02,0.04l0 0.21 -0.01 0.01c-0.01,0.02 -0.03,0.02 -0.04,0l0 0z"/>
    <path class="fil1 str0" d="M0.69 1.26c-0.12,0.03 -0.25,-0.1 -0.22,-0.22 0.13,-0.02 0.24,0.09 0.22,0.22l0 0z"/>
    <path class="fil1 str0" d="M1.01 1.04c0.02,0.12 -0.09,0.24 -0.21,0.22 0,0 -0.01,0 -0.01,0 -0.01,-0.01 0,-0.06 0,-0.08 0.02,-0.09 0.12,-0.16 0.22,-0.14l0 0z"/>
    <path class="fil1 str0" d="M1.3 1.37l0 -0.01 0 -0.22c0,0 -0.02,-0.01 -0.02,-0.02 -0.06,-0.09 -0.05,-0.21 0.04,-0.27 0.09,0.06 0.11,0.17 0.06,0.26 -0.01,0.01 -0.03,0.03 -0.03,0.04l0 0.21 0 0.01c-0.01,0.02 -0.04,0.02 -0.05,0l0 0z"/>
    <path class="fil1 str0" d="M1.27 1.26c-0.12,0.03 -0.24,-0.1 -0.21,-0.22 0.12,-0.02 0.24,0.09 0.21,0.22l0 0z"/>
    <path class="fil1 str0" d="M1.59 1.04c0.03,0.12 -0.08,0.24 -0.2,0.22 -0.01,0 -0.01,0 -0.01,0 -0.01,-0.01 -0.01,-0.06 0,-0.08 0.02,-0.09 0.12,-0.16 0.21,-0.14l0 0z"/>
    <path class="fil1 str0" d="M1.89 1.37l-0.01 -0.01 0 -0.22c0,0 -0.01,-0.01 -0.02,-0.02 -0.06,-0.09 -0.04,-0.21 0.05,-0.27 0.08,0.06 0.11,0.17 0.05,0.26 0,0.01 -0.02,0.03 -0.02,0.04l0 0.21 -0.01 0.01c-0.01,0.02 -0.03,0.02 -0.04,0l0 0z"/>
    <path class="fil1 str0" d="M1.86 1.26c-0.12,0.03 -0.25,-0.1 -0.22,-0.22 0.13,-0.02 0.24,0.09 0.22,0.22l0 0z"/>
    <path class="fil1 str0" d="M2.18 1.04c0.02,0.12 -0.09,0.24 -0.21,0.22 0,0 -0.01,0 -0.01,0 -0.01,-0.01 0,-0.06 0,-0.08 0.03,-0.09 0.12,-0.16 0.22,-0.14l0 0z"/>
    <path class="fil1 str0" d="M2.47 1.37l0 -0.01 0 -0.22c0,0 -0.02,-0.01 -0.02,-0.02 -0.06,-0.09 -0.05,-0.21 0.05,-0.27 0.08,0.06 0.1,0.17 0.05,0.26 0,0.01 -0.03,0.03 -0.03,0.04l0 0.21 0 0.01c-0.01,0.02 -0.04,0.02 -0.05,0l0 0z"/>
    <path class="fil1 str0" d="M2.44 1.26c-0.12,0.03 -0.24,-0.1 -0.21,-0.22 0.12,-0.02 0.24,0.09 0.21,0.22l0 0z"/>
    <path class="fil1 str0" d="M2.76 1.04c0.03,0.12 -0.08,0.24 -0.2,0.22 -0.01,0 -0.01,0 -0.01,0 -0.01,-0.01 -0.01,-0.06 0,-0.08 0.02,-0.09 0.12,-0.16 0.21,-0.14l0 0z"/>
    <path class="fil1 str0" d="M3.06 1.37l-0.01 -0.01 0 -0.22c0,0 -0.01,-0.01 -0.02,-0.02 -0.06,-0.09 -0.04,-0.21 0.05,-0.27 0.08,0.06 0.11,0.17 0.06,0.26 -0.01,0.01 -0.03,0.03 -0.03,0.04l0 0.21 -0.01 0.01c-0.01,0.02 -0.03,0.02 -0.04,0l0 0z"/>
    <path class="fil1 str0" d="M3.03 1.26c-0.12,0.03 -0.25,-0.1 -0.22,-0.22 0.13,-0.02 0.24,0.09 0.22,0.22l0 0z"/>
    <path class="fil1 str0" d="M3.35 1.04c0.02,0.12 -0.08,0.24 -0.21,0.22 0,0 -0.01,0 -0.01,0 -0.01,-0.01 0,-0.06 0,-0.08 0.03,-0.09 0.12,-0.16 0.22,-0.14l0 0z"/>
    <path class="fil1 str0" d="M3.64 1.37l0 -0.01 0 -0.22c0,0 -0.02,-0.01 -0.02,-0.02 -0.06,-0.09 -0.05,-0.21 0.05,-0.27 0.08,0.06 0.1,0.17 0.05,0.26 0,0.01 -0.03,0.03 -0.03,0.04l0 0.21 0 0.01c-0.01,0.02 -0.04,0.02 -0.05,0l0 0z"/>
    <path class="fil1 str0" d="M3.61 1.26c-0.12,0.03 -0.24,-0.1 -0.21,-0.22 0.12,-0.02 0.24,0.09 0.21,0.22l0 0z"/>
    <path class="fil1 str0" d="M3.93 1.04c0.03,0.12 -0.08,0.24 -0.2,0.22 0,0 -0.01,0 -0.01,0 -0.01,-0.01 -0.01,-0.06 0,-0.08 0.02,-0.09 0.12,-0.16 0.21,-0.14l0 0z"/>
    <path class="fil1 str0" d="M-1.92 1.82l0 -0.01 0 -0.22c0,0 -0.02,-0.01 -0.02,-0.02 -0.06,-0.09 -0.05,-0.21 0.04,-0.27 0.09,0.06 0.11,0.17 0.06,0.26 -0.01,0.01 -0.03,0.03 -0.03,0.04l0 0.21 0 0.01c-0.01,0.02 -0.04,0.02 -0.05,0l0 0z"/>
    <path class="fil1 str0" d="M-1.95 1.71c-0.12,0.03 -0.24,-0.1 -0.21,-0.22 0.12,-0.02 0.24,0.09 0.21,0.22l0 0z"/>
    <path class="fil1 str0" d="M-1.63 1.49c0.03,0.12 -0.08,0.23 -0.2,0.22 -0.01,0 -0.01,0 -0.01,0 -0.01,-0.01 -0.01,-0.07 0,-0.08 0.02,-0.09 0.12,-0.16 0.21,-0.14l0 0z"/>
    <path class="fil1 str0" d="M-1.33 1.82l-0.01 -0.01 0 -0.22c0,0 -0.01,-0.01 -0.02,-0.02 -0.06,-0.09 -0.04,-0.21 0.05,-0.27 0.08,0.06 0.11,0.17 0.05,0.26 0,0.01 -0.02,0.03 -0.02,0.04l0 0.21 -0.01 0.01c-0.01,0.02 -0.03,0.02 -0.04,0l0 0z"/>
    <path class="fil1 str0" d="M-1.36 1.71c-0.12,0.03 -0.25,-0.1 -0.22,-0.22 0.13,-0.02 0.24,0.09 0.22,0.22l0 0z"/>
    <path class="fil1 str0" d="M-1.04 1.49c0.02,0.12 -0.08,0.23 -0.21,0.22 0,0 -0.01,0 -0.01,0 -0.01,-0.01 0,-0.07 0,-0.08 0.03,-0.09 0.12,-0.16 0.22,-0.14l0 0z"/>
    <path class="fil1 str0" d="M-0.75 1.82l0 -0.01 0 -0.22c0,0 -0.02,-0.01 -0.02,-0.02 -0.06,-0.09 -0.05,-0.21 0.05,-0.27 0.08,0.06 0.1,0.17 0.05,0.26 0,0.01 -0.03,0.03 -0.03,0.04l0 0.21 0 0.01c-0.01,0.02 -0.04,0.02 -0.05,0l0 0z"/>
    <path class="fil1 str0" d="M-0.78 1.71c-0.12,0.03 -0.24,-0.1 -0.21,-0.22 0.12,-0.02 0.24,0.09 0.21,0.22l0 0z"/>
    <path class="fil1 str0" d="M-0.46 1.49c0.03,0.12 -0.08,0.23 -0.2,0.22 -0.01,0 -0.01,0 -0.01,0 -0.01,-0.01 -0.01,-0.07 0,-0.08 0.02,-0.09 0.12,-0.16 0.21,-0.14l0 0z"/>
    <path class="fil1 str0" d="M-0.16 1.82l-0.01 -0.01 0 -0.22c0,0 -0.01,-0.01 -0.02,-0.02 -0.05,-0.09 -0.04,-0.21 0.05,-0.27 0.08,0.06 0.11,0.17 0.06,0.26 -0.01,0.01 -0.03,0.03 -0.03,0.04l0 0.21 -0.01 0.01c-0.01,0.02 -0.03,0.02 -0.04,0l0 0z"/>
    <path class="fil1 str0" d="M-0.19 1.71c-0.12,0.03 -0.25,-0.1 -0.22,-0.22 0.13,-0.02 0.24,0.09 0.22,0.22l0 0z"/>
    <path class="fil1 str0" d="M0.13 1.49c0.02,0.12 -0.08,0.23 -0.21,0.22 0,0 -0.01,0 -0.01,0 -0.01,-0.01 0,-0.07 0,-0.08 0.03,-0.09 0.12,-0.16 0.22,-0.14l0 0z"/>
    <path class="fil1 str0" d="M0.42 1.82l0 -0.01 0 -0.22c0,0 -0.02,-0.01 -0.02,-0.02 -0.06,-0.09 -0.05,-0.21 0.05,-0.27 0.08,0.06 0.1,0.17 0.05,0.26 0,0.01 -0.03,0.03 -0.03,0.04l0 0.21 0 0.01c-0.01,0.02 -0.04,0.02 -0.05,0l0 0z"/>
    <path class="fil1 str0" d="M0.39 1.71c-0.12,0.03 -0.24,-0.1 -0.21,-0.22 0.12,-0.02 0.24,0.09 0.21,0.22l0 0z"/>
    <path class="fil1 str0" d="M0.71 1.49c0.03,0.12 -0.08,0.23 -0.2,0.22 0,0 -0.01,0 -0.01,0 -0.01,-0.01 -0.01,-0.07 0,-0.08 0.02,-0.09 0.12,-0.16 0.21,-0.14l0 0z"/>
    <path class="fil1 str0" d="M1.01 1.82l-0.01 -0.01 0 -0.22c0,0 -0.01,-0.01 -0.02,-0.02 -0.05,-0.09 -0.04,-0.21 0.05,-0.27 0.08,0.06 0.11,0.17 0.06,0.26 -0.01,0.01 -0.03,0.03 -0.03,0.04l0 0.21 -0.01 0.01c-0.01,0.02 -0.03,0.02 -0.04,0l0 0z"/>
    <path class="fil1 str0" d="M0.98 1.71c-0.12,0.03 -0.24,-0.1 -0.22,-0.22 0.13,-0.02 0.25,0.09 0.22,0.22l0 0z"/>
    <path class="fil1 str0" d="M1.3 1.49c0.02,0.12 -0.08,0.23 -0.21,0.22 0,0 0,0 -0.01,0 -0.01,-0.01 0,-0.07 0,-0.08 0.03,-0.09 0.12,-0.16 0.22,-0.14l0 0z"/>
    <path class="fil1 str0" d="M1.59 1.82l0 -0.01 0 -0.22c0,0 -0.02,-0.01 -0.02,-0.02 -0.06,-0.09 -0.04,-0.21 0.05,-0.27 0.08,0.06 0.1,0.17 0.05,0.26 0,0.01 -0.03,0.03 -0.03,0.04l0 0.21 0 0.01c-0.01,0.02 -0.04,0.02 -0.05,0l0 0z"/>
    <path class="fil1 str0" d="M1.56 1.71c-0.12,0.03 -0.24,-0.1 -0.21,-0.22 0.12,-0.02 0.24,0.09 0.21,0.22l0 0z"/>
    <path class="fil1 str0" d="M1.88 1.49c0.03,0.12 -0.08,0.23 -0.2,0.22 0,0 -0.01,0 -0.01,0 -0.01,-0.01 0,-0.07 0,-0.08 0.02,-0.09 0.12,-0.16 0.21,-0.14l0 0z"/>
    <path class="fil1 str0" d="M2.18 1.82l-0.01 -0.01 0 -0.22c0,0 -0.01,-0.01 -0.02,-0.02 -0.05,-0.09 -0.04,-0.21 0.05,-0.27 0.09,0.06 0.11,0.17 0.06,0.26 -0.01,0.01 -0.03,0.03 -0.03,0.04l0 0.21 -0.01 0.01c-0.01,0.02 -0.03,0.02 -0.04,0l0 0z"/>
    <path class="fil1 str0" d="M2.15 1.71c-0.12,0.03 -0.24,-0.1 -0.21,-0.22 0.12,-0.02 0.24,0.09 0.21,0.22l0 0z"/>
    <path class="fil1 str0" d="M2.47 1.49c0.02,0.12 -0.08,0.23 -0.2,0.22 -0.01,0 -0.01,0 -0.02,0 -0.01,-0.01 0,-0.07 0,-0.08 0.03,-0.09 0.12,-0.16 0.22,-0.14l0 0z"/>
    <path class="fil1 str0" d="M2.76 1.82l0 -0.01 0 -0.22c0,0 -0.02,-0.01 -0.02,-0.02 -0.06,-0.09 -0.04,-0.21 0.05,-0.27 0.08,0.06 0.1,0.17 0.05,0.26 0,0.01 -0.03,0.03 -0.03,0.04l0 0.21 0 0.01c-0.01,0.02 -0.04,0.02 -0.05,0l0 0z"/>
    <path class="fil1 str0" d="M2.74 1.71c-0.13,0.03 -0.25,-0.1 -0.22,-0.22 0.12,-0.02 0.24,0.09 0.22,0.22l0 0z"/>
    <path class="fil1 str0" d="M3.05 1.49c0.03,0.12 -0.08,0.23 -0.2,0.22 0,0 -0.01,0 -0.01,0 -0.01,-0.01 0,-0.07 0,-0.08 0.02,-0.09 0.12,-0.16 0.21,-0.14l0 0z"/>
    <path class="fil1 str0" d="M3.35 1.82l-0.01 -0.01 0 -0.22c0,0 -0.01,-0.01 -0.01,-0.02 -0.06,-0.09 -0.05,-0.21 0.04,-0.27 0.09,0.06 0.11,0.17 0.06,0.26 -0.01,0.01 -0.03,0.03 -0.03,0.04l0 0.21 -0.01 0.01c0,0.02 -0.03,0.02 -0.04,0l0 0z"/>
    <path class="fil1 str0" d="M3.32 1.71c-0.12,0.03 -0.24,-0.1 -0.21,-0.22 0.12,-0.02 0.24,0.09 0.21,0.22l0 0z"/>
    <path class="fil1 str0" d="M3.64 1.49c0.02,0.12 -0.08,0.23 -0.2,0.22 -0.01,0 -0.01,0 -0.02,0 -0.01,-0.01 0,-0.07 0.01,-0.08 0.02,-0.09 0.11,-0.16 0.21,-0.14l0 0z"/>
    <path class="fil1 str0" d="M-1.63 2.29l0 -0.01 0 -0.22c0,0 -0.02,-0.01 -0.02,-0.02 -0.06,-0.09 -0.04,-0.21 0.05,-0.27 0.08,0.06 0.1,0.17 0.05,0.26 0,0.01 -0.03,0.03 -0.03,0.04l0 0.21 0 0.01c-0.01,0.02 -0.04,0.02 -0.05,0l0 0z"/>
    <path class="fil1 str0" d="M-1.65 2.18c-0.13,0.03 -0.25,-0.1 -0.22,-0.22 0.12,-0.02 0.24,0.09 0.22,0.22l0 0z"/>
    <path class="fil1 str0" d="M-1.34 1.96c0.03,0.12 -0.08,0.23 -0.2,0.22 0,0 -0.01,0 -0.01,0 -0.01,-0.01 0,-0.07 0,-0.08 0.02,-0.09 0.12,-0.16 0.21,-0.14l0 0z"/>
    <path class="fil1 str0" d="M-1.04 2.29l-0.01 -0.01 0 -0.22c0,0 -0.01,-0.01 -0.01,-0.02 -0.06,-0.09 -0.05,-0.21 0.04,-0.27 0.09,0.06 0.11,0.17 0.06,0.26 -0.01,0.01 -0.03,0.03 -0.03,0.04l0 0.21 -0.01 0.01c0,0.02 -0.03,0.02 -0.04,0l0 0z"/>
    <path class="fil1 str0" d="M-1.07 2.18c-0.12,0.03 -0.24,-0.1 -0.21,-0.22 0.12,-0.02 0.24,0.09 0.21,0.22l0 0z"/>
    <path class="fil1 str0" d="M-0.75 1.96c0.02,0.12 -0.08,0.23 -0.2,0.22 -0.01,0 -0.01,0 -0.02,0 -0.01,-0.01 0,-0.07 0.01,-0.08 0.02,-0.09 0.11,-0.16 0.21,-0.14l0 0z"/>
    <path class="fil1 str0" d="M-0.45 2.29l-0.01 -0.01 0 -0.22c0,0 -0.02,-0.01 -0.02,-0.02 -0.06,-0.09 -0.04,-0.21 0.05,-0.27 0.08,0.06 0.1,0.17 0.05,0.26 0,0.01 -0.03,0.03 -0.03,0.04l0 0.21 0 0.01c-0.01,0.02 -0.04,0.02 -0.04,0l0 0z"/>
    <path class="fil1 str0" d="M-0.48 2.18c-0.13,0.03 -0.25,-0.1 -0.22,-0.22 0.12,-0.02 0.24,0.09 0.22,0.22l0 0z"/>
    <path class="fil1 str0" d="M-0.17 1.96c0.03,0.12 -0.08,0.23 -0.2,0.22 0,0 -0.01,0 -0.01,0 -0.01,-0.01 0,-0.07 0,-0.08 0.02,-0.09 0.12,-0.16 0.21,-0.14l0 0z"/>
    <path class="fil1 str0" d="M0.13 2.29l-0.01 -0.01 0 -0.22c0,0 -0.01,-0.01 -0.01,-0.02 -0.06,-0.09 -0.05,-0.21 0.04,-0.27 0.09,0.06 0.11,0.17 0.06,0.26 -0.01,0.01 -0.03,0.03 -0.03,0.04l0 0.21 -0.01 0.01c0,0.02 -0.03,0.02 -0.04,0l0 0z"/>
    <path class="fil1 str0" d="M0.1 2.18c-0.12,0.03 -0.24,-0.1 -0.21,-0.22 0.12,-0.02 0.24,0.09 0.21,0.22l0 0z"/>
    <path class="fil1 str0" d="M0.42 1.96c0.03,0.12 -0.08,0.23 -0.2,0.22 -0.01,0 -0.01,0 -0.02,0 0,-0.01 0,-0.07 0.01,-0.08 0.02,-0.09 0.12,-0.16 0.21,-0.14l0 0z"/>
    <path class="fil1 str0" d="M0.72 2.29l-0.01 -0.01 0 -0.22c0,0 -0.02,-0.01 -0.02,-0.02 -0.06,-0.09 -0.04,-0.21 0.05,-0.27 0.08,0.06 0.11,0.17 0.05,0.26 0,0.01 -0.02,0.03 -0.02,0.04l0 0.21 -0.01 0.01c-0.01,0.02 -0.03,0.02 -0.04,0l0 0z"/>
    <path class="fil1 str0" d="M0.69 2.18c-0.12,0.03 -0.25,-0.1 -0.22,-0.22 0.13,-0.02 0.24,0.09 0.22,0.22l0 0z"/>
    <path class="fil1 str0" d="M1.01 1.96c0.02,0.12 -0.09,0.23 -0.21,0.22 0,0 -0.01,0 -0.01,0 -0.01,-0.01 0,-0.07 0,-0.08 0.02,-0.09 0.12,-0.16 0.22,-0.14l0 0z"/>
    <path class="fil1 str0" d="M1.3 2.29l0 -0.01 0 -0.22c0,0 -0.02,-0.01 -0.02,-0.02 -0.06,-0.09 -0.05,-0.21 0.04,-0.27 0.09,0.06 0.11,0.17 0.06,0.26 -0.01,0.01 -0.03,0.03 -0.03,0.04l0 0.21 0 0.01c-0.01,0.02 -0.04,0.02 -0.05,0l0 0z"/>
    <path class="fil1 str0" d="M1.27 2.18c-0.12,0.03 -0.24,-0.1 -0.21,-0.22 0.12,-0.02 0.24,0.09 0.21,0.22l0 0z"/>
    <path class="fil1 str0" d="M1.59 1.96c0.03,0.12 -0.08,0.23 -0.2,0.22 -0.01,0 -0.01,0 -0.01,0 -0.01,-0.01 -0.01,-0.07 0,-0.08 0.02,-0.09 0.12,-0.16 0.21,-0.14l0 0z"/>
    <path class="fil1 str0" d="M1.89 2.29l-0.01 -0.01 0 -0.22c0,0 -0.01,-0.01 -0.02,-0.02 -0.06,-0.09 -0.04,-0.21 0.05,-0.27 0.08,0.06 0.11,0.17 0.05,0.26 0,0.01 -0.02,0.03 -0.02,0.04l0 0.21 -0.01 0.01c-0.01,0.02 -0.03,0.02 -0.04,0l0 0z"/>
    <path class="fil1 str0" d="M1.86 2.18c-0.12,0.03 -0.25,-0.1 -0.22,-0.22 0.13,-0.02 0.24,0.09 0.22,0.22l0 0z"/>
    <path class="fil1 str0" d="M2.18 1.96c0.02,0.12 -0.09,0.23 -0.21,0.22 0,0 -0.01,0 -0.01,0 -0.01,-0.01 0,-0.07 0,-0.08 0.03,-0.09 0.12,-0.16 0.22,-0.14l0 0z"/>
    <path class="fil1 str0" d="M2.47 2.29l0 -0.01 0 -0.22c0,0 -0.02,-0.01 -0.02,-0.02 -0.06,-0.09 -0.05,-0.21 0.05,-0.27 0.08,0.06 0.1,0.17 0.05,0.26 0,0.01 -0.03,0.03 -0.03,0.04l0 0.21 0 0.01c-0.01,0.02 -0.04,0.02 -0.05,0l0 0z"/>
    <path class="fil1 str0" d="M2.44 2.18c-0.12,0.03 -0.24,-0.1 -0.21,-0.22 0.12,-0.02 0.24,0.09 0.21,0.22l0 0z"/>
    <path class="fil1 str0" d="M2.76 1.96c0.03,0.12 -0.08,0.23 -0.2,0.22 -0.01,0 -0.01,0 -0.01,0 -0.01,-0.01 -0.01,-0.07 0,-0.08 0.02,-0.09 0.12,-0.16 0.21,-0.14l0 0z"/>
    <path class="fil1 str0" d="M3.06 2.29l-0.01 -0.01 0 -0.22c0,0 -0.01,-0.01 -0.02,-0.02 -0.06,-0.09 -0.04,-0.21 0.05,-0.27 0.08,0.06 0.11,0.17 0.06,0.26 -0.01,0.01 -0.03,0.03 -0.03,0.04l0 0.21 -0.01 0.01c-0.01,0.02 -0.03,0.02 -0.04,0l0 0z"/>
    <path class="fil1 str0" d="M3.03 2.18c-0.12,0.03 -0.25,-0.1 -0.22,-0.22 0.13,-0.02 0.24,0.09 0.22,0.22l0 0z"/>
    <path class="fil1 str0" d="M3.35 1.96c0.02,0.12 -0.08,0.23 -0.21,0.22 0,0 -0.01,0 -0.01,0 -0.01,-0.01 0,-0.07 0,-0.08 0.03,-0.09 0.12,-0.16 0.22,-0.14l0 0z"/>
    <path class="fil1 str0" d="M3.64 2.29l0 -0.01 0 -0.22c0,0 -0.02,-0.01 -0.02,-0.02 -0.06,-0.09 -0.05,-0.21 0.05,-0.27 0.08,0.06 0.1,0.17 0.05,0.26 0,0.01 -0.03,0.03 -0.03,0.04l0 0.21 0 0.01c-0.01,0.02 -0.04,0.02 -0.05,0l0 0z"/>
    <path class="fil1 str0" d="M3.61 2.18c-0.12,0.03 -0.24,-0.1 -0.21,-0.22 0.12,-0.02 0.24,0.09 0.21,0.22l0 0z"/>
    <path class="fil1 str0" d="M3.93 1.96c0.03,0.12 -0.08,0.23 -0.2,0.22 0,0 -0.01,0 -0.01,0 -0.01,-0.01 -0.01,-0.07 0,-0.08 0.02,-0.09 0.12,-0.16 0.21,-0.14l0 0z"/>
    <path class="fil1 str0" d="M-1.92 2.74l0 -0.01 0 -0.22c0,0 -0.02,-0.01 -0.02,-0.02 -0.06,-0.09 -0.05,-0.21 0.04,-0.27 0.09,0.06 0.11,0.17 0.06,0.26 -0.01,0.01 -0.03,0.03 -0.03,0.04l0 0.21 0 0.01c-0.01,0.02 -0.04,0.02 -0.05,0l0 0z"/>
    <path class="fil1 str0" d="M-1.95 2.63c-0.12,0.02 -0.24,-0.1 -0.21,-0.22 0.12,-0.02 0.24,0.09 0.21,0.22l0 0z"/>
    <path class="fil1 str0" d="M-1.63 2.41c0.03,0.12 -0.08,0.23 -0.2,0.22 -0.01,0 -0.01,0 -0.01,0 -0.01,-0.01 -0.01,-0.07 0,-0.08 0.02,-0.09 0.12,-0.16 0.21,-0.14l0 0z"/>
    <path class="fil1 str0" d="M-1.33 2.74l-0.01 -0.01 0 -0.22c0,0 -0.01,-0.01 -0.02,-0.02 -0.06,-0.09 -0.04,-0.21 0.05,-0.27 0.08,0.06 0.11,0.17 0.05,0.26 0,0.01 -0.02,0.03 -0.02,0.04l0 0.21 -0.01 0.01c-0.01,0.02 -0.03,0.02 -0.04,0l0 0z"/>
    <path class="fil1 str0" d="M-1.36 2.63c-0.12,0.02 -0.25,-0.1 -0.22,-0.22 0.13,-0.02 0.24,0.09 0.22,0.22l0 0z"/>
    <path class="fil1 str0" d="M-1.04 2.41c0.02,0.12 -0.08,0.23 -0.21,0.22 0,0 -0.01,0 -0.01,0 -0.01,-0.01 0,-0.07 0,-0.08 0.03,-0.09 0.12,-0.16 0.22,-0.14l0 0z"/>
    <path class="fil1 str0" d="M-0.75 2.74l0 -0.01 0 -0.22c0,0 -0.02,-0.01 -0.02,-0.02 -0.06,-0.09 -0.05,-0.21 0.05,-0.27 0.08,0.06 0.1,0.17 0.05,0.26 0,0.01 -0.03,0.03 -0.03,0.04l0 0.21 0 0.01c-0.01,0.02 -0.04,0.02 -0.05,0l0 0z"/>
    <path class="fil1 str0" d="M-0.78 2.63c-0.12,0.02 -0.24,-0.1 -0.21,-0.22 0.12,-0.02 0.24,0.09 0.21,0.22l0 0z"/>
    <path class="fil1 str0" d="M-0.46 2.41c0.03,0.12 -0.08,0.23 -0.2,0.22 -0.01,0 -0.01,0 -0.01,0 -0.01,-0.01 -0.01,-0.07 0,-0.08 0.02,-0.09 0.12,-0.16 0.21,-0.14l0 0z"/>
    <path class="fil1 str0" d="M-0.16 2.74l-0.01 -0.01 0 -0.22c0,0 -0.01,-0.01 -0.02,-0.02 -0.05,-0.09 -0.04,-0.21 0.05,-0.27 0.08,0.06 0.11,0.17 0.06,0.26 -0.01,0.01 -0.03,0.03 -0.03,0.04l0 0.21 -0.01 0.01c-0.01,0.02 -0.03,0.02 -0.04,0l0 0z"/>
    <path class="fil1 str0" d="M-0.19 2.63c-0.12,0.02 -0.25,-0.1 -0.22,-0.22 0.13,-0.02 0.24,0.09 0.22,0.22l0 0z"/>
    <path class="fil1 str0" d="M0.13 2.41c0.02,0.12 -0.08,0.23 -0.21,0.22 0,0 -0.01,0 -0.01,0 -0.01,-0.01 0,-0.07 0,-0.08 0.03,-0.09 0.12,-0.16 0.22,-0.14l0 0z"/>
    <path class="fil1 str0" d="M0.42 2.74l0 -0.01 0 -0.22c0,0 -0.02,-0.01 -0.02,-0.02 -0.06,-0.09 -0.05,-0.21 0.05,-0.27 0.08,0.06 0.1,0.17 0.05,0.26 0,0.01 -0.03,0.03 -0.03,0.04l0 0.21 0 0.01c-0.01,0.02 -0.04,0.02 -0.05,0l0 0z"/>
    <path class="fil1 str0" d="M0.39 2.63c-0.12,0.02 -0.24,-0.1 -0.21,-0.22 0.12,-0.02 0.24,0.09 0.21,0.22l0 0z"/>
    <path class="fil1 str0" d="M0.71 2.41c0.03,0.12 -0.08,0.23 -0.2,0.22 0,0 -0.01,0 -0.01,0 -0.01,-0.01 -0.01,-0.07 0,-0.08 0.02,-0.09 0.12,-0.16 0.21,-0.14l0 0z"/>
    <path class="fil1 str0" d="M1.01 2.74l-0.01 -0.01 0 -0.22c0,0 -0.01,-0.01 -0.02,-0.02 -0.05,-0.09 -0.04,-0.21 0.05,-0.27 0.08,0.06 0.11,0.17 0.06,0.26 -0.01,0.01 -0.03,0.03 -0.03,0.04l0 0.21 -0.01 0.01c-0.01,0.02 -0.03,0.02 -0.04,0l0 0z"/>
    <path class="fil1 str0" d="M0.98 2.63c-0.12,0.02 -0.24,-0.1 -0.22,-0.22 0.13,-0.02 0.25,0.09 0.22,0.22l0 0z"/>
    <path class="fil1 str0" d="M1.3 2.41c0.02,0.12 -0.08,0.23 -0.21,0.22 0,0 0,0 -0.01,0 -0.01,-0.01 0,-0.07 0,-0.08 0.03,-0.09 0.12,-0.16 0.22,-0.14l0 0z"/>
    <path class="fil1 str0" d="M1.59 2.74l0 -0.01 0 -0.22c0,0 -0.02,-0.01 -0.02,-0.02 -0.06,-0.09 -0.04,-0.21 0.05,-0.27 0.08,0.06 0.1,0.17 0.05,0.26 0,0.01 -0.03,0.03 -0.03,0.04l0 0.21 0 0.01c-0.01,0.02 -0.04,0.02 -0.05,0l0 0z"/>
    <path class="fil1 str0" d="M1.56 2.63c-0.12,0.02 -0.24,-0.1 -0.21,-0.22 0.12,-0.02 0.24,0.09 0.21,0.22l0 0z"/>
    <path class="fil1 str0" d="M1.88 2.41c0.03,0.12 -0.08,0.23 -0.2,0.22 0,0 -0.01,0 -0.01,0 -0.01,-0.01 0,-0.07 0,-0.08 0.02,-0.09 0.12,-0.16 0.21,-0.14l0 0z"/>
    <path class="fil1 str0" d="M2.18 2.74l-0.01 -0.01 0 -0.22c0,0 -0.01,-0.01 -0.02,-0.02 -0.05,-0.09 -0.04,-0.21 0.05,-0.27 0.09,0.06 0.11,0.17 0.06,0.26 -0.01,0.01 -0.03,0.03 -0.03,0.04l0 0.21 -0.01 0.01c-0.01,0.02 -0.03,0.02 -0.04,0l0 0z"/>
    <path class="fil1 str0" d="M2.15 2.63c-0.12,0.02 -0.24,-0.1 -0.21,-0.22 0.12,-0.02 0.24,0.09 0.21,0.22l0 0z"/>
    <path class="fil1 str0" d="M2.47 2.41c0.02,0.12 -0.08,0.23 -0.2,0.22 -0.01,0 -0.01,0 -0.02,0 -0.01,-0.01 0,-0.07 0,-0.08 0.03,-0.09 0.12,-0.16 0.22,-0.14l0 0z"/>
    <path class="fil1 str0" d="M2.76 2.74l0 -0.01 0 -0.22c0,0 -0.02,-0.01 -0.02,-0.02 -0.06,-0.09 -0.04,-0.21 0.05,-0.27 0.08,0.06 0.1,0.17 0.05,0.26 0,0.01 -0.03,0.03 -0.03,0.04l0 0.21 0 0.01c-0.01,0.02 -0.04,0.02 -0.05,0l0 0z"/>
    <path class="fil1 str0" d="M2.74 2.63c-0.13,0.02 -0.25,-0.1 -0.22,-0.22 0.12,-0.02 0.24,0.09 0.22,0.22l0 0z"/>
    <path class="fil1 str0" d="M3.05 2.41c0.03,0.12 -0.08,0.23 -0.2,0.22 0,0 -0.01,0 -0.01,0 -0.01,-0.01 0,-0.07 0,-0.08 0.02,-0.09 0.12,-0.16 0.21,-0.14l0 0z"/>
    <path class="fil1 str0" d="M3.35 2.74l-0.01 -0.01 0 -0.22c0,0 -0.01,-0.01 -0.01,-0.02 -0.06,-0.09 -0.05,-0.21 0.04,-0.27 0.09,0.06 0.11,0.17 0.06,0.26 -0.01,0.01 -0.03,0.03 -0.03,0.04l0 0.21 -0.01 0.01c0,0.02 -0.03,0.02 -0.04,0l0 0z"/>
    <path class="fil1 str0" d="M3.32 2.63c-0.12,0.02 -0.24,-0.1 -0.21,-0.22 0.12,-0.02 0.24,0.09 0.21,0.22l0 0z"/>
    <path class="fil1 str0" d="M3.64 2.41c0.02,0.12 -0.08,0.23 -0.2,0.22 -0.01,0 -0.01,0 -0.02,0 -0.01,-0.01 0,-0.07 0.01,-0.08 0.02,-0.09 0.11,-0.16 0.21,-0.14l0 0z"/>
    <path class="fil1 str0" d="M-1.63 3.21l0 -0.01 0 -0.22c0,0 -0.02,-0.02 -0.02,-0.02 -0.06,-0.09 -0.04,-0.21 0.05,-0.27 0.08,0.05 0.1,0.17 0.05,0.26 0,0.01 -0.03,0.03 -0.03,0.04l0 0.21 0 0.01c-0.01,0.02 -0.04,0.02 -0.05,0l0 0z"/>
    <path class="fil1 str0" d="M-1.65 3.1c-0.13,0.02 -0.25,-0.1 -0.22,-0.22 0.12,-0.02 0.24,0.09 0.22,0.22l0 0z"/>
    <path class="fil1 str0" d="M-1.34 2.88c0.03,0.12 -0.08,0.23 -0.2,0.22 0,0 -0.01,0 -0.01,0 -0.01,-0.01 0,-0.07 0,-0.08 0.02,-0.09 0.12,-0.16 0.21,-0.14l0 0z"/>
    <path class="fil1 str0" d="M-1.04 3.21l-0.01 -0.01 0 -0.22c0,0 -0.01,-0.02 -0.01,-0.02 -0.06,-0.09 -0.05,-0.21 0.04,-0.27 0.09,0.05 0.11,0.17 0.06,0.26 -0.01,0.01 -0.03,0.03 -0.03,0.04l0 0.21 -0.01 0.01c0,0.02 -0.03,0.02 -0.04,0l0 0z"/>
    <path class="fil1 str0" d="M-1.07 3.1c-0.12,0.02 -0.24,-0.1 -0.21,-0.22 0.12,-0.02 0.24,0.09 0.21,0.22l0 0z"/>
    <path class="fil1 str0" d="M-0.75 2.88c0.02,0.12 -0.08,0.23 -0.2,0.22 -0.01,0 -0.01,0 -0.02,0 -0.01,-0.01 0,-0.07 0.01,-0.08 0.02,-0.09 0.11,-0.16 0.21,-0.14l0 0z"/>
    <path class="fil1 str0" d="M-0.45 3.21l-0.01 -0.01 0 -0.22c0,0 -0.02,-0.02 -0.02,-0.02 -0.06,-0.09 -0.04,-0.21 0.05,-0.27 0.08,0.05 0.1,0.17 0.05,0.26 0,0.01 -0.03,0.03 -0.03,0.04l0 0.21 0 0.01c-0.01,0.02 -0.04,0.02 -0.04,0l0 0z"/>
    <path class="fil1 str0" d="M-0.48 3.1c-0.13,0.02 -0.25,-0.1 -0.22,-0.22 0.12,-0.02 0.24,0.09 0.22,0.22l0 0z"/>
    <path class="fil1 str0" d="M-0.17 2.88c0.03,0.12 -0.08,0.23 -0.2,0.22 0,0 -0.01,0 -0.01,0 -0.01,-0.01 0,-0.07 0,-0.08 0.02,-0.09 0.12,-0.16 0.21,-0.14l0 0z"/>
    <path class="fil1 str0" d="M0.13 3.21l-0.01 -0.01 0 -0.22c0,0 -0.01,-0.02 -0.01,-0.02 -0.06,-0.09 -0.05,-0.21 0.04,-0.27 0.09,0.05 0.11,0.17 0.06,0.26 -0.01,0.01 -0.03,0.03 -0.03,0.04l0 0.21 -0.01 0.01c0,0.02 -0.03,0.02 -0.04,0l0 0z"/>
    <path class="fil1 str0" d="M0.1 3.1c-0.12,0.02 -0.24,-0.1 -0.21,-0.22 0.12,-0.02 0.24,0.09 0.21,0.22l0 0z"/>
    <path class="fil1 str0" d="M0.42 2.88c0.03,0.12 -0.08,0.23 -0.2,0.22 -0.01,0 -0.01,0 -0.02,0 0,-0.01 0,-0.07 0.01,-0.08 0.02,-0.09 0.12,-0.16 0.21,-0.14l0 0z"/>
    <path class="fil1 str0" d="M0.72 3.21l-0.01 -0.01 0 -0.22c0,0 -0.02,-0.02 -0.02,-0.02 -0.06,-0.09 -0.04,-0.21 0.05,-0.27 0.08,0.05 0.11,0.17 0.05,0.26 0,0.01 -0.02,0.03 -0.02,0.04l0 0.21 -0.01 0.01c-0.01,0.02 -0.03,0.02 -0.04,0l0 0z"/>
    <path class="fil1 str0" d="M0.69 3.1c-0.12,0.02 -0.25,-0.1 -0.22,-0.22 0.13,-0.02 0.24,0.09 0.22,0.22l0 0z"/>
    <path class="fil1 str0" d="M1.01 2.88c0.02,0.12 -0.09,0.23 -0.21,0.22 0,0 -0.01,0 -0.01,0 -0.01,-0.01 0,-0.07 0,-0.08 0.02,-0.09 0.12,-0.16 0.22,-0.14l0 0z"/>
    <path class="fil1 str0" d="M1.3 3.21l0 -0.01 0 -0.22c0,0 -0.02,-0.02 -0.02,-0.02 -0.06,-0.09 -0.05,-0.21 0.04,-0.27 0.09,0.05 0.11,0.17 0.06,0.26 -0.01,0.01 -0.03,0.03 -0.03,0.04l0 0.21 0 0.01c-0.01,0.02 -0.04,0.02 -0.05,0l0 0z"/>
    <path class="fil1 str0" d="M1.27 3.1c-0.12,0.02 -0.24,-0.1 -0.21,-0.22 0.12,-0.02 0.24,0.09 0.21,0.22l0 0z"/>
    <path class="fil1 str0" d="M1.59 2.88c0.03,0.12 -0.08,0.23 -0.2,0.22 -0.01,0 -0.01,0 -0.01,0 -0.01,-0.01 -0.01,-0.07 0,-0.08 0.02,-0.09 0.12,-0.16 0.21,-0.14l0 0z"/>
    <path class="fil1 str0" d="M1.89 3.21l-0.01 -0.01 0 -0.22c0,0 -0.01,-0.02 -0.02,-0.02 -0.06,-0.09 -0.04,-0.21 0.05,-0.27 0.08,0.05 0.11,0.17 0.05,0.26 0,0.01 -0.02,0.03 -0.02,0.04l0 0.21 -0.01 0.01c-0.01,0.02 -0.03,0.02 -0.04,0l0 0z"/>
    <path class="fil1 str0" d="M1.86 3.1c-0.12,0.02 -0.25,-0.1 -0.22,-0.22 0.13,-0.02 0.24,0.09 0.22,0.22l0 0z"/>
    <path class="fil1 str0" d="M2.18 2.88c0.02,0.12 -0.09,0.23 -0.21,0.22 0,0 -0.01,0 -0.01,0 -0.01,-0.01 0,-0.07 0,-0.08 0.03,-0.09 0.12,-0.16 0.22,-0.14l0 0z"/>
    <path class="fil1 str0" d="M2.47 3.21l0 -0.01 0 -0.22c0,0 -0.02,-0.02 -0.02,-0.02 -0.06,-0.09 -0.05,-0.21 0.05,-0.27 0.08,0.05 0.1,0.17 0.05,0.26 0,0.01 -0.03,0.03 -0.03,0.04l0 0.21 0 0.01c-0.01,0.02 -0.04,0.02 -0.05,0l0 0z"/>
    <path class="fil1 str0" d="M2.44 3.1c-0.12,0.02 -0.24,-0.1 -0.21,-0.22 0.12,-0.02 0.24,0.09 0.21,0.22l0 0z"/>
    <path class="fil1 str0" d="M2.76 2.88c0.03,0.12 -0.08,0.23 -0.2,0.22 -0.01,0 -0.01,0 -0.01,0 -0.01,-0.01 -0.01,-0.07 0,-0.08 0.02,-0.09 0.12,-0.16 0.21,-0.14l0 0z"/>
    <path class="fil1 str0" d="M3.06 3.21l-0.01 -0.01 0 -0.22c0,0 -0.01,-0.02 -0.02,-0.02 -0.06,-0.09 -0.04,-0.21 0.05,-0.27 0.08,0.05 0.11,0.17 0.06,0.26 -0.01,0.01 -0.03,0.03 -0.03,0.04l0 0.21 -0.01 0.01c-0.01,0.02 -0.03,0.02 -0.04,0l0 0z"/>
    <path class="fil1 str0" d="M3.03 3.1c-0.12,0.02 -0.25,-0.1 -0.22,-0.22 0.13,-0.02 0.24,0.09 0.22,0.22l0 0z"/>
    <path class="fil1 str0" d="M3.35 2.88c0.02,0.12 -0.08,0.23 -0.21,0.22 0,0 -0.01,0 -0.01,0 -0.01,-0.01 0,-0.07 0,-0.08 0.03,-0.09 0.12,-0.16 0.22,-0.14l0 0z"/>
    <path class="fil1 str0" d="M3.64 3.21l0 -0.01 0 -0.22c0,0 -0.02,-0.02 -0.02,-0.02 -0.06,-0.09 -0.05,-0.21 0.05,-0.27 0.08,0.05 0.1,0.17 0.05,0.26 0,0.01 -0.03,0.03 -0.03,0.04l0 0.21 0 0.01c-0.01,0.02 -0.04,0.02 -0.05,0l0 0z"/>
    <path class="fil1 str0" d="M3.61 3.1c-0.12,0.02 -0.24,-0.1 -0.21,-0.22 0.12,-0.02 0.24,0.09 0.21,0.22l0 0z"/>
    <path class="fil1 str0" d="M3.93 2.88c0.03,0.12 -0.08,0.23 -0.2,0.22 0,0 -0.01,0 -0.01,0 -0.01,-0.01 -0.01,-0.07 0,-0.08 0.02,-0.09 0.12,-0.16 0.21,-0.14l0 0z"/>
    <path class="fil1 str0" d="M-1.92 3.66l0 -0.01 0 -0.22c0,0 -0.02,-0.02 -0.02,-0.02 -0.06,-0.09 -0.05,-0.21 0.04,-0.27 0.09,0.05 0.11,0.17 0.06,0.26 -0.01,0 -0.03,0.03 -0.03,0.03l0 0.22 0 0.01c-0.01,0.02 -0.04,0.02 -0.05,0l0 0z"/>
    <path class="fil1 str0" d="M-1.95 3.55c-0.12,0.02 -0.24,-0.1 -0.21,-0.22 0.12,-0.02 0.24,0.09 0.21,0.22l0 0z"/>
    <path class="fil1 str0" d="M-1.63 3.33c0.03,0.12 -0.08,0.23 -0.2,0.22 -0.01,0 -0.01,0 -0.01,-0.01 -0.01,0 -0.01,-0.06 0,-0.07 0.02,-0.09 0.12,-0.16 0.21,-0.14l0 0z"/>
    <path class="fil1 str0" d="M-1.33 3.66l-0.01 -0.01 0 -0.22c0,0 -0.01,-0.02 -0.02,-0.02 -0.06,-0.09 -0.04,-0.21 0.05,-0.27 0.08,0.05 0.11,0.17 0.05,0.26 0,0 -0.02,0.03 -0.02,0.03l0 0.22 -0.01 0.01c-0.01,0.02 -0.03,0.02 -0.04,0l0 0z"/>
    <path class="fil1 str0" d="M-1.36 3.55c-0.12,0.02 -0.25,-0.1 -0.22,-0.22 0.13,-0.02 0.24,0.09 0.22,0.22l0 0z"/>
    <path class="fil1 str0" d="M-1.04 3.33c0.02,0.12 -0.08,0.23 -0.21,0.22 0,0 -0.01,0 -0.01,-0.01 -0.01,0 0,-0.06 0,-0.07 0.03,-0.09 0.12,-0.16 0.22,-0.14l0 0z"/>
    <path class="fil1 str0" d="M-0.75 3.66l0 -0.01 0 -0.22c0,0 -0.02,-0.02 -0.02,-0.02 -0.06,-0.09 -0.05,-0.21 0.05,-0.27 0.08,0.05 0.1,0.17 0.05,0.26 0,0 -0.03,0.03 -0.03,0.03l0 0.22 0 0.01c-0.01,0.02 -0.04,0.02 -0.05,0l0 0z"/>
    <path class="fil1 str0" d="M-0.78 3.55c-0.12,0.02 -0.24,-0.1 -0.21,-0.22 0.12,-0.02 0.24,0.09 0.21,0.22l0 0z"/>
    <path class="fil1 str0" d="M-0.46 3.33c0.03,0.12 -0.08,0.23 -0.2,0.22 -0.01,0 -0.01,0 -0.01,-0.01 -0.01,0 -0.01,-0.06 0,-0.07 0.02,-0.09 0.12,-0.16 0.21,-0.14l0 0z"/>
    <path class="fil1 str0" d="M-0.16 3.66l-0.01 -0.01 0 -0.22c0,0 -0.01,-0.02 -0.02,-0.02 -0.05,-0.09 -0.04,-0.21 0.05,-0.27 0.08,0.05 0.11,0.17 0.06,0.26 -0.01,0 -0.03,0.03 -0.03,0.03l0 0.22 -0.01 0.01c-0.01,0.02 -0.03,0.02 -0.04,0l0 0z"/>
    <path class="fil1 str0" d="M-0.19 3.55c-0.12,0.02 -0.25,-0.1 -0.22,-0.22 0.13,-0.02 0.24,0.09 0.22,0.22l0 0z"/>
    <path class="fil1 str0" d="M0.13 3.33c0.02,0.12 -0.08,0.23 -0.21,0.22 0,0 -0.01,0 -0.01,-0.01 -0.01,0 0,-0.06 0,-0.07 0.03,-0.09 0.12,-0.16 0.22,-0.14l0 0z"/>
    <path class="fil1 str0" d="M0.42 3.66l0 -0.01 0 -0.22c0,0 -0.02,-0.02 -0.02,-0.02 -0.06,-0.09 -0.05,-0.21 0.05,-0.27 0.08,0.05 0.1,0.17 0.05,0.26 0,0 -0.03,0.03 -0.03,0.03l0 0.22 0 0.01c-0.01,0.02 -0.04,0.02 -0.05,0l0 0z"/>
    <path class="fil1 str0" d="M0.39 3.55c-0.12,0.02 -0.24,-0.1 -0.21,-0.22 0.12,-0.02 0.24,0.09 0.21,0.22l0 0z"/>
    <path class="fil1 str0" d="M0.71 3.33c0.03,0.12 -0.08,0.23 -0.2,0.22 0,0 -0.01,0 -0.01,-0.01 -0.01,0 -0.01,-0.06 0,-0.07 0.02,-0.09 0.12,-0.16 0.21,-0.14l0 0z"/>
    <path class="fil1 str0" d="M1.01 3.66l-0.01 -0.01 0 -0.22c0,0 -0.01,-0.02 -0.02,-0.02 -0.05,-0.09 -0.04,-0.21 0.05,-0.27 0.08,0.05 0.11,0.17 0.06,0.26 -0.01,0 -0.03,0.03 -0.03,0.03l0 0.22 -0.01 0.01c-0.01,0.02 -0.03,0.02 -0.04,0l0 0z"/>
    <path class="fil1 str0" d="M0.98 3.55c-0.12,0.02 -0.24,-0.1 -0.22,-0.22 0.13,-0.02 0.25,0.09 0.22,0.22l0 0z"/>
    <path class="fil1 str0" d="M1.3 3.33c0.02,0.12 -0.08,0.23 -0.21,0.22 0,0 0,0 -0.01,-0.01 -0.01,0 0,-0.06 0,-0.07 0.03,-0.09 0.12,-0.16 0.22,-0.14l0 0z"/>
    <path class="fil1 str0" d="M1.59 3.66l0 -0.01 0 -0.22c0,0 -0.02,-0.02 -0.02,-0.02 -0.06,-0.09 -0.04,-0.21 0.05,-0.27 0.08,0.05 0.1,0.17 0.05,0.26 0,0 -0.03,0.03 -0.03,0.03l0 0.22 0 0.01c-0.01,0.02 -0.04,0.02 -0.05,0l0 0z"/>
    <path class="fil1 str0" d="M1.56 3.55c-0.12,0.02 -0.24,-0.1 -0.21,-0.22 0.12,-0.02 0.24,0.09 0.21,0.22l0 0z"/>
    <path class="fil1 str0" d="M1.88 3.33c0.03,0.12 -0.08,0.23 -0.2,0.22 0,0 -0.01,0 -0.01,-0.01 -0.01,0 0,-0.06 0,-0.07 0.02,-0.09 0.12,-0.16 0.21,-0.14l0 0z"/>
    <path class="fil1 str0" d="M2.18 3.66l-0.01 -0.01 0 -0.22c0,0 -0.01,-0.02 -0.02,-0.02 -0.05,-0.09 -0.04,-0.21 0.05,-0.27 0.09,0.05 0.11,0.17 0.06,0.26 -0.01,0 -0.03,0.03 -0.03,0.03l0 0.22 -0.01 0.01c-0.01,0.02 -0.03,0.02 -0.04,0l0 0z"/>
    <path class="fil1 str0" d="M2.15 3.55c-0.12,0.02 -0.24,-0.1 -0.21,-0.22 0.12,-0.02 0.24,0.09 0.21,0.22l0 0z"/>
    <path class="fil1 str0" d="M2.47 3.33c0.02,0.12 -0.08,0.23 -0.2,0.22 -0.01,0 -0.01,0 -0.02,-0.01 -0.01,0 0,-0.06 0,-0.07 0.03,-0.09 0.12,-0.16 0.22,-0.14l0 0z"/>
    <path class="fil1 str0" d="M2.76 3.66l0 -0.01 0 -0.22c0,0 -0.02,-0.02 -0.02,-0.02 -0.06,-0.09 -0.04,-0.21 0.05,-0.27 0.08,0.05 0.1,0.17 0.05,0.26 0,0 -0.03,0.03 -0.03,0.03l0 0.22 0 0.01c-0.01,0.02 -0.04,0.02 -0.05,0l0 0z"/>
    <path class="fil1 str0" d="M2.74 3.55c-0.13,0.02 -0.25,-0.1 -0.22,-0.22 0.12,-0.02 0.24,0.09 0.22,0.22l0 0z"/>
    <path class="fil1 str0" d="M3.05 3.33c0.03,0.12 -0.08,0.23 -0.2,0.22 0,0 -0.01,0 -0.01,-0.01 -0.01,0 0,-0.06 0,-0.07 0.02,-0.09 0.12,-0.16 0.21,-0.14l0 0z"/>
    <path class="fil1 str0" d="M3.35 3.66l-0.01 -0.01 0 -0.22c0,0 -0.01,-0.02 -0.01,-0.02 -0.06,-0.09 -0.05,-0.21 0.04,-0.27 0.09,0.05 0.11,0.17 0.06,0.26 -0.01,0 -0.03,0.03 -0.03,0.03l0 0.22 -0.01 0.01c0,0.02 -0.03,0.02 -0.04,0l0 0z"/>
    <path class="fil1 str0" d="M3.32 3.55c-0.12,0.02 -0.24,-0.1 -0.21,-0.22 0.12,-0.02 0.24,0.09 0.21,0.22l0 0z"/>
    <path class="fil1 str0" d="M3.64 3.33c0.02,0.12 -0.08,0.23 -0.2,0.22 -0.01,0 -0.01,0 -0.02,-0.01 -0.01,0 0,-0.06 0.01,-0.07 0.02,-0.09 0.11,-0.16 0.21,-0.14l0 0z"/>
    <path class="fil1 str0" d="M-1.63 4.13l0 -0.01 0 -0.22c0,0 -0.02,-0.02 -0.02,-0.02 -0.06,-0.09 -0.04,-0.21 0.05,-0.27 0.08,0.05 0.1,0.17 0.05,0.26 0,0 -0.03,0.03 -0.03,0.03l0 0.22 0 0.01c-0.01,0.02 -0.04,0.02 -0.05,0l0 0z"/>
    <path class="fil1 str0" d="M-1.65 4.02c-0.13,0.02 -0.25,-0.1 -0.22,-0.22 0.12,-0.03 0.24,0.09 0.22,0.22l0 0z"/>
    <path class="fil1 str0" d="M-1.34 3.8c0.03,0.12 -0.08,0.23 -0.2,0.22 0,0 -0.01,0 -0.01,-0.01 -0.01,0 0,-0.06 0,-0.07 0.02,-0.09 0.12,-0.16 0.21,-0.14l0 0z"/>
    <path class="fil1 str0" d="M-1.04 4.13l-0.01 -0.01 0 -0.22c0,0 -0.01,-0.02 -0.01,-0.02 -0.06,-0.09 -0.05,-0.21 0.04,-0.27 0.09,0.05 0.11,0.17 0.06,0.26 -0.01,0 -0.03,0.03 -0.03,0.03l0 0.22 -0.01 0.01c0,0.02 -0.03,0.02 -0.04,0l0 0z"/>
    <path class="fil1 str0" d="M-1.07 4.02c-0.12,0.02 -0.24,-0.1 -0.21,-0.22 0.12,-0.03 0.24,0.09 0.21,0.22l0 0z"/>
    <path class="fil1 str0" d="M-0.75 3.8c0.02,0.12 -0.08,0.23 -0.2,0.22 -0.01,0 -0.01,0 -0.02,-0.01 -0.01,0 0,-0.06 0.01,-0.07 0.02,-0.09 0.11,-0.16 0.21,-0.14l0 0z"/>
    <path class="fil1 str0" d="M-0.45 4.13l-0.01 -0.01 0 -0.22c0,0 -0.02,-0.02 -0.02,-0.02 -0.06,-0.09 -0.04,-0.21 0.05,-0.27 0.08,0.05 0.1,0.17 0.05,0.26 0,0 -0.03,0.03 -0.03,0.03l0 0.22 0 0.01c-0.01,0.02 -0.04,0.02 -0.04,0l0 0z"/>
    <path class="fil1 str0" d="M-0.48 4.02c-0.13,0.02 -0.25,-0.1 -0.22,-0.22 0.12,-0.03 0.24,0.09 0.22,0.22l0 0z"/>
    <path class="fil1 str0" d="M-0.17 3.8c0.03,0.12 -0.08,0.23 -0.2,0.22 0,0 -0.01,0 -0.01,-0.01 -0.01,0 0,-0.06 0,-0.07 0.02,-0.09 0.12,-0.16 0.21,-0.14l0 0z"/>
    <path class="fil1 str0" d="M0.13 4.13l-0.01 -0.01 0 -0.22c0,0 -0.01,-0.02 -0.01,-0.02 -0.06,-0.09 -0.05,-0.21 0.04,-0.27 0.09,0.05 0.11,0.17 0.06,0.26 -0.01,0 -0.03,0.03 -0.03,0.03l0 0.22 -0.01 0.01c0,0.02 -0.03,0.02 -0.04,0l0 0z"/>
    <path class="fil1 str0" d="M0.1 4.02c-0.12,0.02 -0.24,-0.1 -0.21,-0.22 0.12,-0.03 0.24,0.09 0.21,0.22l0 0z"/>
    <path class="fil1 str0" d="M0.42 3.8c0.03,0.12 -0.08,0.23 -0.2,0.22 -0.01,0 -0.01,0 -0.02,-0.01 0,0 0,-0.06 0.01,-0.07 0.02,-0.09 0.12,-0.16 0.21,-0.14l0 0z"/>
    <path class="fil1 str0" d="M0.72 4.13l-0.01 -0.01 0 -0.22c0,0 -0.02,-0.02 -0.02,-0.02 -0.06,-0.09 -0.04,-0.21 0.05,-0.27 0.08,0.05 0.11,0.17 0.05,0.26 0,0 -0.02,0.03 -0.02,0.03l0 0.22 -0.01 0.01c-0.01,0.02 -0.03,0.02 -0.04,0l0 0z"/>
    <path class="fil1 str0" d="M0.69 4.02c-0.12,0.02 -0.25,-0.1 -0.22,-0.22 0.13,-0.03 0.24,0.09 0.22,0.22l0 0z"/>
    <path class="fil1 str0" d="M1.01 3.8c0.02,0.12 -0.09,0.23 -0.21,0.22 0,0 -0.01,0 -0.01,-0.01 -0.01,0 0,-0.06 0,-0.07 0.02,-0.09 0.12,-0.16 0.22,-0.14l0 0z"/>
    <path class="fil1 str0" d="M1.3 4.13l0 -0.01 0 -0.22c0,0 -0.02,-0.02 -0.02,-0.02 -0.06,-0.09 -0.05,-0.21 0.04,-0.27 0.09,0.05 0.11,0.17 0.06,0.26 -0.01,0 -0.03,0.03 -0.03,0.03l0 0.22 0 0.01c-0.01,0.02 -0.04,0.02 -0.05,0l0 0z"/>
    <path class="fil1 str0" d="M1.27 4.02c-0.12,0.02 -0.24,-0.1 -0.21,-0.22 0.12,-0.03 0.24,0.09 0.21,0.22l0 0z"/>
    <path class="fil1 str0" d="M1.59 3.8c0.03,0.12 -0.08,0.23 -0.2,0.22 -0.01,0 -0.01,0 -0.01,-0.01 -0.01,0 -0.01,-0.06 0,-0.07 0.02,-0.09 0.12,-0.16 0.21,-0.14l0 0z"/>
    <path class="fil1 str0" d="M1.89 4.13l-0.01 -0.01 0 -0.22c0,0 -0.01,-0.02 -0.02,-0.02 -0.06,-0.09 -0.04,-0.21 0.05,-0.27 0.08,0.05 0.11,0.17 0.05,0.26 0,0 -0.02,0.03 -0.02,0.03l0 0.22 -0.01 0.01c-0.01,0.02 -0.03,0.02 -0.04,0l0 0z"/>
    <path class="fil1 str0" d="M1.86 4.02c-0.12,0.02 -0.25,-0.1 -0.22,-0.22 0.13,-0.03 0.24,0.09 0.22,0.22l0 0z"/>
    <path class="fil1 str0" d="M2.18 3.8c0.02,0.12 -0.09,0.23 -0.21,0.22 0,0 -0.01,0 -0.01,-0.01 -0.01,0 0,-0.06 0,-0.07 0.03,-0.09 0.12,-0.16 0.22,-0.14l0 0z"/>
    <path class="fil1 str0" d="M2.47 4.13l0 -0.01 0 -0.22c0,0 -0.02,-0.02 -0.02,-0.02 -0.06,-0.09 -0.05,-0.21 0.05,-0.27 0.08,0.05 0.1,0.17 0.05,0.26 0,0 -0.03,0.03 -0.03,0.03l0 0.22 0 0.01c-0.01,0.02 -0.04,0.02 -0.05,0l0 0z"/>
    <path class="fil1 str0" d="M2.44 4.02c-0.12,0.02 -0.24,-0.1 -0.21,-0.22 0.12,-0.03 0.24,0.09 0.21,0.22l0 0z"/>
    <path class="fil1 str0" d="M2.76 3.8c0.03,0.12 -0.08,0.23 -0.2,0.22 -0.01,0 -0.01,0 -0.01,-0.01 -0.01,0 -0.01,-0.06 0,-0.07 0.02,-0.09 0.12,-0.16 0.21,-0.14l0 0z"/>
    <path class="fil1 str0" d="M3.06 4.13l-0.01 -0.01 0 -0.22c0,0 -0.01,-0.02 -0.02,-0.02 -0.06,-0.09 -0.04,-0.21 0.05,-0.27 0.08,0.05 0.11,0.17 0.06,0.26 -0.01,0 -0.03,0.03 -0.03,0.03l0 0.22 -0.01 0.01c-0.01,0.02 -0.03,0.02 -0.04,0l0 0z"/>
    <path class="fil1 str0" d="M3.03 4.02c-0.12,0.02 -0.25,-0.1 -0.22,-0.22 0.13,-0.03 0.24,0.09 0.22,0.22l0 0z"/>
    <path class="fil1 str0" d="M3.35 3.8c0.02,0.12 -0.08,0.23 -0.21,0.22 0,0 -0.01,0 -0.01,-0.01 -0.01,0 0,-0.06 0,-0.07 0.03,-0.09 0.12,-0.16 0.22,-0.14l0 0z"/>
    <path class="fil1 str0" d="M3.64 4.13l0 -0.01 0 -0.22c0,0 -0.02,-0.02 -0.02,-0.02 -0.06,-0.09 -0.05,-0.21 0.05,-0.27 0.08,0.05 0.1,0.17 0.05,0.26 0,0 -0.03,0.03 -0.03,0.03l0 0.22 0 0.01c-0.01,0.02 -0.04,0.02 -0.05,0l0 0z"/>
    <path class="fil1 str0" d="M3.61 4.02c-0.12,0.02 -0.24,-0.1 -0.21,-0.22 0.12,-0.03 0.24,0.09 0.21,0.22l0 0z"/>
    <path class="fil1 str0" d="M3.93 3.8c0.03,0.12 -0.08,0.23 -0.2,0.22 0,0 -0.01,0 -0.01,-0.01 -0.01,0 -0.01,-0.06 0,-0.07 0.02,-0.09 0.12,-0.16 0.21,-0.14l0 0z"/>
   </g>
  </g>
  <polygon class="fil1" points="0,0 0.59,0 0.59,0.92 0,0.92 "/>
 </g>
</svg>
