<?xml version="1.0" encoding="UTF-8"?>
<!DOCTYPE svg PUBLIC "-//W3C//DTD SVG 1.1//EN" "http://www.w3.org/Graphics/SVG/1.1/DTD/svg11.dtd">
<!-- Creator: CorelDRAW 2021 (64-Bit) -->
<svg xmlns="http://www.w3.org/2000/svg" xml:space="preserve" width="16px" height="16px" version="1.1" style="shape-rendering:geometricPrecision; text-rendering:geometricPrecision; image-rendering:optimizeQuality; fill-rule:evenodd; clip-rule:evenodd"
viewBox="0 0 3 3"
 xmlns:xlink="http://www.w3.org/1999/xlink"
 xmlns:xodm="http://www.corel.com/coreldraw/odm/2003">
 <defs>
  <style type="text/css">
   <![CDATA[
    .fil4 {fill:none}
    .fil3 {fill:#99CC33}
    .fil0 {fill:#613F2C;fill-rule:nonzero}
    .fil1 {fill:#97CA49;fill-rule:nonzero}
    .fil2 {fill:url(#id0)}
   ]]>
  </style>
  <linearGradient id="id0" gradientUnits="userSpaceOnUse" x1="1.35" y1="1.59" x2="1.35" y2="0.67">
   <stop offset="0" style="stop-opacity:1; stop-color:#3A63AC"/>
   <stop offset="1" style="stop-opacity:1; stop-color:#339BD6"/>
  </linearGradient>
 </defs>
 <g id="Capa_x0020_1">
  <metadata id="CorelCorpID_0Corel-Layer"/>
  <g id="_2377273030560">
   <path class="fil0" d="M1.27 0.41c0.56,0 1.02,0.46 1.02,1.02 0,0.27 -0.1,0.51 -0.27,0.7 0.22,0.2 0.43,0.34 0.73,0.06 -0.12,0.4 -0.57,0.51 -0.88,0.27 -0.05,-0.04 -0.09,-0.08 -0.13,-0.12 -0.14,0.07 -0.3,0.12 -0.47,0.12 -0.57,0 -1.03,-0.46 -1.03,-1.03 0,-0.56 0.46,-1.02 1.03,-1.02z"/>
   <path class="fil1" d="M1.27 0.84c0.33,0 0.59,0.27 0.59,0.59 0,0.16 -0.06,0.3 -0.15,0.4 -0.15,-0.11 -0.31,-0.2 -0.52,-0.17 0,0 0.15,0.07 0.19,0.16 -0.1,-0.02 -0.23,-0.04 -0.37,0.05 0.19,0 0.32,0.05 0.43,0.14 -0.06,0.01 -0.11,0.02 -0.17,0.02 -0.33,0 -0.6,-0.27 -0.6,-0.6 0,-0.32 0.27,-0.59 0.6,-0.59z"/>
   <path class="fil2" d="M1.27 0.96c0.26,0 0.47,0.21 0.47,0.47 0,0.1 -0.03,0.19 -0.08,0.27 -0.1,-0.07 -0.23,-0.11 -0.37,-0.11 -0.15,0 -0.29,0.05 -0.41,0.13 -0.06,-0.08 -0.09,-0.18 -0.09,-0.29 0,-0.26 0.21,-0.47 0.48,-0.47z"/>
   <path class="fil3" d="M1.14 1.17c0.05,0.06 0.07,0.13 0.07,0.21 0,0.07 -0.02,0.14 -0.07,0.2 -0.05,-0.06 -0.08,-0.13 -0.08,-0.2 0,-0.08 0.03,-0.15 0.08,-0.21z"/>
   <path class="fil3" d="M1.47 1.32c0,0.06 -0.02,0.11 -0.05,0.15 -0.04,0.04 -0.08,0.07 -0.14,0.08 0,-0.05 0.02,-0.1 0.05,-0.15 0.04,-0.04 0.08,-0.06 0.14,-0.08z"/>
  </g>
  <rect class="fil4" width="3" height="3"/>
 </g>
</svg>
