<svg width="89" height="89" viewBox="0 0 89 89" fill="none" xmlns="http://www.w3.org/2000/svg">
<g clip-path="url(#clip0_10102_45)">
<rect width="89" height="89" fill="white"/>
<path d="M70.9466 61.1279V35.4731L39.5908 53.5265C39.5908 53.8432 41.4911 54.4767 41.8078 54.4767C44.3417 55.1101 45.9253 55.1101 48.1424 54.16C49.0925 53.8432 53.21 51.3094 53.5267 51.3094L70.9466 61.1279ZM18.0534 35.4731V61.4447L44.3417 76.3308C44.6584 76.3308 47.5089 74.7472 48.1424 74.4304C48.4591 74.4304 48.7758 74.1137 48.7758 73.797L35.4733 66.5123C35.4733 66.1955 38.3239 64.6119 38.6406 64.2952C38.9573 64.2952 39.274 63.9785 39.9075 64.2952L52.5765 71.5799L57.6442 68.7294L44.9751 61.1279V60.8112L48.4591 58.9109L61.7616 66.5123L66.8292 63.6617L53.8434 56.0603C53.21 55.7436 51.6264 57.0105 50.9929 57.3272C46.8755 59.2276 42.4413 59.2276 38.0071 57.3272C36.7402 56.6938 33.2562 54.7934 31.9893 53.8432C31.6726 53.8432 31.6726 53.8432 31.6726 53.2098L40.5409 48.1422L18.0534 35.4731ZM46.5587 44.6582L74.7473 28.8219V63.6617L44.3417 81.0817L14.2527 63.6617V28.8219L42.4413 44.6582V29.1386C42.4413 29.1386 41.4911 27.8717 41.1744 27.555C37.057 21.2205 38.0071 12.3521 44.6584 7.91797C50.6762 12.0354 52.2598 20.587 48.4591 26.6048C48.1424 27.2383 46.5587 29.1386 46.5587 29.4553V44.6582Z" fill="#0A7F36"/>
<path d="M40.8576 37.3733C31.9892 39.2737 23.1209 30.7221 25.338 21.8537C34.2063 19.9534 42.7579 28.505 40.8576 37.3733Z" fill="#0A7F36"/>
<path d="M63.662 21.854C65.5623 30.4056 57.9609 38.6405 49.0926 37.6903C48.7758 37.6903 48.4591 37.6903 48.1424 37.3736C47.5089 36.7402 48.1424 32.9395 48.4591 31.9893C50.0427 25.338 57.0107 20.5871 63.662 21.854Z" fill="#0A7F36"/>
</g>
<defs>
<clipPath id="clip0_10102_45">
<rect width="89" height="89" fill="white"/>
</clipPath>
</defs>
</svg>
