<svg width="244" height="209" viewBox="0 0 244 209" fill="none" xmlns="http://www.w3.org/2000/svg">
<path fill-rule="evenodd" clip-rule="evenodd" d="M178.772 163.278C-227.906 97.8839 409.673 200.406 178.772 163.278V163.278ZM124.363 99.7154C122.759 74.2988 121.014 46.2609 103.762 26.5877C92.3157 13.5343 46.0781 -5.45132 33.3364 5.71903C23.2738 16.2336 44.8023 55.9785 54.8302 64.8531C80.3416 87.4315 101.832 83.8146 116.336 87.5397L119.515 127.336C105.539 128.168 98.9229 127.298 87.1306 135.577C78.5287 141.616 73.4906 151.66 67.528 156.024C46.2305 159.413 40.9829 154.265 23.2774 171.762C18.1996 176.78 14.0887 182.556 11.2824 189.17C3.21009 208.192 0.814238 190.758 0.816408 208.226L243.447 208.194C243.446 196.584 243.053 201.898 235.583 198.631C229.795 176.266 212.633 158.251 188.545 156.984C162.32 155.605 166.927 126.359 127.51 127.633L132.596 98.6797C143.26 93.8483 173.648 95.0076 197.237 68.3183C206.46 57.883 232.444 4.14165 214.404 1.25282C192.129 -2.31442 161.914 12.9249 147.421 29.269C129.001 50.0398 128.402 74.5851 124.364 99.7156L124.363 99.7154Z" fill="#3B2413"/>
<path fill-rule="evenodd" clip-rule="evenodd" d="M15.7017 199.973L227.653 200.629C228.291 191.216 218.029 178.312 211.691 173.28C196.845 161.49 195.077 165.9 178.772 163.278C158.28 159.983 170.144 134.417 120.945 134.61C74.3994 134.793 84.585 163.558 63.5338 163.874C48.6564 164.098 43.0053 163.518 30.7963 173.938C26.1018 177.945 14.0863 194.158 15.7017 199.973V199.973Z" fill="#B48344"/>
<path fill-rule="evenodd" clip-rule="evenodd" d="M133.448 84.1193C143.827 75.3228 165.55 41.3964 174.135 49.2818L139.117 89.8099C158.327 86.2803 180.721 77.8621 191.981 64.4791C201.259 53.4508 214.964 24.0737 211.807 9.21367C195.017 4.81062 168.379 18.188 156.707 29.1723C145.299 39.907 133.583 67.6368 133.449 84.119L133.448 84.1193Z" fill="#81912E"/>
<path fill-rule="evenodd" clip-rule="evenodd" d="M38.8659 11.4716C36.4031 29.7873 50.2887 48.7671 60.8111 60.1877C69.0123 69.0895 100.32 84.2536 112.402 78.7505C110.617 74.8821 95.0196 61.165 90.8535 56.8172C84.5274 50.2155 68.803 42.9369 71.3748 35.6197C81.7465 34.9439 106.4 64.9521 115.067 70.6076C112.023 54.1885 104.768 34.1797 91.4487 25.5484C76.8049 16.0588 57.5649 7.1527 38.8659 11.4716Z" fill="#81912E"/>
</svg>
