<?xml version="1.0" encoding="UTF-8"?>
<svg viewBox="0 0 94 49" xmlns="http://www.w3.org/2000/svg">
<path d="m14.861 48.723 65.074 0.0356c-1.3517-0.655-0.6563-0.407-1.4321-1.5903l-2.6239-3.5804c-0.3466-0.4952-0.2198-0.3883-0.6633-0.9531l-8.2518-11.717c-0.5891-0.7025-0.8626-1.1866-1.3613-1.8665-0.1821-0.2483-0.4882-0.6116-0.6972-0.9191-1.6264-2.3921-3.7455-6.608-6.6659-6.8862-0.9692 2.2433-1.8418 3.2604-3.7312 1.8915-1.0827-0.7845-2.7565-3.5747-3.441-4.6181-0.6216 0.2718-0.4581 0.0929-1.1175 1.4358-0.9681 1.9713-1.2656 3.489-4.0894 3.2313-0.3904-0.9182-1.724-1.8117-2.351-2.8359-1.7512-2.8607-2.2347 0.3804-3.9328 0.8919-2.3171 0.6977-2.7061-1.2646-3.7236-1.9325-0.643 0.6273-0.9234 1.3099-1.3388 1.9685l-6.5953 9.3163c-0.0317 0.0499-0.0732 0.1169-0.1052 0.1663l-0.5494 0.7884c-0.1844 0.2322-0.5113 0.5853-0.7334 0.8676-0.3695 0.4695-0.7913 1.2396-1.1891 1.7958l-2.7245 3.74c-0.3615 0.5803-0.1809 0.3972-0.633 0.9938l-4.499 6.2837c-0.6457 1.0278-1.586 2.9462-2.624 3.4926l-2e-4 2e-4z" clip-rule="evenodd" fill="#D2721E" fill-rule="evenodd"/>
<path d="m2.1255 48.653c1.6255-1.1193 7.5194-10.079 9.2289-12.231l4.2278-5.9914c0.7407 0.7383 0.1967 0.6254 1.2668 1.1554 0.8801 0.4359 1.9857 0.5046 2.9238 0.0688 1.1333-0.5266 1.0032-1.2933 2.2882-1.7455l1.4175 1.8387-8.7637 12.354c-1.0027 1.3965-2.752 2.8151-1.2712 4.6323l1.4178-0.0115c1.038-0.5464 1.9783-2.4647 2.624-3.4926l4.4991-6.2837c0.4521-0.5964 0.2714-0.4135 0.633-0.9938l2.7245-3.74c0.3979-0.5561 0.8196-1.3262 1.1891-1.7957 0.2221-0.2824 0.5489-0.6355 0.7333-0.8676l0.5495-0.7885c0.0319-0.0493 0.0733-0.1164 0.1052-0.1663l6.5952-9.3163c0.4155-0.6586 0.6958-1.3412 1.3388-1.9684 1.0176 0.6679 1.4066 2.6303 3.7237 1.9325 1.6982-0.5115 2.1817-3.7526 3.9327-0.892 0.6271 1.0242 1.9607 1.9178 2.351 2.8359 2.8239 0.2577 3.1214-1.26 4.0894-3.2312 0.6594-1.3429 0.496-1.1642 1.1176-1.4358 0.6845 1.0434 2.3583 3.8336 3.441 4.618 1.8895 1.3689 2.762 0.3518 3.7312-1.8914 2.9203 0.2781 5.0394 4.4941 6.6659 6.8861 0.209 0.3075 0.515 0.6708 0.6972 0.9192 0.4986 0.6797 0.7721 1.1639 1.3612 1.8665l8.2519 11.717c0.4434 0.5646 0.3166 0.4578 0.6633 0.953l2.6239 3.5805c0.7758 1.1831 0.0804 0.9352 1.432 1.5903l1.2616-0.0209c1.3491-1.5338 0.4771-2.3815-0.4033-3.5741l-3.54-4.8113c-0.6182-0.9122-2.8357-4.328-3.5829-4.6465 0.3091-1.3265 1.184-2.7179 1.6203-3.9566 3.053 3.4196 2.8867 2.7666 5.7248 1.9171 1.1778 1.3508 1.7139 2.3841 2.706 3.7364l6.6599 9.5151c0.6113 0.8627 0.6918 1.3092 1.4748 1.7691 5.0335 0.3853-0.5956-5.503-3.2676-9.3833l-13.937-20.054c-1.4008-1.9478-3.4606-2.7932-5.5266-0.9562-0.6203 0.5515-1.3717 1.5479-2.01 2.309-0.7234 0.8623-1.3 1.5845-2.0551 2.2921-3.0577-3.5896-13.962-21.177-16.163-22.444-3.8246-2.2012-6.7289 4.1371-9.7707 8.7107l-7.9035 11.508c-1.2044-1.6556-1.9863-3.7629-4.1096-4.4794-2.7726-0.9356-4.7937 0.6513-6.0018 2.2472l-20.774 28.064c-0.85471 1.6858-0.022789 2.4729 1.7881 2.1528v-3e-4z" clip-rule="evenodd" fill="#662601" fill-rule="evenodd"/>
<path d="m2.1255 48.653 11.318 0.0809c-1.4808-1.817 0.2685-3.2359 1.2713-4.6324l8.7636-12.354-1.4175-1.8386c-1.285 0.452-1.1549 1.2189-2.2882 1.7455-0.9381 0.4358-2.0437 0.3672-2.9238-0.0688-1.0701-0.53-0.5261-0.4171-1.2668-1.1554l-4.2277 5.9914c-1.7096 2.1522-7.6035 11.112-9.229 12.231l-1.2e-4 1e-4z" clip-rule="evenodd" fill="#D2721E" fill-rule="evenodd"/>
<path d="m37.573 16.944c0.3082 0.5695 0.4197 0.9102 1.2548 1.3827 3.89-4.638 4.8972-1.1786 8.0616 1.526 2.5334-6.3114 5.6677-4.4781 8.7054 0.1085l1.0149-1.2271c0.454-0.3612 0.73-0.4198 1.3824-0.5912l-7.8909-11.631c-0.6841-0.99527-1.8458-3.1236-2.8898-3.5616-1.1758 0.91238-8.2809 11.832-9.6383 13.994h-1e-4z" clip-rule="evenodd" fill="#ECEDF5" fill-rule="evenodd"/>
<path d="m81.197 48.737 10.66-0.0506c-0.783-0.4599-0.8635-0.9064-1.4747-1.7691l-6.66-9.5151c-0.9921-1.3523-1.5282-2.3856-2.706-3.7365-2.838 0.8495-2.6716 1.5026-5.7247-1.917-0.4364 1.2388-1.3113 2.6301-1.6203 3.9566 0.7471 0.3186 2.9647 3.7343 3.5828 4.6465l3.54 4.8113c0.8804 1.1924 1.7525 2.0403 0.4033 3.5741v-2e-4z" clip-rule="evenodd" fill="#D2721E" fill-rule="evenodd"/>
<path d="m66.708 25.846c1.8635 1.6766 3.2275 4.9379 5.1129 6.6925 0.9585-1.39 1.2058-3.7674 3.0192-4.0045 2.4718-0.323 2.5524 2.2284 4.2417 2.6328-0.2735-0.9773-6.7297-10.224-7.5313-10.961-0.7096 0.5281-1.7349 1.8854-2.3962 2.6942-0.714 0.8734-1.9308 2.2064-2.4463 2.9454v2e-4z" clip-rule="evenodd" fill="#ECEDF5" fill-rule="evenodd"/>
<path d="m17.75 28.249 0.6284 0.7224c1.357-0.5033 1.4539-1.9786 3.2445-2.2883 1.6193-0.2802 2.8432 1.1982 3.3364 2.3308 1.2745-1.0498 3.3458-4.1313 4.3488-5.6099-0.1783-0.4538-1.9405-3.3416-2.3455-3.812-1.5592-1.811-2.9634 0.1623-3.8352 1.1105-0.8862 0.9635-5.0864 6.4647-5.3773 7.5467l-1e-4 -2e-4z" clip-rule="evenodd" fill="#fff" fill-rule="evenodd"/>
</svg>
