<svg width="222" height="219" viewBox="0 0 222 219" fill="none" xmlns="http://www.w3.org/2000/svg">
<path fill-rule="evenodd" clip-rule="evenodd" d="M196.282 78.947C190.99 79.2573 159.208 97.5505 154.123 102.095C146.269 109.114 165.3 137.518 169.905 145.671L146.027 146.842C146.825 139.66 148.47 134.916 142.949 129.066C137.27 130.171 109.993 166.506 108.769 173.189C109.398 174.733 123.984 194.072 126.631 197.804C135.412 210.185 135.312 217.339 147.83 218.359L148.702 200.478C166.142 199.538 181.976 205.334 193.297 189.194C200.247 179.286 206.859 165.548 213.462 154.694C223.836 137.64 224.427 132.242 215.564 114.253C210.416 103.805 203.83 86.5566 196.282 78.9468V78.947Z" fill="#3B2413"/>
<path fill-rule="evenodd" clip-rule="evenodd" d="M167.404 84.4646C171.502 73.7038 191.737 37.6904 186.913 29.1244C178.642 28.6803 178.001 34.3232 171.228 37.2217C163.865 27.2835 160.066 10.2918 148.459 3.9252C139.757 -0.847666 107.728 0.878936 96.2605 0.991519C75.7884 1.1921 71.7437 5.61805 61.8556 21.8105C57.1066 29.5877 43.1508 49.4967 43.1079 57.5149C57.8648 72.254 89.4513 82.7606 89.4521 82.7611L113.733 43.6165L124.407 67.1055C117.277 69.1783 110.092 67.3403 110.492 75.4258C114.873 80.9323 158.817 85.3122 167.404 84.4646H167.404Z" fill="#3B2413"/>
<path fill-rule="evenodd" clip-rule="evenodd" d="M2.74415 83.6645C2.9604 92.0467 10.0842 94.2256 15.7884 98.6923C10.0355 111.237 -2.83251 121.293 0.831631 136.862C2.42998 143.652 15.4502 164.084 19.5077 171.559C26.6265 184.674 31.0296 197.25 46.8911 199.643C54.9754 200.863 93.8323 200.922 99.0611 197.709L97.7484 144.3L51.2886 145.603L64.2608 122.764C71.9174 124.641 74.1078 131.416 82.9161 128.156C84.0663 121.23 60.3603 85.2016 53.8748 77.6708L2.74387 83.6645H2.74415Z" fill="#3B2413"/>
<path fill-rule="evenodd" clip-rule="evenodd" d="M141.231 205.681C140.508 189.783 140.368 192.361 157.6 192.877C189.63 193.837 183.952 191.469 206.836 150.961L149.496 154.372C135.876 155.592 138.88 153.097 139.481 142.711C134.812 145.868 116.916 169.021 118.707 173.651C119.405 175.457 139.844 204.308 141.231 205.681H141.231Z" fill="#7E912E"/>
<path fill-rule="evenodd" clip-rule="evenodd" d="M129.74 74.179L162.898 76.8875L179.98 40.4271L168.706 47.4808C161.352 39.7279 155.568 21.2667 149.005 14.1423C140.671 5.09562 115.397 9.04399 103.253 8.52327L128.891 58.187C133.812 68.8306 135.029 66.6725 129.74 74.179Z" fill="#808E2E"/>
<path fill-rule="evenodd" clip-rule="evenodd" d="M25.0985 97.1342C20.5351 107.241 4.94725 123.323 7.60007 133.867C8.94866 139.227 25.712 169.124 28.2819 171.418C34.8443 160.435 40.8088 148.676 47.3087 137.873C50.5602 132.47 52.8757 127.517 56.9205 122.131C66.9544 108.771 61.5757 116.504 70.6072 117.199L51.1819 85.7772L13.5383 87.7635L25.0982 97.1344L25.0985 97.1342Z" fill="#808E2E"/>
<path fill-rule="evenodd" clip-rule="evenodd" d="M85.6686 74.6773C91.3817 65.0255 97.3874 54.4576 103.536 44.7638C108.478 36.9712 110.289 37.9885 105.567 28.3879C104.298 25.8061 98.7114 13.3513 97.7549 12.0271C82.8015 -8.67983 53.3926 47.5974 50.7458 55.0169L85.6686 74.6773Z" fill="#808E2E"/>
<path fill-rule="evenodd" clip-rule="evenodd" d="M45.0812 152.725C42.3185 163.482 23.796 182.958 40.6449 190.42C47.2719 193.355 86.9278 193.102 93.1825 190.851L91.5623 151.79L45.0812 152.725Z" fill="#808E2E"/>
<path fill-rule="evenodd" clip-rule="evenodd" d="M159.215 107.337L177.71 145.106L210.266 143.922C218.026 130.225 213.992 129.231 207.825 115.334C204.22 107.21 198.99 95.6245 194.852 87.9778L159.215 107.337Z" fill="#7E912E"/>
</svg>
