<svg width="306" height="219" viewBox="0 0 306 219" fill="none" xmlns="http://www.w3.org/2000/svg">
<path fill-rule="evenodd" clip-rule="evenodd" d="M146.743 1.80973C136.398 5.40782 33.7175 163.888 12.0067 195.665C-6.3849 222.583 -5.62333 217.867 28.2149 218.248C72.1287 218.744 116.239 218.228 160.178 218.273C203.053 218.316 248.427 216.83 290.974 218.481C319.722 219.597 298.858 201.476 289.157 186.801L184.644 28.5945C175.916 15.2602 166.536 -5.07402 146.743 1.80973Z" fill="#36230C"/>
<path fill-rule="evenodd" clip-rule="evenodd" d="M9.99207 211.681L56.8446 210.803C59.254 208.17 84.6506 168.125 89.7549 161.286C95.165 154.037 101.295 144.748 106.387 136.585C110.739 129.611 115.289 112.945 123.868 113.148C128.418 126.588 71.364 194.291 64.8504 211.439L220.619 210.923C216.635 202.572 191.503 163.044 184.552 158.016C175.415 151.407 164.654 164.642 154.38 144.243C150.806 137.143 139.175 122.452 141.003 115.596C152.065 115.158 158.054 142.995 168.216 149.541C177.275 153.361 184.793 133.192 218.141 193.74C227.533 210.791 228.222 210.948 248.176 210.966C263.701 210.981 280.92 211.693 296.22 211.019C290.263 196.644 259.695 154.494 249.001 138.953C239.096 124.559 212.101 73.7363 194.903 74.6172C187.407 80.8235 183.469 93.8982 172.368 93.0961C156.111 91.9218 158.614 79.6377 148.412 73.8151C135.281 75.3916 127.407 111.19 105.964 73.5914C100.257 76.3168 15.3512 199.662 9.99231 211.681L9.99207 211.681Z" fill="#B48344"/>
<path fill-rule="evenodd" clip-rule="evenodd" d="M108.965 66.4537C112.303 72.9635 118.068 81.1428 125.613 82.3692C135.651 78.9078 137.939 62.8915 151.146 67.3032C161.732 70.8398 160.547 85.5239 174.892 86.2423C187.662 78.8352 177.775 74.1595 200.445 66.4255C194.323 56.1218 186.564 46.1751 180.016 35.8854C174.292 26.8906 166.276 8.694 154.778 8.25548C142.634 7.79237 115.039 54.6789 108.965 66.4534L108.965 66.4537Z" fill="#F9F3E7"/>
</svg>
