<?xml version="1.0" encoding="UTF-8"?>
<svg viewBox="0 0 93 55" xmlns="http://www.w3.org/2000/svg">
<path d="m10.937 28.215c1.546 1.2565 4.3608 2.9248 6.2316 4.039-1.0701 1.3672-2.0773 3.8283-1.1176 6.1927 0.8806 2.1691 2.3849 3.1028 5.1992 3.3612 0.1604 3.6696 2.601 5.5457 6.5115 4.9299 0.1291 1.8957 0.9552 3.3033 2.11 4.1057 1.9276 1.3396 3.285 0.6636 5.1921 0.1761 1.1633 3.5784 4.9253 4.633 8.6965 1.1222 3.6734 2.9761 6.6914 2.3618 9.7356-0.55 2.4887 0.4124 5.9533 1.4528 7.861-2.9553 3.4647-0.0273 5.6597-1.4246 6.2534-4.3319 2.6251 0.0035 4.4831-0.6854 5.5872-2.2437 1.4613-2.0624 1.0457-4.2731-0.1617-6.0618l8.5853-6.7535c2.3942 1.0278 2.2554 0.423 5.8575-1.7377 0.9016-0.5408 1.8362-1.1025 2.6945-1.6302 3.5154-2.1614 2.9545-2.4338-0.3728-8.3009-1.5112-2.6646-9.0037-16.148-9.9308-16.543-1.7725-0.75466-6.1621 2.5017-8.7351 3.9908-2.2751 1.317-0.9022 0.70458-1.9533 2.6254l-2.9596 0.59863c-0.1039-0.0718-0.1954-0.08881-0.2855-0.08893-6.4753-0.00724-12.617-6.1016-18.885-3.6926-1.2054 0.46324-1.7074 1.0881-2.9604 0.99165-1.1705-0.09014-2.1745-0.52527-3.575-0.52877-4.9784-0.01231-7.7452 2.3991-14.643 1.6608-3.6453-0.39024-1.7771-0.69504-3.6071-2.0289-1.02-0.74355-2.2511-1.2417-3.4363-1.9683-1.1578-0.71001-2.4894-1.5947-3.5565-2.1205-2.1326-1.0503-2.9509-0.2195-3.795 1.1929l-10.146 17.887c-2.4394 4.2762-1.4177 4.0011 2.1846 6.3789 0.88902 0.5868 4.4027 2.9434 5.3898 3.0268 1.2006 0.1016 1.2678-0.3363 2.0318-0.7437h-1e-4z" clip-rule="evenodd" fill="#662601" fill-rule="evenodd"/>
<path d="m22.126 8.772-4.7255 8.4629c-0.8124 1.494-1.7185 2.9786-2.424 4.3273-0.8295 1.5856-1.8577 2.8273-2.4401 4.5469 1.1015 0.2465 5.2306 3.1545 6.6149 3.8921 2.6451-1.4315 4.2953-4.2347 8.6648-0.5383 0.63 0.533 0.5926 0.2542 0.9882 1.1558 0.2479 0.5651 0.3113 1.1975 0.3557 1.8565 1.7414-0.5097 3.4518-0.5246 4.7792 0.5745 1.2997 1.076 1.7229 2.065 1.8799 4.3505 3.9722-0.3763 6.013 2.6521 5.3642 6.607 4.8966 2.3596 2.5583 2.5881 3.9026 5.1567 0.4831 0.9231 1.4322 1.5622 2.5287 1.8077 1.2162 0.2725 2.5138 0.0479 3.0691-0.744-0.1773-0.5102-0.1711-0.3627-0.5364-0.7343-0.1391-0.1415-0.7328-0.6089-0.8921-0.7255l-5.2046-4.2944c-0.0197-0.9756-0.0483-1.9533 1.0952-2.0848 1.3312-0.1528 2.6446 1.5006 3.5866 2.328l0.2782 0.2587c1.7433 1.6311 4.915 4.3659 7.4375 4.1481 1.231-0.1063 1.6802-0.5937 1.9419-1.5177l-10.536-8.4821c-0.771-0.6392-1.6599-1.0195-1.6207-2.0589 0.074-1.964 1.8044-1.4967 2.745-0.6806l5.9037 4.8946c0.379 0.3058 0.4497 0.3046 0.8007 0.5673 1.3025 0.9745 2.1703 2.0454 3.5316 2.9547 2.7537 1.8397 8.0689 0.0939 4.1473-2.8216l-0.6942-0.6386c-1.6164-1.6321-3.4399-2.83-5.2054-4.2626l-2.5213-2.3033c-0.0399-0.0382-0.0955-0.0955-0.1375-0.1324l-1.2175-0.9582c-0.5529-0.5973 0.211-0.0059-0.6268-0.7008-1.1766-0.976-2.4648-0.7862-1.6379-3.2671 1.0029-0.3311 1.6929-0.2168 2.353 0.3787l7.3492 6.1538c0.3687 0.3169 0.2096 0.1262 0.5933 0.4948l3.2506 2.6831c0.7566 0.6279 1.6994 1.6979 2.9906 1.829 4.8303 0.4903 3.7567-3.8101 0.8255-5.6424l-19.108-15.694c-0.1562-0.1697-0.4541-0.525-0.6332-0.7259-1.0323 3e-4 -4.0176 0.2881-4.8078 0.9782-0.7999 0.6988-1.1505 1.5913-1.9542 2.341-3.0984 2.8895-9.6639 4.9133-12.32 1.4029-1.8177-2.402 1.1517-7.676 2.3015-9.7746 1.3311-2.4296 3.1816-3.2509 5.5439-4.6856 0.9594-0.58271 1.7198-0.60732 2.0223-1.4616-2.0798-0.15796-6.0075 1.1068-8.5327 1.4417-3.9613 0.52563-5.5771-0.00845-9.0696-0.66367l1e-4 2.4e-4z" clip-rule="evenodd" fill="#CC6336" fill-rule="evenodd"/>
<path d="m42.471 17.225c2.1157-0.3268 4.1601-0.2541 6.398-0.9793 1.1126-0.3604 1.5737-1.091 2.7277-1.1005 1.5531-0.0128 1.6113 0.8705 1.4633 2.1621l-1.2157 0.4597c0.5172 1.4552 8.319 7.1659 9.4848 8.2126l9.7453 7.8858 4.5073-3.6829c1.3497-1.1561 3.3473-2.4929 4.4988-3.6717-2.2668-3.823-7.8261-12.811-9.4998-16.179-13.088 2.4103-16.778-5.9109-22.736-2.9251-2.2271 1.1159-4.2647 2.2108-6.4289 3.296-6.2454 3.1321-6.2609 3.3784-9.161 10.036-1.2891 2.9595 3.6456 2.2183 5.4333 1.3297 2.455-1.2203 3.6146-2.7615 4.7836-4.8438h-3e-4z" clip-rule="evenodd" fill="#FEB777" fill-rule="evenodd"/>
<path d="m80.07 20.654 2.7153-1.8778c1.7058-1.0358 2.383-0.8141 3.2299-1.8946-1.1184-2.2847-2.3823-4.1863-3.674-6.4101-0.9395-1.6177-3.1015-5.0063-3.541-6.4937-0.9835 0.30384-5.8536 3.2399-6.4904 3.85 0.6026 0.95111 1.1544 2.0521 1.7441 3.0666l6.0162 9.7594-1e-4 1e-4z" clip-rule="evenodd" fill="#01B4D5" fill-rule="evenodd"/>
<path d="m6.6661 16.378c0.60885 0.114 2.4559 1.1434 3.2265 1.5823 0.50761 0.289 1.0402 0.6814 1.5075 0.9125 0.7615 0.3765 0.9916 0.1172 1.5006 0.7743l7.3152-12.785-6.2037-3.7104c-0.9486 1.2948-7.0608 12.174-7.3462 13.226h1.1e-4z" clip-rule="evenodd" fill="#01B4D5" fill-rule="evenodd"/>
<path d="m12.901 19.647c-0.5091-0.6571-0.7392-0.3977-1.5005-0.7743-0.4674-0.2311-1-0.6235-1.5076-0.9125-0.77069-0.439-2.6176-1.4684-3.2264-1.5823l-0.93436 1.3576c-0.40796 0.6765-0.53659 0.9369-0.87908 1.5575-0.62158 1.1266-1.3221 1.9732-1.7568 3.2319 2.0514 0.7647 4.3708 2.8655 6.3081 3.4435 1.1288-1.8626 2.609-4.348 3.4968-6.3214h-1e-4z" clip-rule="evenodd" fill="#0186A8" fill-rule="evenodd"/>
<path d="m80.069 20.654c0.9035 2.3047 2.8381 5.2678 3.4446 5.8754l6.0478-3.4361c-0.551-1.5134-2.5985-4.842-3.5472-6.2117-0.8468 1.0804-1.5242 0.8588-3.2298 1.8946l-2.7154 1.8778z" clip-rule="evenodd" fill="#0186A8" fill-rule="evenodd"/>
<path d="m30.101 35.39c-0.8497 0.3778-0.2412-1e-4 -0.8481 0.3673l-3.9292 3.8974c-2.2539 2.3138-0.5076 5.4908 2.1497 4.0337 6.4811-3.5541 6.7864-10.148 2.6276-8.2984z" clip-rule="evenodd" fill="#FEB777" fill-rule="evenodd"/>
<path d="m23.74 30.747c-7.8263 2.7517-5.3208 12.098 0.0263 6.264 0.4912-0.5358 0.3037-0.5271 0.8355-1.0355 3.5316-3.3759 1.2114-5.9573-0.8618-5.2285z" clip-rule="evenodd" fill="#FEB777" fill-rule="evenodd"/>
<path d="m35.825 40.521c-1.54 0.6578-3.3384 2.7642-4.3675 4.1464-2.5992 3.4918 1.2112 6.8897 6.352-0.1079 1.343-1.828 0.6564-5.1666-1.9845-4.0385z" clip-rule="evenodd" fill="#FEB777" fill-rule="evenodd"/>
<path d="m40.04 47.24c-0.665 0.36-1.9895 1.516-2.2526 2.3695-0.3539 1.1479 0.8024 2.0101 2.0284 1.7486 3.3015-0.704 2.5498-5.3765 0.2243-4.1181h-1e-4z" clip-rule="evenodd" fill="#FEB777" fill-rule="evenodd"/>
</svg>
