<svg width="104" height="123" viewBox="0 0 104 123" fill="none" xmlns="http://www.w3.org/2000/svg">
<path fill-rule="evenodd" clip-rule="evenodd" d="M10.9054 79.2508C11.1358 87.5961 9.90357 96.5187 15.7761 102.763C22.0233 109.404 31.4704 106.671 39.7574 107.365C41.9221 111.128 41.4725 120.389 43.0184 122.359C46.5264 124.652 75.8085 116.623 81.5645 114.916C91.55 111.958 87.7284 113.692 87.7728 98.3309C87.8283 79.0843 94.5223 80.1916 100.597 63.995C102.804 58.1086 104.314 49.4968 103.944 43.2663C103.253 31.5712 97.7944 17.0092 88.203 10.7898C82.1639 6.87385 80.113 4.92004 72.85 2.49998C50.7365 -4.87397 20.2166 3.92371 11.3051 30.7691C9.22917 37.0247 10.3781 49.6245 9.15701 52.2527C4.67213 61.9024 -9.91759 77.5856 10.9027 79.2535L10.9054 79.2508Z" fill="#163B38"/>
<path fill-rule="evenodd" clip-rule="evenodd" d="M84.176 109.221C83.1547 97.8199 82.3942 88.0703 88.3001 77.8738C93.7036 68.5433 96.8979 64.1833 99.0738 53.0932C104.769 24.0664 80.557 -1.91311 43.7371 6.07142C36.2439 7.69774 26.7079 13.4648 22.1231 19.4844C18.0185 24.8768 17.8631 24.3495 15.7233 31.1268C14.233 35.8448 13.3393 41.981 13.7445 46.8877C14.5827 56.9897 6.87845 61.9964 4.54165 69.584C4.12813 70.9301 3.6036 71.8293 4.67487 72.7229C8.90164 76.2475 12.4845 73.7803 14.3135 76.0366C15.8982 77.6241 13.4503 94.3091 18.5735 99.9707C23.4969 105.41 36.4964 102.177 42.7797 103.173C45.3884 106.84 45.3607 115.643 46.4514 118.229C53.3813 117.599 59.5647 116.156 66.2198 114.585C68.8286 113.969 81.8947 110.953 84.176 109.221Z" fill="#B8C767"/>
<path fill-rule="evenodd" clip-rule="evenodd" d="M77.5292 56.5214C88.5943 55.0505 85.3861 51.0124 85.078 47.313C84.9254 45.4674 85.5664 44.4933 86.0271 42.656C88.0392 34.6438 83.7597 32.4679 79.3442 27.4113C77.0851 24.8248 77.8178 23.0902 74.0157 20.8089C65.7286 15.8356 61.4797 21.1586 56.2205 19.0744C47.5144 15.6247 46.0546 21.5804 38.9914 22.9431C35.2087 23.673 34.1069 24.6111 33.0773 28.4077C31.4454 34.4328 32.2891 31.7574 28.462 35.0656C26.0114 37.1832 26.0391 41.7319 27.0771 44.5738C29.3501 50.796 36.5492 50.6017 37.9701 51.2678C38.2948 51.4204 40.4346 53.2799 41.1173 53.7766C49.8623 60.1487 49.7124 57.4151 59.1262 58.6473C60.3529 62.3273 64.9654 64.6225 66.5585 70.1648C67.8767 68.4774 67.033 67.1619 68.6288 65.9602C72.134 63.3181 73.9047 67.8307 77.5264 56.5214H77.5292Z" fill="#A3B32E"/>
<path fill-rule="evenodd" clip-rule="evenodd" d="M77.5292 56.521C73.9047 67.8303 72.1368 63.3177 68.6316 65.9597C67.0358 67.1642 67.8795 68.4797 66.5612 70.1643C64.971 64.6221 60.3557 62.3269 59.129 58.6469C49.7152 57.4146 49.8651 60.1483 41.1201 53.7762C40.4374 53.2794 38.2976 51.42 37.9729 51.2673C36.552 50.6013 29.3501 50.7955 27.0799 44.5733C26.0419 41.7314 26.0142 37.1827 28.4648 35.0652C32.2919 31.757 31.451 34.4324 33.0801 28.4072C34.1069 24.6106 35.2087 23.6726 38.9942 22.9427C46.0574 21.5828 47.5172 15.6242 56.2233 19.0739C61.4852 21.1582 65.7314 15.8352 74.0185 20.8085C77.8206 23.0898 77.0879 24.8243 79.347 27.4109C83.7653 32.4675 88.0448 34.6433 86.0299 42.6556C85.5692 44.4928 84.9282 45.467 85.0808 47.3125C85.3888 51.012 88.5971 55.0501 77.532 56.521H77.5292ZM48.8216 14.3615C43.3903 15.652 42.6327 18.0165 36.9988 19.4375C31.3594 20.8584 30.4824 23.5283 29.203 28.4738C28.2289 32.2344 24.3768 31.1964 22.8392 38.7119C21.8901 43.355 23.7773 48.0369 27.2325 51.1841C31.3455 54.9335 35.7249 53.8567 38.5169 56.3461C42.2191 59.6487 44.4727 61.3167 49.5709 62.2214C57.5832 63.6452 54.6414 59.9374 60.55 67.2919C62.6148 69.8646 64.8211 76.6197 66.7111 78.2404C71.715 82.5283 69.4309 70.7083 72.5836 68.871C75.1203 67.3946 75.309 68.1439 77.371 65.4657C78.248 64.3223 80.3683 60.6756 81.0289 60.2732C82.1334 59.5988 88.2752 59.5932 89.6684 52.4885C90.4316 48.5864 88.858 47.4236 89.166 44.8842C89.5379 41.8286 90.8895 42.7028 90.4898 37.6989C90.0125 31.757 88.3612 31.0743 84.77 27.1139C80.6653 22.5874 76.4635 13.0599 62.9062 14.8166C59.0707 15.3134 59.956 15.8768 56.054 14.6279C53.5951 13.8397 51.361 13.762 48.8271 14.3642L48.8216 14.3615Z" fill="#251B0A"/>
<path fill-rule="evenodd" clip-rule="evenodd" d="M41.3004 42.6391C44.9777 39.7167 43.0239 34.749 51.6162 35.3373C57.4637 35.737 58.3102 31.7655 63.9108 31.3464C65.4011 31.2354 65.4427 31.0606 66.2864 32.1485C75.7113 44.3098 72.2672 19.7124 57.2417 29.4232C51.1749 33.3419 48.3441 29.4454 44.2311 32.8895C42.3467 34.4659 35.142 41.8343 41.2976 42.6391H41.3004Z" fill="#251B0A"/>
<path fill-rule="evenodd" clip-rule="evenodd" d="M58.1769 48.2342C61.7654 45.5699 64.1327 50.6792 72.9387 44.518C75.4032 42.7946 77.6428 41.6345 75.9555 39.1367C73.7158 36.4086 72.1561 39.7168 70.0219 41.6428C63.9495 47.1296 58.0049 39.1728 53.9613 47.1324C52.8178 49.3831 51.9103 51.9642 53.5894 53.2991C56.6616 55.7358 56.0622 49.8078 58.1769 48.2369V48.2342Z" fill="#251B0A"/>
</svg>
