<svg width="24" height="24" viewBox="0 0 24 24" fill="none" xmlns="http://www.w3.org/2000/svg">
<path d="M15.5958 10.6569L11.6458 6.70692C11.4636 6.51832 11.3628 6.26571 11.3651 6.00352C11.3674 5.74132 11.4725 5.49051 11.6579 5.3051C11.8434 5.11969 12.0942 5.01452 12.3564 5.01224C12.6186 5.00997 12.8712 5.11076 13.0598 5.29292L18.7168 10.9499C18.81 11.0426 18.8839 11.1527 18.9344 11.2741C18.9848 11.3954 19.0108 11.5255 19.0108 11.6569C19.0108 11.7883 18.9848 11.9184 18.9344 12.0398C18.8839 12.1611 18.81 12.2713 18.7168 12.3639L13.0598 18.0209C12.9675 18.1164 12.8572 18.1926 12.7352 18.245C12.6132 18.2974 12.4819 18.325 12.3492 18.3262C12.2164 18.3273 12.0847 18.302 11.9618 18.2517C11.8389 18.2015 11.7273 18.1272 11.6334 18.0333C11.5395 17.9394 11.4652 17.8278 11.4149 17.7049C11.3647 17.582 11.3394 17.4503 11.3405 17.3175C11.3417 17.1847 11.3693 17.0535 11.4217 16.9315C11.4741 16.8095 11.5503 16.6992 11.6458 16.6069L15.5958 12.6569H6.00977C5.74455 12.6569 5.4902 12.5516 5.30266 12.364C5.11512 12.1765 5.00977 11.9221 5.00977 11.6569C5.00977 11.3917 5.11512 11.1373 5.30266 10.9498C5.4902 10.7623 5.74455 10.6569 6.00977 10.6569H15.5958Z" fill="#21272A"/>
</svg>
