<svg width="170" height="245" viewBox="0 0 170 245" fill="none" xmlns="http://www.w3.org/2000/svg">
<path fill-rule="evenodd" clip-rule="evenodd" d="M47.9984 121.385C36.12 112.426 32.4146 83.8576 10.1378 92.7575C-9.72033 100.691 6.78317 128.201 13.5502 140.758C21.6206 155.735 27.9031 173.713 36.8562 188.154C41.017 194.865 50.4436 202.663 51.3396 209.792C52.5785 219.642 50.9942 233.341 51.819 244.955L143.965 243.987C148.004 235.75 144.228 222.261 145.405 212.795C147.37 196.982 169.529 197.944 169.904 144.539C170.051 123.656 169.832 102.751 169.956 81.8637C170.104 57.0182 165.178 49.0636 140.69 55.9709C140 37.6777 141.593 2.54971 111.165 17.4512C109.69 6.97856 105.414 -0.166759 93.8261 0.00295954C79.1297 0.218483 79.8395 8.6661 75.0683 16.8365C66.4662 11.3491 55.8298 14.1723 50.4542 22.6195C43.4652 33.6025 47.9752 106.256 47.9984 121.385Z" fill="#322415"/>
<path fill-rule="evenodd" clip-rule="evenodd" d="M106.61 169.18C103.667 169.279 90.0955 149.474 86.1758 145.509C77.7021 136.935 63.2869 138.224 52.3289 133.957C42.3716 130.08 36.4621 118.649 30.7876 110.244C21.7573 96.8664 5.84685 92.1461 7.69592 109.692C8.01342 112.703 38.039 182.875 54.5355 198.493C61.8274 205.397 57.9146 227.167 59.1222 237.373C85.2652 237.415 111.408 237.457 137.551 237.5C141.258 214.153 130.735 216.855 147.496 195.524C156 184.702 161.094 172.188 162.239 157.934C163.523 141.948 167.721 68.1441 156.548 60.2915C130.208 53.3475 144.536 100.31 139.425 112.783C129.755 114.344 133.469 101.658 133.527 92.5395C133.587 83.2011 133.48 73.8907 133.601 64.5371C133.778 50.8458 138.332 23.6944 122.558 21.7363C114.153 20.6939 112.919 29.2066 111.767 36.2213C107.714 60.8939 115.888 102.084 108.534 109.338C97.9344 105.547 106.878 57.9711 104.509 27.4711C103.868 19.211 103.918 6.53251 93.6823 7.85458C83.848 9.1253 81.9495 18.6848 82.1105 29.507C82.2202 36.8956 83.2896 44.8726 83.4492 51.2033C83.7329 62.4648 88.9592 104.574 80.4834 109.499C69.1872 105.227 80.8244 48.6004 74.2492 25.6565C72.2789 18.375 59.1854 21.0312 57.9632 24.9051C51.2911 33.663 54.4164 62.6618 54.4284 72.5368C54.4458 86.7426 53.028 114.431 55.305 127.063C69.855 131.408 79.1408 131.079 90.6113 141.082C95.5303 145.371 113.974 163.453 106.609 169.18L106.61 169.18Z" fill="#B48344"/>
</svg>
