<svg width="92" height="121" viewBox="0 0 92 121" fill="none" xmlns="http://www.w3.org/2000/svg">
<path fill-rule="evenodd" clip-rule="evenodd" d="M25.346 104.628C22.4464 98.1514 37.8836 97.5906 36.8805 104.527C33.9705 106.247 34.8049 103.964 31.529 103.506C27.7246 102.975 27.8962 105 25.346 104.628ZM51.3614 90.2977C58.5118 87.5858 62.7459 98.0145 56.0049 94.757C51.6856 92.6698 51.4819 96.4198 48.9121 95.481C47.2964 94.8907 47.6782 93.3246 48.3116 92.1513C49.2372 90.4366 49.7163 90.9217 51.3614 90.2977ZM42.0707 74.7659C37.4754 76.3565 36.4539 78.3481 33.5312 81.8312C31.1269 84.6963 26.2585 83.5658 22.1222 86.1605C16.6442 89.5965 18.0103 93.2246 15.6388 95.4469C12.8963 98.0169 9.83787 97.5319 6.87114 102.451C-1.84352 116.899 7.96927 116.311 18.5744 116.337C29.0836 116.362 39.5949 116.233 50.1052 116.297C60.3838 116.36 71.0217 115.989 81.2365 116.349C92.7405 116.755 86.6853 102.174 80.7257 97.9418C71.4129 91.3273 75.3124 86.0455 63.7089 83.8989C57.1794 82.691 53.6964 70.7419 42.0706 74.7659H42.0707Z" fill="#895219"/>
<path fill-rule="evenodd" clip-rule="evenodd" d="M12.8888 32.3071C27.8941 33.9339 39.2827 41.2585 41.5246 56.9419C38.0526 54.1512 29.6232 44.5228 25.5161 44.8878C24.9291 50.2256 35.8133 56.7034 39.4269 60.2555C36.1703 64.2948 23.7033 55.3482 20.7805 52.4937C15.2865 47.1283 14.2429 39.8449 12.8889 32.3071H12.8888ZM52.489 61.0055C53.2057 58.3579 69.4135 48.3315 65.608 45.4702C63.3521 42.7641 52.9594 56.3465 50.4441 57.0983C51.462 42.6833 64.4542 33.1375 78.5033 32.347C83.2818 43.8164 62.1111 65.3908 52.489 61.0055ZM44.1357 42.7927C30.6869 36.7423 33.3571 11.2674 46.8417 5.14394C47.9948 8.78162 56.596 12.9491 57.2755 23.6587C57.6315 29.2679 52.9189 41.9067 48.3359 44.0215L48.2169 18.4972C42.2547 18.525 43.8284 22.7866 43.8189 28.5761C43.812 32.781 43.5159 38.7937 44.1358 42.7927H44.1357ZM43.8445 69.9618L48.1126 70.109C47.9496 64.7403 48.6024 66.6162 54.0675 65.8527C61.715 64.7844 68.1984 61.5701 73.5092 56.4983C78.4333 51.7958 86.8054 34.5853 82.4944 28.9716C77.5574 25.6258 65.1891 31.1658 60.3005 33.2465C63.3044 21.5626 57.0042 2.6598 46.0516 0C34.6255 3.4646 29.7066 21.3501 31.8371 33.3437C25.5179 31.23 16.7051 25.3309 9.1784 29.0524C6.64582 38.1259 12.4188 49.1941 18.1155 55.5958C24.6043 62.8874 34.1556 65.9289 43.9838 66.3093L43.8447 69.9616L43.8445 69.9618Z" fill="#1C5612"/>
<path fill-rule="evenodd" clip-rule="evenodd" d="M42.0709 74.766C53.6967 70.7419 57.1796 82.691 63.7092 83.8989C75.3126 86.0455 71.4131 91.3273 80.726 97.9419C86.6855 102.174 92.7407 116.755 81.2367 116.349C71.022 115.989 60.384 116.36 50.1054 116.297C39.5951 116.234 29.0839 116.362 18.5747 116.337C7.96954 116.311 -1.84332 116.899 6.87142 102.451C9.83822 97.532 12.8967 98.017 15.6391 95.4469C18.0106 93.2246 16.6444 89.5964 22.1225 86.1605C26.2589 83.5658 31.1272 84.6964 33.5314 81.8312C36.4541 78.3481 37.4757 76.3565 42.071 74.766H42.0709ZM48.1126 70.1089L43.8445 69.9617C39.7487 71.1232 35.318 72.9377 32.6326 76.4115C27.896 82.5388 26.9432 78.7745 20.7444 82.0982C13.652 85.9008 16.0637 87.5961 12.8916 91.7966C11.3212 93.876 6.67512 95.7583 3.66518 100.128C-2.2693 108.742 -1.85538 120.592 11.3364 120.638L81.2159 120.652C94.2598 120.614 93.9294 107.865 88.3201 99.8019C84.8617 94.8309 81.2549 94.4175 79.0439 91.52C75.5459 86.9358 77.0503 85.7589 71.0026 81.974C64.6096 77.9728 67.4558 82.7391 59.8566 75.5812C56.8249 72.7256 52.1728 70.7634 48.1126 70.1088V70.1089Z" fill="#33250C"/>
<path fill-rule="evenodd" clip-rule="evenodd" d="M44.1359 42.7926C43.516 38.7936 43.8121 32.7808 43.819 28.576C43.8284 22.7864 42.2548 18.5249 48.217 18.497L48.336 44.0214C52.919 41.9066 57.6315 29.2678 57.2756 23.6585C56.5961 12.9489 47.995 8.78148 46.8418 5.1438C33.3573 11.2672 30.6869 36.7422 44.1358 42.7926H44.1359Z" fill="#82A928"/>
<path fill-rule="evenodd" clip-rule="evenodd" d="M52.489 61.0055C62.1111 65.3907 83.2819 43.8163 78.5033 32.3469C64.4542 33.1375 51.462 42.6832 50.4441 57.0982C52.9594 56.3465 63.3522 42.764 65.608 45.4701C69.4136 48.3314 53.2057 58.3579 52.489 61.0055Z" fill="#749B22"/>
<path fill-rule="evenodd" clip-rule="evenodd" d="M25.5162 44.8876C29.6233 44.5226 38.0527 54.1511 41.5246 56.9418C39.2828 41.2583 27.8942 33.9338 12.8889 32.3069C14.2429 39.8447 15.2865 47.1282 20.7805 52.4936C23.7033 55.348 36.1703 64.2945 39.4269 60.2553C35.8133 56.7033 24.929 50.2254 25.5161 44.8876H25.5162Z" fill="#82A928"/>
<path fill-rule="evenodd" clip-rule="evenodd" d="M51.3616 90.298C49.7165 90.9219 49.2374 90.4367 48.3118 92.1516C47.6784 93.3248 47.2965 94.891 48.9123 95.4812C51.4821 96.42 51.6858 92.6701 56.0052 94.7573C62.7461 98.0148 58.5121 87.5861 51.3616 90.298Z" fill="#2D240C"/>
<path fill-rule="evenodd" clip-rule="evenodd" d="M25.346 104.628C27.8962 105 27.7246 102.974 31.5291 103.506C34.8049 103.964 33.9704 106.247 36.8806 104.527C37.8837 97.5906 22.4464 98.1513 25.346 104.628Z" fill="#2D240C"/>
</svg>
