<svg width="97" height="105" viewBox="0 0 97 105" fill="none" xmlns="http://www.w3.org/2000/svg">
<path fill-rule="evenodd" clip-rule="evenodd" d="M39.5435 84.1032L43.7262 83.432L45.1238 95.0144C43.9442 95.7782 42.133 96.1597 40.6623 96.3621C39.9883 92.035 39.2874 88.5795 39.5435 84.1032H39.5435ZM44.1582 66.2091C46.1183 67.397 47.6778 69.5672 49.7017 70.4386C51.8462 71.362 52.4929 70.7797 53.8743 70.429C53.9779 68.8196 54.0206 62.7343 54.7181 61.7405L61.6954 69.641C59.0837 71.9475 56.3023 69.106 52.2685 73.9108C49.2158 77.5467 50.8746 79.1153 45.2448 79.6981C41.1891 80.1179 25.5145 83.4283 23.3075 82.756C22.9152 80.1891 22.854 68.9373 19.6054 68.8432C16.9267 69.7573 19.3716 80.7592 19.7501 83.4399C15.609 84.105 12.4936 84.3086 12.999 88.0833L35.775 84.796L37.362 97.5088C25.5041 99.2851 6.25389 109.344 3.83366 88.7103C2.20034 74.7859 4.72269 57.7207 21.3201 55.6753L26.8728 69.7393C34.3369 71.3848 41.285 60.2704 40.4129 67.7952C40.2111 69.5365 38.8245 77.6947 42.4223 76.2284C44.1814 75.5115 44.0316 68.3416 44.1581 66.2091L44.1582 66.2091ZM48.7957 58.8821L50.8505 60.0588L50.6432 66.8256C49.3563 65.6477 47.6334 64.3652 46.1626 63.0445L48.7957 58.8821H48.7957ZM28.2705 51.6955C28.6123 52.0546 28.2526 51.6004 28.8978 52.369C29.1915 52.7187 29.1798 52.7214 29.4267 53.0643L36.8418 61.9552C34.9978 63.9023 32.1056 65.3346 29.386 66.2175L24.9832 54.7722L28.2704 51.6954L28.2705 51.6955ZM36.9144 52.1718C40.8189 54.0326 43.1604 53.43 47.2932 53.6184L42.736 62.2441C40.9842 61.5287 29.8402 49.9099 30.1613 47.0764C31.1806 47.4877 33.866 50.7188 36.9144 52.1718ZM57.605 21.5797C57.5032 30.2327 58.4426 42.9649 50.2893 48.641C42.2503 54.2375 31.322 46.7359 30.735 37.2715C23.084 35.8216 22.4952 31.3522 26.5904 25.8381C28.1373 27.1764 26.7054 30.3459 31.1629 29.351L32.4726 21.2841L57.605 21.5798V21.5797ZM29.2571 12.3004C31.042 -0.421143 34.1621 3.87193 43.4348 3.96987C55.2455 4.09454 54.8541 -0.412147 58.4646 12.6196L58.4679 11.991L29.2571 12.3003V12.3004ZM55.6146 96.2573L55.7942 95.8162L58.4994 95.9801C59.2838 95.4131 66.1236 94.3233 68.9199 92.881C74.1535 90.1814 71.4923 87.2262 73.8356 84.5985C75.1902 83.0797 77.1688 77.132 77.1056 75.5506C76.9322 71.2098 71.5056 71.5943 68.4086 71.6939L65.1399 72.0455L64.4735 70.374C64.5389 63.1722 55.7297 58.9288 50.5427 55.9763C50.4829 51.4417 55.1921 50.0478 57.9066 44.9993C60.9363 39.3647 60.4301 35.471 60.7408 29.332C65.4392 29.5941 77.7944 27.9642 77.8034 21.5464C77.8117 15.7066 66.0861 14.1901 62.0709 13.0188C56.91 -3.12347 59.3981 0.641277 43.5006 0.435647C29.5528 0.255167 29.2728 -3.21881 25.4244 12.9004C9.7456 16.3715 1.8447 20.7602 20.3196 29.5044C20.4269 31.7571 20.9754 35.227 22.2136 36.5502C22.9011 37.285 24.2764 38.1891 27.1732 40.0711C30.289 55.3042 15.345 50.1713 7.33285 58.0847C0.844372 64.4929 -0.642428 80.275 0.225511 88.8565C2.69984 113.321 28.0858 103.882 45.0669 98.92C54.4291 96.1844 42.6747 93.8369 55.6146 96.2574V96.2573Z" fill="#2D240C"/>
<path fill-rule="evenodd" clip-rule="evenodd" d="M44.1581 66.2093C44.0317 68.3418 44.1814 75.5117 42.4224 76.2286C38.8245 77.6949 40.2111 69.5367 40.4129 67.7955C41.2851 60.2707 34.3369 71.385 26.8728 69.7395L21.3202 55.6755C4.7228 57.7208 2.20043 74.786 3.83368 88.7105C6.25391 109.344 25.5042 99.2853 37.3621 97.5091L35.775 84.7962L12.999 88.0835C12.4936 84.3089 15.609 84.1053 19.7501 83.4402C19.3716 80.7594 16.9266 69.7576 19.6054 68.8434C22.8539 68.9375 22.9152 80.1894 23.3076 82.7562C25.5145 83.4286 41.1891 80.1181 45.2448 79.6983C50.8747 79.1155 49.2159 77.5469 52.2685 73.911C56.3023 69.1062 59.0837 71.9477 61.6954 69.6412C59.792 66.7965 57.5076 63.9039 54.5591 61.5817C53.366 63.2812 54.0284 68.8746 53.4183 70.3998C53.0528 70.55 52.7035 70.6563 52.3683 70.7237C48.8462 71.4329 46.892 67.8659 44.1582 66.2093L44.1581 66.2093Z" fill="#E5CB8C"/>
<path fill-rule="evenodd" clip-rule="evenodd" d="M73.6815 64.9926C74.8549 63.6513 74.7044 62.956 75.8518 62.1865C79.7118 59.5974 82.5736 58.7368 87.1983 58.4632C84.2018 64.1054 79.2986 65.0269 73.6815 64.9926ZM67.7607 62.437C64.5319 59.8689 61.3687 53.4681 63.2218 48.8902C64.5057 49.7169 66.9592 52.8005 67.6252 54.4473C68.2074 55.8868 68.3476 56.9946 68.4683 58.527C68.8445 63.3047 68.2783 61.9517 67.7607 62.4369V62.437ZM92.4712 43.9123C90.7147 48.7955 81.3256 51.8653 79.6332 50.3292C78.6369 49.4249 86.0763 43.7966 92.4712 43.9123ZM74.9911 47.3834C73.8386 47.0602 71.6387 43.6762 71.0013 42.1336C70.1556 40.087 70.1245 36.11 70.9945 34.1187C74.6029 35.7411 75.5906 43.6514 74.9911 47.3834V47.3834ZM82.1675 37.0023C81.5477 34.2178 82.944 29.3238 84.4589 26.9234C85.6765 24.994 88.7685 21.6959 91.0331 21.5307C91.382 27.9625 87.6323 34.6964 82.1675 37.0023V37.0023ZM64.4734 70.3739L65.1398 72.0454L68.4085 71.6938L70.0729 68.1152C75.2159 68.7569 79.7616 69.204 84.3481 66.376C86.538 65.0257 91.765 59.8968 90.8703 56.9843C88.1218 52.0391 77.2664 57.8436 74.9871 58.0459L76.9342 53.5655C81.1458 52.7406 84.1408 55.4304 90.273 51.335C92.0972 50.1167 97.7437 44.8671 96.597 42.3867C94.1684 38.2042 85.0206 41.895 81.8109 43.5529C83.8192 37.2203 98.6166 35.0435 93.6394 17.53C89.1578 16.7433 83.6961 21.8645 81.4691 25.0596C76.7846 31.7806 79.2701 39.6111 78.7573 40.4357C76.1796 36.7281 75.7362 29.944 68.7845 30.3634C66.6677 34.564 66.16 40.6124 68.2898 44.8482C70.8774 49.9943 75.829 50.3311 71.7934 55.6157C70.4283 51.8439 65.5916 43.3882 60.7935 44.7034C58.3006 46.8458 59.1027 54.664 60.2395 57.5681C62.4464 63.2064 64.7066 63.3816 66.7005 66.6165L64.4735 70.3739H64.4734Z" fill="#1C5612"/>
<path fill-rule="evenodd" clip-rule="evenodd" d="M49.4994 42.6524C50.7694 46.8232 41.5973 46.1218 40.1967 43.7809C39.2665 42.2265 40.2954 40.1242 43.0842 41.6817C46.1362 43.3863 47.4745 41.2319 49.4994 42.6524ZM32.4725 21.2842L31.1628 29.3512C26.7052 30.3461 28.1372 27.1766 26.5903 25.8383C22.495 31.3524 23.0839 35.8218 30.7349 37.2717C31.3219 46.7361 42.2502 54.2378 50.2892 48.6412C58.4425 42.9651 57.5031 30.2328 57.6049 21.5799L32.4725 21.2842V21.2842Z" fill="#E78B27"/>
<path fill-rule="evenodd" clip-rule="evenodd" d="M72.8698 74.8128C70.7981 73.9059 67.0338 75.4544 64.9575 75.7918C56.6084 77.1484 63.0471 72.9736 58.6225 73.9087C55.1695 74.6384 54.5946 76.4315 53.0532 78.9616C50.8608 82.5602 50.365 81.5849 47.3782 83.3827L48.5072 91.1257C52.5988 92.3073 67.2796 92.4501 69.2113 88.0685C69.727 86.8988 69.6292 86.7951 68.7385 86.8645C67.3088 86.9761 65.7396 87.3764 64.7745 87.3884C62.5819 87.4156 61.8368 87.11 63.6705 86.1256C64.5683 85.6435 66.3577 85.2709 68.5445 84.342C71.1821 83.2214 73.4734 81.8553 72.9784 81.0048C72.6946 80.517 71.7598 80.3619 71.3568 80.4769C69.2519 81.0781 67.3329 81.481 66.0001 81.1999C65.2859 81.0492 64.8543 81.1257 64.3961 79.9827C67.8777 79.337 70.5156 78.2226 72.4742 76.7311C73.3983 76.0273 74.2726 75.4269 72.8699 74.8129L72.8698 74.8128Z" fill="#E78B27"/>
<path fill-rule="evenodd" clip-rule="evenodd" d="M12.8589 21.185C15.1275 23.7002 18.1371 25.1565 21.4565 26.1705C21.7097 24.9394 24.2101 23.3725 25.2283 22.5161C25.3287 22.6355 25.4292 22.7549 25.5297 22.8744C19.5848 16.7025 38.6703 17.8629 42.6585 17.9211C46.3192 17.9746 64.4439 16.83 64.5829 21.5566C63.2289 24.7067 61.8827 19.9598 60.9948 24.0511C60.7357 25.244 60.5903 25.7337 60.9439 26.8889C66.0965 26.2237 70.7439 24.9525 74.5843 22.7127C71.4276 12.4025 20.5557 13.3364 12.8589 21.1849V21.185Z" fill="#BA9454"/>
<path fill-rule="evenodd" clip-rule="evenodd" d="M29.2571 12.3004L58.4679 11.9911L58.4646 12.6197C54.8541 -0.412059 55.2455 4.09462 43.4348 3.96995C34.1622 3.87202 31.0421 -0.421054 29.2571 12.3005V12.3004Z" fill="#BA9454"/>
<path fill-rule="evenodd" clip-rule="evenodd" d="M24.9834 54.7723L29.3862 66.2176C32.1058 65.3347 34.9979 63.9023 36.8419 61.9552L29.4269 53.0644C29.18 52.7215 29.1917 52.7188 28.898 52.369C28.2528 51.6005 28.6124 52.0546 28.2706 51.6956L24.9835 54.7723L24.9834 54.7723Z" fill="#E5CB8C"/>
<path fill-rule="evenodd" clip-rule="evenodd" d="M42.736 62.2443L47.2932 53.6186C43.1604 53.4302 40.8189 54.0328 36.9144 52.172C33.866 50.7191 31.1806 47.4879 30.1613 47.0767C29.8402 49.9101 40.9842 61.5289 42.736 62.2443Z" fill="#E78B27"/>
<path fill-rule="evenodd" clip-rule="evenodd" d="M82.1678 37.0023C87.6325 34.6964 91.3822 27.9625 91.0334 21.5308C88.7688 21.6959 85.6767 24.994 84.4592 26.9234C82.9443 29.3238 81.5479 34.2178 82.1678 37.0023V37.0023Z" fill="#79A935"/>
<path fill-rule="evenodd" clip-rule="evenodd" d="M39.5433 84.1033C39.2872 88.5796 39.9881 92.0351 40.6621 96.3622C42.1327 96.1598 43.944 95.7783 45.1235 95.0145L43.7259 83.4321L39.5432 84.1033H39.5433Z" fill="#E7CC91"/>
<path fill-rule="evenodd" clip-rule="evenodd" d="M53.3168 36.4744C53.7248 34.4156 53.732 33.3291 53.6983 30.8885C53.6646 28.4474 53.9683 26.9699 51.5768 27.0537C50.7696 27.0819 50.8343 27.164 50.5904 27.9703C49.9706 30.0204 50.1644 32.7547 50.2374 34.7905C49.2738 35.7409 42.9319 36.5135 45.5411 38.8581C47.7119 39.9355 50.2685 38.4328 52.4659 37.5861C53.3126 37.2602 53.1286 37.4262 53.3168 36.4744L53.3168 36.4744Z" fill="#2D240C"/>
<path fill-rule="evenodd" clip-rule="evenodd" d="M67.7607 62.4371C68.2783 61.9518 68.8444 63.3049 68.4683 58.5272C68.3476 56.9948 68.2074 55.887 67.6251 54.4475C66.9592 52.8007 64.5057 49.7171 63.2218 48.8904C61.3686 53.4683 64.5319 59.8691 67.7607 62.4372V62.4371Z" fill="#87B339"/>
<path fill-rule="evenodd" clip-rule="evenodd" d="M73.6816 64.9928C79.2988 65.027 84.202 64.1055 87.1985 58.4634C82.5737 58.737 79.7119 59.5976 75.852 62.1866C74.7047 62.9562 74.855 63.6514 73.6816 64.9928Z" fill="#87B339"/>
<path fill-rule="evenodd" clip-rule="evenodd" d="M92.4713 43.9124C86.0764 43.7967 78.6369 49.425 79.6333 50.3292C81.3256 51.8654 90.7147 48.7956 92.4713 43.9124Z" fill="#87B339"/>
<path fill-rule="evenodd" clip-rule="evenodd" d="M74.9911 47.3833C75.5907 43.6514 74.6029 35.741 70.9945 34.1187C70.1245 36.1099 70.1557 40.0869 71.0014 42.1336C71.6387 43.6761 73.8386 47.0602 74.9911 47.3834V47.3833Z" fill="#87B339"/>
<path fill-rule="evenodd" clip-rule="evenodd" d="M43.0846 41.6815C40.2957 40.124 39.2668 42.2262 40.197 43.7806C41.5976 46.1215 50.7698 46.8229 49.4998 42.6521C47.4748 41.2317 46.1366 43.3862 43.0846 41.6815Z" fill="#2D240C"/>
<path fill-rule="evenodd" clip-rule="evenodd" d="M55.6148 96.2573C54.5229 97.1854 50.76 104.743 53.9348 104.995C55.6298 105.129 56.0432 102.467 56.7038 100.867C57.3633 99.2702 57.907 97.6078 58.4996 95.9801L55.7944 95.8162L55.6148 96.2573Z" fill="#1C5612"/>
<path fill-rule="evenodd" clip-rule="evenodd" d="M46.1626 63.0445C47.4937 64.8309 49.2703 65.9344 50.6432 66.8256C50.9621 64.5978 51.2102 62.3621 50.8505 60.0588C50.2677 59.2919 49.6032 58.8237 48.7957 58.8821C47.328 60.216 46.7845 61.6338 46.1626 63.0445H46.1626Z" fill="#E7CC91"/>
<path fill-rule="evenodd" clip-rule="evenodd" d="M39.0127 29.3384C38.5379 31.8264 42.7243 32.3545 42.3827 29.5069C42.0937 27.0966 39.366 27.4878 39.0127 29.3384Z" fill="#2D240C"/>
</svg>
