<svg width="113" height="149" viewBox="0 0 113 149" fill="none" xmlns="http://www.w3.org/2000/svg">
<path fill-rule="evenodd" clip-rule="evenodd" d="M48.5521 31.2854C48.0393 37.737 43.6813 35.8144 37.9987 35.8144C33.0425 35.7717 27.4882 35.5153 22.6174 35.7289C1.59628 36.7116 3.64712 66.7052 23.5147 66.9188C33.7689 67.0043 44.194 66.9616 54.4482 66.7907C55.6018 61.4072 55.8155 58.5018 59.0626 53.7165C52.9528 53.5884 46.7575 53.6738 40.6477 53.6738C36.8024 53.6738 25.2664 54.9983 23.301 51.8793C23.9419 48.0767 27.6164 49.1876 30.9917 49.1876C39.1951 49.1876 55.9863 48.6749 62.3098 49.2303C65.0442 47.564 68.5905 43.0351 72.2222 43.1633L75.5975 49.1449C78.0756 49.0594 96.4905 47.564 89.3126 53.5456L76.452 53.7165C77.392 62.0481 75.3839 63.5862 72.4359 70.1233C77.0503 68.4997 85.6808 64.4835 89.9534 67.9443C91.4488 73.1141 86.5353 80.2493 84.0572 84.2656C94.0124 83.582 104.01 86.6155 107.514 74.9086C109.18 69.397 108.197 66.1071 105.719 61.4072C103.241 56.7928 97.516 57.9037 96.0633 54.1011C97.1742 50.2557 104.694 50.7685 103.711 39.1897C103.198 33.5072 98.4559 28.2519 92.7307 27.4828C87.0054 26.7138 76.6657 27.2692 70.4704 27.2692C63.2925 27.2692 57.5245 28.3374 53.3373 21.5867C53.2946 24.8766 53.7219 27.9101 52.5683 30.9436L48.5521 31.2854Z" fill="#FA990D"/>
<path fill-rule="evenodd" clip-rule="evenodd" d="M57.8232 101.313C60.6004 101.954 78.9298 101.655 84.0996 101.612C86.1078 101.612 90.6367 100.929 89.5686 104.347C88.4577 107.978 64.4884 104.774 56.7551 106.269C55.7724 109.474 55.6869 118.404 53.807 120.284C48.5089 120.882 52.0125 111.867 51.927 108.235L47.9108 106.227C45.7318 107.252 27.5732 104.304 24.3688 107.167C18.8144 112.166 18.8572 119.643 25.4797 123.659C30.9913 126.992 40.8183 122.804 47.8681 126.692C56.1142 131.264 52.0979 138.869 53.3797 146.859L62.3522 147.201C62.0104 138.869 60.3013 125.539 68.7611 120.839C77.6053 115.925 89.0559 120.924 97.8574 117.464C106.445 114.046 108.838 103.236 104.523 95.5025C98.6264 84.9492 89.4403 90.3327 79.0579 88.7518C71.0255 92.3835 70.1282 95.0325 60.0449 94.8189L57.8232 101.313Z" fill="#FA990D"/>
<path fill-rule="evenodd" clip-rule="evenodd" d="M53.3799 146.859C52.0981 138.869 56.1143 131.264 47.8682 126.692C40.8184 122.804 30.9915 126.992 25.4798 123.659C18.8573 119.643 18.8146 112.166 24.369 107.167C27.5734 104.304 45.7319 107.252 47.9109 106.227C47.6119 105.928 42.2284 101.527 42.0148 101.484C36.5458 101.911 18.0883 102.253 13.6875 100.331C6.03955 96.9979 3.04874 88.3673 5.18504 80.5485C8.13312 69.6534 15.952 71.2342 25.2662 71.2769C34.8368 71.2769 45.0483 71.6187 54.5334 71.2769L54.448 66.7907C44.1938 66.9616 33.7687 67.0043 23.5145 66.9189C3.64691 66.7053 1.59607 36.7117 22.6172 35.729C27.488 35.5153 33.0423 35.7717 37.9985 35.8144C43.6811 35.8144 48.0391 37.7371 48.5518 31.2855C37.4004 22.4412 46.6292 1.6337 41.3739 0.181016C36.2468 -1.22894 38.0413 12.4861 38.0413 15.4769C37.9558 23.6803 38.2549 24.4493 41.7584 31.4991C29.9661 31.3282 16.1229 28.7219 7.91949 38.0789C4.03143 42.5224 2.62149 47.6495 3.21965 53.6739C3.98872 61.2791 6.42408 62.0054 10.6539 66.8334C9.54307 68.2861 -2.76199 75.7632 0.570631 90.1618C3.68962 103.492 13.8157 104.304 18.7291 106.312C16.251 111.867 14.2856 115.242 17.4901 121.523C19.84 126.094 24.4117 128.957 29.6243 129.256C34.025 129.512 44.1511 128.145 47.2273 131.307C51.1154 135.28 46.9282 146.005 49.9618 148.44C51.6708 149.679 52.8244 148.654 53.3799 146.859Z" fill="#C63D01"/>
<path fill-rule="evenodd" clip-rule="evenodd" d="M53.3373 21.5867C57.5244 28.3374 63.2924 27.2692 70.4704 27.2692C76.6657 27.2692 87.0054 26.7138 92.7306 27.4829C98.4559 28.2519 103.198 33.5072 103.711 39.1898C104.694 50.7685 97.1741 50.2558 96.0632 54.1011C97.5159 57.9037 103.241 56.7928 105.719 61.4072C108.197 66.1071 109.18 69.397 107.514 74.9086C104.01 86.6155 94.0123 83.582 84.0572 84.2656L79.0583 88.7518C89.4407 90.3327 98.6268 84.9492 104.523 95.5025C108.838 103.236 106.446 114.046 97.8577 117.464C89.0562 120.924 77.6056 115.925 68.7614 120.839C60.3017 125.539 62.0107 138.869 62.3525 147.201C63.3779 149.252 64.147 149.166 66.1978 148.525C68.4623 141.988 63.2925 129.384 70.7695 124.642C75.8539 121.437 89.9107 124.172 97.3023 122.206C104.437 120.241 109.778 114.259 111.06 106.953C112.641 98.1515 108.753 92.5544 103.113 86.7437C118.409 76.2331 113.709 58.801 103.028 53.5457C105.847 49.0167 107.642 48.5895 108.197 42.1806C108.625 37.4807 107.044 32.8663 104.138 29.2346C97.5586 20.9031 86.0226 22.783 76.6229 22.783C55.6445 22.7403 58.2935 24.6202 58.3363 7.57259C58.3363 5.52175 59.148 1.33461 56.969 0.351918C53.7645 -1.10076 53.3373 2.27458 53.3373 4.4536C53.3373 10.1361 53.2518 15.9469 53.3373 21.5867Z" fill="#C63D01"/>
<path fill-rule="evenodd" clip-rule="evenodd" d="M42.0148 101.484C38.2549 95.4171 38.2977 96.1434 36.4177 88.9227C32.9142 89.1364 25.0954 89.3073 21.8482 88.6237C21.1646 84.0947 22.5318 84.2229 26.5908 84.2656C29.8379 84.2656 33.1706 84.1374 36.4177 84.4365C36.845 81.4457 37.1868 78.3694 39.3231 76.105C47.3128 75.2504 53.0808 88.3673 55.9435 93.5799C56.7125 90.4181 59.7033 85.291 57.9516 82.4284C55.4308 78.284 55.1744 76.0622 54.5335 71.2769C45.0483 71.6187 34.8369 71.2769 25.2663 71.2769C15.952 71.2342 8.13318 69.6534 5.18509 80.5485C3.04879 88.3673 6.0396 96.9979 13.6875 100.331C18.0883 102.253 36.5459 101.911 42.0148 101.484Z" fill="#FA990D"/>
<path fill-rule="evenodd" clip-rule="evenodd" d="M41.5446 81.0185C47.6971 82.6421 53.5079 94.349 52.6533 104.176C48.2953 102.809 45.0481 99.5188 42.7836 95.8016C40.9037 92.7253 39.1947 83.7957 41.5446 81.0185ZM61.0703 90.76C63.8475 78.5831 72.7773 71.9606 85.7232 70.9352C84.1424 76.9168 82.6042 81.4885 77.6053 84.9065C73.1618 87.9401 66.6247 91.1018 61.0703 90.76ZM60.1304 77.8995C55.4732 64.569 60.814 55.4684 70.4273 48.0341C73.9309 51.7085 72.35 61.4927 70.4273 65.808C68.8465 69.3116 63.2494 76.7886 60.1304 77.8995ZM62.3094 49.2304L59.0622 53.7166C55.8151 58.5019 55.6014 61.4073 54.4478 66.7907L54.5333 71.277C55.1741 76.0623 55.4305 78.284 57.9513 82.4284C59.7031 85.2911 56.7123 90.4182 55.9432 93.5799C53.0806 88.3673 47.3126 75.2505 39.3228 76.105C37.1865 78.3695 36.8447 81.4457 36.4175 84.4365V88.9228C38.2974 96.1434 38.2547 95.4171 42.0146 101.484C42.2282 101.527 47.6117 105.928 47.9108 106.227L51.927 108.235C52.0125 111.867 48.5089 120.882 53.8069 120.284C55.6869 118.404 55.7723 109.474 56.755 106.269L57.8232 101.313L60.0449 94.8189C70.1282 95.0326 71.0255 92.3836 79.0579 88.7519L84.0568 84.2656C86.5349 80.2494 91.4484 73.1142 89.953 67.9443C85.6805 64.4835 77.0499 68.4998 72.4355 70.1233C75.3835 63.5863 77.3916 62.0482 76.4516 53.7166L75.5971 49.1449L72.2218 43.1633C68.5901 43.0351 65.0438 47.5641 62.3094 49.2304Z" fill="#018B33"/>
<path fill-rule="evenodd" clip-rule="evenodd" d="M60.1306 77.8995C63.2496 76.7886 68.8467 69.3116 70.4275 65.808C72.3502 61.4927 73.9311 51.7085 70.4275 48.0341C60.8142 55.4684 55.4734 64.569 60.1306 77.8995Z" fill="#46C52B"/>
<path fill-rule="evenodd" clip-rule="evenodd" d="M61.0703 90.7599C66.6247 91.1017 73.1617 87.94 77.6052 84.9064C82.6042 81.4884 84.1423 76.9167 85.7232 70.9351C72.7772 71.9605 63.8475 78.583 61.0703 90.7599Z" fill="#46C52B"/>
<path fill-rule="evenodd" clip-rule="evenodd" d="M59.0624 53.7166L62.3095 49.2304C55.9861 48.6749 39.1948 49.1876 30.9915 49.1876C27.6161 49.1876 23.9417 48.0768 23.3008 51.8794C25.2662 54.9984 36.8022 53.6739 40.6475 53.6739C46.7573 53.6739 52.9526 53.5884 59.0624 53.7166Z" fill="#C63D01"/>
<path fill-rule="evenodd" clip-rule="evenodd" d="M41.5449 81.0184C39.1949 83.7956 40.904 92.7253 42.7839 95.8016C45.0484 99.5187 48.2956 102.809 52.6536 104.176C53.5081 94.3489 47.6974 82.642 41.5449 81.0184Z" fill="#3AC633"/>
<path fill-rule="evenodd" clip-rule="evenodd" d="M56.7554 106.269C64.4888 104.774 88.458 107.978 89.5689 104.347C90.637 100.929 86.1081 101.612 84.1 101.612C78.9301 101.655 60.6007 101.954 57.8235 101.313L56.7554 106.269Z" fill="#C63D01"/>
<path fill-rule="evenodd" clip-rule="evenodd" d="M36.4177 88.9227V84.4365C33.1706 84.1374 29.838 84.2656 26.5908 84.2656C22.5318 84.2229 21.1646 84.0947 21.8482 88.6236C25.0954 89.3072 32.9142 89.1363 36.4177 88.9227Z" fill="#C63D01"/>
<path fill-rule="evenodd" clip-rule="evenodd" d="M76.4517 53.7166L89.3122 53.5457C96.4902 47.5641 78.0753 49.0595 75.5972 49.1449L76.4517 53.7166Z" fill="#C63D01"/>
</svg>
