<svg width="116" height="108" viewBox="0 0 116 108" fill="none" xmlns="http://www.w3.org/2000/svg">
<path fill-rule="evenodd" clip-rule="evenodd" d="M0.902514 93.3367C2.90594 111.428 28.6643 106.871 41.893 106.849C59.9633 106.819 79.6661 107.537 97.5211 106.823C119.048 105.962 114.764 83.8376 114.723 69.3557C114.678 53.1712 115.898 30.6423 114.381 15.22C112.545 -3.44241 86.8505 1.04213 72.9551 1.10381C55.0439 1.18326 34.8242 0.424321 17.1999 1.3746C-4.27272 2.53259 0.435204 24.7676 0.441972 39.1857C0.449605 54.9068 -0.743056 78.4758 0.902514 93.3367Z" fill="#3B2413"/>
<path fill-rule="evenodd" clip-rule="evenodd" d="M17.5484 5.555C-0.486245 6.93608 4.65023 30.6547 4.73059 43.8269C4.78906 53.4027 3.7604 87.0271 5.3982 93.8918C8.45144 106.69 36.0203 102.301 47.4679 102.329C62.9916 102.366 84.0941 103.454 98.9567 102.268C115.114 100.978 110.234 75.6877 110.172 63.94C110.117 53.5052 111.372 22.5658 109.616 14.488C106.699 1.07172 79.6902 5.00293 68.176 5.20476C52.3755 5.48198 32.7948 4.3875 17.5482 5.555H17.5484Z" fill="#808E2E"/>
<path fill-rule="evenodd" clip-rule="evenodd" d="M26.7866 50.2063C32.8611 -7.50371 18.1597 132.07 26.7866 50.2063ZM84.7017 30.2789C80.7683 31.8312 69.553 43.4298 65.6981 46.8452C54.5826 56.6932 53.7711 64.0095 46.6566 56.9766C41.7197 52.0965 34.4487 40.9187 26.0457 45.3979C15.6382 50.9457 27.7516 61.3397 32.527 66.0694C35.8442 69.355 47.8402 81.9975 51.9465 81.3987C57.1176 80.6445 58.9528 76.5983 61.5351 73.7507C65.3703 69.5218 74.8123 60.6858 79.4249 56.3056C84.0237 51.9381 95.2876 43.9614 94.8969 36.9893C94.6162 31.9839 89.9803 28.1961 84.7018 30.279L84.7017 30.2789Z" fill="#3B2413"/>
<path fill-rule="evenodd" clip-rule="evenodd" d="M26.7323 51.0503C26.5748 57.6691 33.0773 61.0087 37.6951 64.9325C56.366 80.7971 45.6287 82.9583 76.6949 53.6442C80.8572 49.7167 85.1744 45.8715 88.9754 41.5718C91.2212 39.0315 91.8747 34.1977 87.3657 34.1629C82.5413 34.1254 63.5665 56.8962 55.2483 63.0301C52.1867 65.2879 51.9275 67.7099 41.6995 57.1757C39.7573 55.175 37.3959 53.5567 35.1933 51.8663C31.9231 49.357 31.9265 47.6634 28.1882 48.8913C26.6648 49.3922 26.7711 49.4088 26.7325 51.0503H26.7323Z" fill="#B07F3D"/>
</svg>
