<svg width="175" height="112" viewBox="0 0 175 112" fill="none" xmlns="http://www.w3.org/2000/svg">
<path fill-rule="evenodd" clip-rule="evenodd" d="M47.5289 40.6889C51.1179 25.1367 63.722 20.266 77.6506 18.386C86.0249 17.2751 87.1785 16.2497 85.854 25.3076C84.5722 34.1946 81.8805 43.2525 75.3862 49.5332C66.8837 57.822 59.5776 56.4121 49.1097 57.8648C48.0416 60.172 48.7252 66.4099 45.1362 64.5727C42.4445 63.2055 46.0335 58.1211 44.1108 56.4121C44.1108 56.4121 34.3266 54.6603 31.5921 53.3358C17.0226 46.3288 15.5272 22.8722 17.2362 21.2059C20.4407 19.4114 33.4293 24.4958 36.6338 26.4185C44.0254 30.862 43.8117 34.7928 47.5289 40.6889ZM0.145842 78.8005L27.6613 78.8432C33.643 74.1006 40.8209 76.1087 46.9307 78.715L115.848 78.6723L116.104 16.9333C114.993 -2.16515 120.248 0.0565968 80.0006 0.0993227C62.4402 0.142049 44.8799 0.355679 27.3195 0.312953C-1.905 0.227501 0.359485 -3.48965 0.359485 26.034C0.359485 43.5516 -0.195965 61.3256 0.145842 78.8005Z" fill="#F79D04"/>
<path fill-rule="evenodd" clip-rule="evenodd" d="M127.683 25.8631C130.204 25.3503 150.327 24.8804 152.079 25.5212C153.746 26.1621 160.325 38.8945 161.607 41.4153C167.76 53.4213 166.051 51.1141 153.318 51.4131C148.747 51.5413 131.485 52.6522 128.452 51.4131C125.29 48.5505 126.273 30.0929 127.683 25.8631ZM115.848 78.6723C115.506 81.6631 115.335 91.5755 116.232 94.0963L124.222 94.0536C125.418 88.4565 125.504 85.8502 129.264 81.4495C131.571 78.8005 138.022 76.1515 141.91 76.1515C147.636 76.1515 150.669 78.4159 154.344 81.5776C158.958 85.5511 158.317 88.6274 159.599 94.0963C177.587 94.3954 174.04 86.2348 174.04 71.238C174.083 53.3785 175.408 56.113 166.991 40.9026C163.53 34.75 157.762 22.0605 151.994 18.5997C147.294 15.737 122.684 16.5915 116.104 16.9333L115.848 78.6723Z" fill="#007A73"/>
<path fill-rule="evenodd" clip-rule="evenodd" d="M37.2744 32.3147C40.5643 35.4337 45.0078 42.6116 44.4096 47.7815C41.2052 45.517 33.899 32.3574 30.0964 35.0064C28.4728 39.0226 40.7352 47.7387 42.017 51.7977C35.0526 50.1314 30.2246 49.1487 26.3365 43.2952C23.4739 39.0226 20.4831 30.3493 21.2522 25.3076C28.5583 27.1448 31.8482 27.1876 37.2744 32.3147ZM50.6476 50.4305C49.6222 47.9096 51.2457 40.988 52.613 38.1254C58.5946 25.4358 68.8488 24.154 81.8802 22.1032C81.752 30.6911 78.7185 37.4418 74.4032 44.107C70.0879 50.815 61.7136 52.4386 53.7666 53.5922C55.9029 49.106 73.3778 35.8609 71.4551 32.7847C68.037 29.5802 62.5254 37.8263 60.3464 40.1762C58.5092 42.1416 57.1846 43.2098 55.4756 45.4315C53.9375 47.3969 53.9375 46.5424 52.6557 47.8242C51.6303 48.8496 51.6303 49.8323 50.6476 50.4305ZM47.5286 40.689C43.8114 34.7928 44.0251 30.862 36.6335 26.4185C33.429 24.4958 20.4404 19.4115 17.2359 21.2059C15.5269 22.8723 17.0223 46.3288 31.5918 53.3358C34.3263 54.6603 44.1105 56.4121 44.1105 56.4121C46.0332 58.1211 42.4442 63.2055 45.1359 64.5727C48.7249 66.41 48.0413 60.172 49.1094 57.8648C59.5773 56.4121 66.8834 57.822 75.3859 49.5332C81.8802 43.2525 84.5719 34.1946 85.8537 25.3076C87.1782 16.2497 86.0246 17.2752 77.6503 18.386C63.7217 20.266 51.1176 25.1367 47.5286 40.689Z" fill="#136E25"/>
<path fill-rule="evenodd" clip-rule="evenodd" d="M67.4818 94.3954L116.232 94.0963C115.335 91.5755 115.506 81.6631 115.848 78.6722L46.9307 78.715C53.5105 84.6539 53.1687 84.9529 54.9632 94.3099L67.4818 94.3954Z" fill="#167225"/>
<path fill-rule="evenodd" clip-rule="evenodd" d="M127.682 25.863C126.272 30.0929 125.29 48.5505 128.451 51.4131C131.485 52.6522 148.746 51.5413 153.318 51.4131C166.05 51.114 167.759 53.4212 161.607 41.4152C160.325 38.8944 153.745 26.1621 152.079 25.5212C150.327 24.8803 130.203 25.3503 127.682 25.863Z" fill="#82D6F4"/>
<path fill-rule="evenodd" clip-rule="evenodd" d="M35.1382 85.0812C46.7596 82.3894 50.605 100.163 39.2826 102.898C27.5757 105.761 23.3031 87.8156 35.1382 85.0812ZM27.6612 78.8432C21.9786 82.6885 20.3123 87.0038 19.3296 94.1391C20.355 117.681 54.493 117.596 54.9203 94.4381L67.4817 94.3954L54.963 94.31C53.1685 84.953 53.5103 84.6539 46.9305 78.715C40.8207 76.1087 33.6428 74.1006 27.6612 78.8432Z" fill="#1D3E46"/>
<path fill-rule="evenodd" clip-rule="evenodd" d="M139.731 85.1666C151.011 81.9194 155.668 99.0098 144.73 102.599C133.408 106.273 127.682 88.6274 139.731 85.1666ZM124.222 94.0536C126.572 117.382 157.121 118.236 159.599 94.0963C158.317 88.6274 158.958 85.5511 154.343 81.5776C150.669 78.4159 147.635 76.1514 141.91 76.1514C138.022 76.1514 131.571 78.8004 129.263 81.4494C125.503 85.8502 125.418 88.4565 124.222 94.0536Z" fill="#1D3E46"/>
<path fill-rule="evenodd" clip-rule="evenodd" d="M50.6478 50.4304C51.6305 49.8323 51.6305 48.8496 52.6559 47.8241C53.9377 46.5424 53.9377 47.3969 55.4758 45.4315C57.1848 43.2097 58.5094 42.1416 60.3466 40.1762C62.5256 37.8263 68.0372 29.5802 71.4553 32.7846C73.378 35.8609 55.9031 49.1059 53.7668 53.5921C61.7138 52.4385 70.0881 50.815 74.4034 44.107C78.7187 37.4418 81.7522 30.6911 81.8804 22.1031C68.849 24.154 58.5948 25.4358 52.6132 38.1254C51.2459 40.988 49.6224 47.9096 50.6478 50.4304Z" fill="#49C52B"/>
<path fill-rule="evenodd" clip-rule="evenodd" d="M19.3296 94.139C20.3123 87.0038 21.9786 82.6885 27.6612 78.8431L0.145674 78.8004C-1.05065 96.6598 5.10187 94.1817 19.3296 94.139Z" fill="#167225"/>
<path fill-rule="evenodd" clip-rule="evenodd" d="M42.0172 51.7977C40.7354 47.7387 28.4731 39.0226 30.0967 35.0064C33.8993 32.3574 41.2054 45.517 44.4098 47.7814C45.008 42.6116 40.5645 35.4337 37.2746 32.3147C31.8484 27.1876 28.5585 27.1448 21.2524 25.3076C20.4833 30.3493 23.4741 39.0226 26.3368 43.2952C30.2248 49.1487 35.0529 50.1314 42.0172 51.7977Z" fill="#49C52B"/>
<path fill-rule="evenodd" clip-rule="evenodd" d="M35.1382 85.0812C23.3031 87.8156 27.5757 105.761 39.2826 102.898C50.605 100.163 46.7597 82.3894 35.1382 85.0812Z" fill="#F48902"/>
<path fill-rule="evenodd" clip-rule="evenodd" d="M139.731 85.1666C127.682 88.6274 133.408 106.273 144.73 102.599C155.668 99.0098 151.011 81.9194 139.731 85.1666Z" fill="#F48902"/>
</svg>
