<?xml version="1.0" encoding="UTF-8"?>
<!DOCTYPE svg PUBLIC "-//W3C//DTD SVG 1.1//EN" "http://www.w3.org/Graphics/SVG/1.1/DTD/svg11.dtd">
<!-- Creator: CorelDRAW 2021 (64-Bit) -->
<svg xmlns="http://www.w3.org/2000/svg" xml:space="preserve" width="300px" height="303px" version="1.1" style="shape-rendering:geometricPrecision; text-rendering:geometricPrecision; image-rendering:optimizeQuality; fill-rule:evenodd; clip-rule:evenodd"
viewBox="0 0 540.51 545.07"
 xmlns:xlink="http://www.w3.org/1999/xlink"
 xmlns:xodm="http://www.corel.com/coreldraw/odm/2003">
 <defs>
  <style type="text/css">
   <![CDATA[
    .fil4 {fill:#4A7982}
    .fil2 {fill:#513219}
    .fil6 {fill:#513519}
    .fil8 {fill:#52351A}
    .fil3 {fill:#54371B}
    .fil7 {fill:#5E6535}
    .fil1 {fill:#626936}
    .fil9 {fill:#8D612E}
    .fil5 {fill:#8E6131}
    .fil14 {fill:#99CC33}
    .fil0 {fill:#F3E8D5}
    .fil10 {fill:#F3E8D6}
    .fil11 {fill:#613F2C;fill-rule:nonzero}
    .fil12 {fill:#97CA49;fill-rule:nonzero}
    .fil13 {fill:url(#id0)}
   ]]>
  </style>
  <linearGradient id="id0" gradientUnits="userSpaceOnUse" x1="122.97" y1="485.31" x2="122.97" y2="456.83">
   <stop offset="0" style="stop-opacity:1; stop-color:#3A63AC"/>
   <stop offset="1" style="stop-opacity:1; stop-color:#339BD6"/>
  </linearGradient>
 </defs>
 <g id="Capa_x0020_1">
  <metadata id="CorelCorpID_0Corel-Layer"/>
  <g id="_2377767574640">
   <path class="fil0" d="M266.66 220.28c22.7,-3.83 38.44,21.11 25.03,41.06 -9.6,14.28 -38.78,16.18 -45.27,-10.51 -3.33,-13.72 6.77,-28.27 20.24,-30.55zm144 -6.05c15.53,-2.81 28.06,8.5 30.6,21 5.83,28.71 -33.42,43.13 -47.74,19.09 -10.14,-17.02 -0.8,-36.86 17.14,-40.09zm-278.35 -45.64c11.55,-2.02 23.43,3.98 28.75,13.31 9.85,17.27 2.45,39.08 -18,43.86 -4.28,1 -8.96,0.59 -13.1,-0.6 -3.35,-0.97 -7.35,-3.08 -9.25,-4.76 -18.17,-16.07 -11.46,-47.76 11.6,-51.81zm225.04 39.98c-1.34,1.2 -0.75,0.39 -1.38,2.31 -0.28,0.87 -0.47,2.05 -0.66,2.93 -0.42,2 -0.91,3.96 -1.36,5.99 -4.37,19.65 -0.22,48.18 -2.88,67.01 -0.92,6.51 -8.67,12.49 -16.35,9.39 -8.33,-3.35 -7.85,-10.02 -7.87,-20.24 -0.05,-22.85 1.97,-63.59 -1.87,-82.09 -23.11,1.67 -57.35,-9.38 -77.5,-20.62l-28.6 -20.64 -16.14 -20.33c-8.53,-13.56 -15.22,-27.8 -15.68,-45.48 -0.34,-12.72 1.16,-28.01 12.61,-35.34 11.33,-7.25 27.57,-7.6 41.39,-4.94 17.74,3.41 24.9,10.1 35.13,14.1 0.8,-3.05 6.7,-12.13 9.74,-14.58 3.85,-3.11 4.04,-4.52 6.12,-6.03 2.26,-1.66 4.2,-3.06 6.77,-4.82 17.35,-11.93 46.44,-13.18 64.7,0.69 1.69,1.29 2.42,1.45 3.69,2.44 1.02,0.8 1.61,1.79 2.63,2.8 15.03,14.76 14.23,25.48 17.84,29.43 4.88,-4.1 7.8,-6.75 14.16,-10.08 5.18,-2.71 10.69,-5.49 16.93,-7.36 13.37,-4.02 28.58,-0.7 38.41,6.36 5.69,4.09 4.31,4.09 6.28,5.89 3.28,3.01 1.43,0.38 5.67,6.5 18.07,26.05 7.97,68.15 -10.15,93.15 -3.44,4.74 -4.79,6.15 -8.56,9.67l-16.23 14.17c-17.66,13.35 -55.19,22.43 -76.84,19.72zm-280.74 -76.08c5.3,-2.46 18.91,-9.73 22.18,-15.06 -2.12,-2.14 -10.27,-5.21 -17.44,-12.52 -6.8,-6.93 -1.45,-0.48 -8.17,-8.87 -3.97,-4.95 -14.06,-25 -12.54,-33.53 10.81,-2.3 33.05,5.24 42.33,10.39 3.19,1.77 5.48,3.08 8.24,5.15 4.82,3.6 3.77,3.36 6.94,6.41l6.52 6.9c1.91,2.35 4.34,4.71 5.19,7.49l2.06 -2.73c11.71,-21.54 37.95,-5.2 38.67,1.87 -4.55,4.03 -13.06,1.89 -16.85,7.79 -4.24,6.61 -3.26,11.86 -10.07,21.5 -1.22,1.73 -1.51,1.72 -2.9,3.17l-4.74 4.42c-0.07,0.04 -1.51,0.97 -1.86,1.2 -15.7,9.84 -31.68,5.2 -42.07,7.19 -8.26,1.59 -10.65,5.68 -14.85,9.93 -5.58,5.65 -5.81,9.37 -15.66,3.05l-3.41 -2.68c-7.22,-7.03 -13.22,-10.75 -2.59,-14.14 6.05,-1.92 15.97,-4.59 21.02,-6.93zm-59.72 302.08c11,-4.52 22.49,-6.77 34.28,-9.26 13.74,-2.89 25.88,-2.49 39.76,-3.23 0.3,-17.37 3.48,-45.29 4.48,-65.35l3.99 -57.38c0.36,-5.8 1.52,-6.61 -0.6,-8.36 -3.65,14.34 -9.23,30.34 -13.25,45.43 -2.26,8.48 -3.74,15.75 -8.84,20.36 -6.78,6.1 -16.87,-1.51 -17.64,-8.56 -1.09,-9.9 6.98,-38.01 9.45,-49.41 5.23,-24.07 8.48,-30.01 19.6,-47.25 1.53,-2.37 1.47,-1.91 3.43,-3.85 8.1,-8.07 16.17,-13.31 29.81,-14.47 7.7,-0.65 21.18,-0.24 28.89,0.06 13.44,0.53 25.39,8.67 32.74,19.01 3.69,5.19 9.24,17.06 13.09,23.97 5.75,10.27 16.33,28.95 20.44,39.38 2.25,-0.64 0.62,0.1 2.07,-1.65l16.11 -21.56c2.49,-3.97 4.31,-4.55 7.83,-7.38l1.02 -0.8c4.83,-3.48 11.23,-5.87 17.18,-6.57 5.43,-0.63 21.32,-0.34 26.28,1.11 11.46,3.32 18.16,10.67 25.12,19.87 6.9,9.12 14.49,21.9 20.52,29.93 1.27,1.68 4.55,6.01 5.26,8.06l21.32 -30.23c3.4,-5.02 7.03,-10.41 10.63,-14.88 17.24,-21.43 25.81,-21.09 56.71,-20.94 13.93,0.07 26.91,5.79 34.4,17.13 7.45,11.27 10.9,21.56 14.76,36.86 2.29,9.04 10,33.38 10.62,40.35 0.39,4.33 -0.28,7.36 -2.93,9.77 -2.31,2.09 -5.67,3.8 -9.96,2.65 -9.25,-2.48 -13.9,-23.68 -16.89,-34.26 -1.29,-4.56 -3.7,-16.48 -6.31,-19.12 -0.09,0.12 -0.16,0.31 -0.18,0.41 -0.03,0.1 -0.13,0.31 -0.16,0.44l5.66 67.19c1.42,22.42 6.11,45.88 7.01,68.02 5.03,0.8 26.33,-8.45 31.67,-10.75 4.94,-2.13 10.25,-4.68 14.81,-7.01 2.89,-1.48 11.84,-6.57 14.84,-7.06 5.27,-17.2 4.37,-61.44 4.32,-80.92l0 -171.29c-0.05,-40.76 2.87,-73.97 -18.43,-109.98l-13.6 -18.6c-1.32,-1.23 -1.52,-0.88 -2.98,-2.44 -4.66,-5.01 -5.49,-6.08 -10.9,-10.36 -1.27,-1 -1.89,-1.56 -3.07,-2.38 -40.96,-28.69 -73.35,-26.29 -123.14,-26.35 -28.34,-0.04 -56.69,0.03 -85.04,0.01 -28.55,-0.02 -57.1,-0.02 -85.64,-0.01 -45.88,0.02 -86.1,-3.69 -124.11,25.95 -6.3,4.92 -3.21,1.91 -8.81,7.57 -5.86,5.91 -7.07,6.36 -12.6,13.55 -30.19,39.28 -27.02,73.61 -27.06,122.43 -0.02,28.55 -0.05,57.1 0.01,85.65 0.06,28.54 -0.02,57.09 -0.04,85.64 -0.02,21.65 -1.57,61.86 4.07,80.86z"/>
   <path class="fil1" d="M324.98 193.87c-0.08,-5.37 -1.85,-12.48 -3.66,-17.31 -2.02,-5.4 -5.6,-9.65 -8.38,-12.95l-5.02 -5.25c-3.53,-3.88 -1.38,-4.03 -7.7,-8.7 -1.97,-1.46 -1.31,-1.28 -2.57,-2.91 -1.12,-1.45 -1.45,-1.5 -2.72,-2.77l-18.16 -15.86c-0.09,-0.08 -0.22,-0.21 -0.31,-0.29 -0.09,-0.08 -0.22,-0.21 -0.31,-0.29l-13.32 -9.77c-2.08,-2.04 -4.06,-2.83 -6.47,-4.47l-6.39 -4.56c-5.38,-3.79 -7.88,-14.12 15.25,-4.28 0.46,0.19 1.96,0.92 2.85,1.45l7.77 4.32c5.49,3.14 10.15,7.11 15,10.53l30.72 27.58c1.5,1.49 2.66,3.2 4.31,4.26 -1.32,-12.16 -5.78,-64.16 -0.87,-75.41 3.02,-6.93 10.73,-1.67 11.36,9.4 1.18,20.97 3.74,78.5 11.12,95.88l13.77 -21.64c0.02,-0.02 0.71,-0.93 0.77,-1.02l15.21 -18.21c1.76,-1.17 2.7,-3 4.15,-4.38 0.09,-0.08 0.23,-0.2 0.32,-0.29l11 -10.26c1.64,-1.24 1.12,-1 2.57,-2.25l2.6 -1.66c1.61,-1.27 2.27,-2.45 4.71,-3.8 1.09,-0.6 1.81,-0.66 3.15,-1.74 3.75,-3.04 7.72,-5.23 13.11,-3.46 1.04,2.29 1.81,4.68 -0.36,7.11 -2.61,2.91 -6.26,5.32 -8.96,8.07l-6.23 6.51c-2.26,2.07 -5.38,4.74 -7.28,7.34l-4.54 5.15c-0.81,1.2 -1.26,1.8 -2.14,2.75l-5.26 6.84c-0.08,0.1 -0.19,0.24 -0.27,0.35 -5.47,7.25 -10.13,14.73 -14.53,22.56 -3.97,7.05 -12.07,21.44 -11.92,28.13 21.65,2.71 59.18,-6.37 76.84,-19.72l16.23 -14.17c3.77,-3.52 5.12,-4.93 8.56,-9.67 18.12,-25 28.22,-67.1 10.15,-93.15 -4.24,-6.12 -2.39,-3.49 -5.67,-6.5 -1.97,-1.8 -0.59,-1.8 -6.28,-5.89 -9.83,-7.06 -25.04,-10.38 -38.41,-6.36 -6.24,1.87 -11.75,4.65 -16.93,7.36 -6.36,3.33 -9.28,5.98 -14.16,10.08 -3.61,-3.95 -2.81,-14.67 -17.84,-29.43 -1.02,-1.01 -1.61,-2 -2.63,-2.8 -1.27,-0.99 -2,-1.15 -3.69,-2.44 -18.26,-13.87 -47.35,-12.62 -64.7,-0.69 -2.57,1.76 -4.51,3.16 -6.77,4.82 -2.08,1.51 -2.27,2.92 -6.12,6.03 -3.04,2.45 -8.94,11.53 -9.74,14.58 -10.23,-4 -17.39,-10.69 -35.13,-14.1 -13.82,-2.66 -30.06,-2.31 -41.39,4.94 -11.45,7.33 -12.95,22.62 -12.61,35.34 0.46,17.68 7.15,31.92 15.68,45.48l16.14 20.33 28.6 20.64c20.15,11.24 54.39,22.29 77.5,20.62z"/>
   <path class="fil2" d="M523.91 435.24c-2.48,11.48 -4.39,18.48 -8.96,28.71 -3.05,6.83 -7.88,14.51 -12.72,20.07 -1.2,1.38 -0.71,1.38 -2.42,2.57 -1.61,3.02 -2.78,3.43 -4.73,6.1 -3.12,4.26 -3.39,2.74 -5.56,5.37 -2.41,2.91 -8.3,8.74 -11.96,9.59 -2.76,4.51 -14.03,9.22 -20.3,12.24 -26.33,12.7 -57.54,12.33 -85.36,12.55 -21.51,0.17 -43.51,-0.42 -64.99,0.08 -21.56,0.51 -43.45,-0.54 -64.99,0.01 -21.47,0.54 -43.42,-0.34 -65,0 -19.32,0.31 -44.22,1.12 -62.71,-2.5 -19.01,-3.72 -42.66,-13.82 -55.48,-25.33l-6.21 -5.92c-0.65,-0.7 -1.55,-1.44 -2.24,-2.03l-8.14 -8.25c-0.81,-1.16 -0.56,-0.83 -1.57,-2.1l-2.65 -3.41c-0.11,-0.17 -0.68,-1.17 -0.9,-1.56 -0.5,-0.9 -0.97,-1.77 -1.36,-2.67 -1.21,-1.13 -3.12,-3.97 -3.93,-5.34 -0.95,-1.6 -2.82,-3.82 -2.98,-5.76 -0.13,-0.11 -0.3,-0.48 -0.35,-0.38 -0.06,0.1 -0.27,-0.29 -0.34,-0.38 -0.07,-0.1 -0.23,-0.28 -0.31,-0.4 -0.07,-0.12 -0.18,-0.29 -0.26,-0.41 -3.72,-6.24 -10.06,-24.91 -10.6,-31.52 -5.64,-19 -4.09,-59.21 -4.07,-80.86 0.02,-28.55 0.1,-57.1 0.04,-85.64 -0.06,-28.55 -0.03,-57.1 -0.01,-85.65 0.04,-48.82 -3.13,-83.15 27.06,-122.43 5.53,-7.19 6.74,-7.64 12.6,-13.55 5.6,-5.66 2.51,-2.65 8.81,-7.57 38.01,-29.64 78.23,-25.93 124.11,-25.95 28.54,-0.01 57.09,-0.01 85.64,0.01 28.35,0.02 56.7,-0.05 85.04,-0.01 49.79,0.06 82.18,-2.34 123.14,26.35 1.18,0.82 1.8,1.38 3.07,2.38 5.41,4.28 6.24,5.35 10.9,10.36 1.46,1.56 1.66,1.21 2.98,2.44l13.6 18.6c21.3,36.01 18.38,69.22 18.43,109.98l0 171.29c0.05,19.48 0.95,63.72 -4.32,80.92zm-388.63 -434.68c-18.45,0.44 -39.57,5.11 -55.68,12.23 -7.35,3.24 -25.13,13.49 -31.16,19.9 -3.26,3.46 -5.67,4.72 -8.9,8.09 -1.92,2 -2.22,1.97 -3.76,4.15l-11.29 14.22c-16.01,21.83 -23.16,51.46 -23.82,78.32 -1.09,44.79 -0.48,90.57 -0.24,135.46 0.12,22.66 -0.1,45.35 -0.01,68.03 0.22,53.65 -6.65,105.55 27.7,150.6 1.29,1.69 2.48,3.09 3.76,4.77 4.31,5.67 11.22,12.37 16.51,16.91 23.79,20.36 55.56,30.28 87.2,31.5 18,0.7 48.07,0.05 67.45,0.05l136.06 -0.04c11.32,0.03 22.71,-0.2 34.02,-0.04 34.41,0.49 54.92,1.09 88.39,-12.67 9.51,-3.9 24.49,-12.57 31.56,-19.49 3.42,-3.35 1.84,-0.37 6.61,-6.14l3.93 -3.99c4.92,-3.76 2.38,-2.6 6.16,-6.58l7.42 -9.59c3.57,-4.93 9.43,-15.11 11.93,-22.11 12.59,-35.25 11.37,-54.25 11.35,-89.77l-0.17 -237.64c-0.07,-18.02 -4.77,-40.21 -12,-55.41 -6.35,-13.34 -19.65,-35.56 -31.69,-44.27 -1.18,-0.86 -1.43,-1.04 -2.34,-1.91l-4.58 -3.91c-0.91,-0.68 -1.27,-0.88 -2.47,-1.8 -1.78,-1.36 -2.94,-2.1 -4.97,-3.54 -23.07,-16.43 -47.79,-23.11 -76.95,-25.22 -10.5,-0.76 -22.03,-0.31 -32.79,-0.31l-102.05 0.01c-44.72,-0.13 -90.8,-0.86 -135.18,0.19z"/>
   <path class="fil3" d="M90.93 422.08c8.69,0.3 23.2,1.06 31.12,3.3 0.94,-9.21 8.72,-45.55 11.52,-59.74 0.71,-3.59 0.08,-6.47 3.46,-6.97l10.05 72.37c3.65,0.41 13.46,4.07 17.39,5.62 3.64,1.43 14.12,5.9 17.27,6.44 -1.88,-37.17 -5.55,-77.76 -8.07,-115.74 -0.48,-7.25 -3.3,-33.63 -2.21,-38.64 2.15,0.73 3.72,5.22 6.05,9.11 6.98,11.66 21.5,39.08 28.44,47.47 2.15,2.6 5.48,4.86 10.71,3.83 5.48,-1.08 5.97,-4 8.45,-7.23l-0.66 -1.46c-0.03,-0.16 -0.07,-0.32 -0.09,-0.49 0,-0.01 0.15,-1.96 0.16,-2.06 0.19,-1.49 0.43,-2.74 0.33,-4.21 -0.16,-2.16 -8.33,-18.01 -8.33,-18.02 -4.11,-10.43 -14.69,-29.11 -20.44,-39.38 -3.85,-6.91 -9.4,-18.78 -13.09,-23.97 -7.35,-10.34 -19.3,-18.48 -32.74,-19.01 -7.71,-0.3 -21.19,-0.71 -28.89,-0.06 -13.64,1.16 -21.71,6.4 -29.81,14.47 -1.96,1.94 -1.9,1.48 -3.43,3.85 -11.12,17.24 -14.37,23.18 -19.6,47.25 -2.47,11.4 -10.54,39.51 -9.45,49.41 0.77,7.05 10.86,14.66 17.64,8.56 5.1,-4.61 6.58,-11.88 8.84,-20.36 4.02,-15.09 9.6,-31.09 13.25,-45.43 2.12,1.75 0.96,2.56 0.6,8.36l-3.99 57.38c-1,20.06 -4.18,47.98 -4.48,65.35z"/>
   <path class="fil4" d="M16.89 434.57c0.54,6.61 6.88,25.28 10.6,31.52 0.08,0.12 0.19,0.29 0.26,0.41 0.08,0.12 0.24,0.3 0.31,0.4 0.07,0.09 0.28,0.48 0.34,0.38 0.05,-0.1 0.22,0.27 0.35,0.38 10.01,-2.05 18.58,-4.88 29.27,-6.31 17.21,-2.31 48.52,-3.19 64.94,1.59 45.99,13.41 89.49,41.45 140.75,30.4 19.95,-4.3 35.63,-12.43 57.25,-13.02 53.93,-1.46 73.04,20.87 121.4,20.04 18.88,-0.33 27.73,-2.39 44.43,-8.65 3.77,-1.41 9.84,-4.23 13.02,-5.12 1.71,-1.19 1.22,-1.19 2.42,-2.57 4.84,-5.56 9.67,-13.24 12.72,-20.07 4.57,-10.23 6.48,-17.23 8.96,-28.71 -3,0.49 -11.95,5.58 -14.84,7.06 -4.56,2.33 -9.87,4.88 -14.81,7.01 -5.34,2.3 -26.64,11.55 -31.67,10.75 -3.45,2.34 -19.1,1.67 -23.29,1.57 -5.02,-0.11 -4.97,0.46 -6.51,-0.89 -4.1,2.38 -35.19,-4.23 -37.78,-5.8 -3.2,-0.27 -10.85,-2.89 -14.64,-4.04 -2.57,-0.78 -12.23,-2.7 -14.17,-4.4 -1.38,0.97 -0.93,0.6 -3.29,0.09 -22.76,-4.84 -38.37,-3.75 -61.31,-1.08 -2.43,1.17 -7.99,1.77 -11.34,2.74 -3.73,1.08 -7.6,2.42 -11.27,3.4 -3.78,1.45 -12.15,3.71 -16.3,4.15 -2.75,2 -18.6,1.95 -23.58,1.96 -1.21,0.85 -6.3,0.16 -8.16,-0.04 -13.62,-1.47 -40.07,-8.91 -49.21,-14.62 -3.15,-0.54 -13.63,-5.01 -17.27,-6.44 -3.93,-1.55 -13.74,-5.21 -17.39,-5.62l-25.03 -5.66c-7.92,-2.24 -22.43,-3 -31.12,-3.3 -13.88,0.74 -26.02,0.34 -39.76,3.23 -11.79,2.49 -23.28,4.74 -34.28,9.26z"/>
   <path class="fil3" d="M337.91 336.67c-1.31,3.94 -4.22,7.05 -6.28,10.19 -4.53,6.87 -2.42,6.05 -2.99,13.65 2.45,3.85 2.13,5.61 6.7,7.32 6.79,2.54 11.33,-3.05 13.96,-5.74 9.05,-9.26 16.76,-20.94 24.61,-31.29 1.2,-1.58 8.09,-11.15 9.53,-12 0.06,0.14 0.13,0.21 0.14,0.43l-13.19 94.92c-1.36,10.27 -3.61,22.28 -4.19,32.35 1.94,1.7 11.6,3.62 14.17,4.4 3.79,1.15 11.44,3.77 14.64,4.04l7.78 -35.82 20.06 0.18 9.94 41.44c1.54,1.35 1.49,0.78 6.51,0.89 4.19,0.1 19.84,0.77 23.29,-1.57 -0.9,-22.14 -5.59,-45.6 -7.01,-68.02l-5.66 -67.19c0.03,-0.13 0.13,-0.34 0.16,-0.44 0.02,-0.1 0.09,-0.29 0.18,-0.41 2.61,2.64 5.02,14.56 6.31,19.12 2.99,10.58 7.64,31.78 16.89,34.26 4.29,1.15 7.65,-0.56 9.96,-2.65 2.65,-2.41 3.32,-5.44 2.93,-9.77 -0.62,-6.97 -8.33,-31.31 -10.62,-40.35 -3.86,-15.3 -7.31,-25.59 -14.76,-36.86 -7.49,-11.34 -20.47,-17.06 -34.4,-17.13 -30.9,-0.15 -39.47,-0.49 -56.71,20.94 -3.6,4.47 -7.23,9.86 -10.63,14.88l-21.32 30.23z"/>
   <path class="fil4" d="M35.66 478.76c0.39,0.9 0.86,1.77 1.36,2.67 0.22,0.39 0.79,1.39 0.9,1.56l2.65 3.41c1.01,1.27 0.76,0.94 1.57,2.1l8.14 8.25c0.69,0.59 1.59,1.33 2.24,2.03l6.21 5.92c12.82,11.51 36.47,21.61 55.48,25.33 18.49,3.62 43.39,2.81 62.71,2.5 21.58,-0.34 43.53,0.54 65,0 21.54,-0.55 43.43,0.5 64.99,-0.01 21.48,-0.5 43.48,0.09 64.99,-0.08 27.82,-0.22 59.03,0.15 85.36,-12.55 6.27,-3.02 17.54,-7.73 20.3,-12.24 -20.31,5.72 -38.58,6.31 -59.76,3.6 -26.01,-3.33 -30.9,-8.08 -51.87,-13.69 -17.19,-4.59 -41.3,-6.69 -59.17,-3.13 -17.99,3.59 -33.69,10.55 -52.15,13.51 -35.38,5.66 -76.17,-11.21 -106.85,-23.64 -29.84,-12.09 -52.62,-14.07 -85.01,-10.92 -12.02,1.16 -19.59,4.4 -27.09,5.38z"/>
   <path class="fil5" d="M216.52 315.66c0,0.01 8.17,15.86 8.33,18.02 0.1,1.47 -0.14,2.72 -0.33,4.21 -0.01,0.1 -0.16,2.05 -0.16,2.06 0.02,0.17 0.06,0.33 0.09,0.49l0.66 1.46 8.45 -9.92c1.19,-1.53 0.36,-0.37 1.46,-1.57l8.12 -10.12c1.44,-1.22 0.1,-0.55 1.43,-0.95 0.94,5.09 -11.13,54.28 -13.31,66.32 -2.44,13.45 -2.87,12.28 10.66,12.74 1.24,4.02 -2.5,50.2 -2.81,59.36 4.98,-0.01 20.83,0.04 23.58,-1.96l3.45 -57.4 9.79 -0.08c1.7,5.04 1.32,20.13 1.75,26.44 0.6,9.06 0.44,18.19 1.31,26.89 3.67,-0.98 7.54,-2.32 11.27,-3.4 3.35,-0.97 8.91,-1.57 11.34,-2.74l-2.25 -47.31c4.3,0.19 9.19,0.52 12.19,-0.91 1.7,-7.37 -5.19,-30.28 -7.05,-39.32l-6.47 -29.4c-0.51,-2.42 -2.3,-7.62 -0.78,-9.26l7.82 10.12c2.7,3.65 4.92,6.93 7.68,10.55l11.65 15.67c1.72,2.48 1.89,2.81 4.25,4.86 0.57,-7.6 -1.54,-6.78 2.99,-13.65 2.06,-3.14 4.97,-6.25 6.28,-10.19 -0.71,-2.05 -3.99,-6.38 -5.26,-8.06 -6.03,-8.03 -13.62,-20.81 -20.52,-29.93 -6.96,-9.2 -13.66,-16.55 -25.12,-19.87 -4.96,-1.45 -20.85,-1.74 -26.28,-1.11 -5.95,0.7 -12.35,3.09 -17.18,6.57l-1.02 0.8c-3.52,2.83 -5.34,3.41 -7.83,7.38l-16.11 21.56c-1.45,1.75 0.18,1.01 -2.07,1.65z"/>
   <path class="fil6" d="M324.98 193.87c3.84,18.5 1.82,59.24 1.87,82.09 0.02,10.22 -0.46,16.89 7.87,20.24 7.68,3.1 15.43,-2.88 16.35,-9.39 2.66,-18.83 -1.49,-47.36 2.88,-67.01 0.45,-2.03 0.94,-3.99 1.36,-5.99 0.19,-0.88 0.38,-2.06 0.66,-2.93 0.63,-1.92 0.04,-1.11 1.38,-2.31 -0.15,-6.69 7.95,-21.08 11.92,-28.13 4.4,-7.83 9.06,-15.31 14.53,-22.56 0.08,-0.11 0.19,-0.25 0.27,-0.35l5.26 -6.84c0.88,-0.95 1.33,-1.55 2.14,-2.75l4.54 -5.15c1.9,-2.6 5.02,-5.27 7.28,-7.34l6.23 -6.51c2.7,-2.75 6.35,-5.16 8.96,-8.07 2.17,-2.43 1.4,-4.82 0.36,-7.11 -5.39,-1.77 -9.36,0.42 -13.11,3.46 -1.34,1.08 -2.06,1.14 -3.15,1.74 -2.44,1.35 -3.1,2.53 -4.71,3.8l-2.6 1.66c-1.45,1.25 -0.93,1.01 -2.57,2.25l-11 10.26c-0.09,0.09 -0.23,0.21 -0.32,0.29 -1.45,1.38 -2.39,3.21 -4.15,4.38l-15.21 18.21c-0.06,0.09 -0.75,1 -0.77,1.02l-13.77 21.64c-7.38,-17.38 -9.94,-74.91 -11.12,-95.88 -0.63,-11.07 -8.34,-16.33 -11.36,-9.4 -4.91,11.25 -0.45,63.25 0.87,75.41 -1.65,-1.06 -2.81,-2.77 -4.31,-4.26l-30.72 -27.58c-4.85,-3.42 -9.51,-7.39 -15,-10.53l-7.77 -4.32c-0.89,-0.53 -2.39,-1.26 -2.85,-1.45 -23.13,-9.84 -20.63,0.49 -15.25,4.28l6.39 4.56c2.41,1.64 4.39,2.43 6.47,4.47l13.32 9.77c0.09,0.08 0.22,0.21 0.31,0.29 0.09,0.08 0.22,0.21 0.31,0.29l18.16 15.86c1.27,1.27 1.6,1.32 2.72,2.77 1.26,1.63 0.6,1.45 2.57,2.91 6.32,4.67 4.17,4.82 7.7,8.7l5.02 5.25c2.78,3.3 6.36,7.55 8.38,12.95 1.81,4.83 3.58,11.94 3.66,17.31z"/>
   <path class="fil0" d="M181.74 443.1c9.14,5.71 35.59,13.15 49.21,14.62 1.86,0.2 6.95,0.89 8.16,0.04 0.31,-9.16 4.05,-55.34 2.81,-59.36 -13.53,-0.46 -13.1,0.71 -10.66,-12.74 2.18,-12.04 14.25,-61.23 13.31,-66.32 -1.33,0.4 0.01,-0.27 -1.43,0.95l-8.12 10.12c-1.1,1.2 -0.27,0.04 -1.46,1.57l-8.45 9.92c-2.48,3.23 -2.97,6.15 -8.45,7.23 -5.23,1.03 -8.56,-1.23 -10.71,-3.83 -6.94,-8.39 -21.46,-35.81 -28.44,-47.47 -2.33,-3.89 -3.9,-8.38 -6.05,-9.11 -1.09,5.01 1.73,31.39 2.21,38.64 2.52,37.98 6.19,78.57 8.07,115.74z"/>
   <path class="fil0" d="M301.6 445.51c22.94,-2.67 38.55,-3.76 61.31,1.08 2.36,0.51 1.91,0.88 3.29,-0.09 0.58,-10.07 2.83,-22.08 4.19,-32.35l13.19 -94.92c-0.01,-0.22 -0.08,-0.29 -0.14,-0.43 -1.44,0.85 -8.33,10.42 -9.53,12 -7.85,10.35 -15.56,22.03 -24.61,31.29 -2.63,2.69 -7.17,8.28 -13.96,5.74 -4.57,-1.71 -4.25,-3.47 -6.7,-7.32 -2.36,-2.05 -2.53,-2.38 -4.25,-4.86l-11.65 -15.67c-2.76,-3.62 -4.98,-6.9 -7.68,-10.55l-7.82 -10.12c-1.52,1.64 0.27,6.84 0.78,9.26l6.47 29.4c1.86,9.04 8.75,31.95 7.05,39.32 -3,1.43 -7.89,1.1 -12.19,0.91l2.25 47.31z"/>
   <path class="fil0" d="M28.75 467.66c0.16,1.94 2.03,4.16 2.98,5.76 0.81,1.37 2.72,4.21 3.93,5.34 7.5,-0.98 15.07,-4.22 27.09,-5.38 32.39,-3.15 55.17,-1.17 85.01,10.92 30.68,12.43 71.47,29.3 106.85,23.64 18.46,-2.96 34.16,-9.92 52.15,-13.51 17.87,-3.56 41.98,-1.46 59.17,3.13 20.97,5.61 25.86,10.36 51.87,13.69 21.18,2.71 39.45,2.12 59.76,-3.6 3.66,-0.85 9.55,-6.68 11.96,-9.59 2.17,-2.63 2.44,-1.11 5.56,-5.37 1.95,-2.67 3.12,-3.08 4.73,-6.1 -3.18,0.89 -9.25,3.71 -13.02,5.12 -16.7,6.26 -25.55,8.32 -44.43,8.65 -48.36,0.83 -67.47,-21.5 -121.4,-20.04 -21.62,0.59 -37.3,8.72 -57.25,13.02 -51.26,11.05 -94.76,-16.99 -140.75,-30.4 -16.42,-4.78 -47.73,-3.9 -64.94,-1.59 -10.69,1.43 -19.26,4.26 -29.27,6.31z"/>
   <path class="fil7" d="M98.79 117.43c-3.27,5.33 -16.88,12.6 -22.18,15.06 -5.05,2.34 -14.97,5.01 -21.02,6.93 -10.63,3.39 -4.63,7.11 2.59,14.14l3.41 2.68c9.85,6.32 10.08,2.6 15.66,-3.05 4.2,-4.25 6.59,-8.34 14.85,-9.93 10.39,-1.99 26.37,2.65 42.07,-7.19 0.35,-0.23 1.79,-1.16 1.86,-1.2l4.74 -4.42c1.39,-1.45 1.68,-1.44 2.9,-3.17 6.81,-9.64 5.83,-14.89 10.07,-21.5 3.79,-5.9 12.3,-3.76 16.85,-7.79 -0.72,-7.07 -26.96,-23.41 -38.67,-1.87l-2.06 2.73c-0.85,-2.78 -3.28,-5.14 -5.19,-7.49l-6.52 -6.9c-3.17,-3.05 -2.12,-2.81 -6.94,-6.41 -2.76,-2.07 -5.05,-3.38 -8.24,-5.15 -9.28,-5.15 -31.52,-12.69 -42.33,-10.39 -1.52,8.53 8.57,28.58 12.54,33.53 6.72,8.39 1.37,1.94 8.17,8.87 7.17,7.31 15.32,10.38 17.44,12.52z"/>
   <path class="fil8" d="M132.31 168.59c-23.06,4.05 -29.77,35.74 -11.6,51.81 1.9,1.68 5.9,3.79 9.25,4.76 4.14,1.19 8.82,1.6 13.1,0.6 20.45,-4.78 27.85,-26.59 18,-43.86 -5.32,-9.33 -17.2,-15.33 -28.75,-13.31z"/>
   <path class="fil8" d="M410.66 214.23c-17.94,3.23 -27.28,23.07 -17.14,40.09 14.32,24.04 53.57,9.62 47.74,-19.09 -2.54,-12.5 -15.07,-23.81 -30.6,-21z"/>
   <path class="fil9" d="M266.66 220.28c-13.47,2.28 -23.57,16.83 -20.24,30.55 6.49,26.69 35.67,24.79 45.27,10.51 13.41,-19.95 -2.33,-44.89 -25.03,-41.06z"/>
   <path class="fil0" d="M395.01 454.94c2.59,1.57 33.68,8.18 37.78,5.8l-9.94 -41.44 -20.06 -0.18 -7.78 35.82z"/>
   <path class="fil10" d="M122.05 425.38l25.03 5.66 -10.05 -72.37c-3.38,0.5 -2.75,3.38 -3.46,6.97 -2.8,14.19 -10.58,50.53 -11.52,59.74z"/>
   <path class="fil10" d="M262.69 455.8c4.15,-0.44 12.52,-2.7 16.3,-4.15 -0.87,-8.7 -0.71,-17.83 -1.31,-26.89 -0.43,-6.31 -0.05,-21.4 -1.75,-26.44l-9.79 0.08 -3.45 57.4z"/>
  </g>
  <g id="_2377767516416">
   <path class="fil0" d="M406.38 481.86l11.58 -26.54c0.92,-2.13 2.91,-3.43 5.23,-3.43l12.88 0c2.4,0 4.45,1.4 5.32,3.64l17.38 44.62c0.71,1.81 0.49,3.69 -0.61,5.3 -1.09,1.6 -2.76,2.48 -4.71,2.48l-11.84 0c-2.44,0 -4.51,-1.45 -5.36,-3.74l-1.81 -4.95 -11.42 0 -2.12 5.15c-0.9,2.19 -2.91,3.54 -5.28,3.54l-11.89 0c-0.54,0 -1.06,-0.07 -1.55,-0.2 -0.48,0.13 -0.99,0.2 -1.51,0.2l-8.74 0c-1.69,0 -3.14,-0.65 -4.27,-1.91l-14.99 -16.84 0 13.04c0,3.15 -2.57,5.71 -5.71,5.71l-11.04 0c-0.53,0 -1.04,-0.07 -1.52,-0.2 -0.5,0.13 -1.02,0.2 -1.57,0.2l-11.83 0c-2.44,0 -4.52,-1.45 -5.36,-3.74l-1.82 -4.95 -11.42 0 -2.11 5.15c-0.9,2.19 -2.92,3.54 -5.28,3.54l-11.9 0c-1.98,0 -3.69,-0.92 -4.77,-2.58 -0.15,-0.23 -0.29,-0.47 -0.4,-0.71 -0.92,1.94 -2.89,3.29 -5.17,3.29l-11.76 0c-3.15,0 -5.71,-2.56 -5.71,-5.71l0 -30.61 -8.25 0c-0.41,1.2 -1.24,2.22 -2.4,2.94 -0.57,0.35 -1.17,0.59 -1.78,0.73 1.73,1.45 3.17,3.19 4.25,5.23 1.51,2.86 2.14,6.01 2.14,9.23 0,5.8 -2.3,10.77 -6.93,14.28 -4.71,3.57 -10.63,4.7 -16.43,4.7 -3.24,0 -6.44,-0.42 -9.56,-1.29 -3.06,-0.86 -5.96,-2.13 -8.68,-3.76 -0.64,2.45 -2.87,4.26 -5.52,4.26l-11.5 0c-3.14,0 -5.71,-2.56 -5.71,-5.71l0 -6.77c-1.15,2.36 -2.71,4.54 -4.76,6.47 -5.32,5.01 -12.3,6.8 -19.46,6.8 -3.22,0 -6.4,-0.37 -9.4,-1.22 -5.83,14.44 -23.24,18.83 -35.77,9.17 -0.55,-0.43 -1.08,-0.87 -1.6,-1.33 -4.31,1.68 -8.89,2.54 -13.55,2.54 -20.67,0 -37.42,-16.76 -37.42,-37.42 0,-20.66 16.75,-37.42 37.42,-37.42 14.68,0 27.39,8.47 33.52,20.78l0 -6.22c0,-3.15 2.56,-5.71 5.71,-5.71l11.23 0c3.15,0 5.71,2.56 5.71,5.71l0 25.1c0,1.29 0.16,3.3 1.08,4.32 0.74,0.81 2.14,0.93 3.15,0.93 1,0 2.38,-0.11 3.1,-0.91 0.9,-1.01 1.05,-3.08 1.05,-4.34l0 -25.1c0,-3.15 2.57,-5.71 5.71,-5.71l11.17 0c1.77,0 3.36,0.81 4.41,2.09 1.05,-1.28 2.64,-2.09 4.41,-2.09l11.5 0c3.15,0 5.71,2.56 5.71,5.71l0 1.16c0.86,-1.03 1.86,-1.98 2.99,-2.84 4.53,-3.47 10.02,-4.75 15.64,-4.75 3.02,0 6.03,0.37 8.97,1.09 2.11,0.51 4.16,1.18 6.17,2 1.04,-1.44 2.72,-2.37 4.62,-2.37l41.3 0c3.14,0 5.7,2.56 5.7,5.71l0 7.11 4.1 -9.39c0.93,-2.13 2.91,-3.43 5.23,-3.43l12.89 0c2.4,0 4.44,1.4 5.32,3.64l9.43 24.21 0 -22.14c0,-3.15 2.56,-5.71 5.71,-5.71l9.79 0c1.67,0 3.12,0.64 4.24,1.89l13.97 15.53 0 -11.71c0,-3.15 2.56,-5.71 5.71,-5.71l11.04 0c3.15,0 5.71,2.56 5.71,5.71l0 24.26zm-95.74 -11.17c-0.9,0.58 -1.96,0.92 -3.1,0.92l-9.06 0 0 26.96 12.16 -27.88zm-82.79 10.54l0 2.44c0.57,-0.29 1.16,-0.48 1.76,-0.57 -0.13,-0.12 -0.25,-0.24 -0.37,-0.35 -0.5,-0.49 -0.96,-1 -1.39,-1.52zm-67.21 20.08c-2.34,-2.38 -3.99,-5.11 -5.08,-8.08 -0.99,2.75 -2.31,5.38 -3.93,7.83 1.21,0.85 2.47,1.55 3.66,1.8 1.88,0.4 3.75,-0.44 5.35,-1.55z"/>
  </g>
  <g id="_2377767518240">
   <path class="fil11" d="M120.39 448.75c17.51,0 31.7,14.2 31.7,31.71 0,8.26 -3.15,15.77 -8.32,21.42 6.7,6.31 13.28,10.54 22.78,1.99 -3.91,12.44 -17.7,15.85 -27.52,8.28 -1.42,-1.1 -2.67,-2.33 -3.85,-3.64 -4.42,2.34 -9.45,3.66 -14.79,3.66 -17.51,0 -31.71,-14.2 -31.71,-31.71 0,-17.51 14.2,-31.71 31.71,-31.71z"/>
   <path class="fil12" d="M120.39 461.97c10.21,0 18.49,8.28 18.49,18.49 0,4.77 -1.8,9.11 -4.76,12.39 -4.53,-3.62 -9.63,-6.19 -15.96,-5.27 0,0 4.61,1.97 5.68,4.94 -3.01,-0.76 -7.08,-1.31 -11.44,1.56 5.99,-0.13 10.06,1.58 13.3,4.1 -1.68,0.51 -3.47,0.78 -5.31,0.78 -10.22,0 -18.5,-8.28 -18.5,-18.5 0,-10.21 8.28,-18.49 18.5,-18.49z"/>
   <path class="fil13" d="M120.39 465.67c8.17,0 14.79,6.62 14.79,14.79 0,3.04 -0.91,5.86 -2.48,8.21 -3.32,-2.18 -7.29,-3.44 -11.56,-3.44 -4.71,0 -9.06,1.54 -12.57,4.14 -1.87,-2.48 -2.98,-5.56 -2.98,-8.91 0,-8.17 6.63,-14.79 14.8,-14.79z"/>
   <path class="fil14" d="M116.44 472.27c1.51,1.88 2.37,4.06 2.37,6.39 0,2.32 -0.86,4.51 -2.37,6.39 -1.51,-1.88 -2.37,-4.07 -2.37,-6.39 0,-2.33 0.86,-4.51 2.37,-6.39z"/>
   <path class="fil14" d="M126.7 477.02c-0.01,1.73 -0.52,3.33 -1.57,4.62 -1.05,1.29 -2.52,2.11 -4.21,2.48 0.02,-1.73 0.53,-3.33 1.58,-4.62 1.05,-1.29 2.51,-2.12 4.2,-2.48z"/>
   <path class="fil11" d="M201.82 457.6l0 25.54c0,6.26 -1.85,11.12 -5.56,14.62 -3.72,3.49 -8.9,5.25 -15.55,5.25 -6.64,0 -11.82,-1.76 -15.53,-5.25 -3.71,-3.5 -5.56,-8.36 -5.56,-14.62l0 -25.54 11.23 0 0 25.1c0,3.55 0.85,6.26 2.55,8.14 1.7,1.89 4.17,2.82 7.39,2.82 3.22,0 5.67,-0.93 7.34,-2.81 1.68,-1.86 2.52,-4.58 2.52,-8.15l0 -25.1 11.17 0z"/>
   <polygon class="fil11" points="210.64,502.22 210.64,457.6 222.14,457.6 222.14,502.22 "/>
   <path class="fil11" d="M230.43 498.67l0 -9.91c3.36,2.09 6.19,3.54 8.5,4.38 2.31,0.83 4.54,1.24 6.72,1.24 2.19,0 3.85,-0.34 4.98,-1 1.12,-0.67 1.69,-1.67 1.69,-2.98 0,-1.07 -0.35,-1.93 -1.06,-2.57 -0.7,-0.66 -2.33,-1.43 -4.9,-2.32 -6.36,-2.23 -10.74,-4.52 -13.13,-6.85 -2.39,-2.33 -3.59,-5.3 -3.59,-8.92 0,-3.81 1.56,-6.9 4.68,-9.29 3.11,-2.38 7.16,-3.57 12.16,-3.57 2.53,0 5.07,0.3 7.62,0.93 2.55,0.62 5.08,1.52 7.56,2.71l0 9.17c-3,-1.52 -5.69,-2.64 -8.07,-3.36 -2.37,-0.73 -4.54,-1.09 -6.5,-1.09 -2.12,0 -3.75,0.31 -4.86,0.93 -1.12,0.62 -1.67,1.5 -1.67,2.64 0,0.94 0.5,1.82 1.5,2.64 0.99,0.83 2.5,1.6 4.52,2.35 0.42,0.18 1.08,0.42 1.95,0.73 4.25,1.58 7.3,2.93 9.15,4.05 1.94,1.19 3.4,2.72 4.39,4.6 0.99,1.87 1.48,4.06 1.48,6.56 0,4.13 -1.55,7.36 -4.67,9.73 -3.12,2.36 -7.45,3.54 -12.98,3.54 -2.76,0 -5.43,-0.36 -8.02,-1.08 -2.58,-0.73 -5.07,-1.81 -7.45,-3.26z"/>
   <polygon class="fil11" points="281.01,502.22 281.01,465.9 266.24,465.9 266.24,457.6 307.54,457.6 307.54,465.9 292.77,465.9 292.77,502.22 "/>
   <path class="fil11" d="M321.8 485.89l13.18 0 -6.25 -16.99 -6.93 16.99zm-18.69 16.33l19.46 -44.62 12.89 0 17.37 44.62 -11.83 0 -3.19 -8.69 -19.23 0 -3.57 8.69 -11.9 0z"/>
   <polygon class="fil11" points="366.96,474.18 366.96,502.22 355.92,502.22 355.92,457.6 365.71,457.6 389.63,484.2 389.63,457.6 400.67,457.6 400.67,502.22 391.93,502.22 "/>
   <path class="fil11" d="M422.42 485.89l13.17 0 -6.25 -16.99 -6.92 16.99zm-18.69 16.33l19.46 -44.62 12.88 0 17.38 44.62 -11.84 0 -3.19 -8.69 -19.23 0 -3.57 8.69 -11.89 0z"/>
  </g>
 </g>
</svg>
