<svg width="94" height="113" viewBox="0 0 94 113" fill="none" xmlns="http://www.w3.org/2000/svg">
<path d="M87.6168 82.0896V42.3582L39.3784 70.2687C39.0502 70.9254 42.0036 71.9105 42.6599 71.9105C46.2696 72.8955 49.2229 72.5672 52.5045 71.5821C54.1452 70.9254 60.052 66.9851 60.7083 66.9851L87.6168 82.0896ZM6.23491 42.3582V82.7463L46.5977 105.731C47.254 105.731 51.52 103.104 52.5045 102.776C52.8326 102.448 53.1608 102.448 53.1608 101.791L32.8153 90.2985C32.4871 89.9702 37.0813 87.3433 37.7376 87.0149C38.3939 86.6866 38.7221 86.3582 39.3784 87.0149L59.3957 98.5075L67.2714 93.9105L47.254 82.0896V81.4328L52.5045 78.806L73.1781 90.2985L81.3819 86.0299L61.0365 74.209C60.3801 73.8806 57.7549 75.5224 56.7705 76.1791C50.2074 79.1343 43.6443 79.1343 36.7531 76.1791C34.7842 75.194 29.5338 72.2388 27.5649 70.9254C27.2367 70.597 26.9085 70.597 26.9085 69.9403L40.3628 62.0597L6.23491 42.3582ZM49.5511 56.806L93.5236 31.8507V86.0299L46.5977 112.955L0 86.0299V31.8507L43.6443 56.806V32.8358C43.6443 32.5075 41.6754 30.8657 41.3473 30.209C35.1124 20.0299 36.7531 6.89552 46.9259 0C56.1142 6.23881 58.4112 19.3731 52.8326 28.8955C52.5045 29.5522 49.5511 32.8358 49.5511 32.8358V56.806Z" fill="#0A7F36"/>
<path d="M41.0192 45.3135C27.5649 48.5971 13.7825 34.8061 17.064 21.3434C30.8464 18.7165 43.9725 31.5225 41.0192 45.3135Z" fill="#0A7F36"/>
<path d="M76.4597 21.3433C79.4131 34.4776 67.2714 47.2836 53.8172 45.6418C53.489 45.6418 52.8327 45.6418 52.5046 45.3135C51.5201 44.3284 52.1764 38.4179 52.5046 36.7761C55.1298 26.597 65.9588 19.3732 76.4597 21.3433Z" fill="#0A7F36"/>
</svg>
