<svg width="133" height="132" viewBox="0 0 133 132" fill="none" xmlns="http://www.w3.org/2000/svg">
<path fill-rule="evenodd" clip-rule="evenodd" d="M0.233984 71.6661C3.20597 107.706 35.1459 134.925 71.402 131.748C102.278 129.042 124.164 108.869 131.2 79.1989C141.045 37.6798 104.381 -2.91372 60.5107 0.164665C23.5985 2.75717 -2.77701 35.1547 0.233984 71.6626V71.6661Z" fill="#2D2313"/>
<path fill-rule="evenodd" clip-rule="evenodd" d="M95.3907 68.3679C96.5078 67.038 99.0223 64.7611 100.459 63.5624C106.278 58.7036 104.594 61.6792 106.544 58.5157C100.037 58.7568 97.0646 55.5047 89.0956 58.0475C83.9957 59.6754 77.4275 62.1508 72.6965 59.3101C70.1217 53.0647 73.8562 50.2381 77.5871 46.6526C81.2152 43.1699 85.5172 38.6658 83.0772 33.3602C81.1869 29.2463 75.9096 24.9904 79.442 19.5678C80.6833 17.6633 87.4039 13.1663 89.8297 10.5703C88.1877 8.97434 86.9464 8.91758 84.3787 8.25793C72.2532 5.13345 51.8075 4.37447 41.8169 10.4958C48.3496 17.2235 70.4267 22.249 55.8115 34.7327C53.9106 36.357 50.8889 37.6657 48.6582 39.407C39.4514 46.5994 49.144 49.4472 27.8294 53.3413C27.3897 61.5728 28.7835 61.3032 36.1673 61.5657C41.4481 61.7536 45.2712 63.151 49.8533 65.2754C55.1057 67.7118 54.7688 70.5703 59.241 72.9677C62.674 74.8084 67.6569 76.4504 70.448 78.8301C77.7609 85.0578 67.476 96.3571 62.5641 99.9852C59.89 101.961 59.9716 100.702 57.8933 103.954C51.6372 113.753 57.6238 114.76 55.088 125.825C60.3227 126.006 64.004 127.265 69.721 126.701C73.952 126.286 78.761 125.552 82.7934 124.275C88.4253 122.495 99.5898 118.53 103.324 114.324C98.9159 109.703 97.3093 109.064 96.1319 101.84C95.5928 98.5346 95.8127 95.364 95.8198 92.048C95.834 86.1005 88.5743 76.4824 95.3836 68.3644L95.3907 68.3679Z" fill="#477986"/>
<path fill-rule="evenodd" clip-rule="evenodd" d="M51.091 119.874C50.2824 113.816 46.5763 106.709 56.2618 98.3108C76.8033 80.5037 65.0076 82.3018 57.0988 77.6488C54.7723 76.2799 51.5485 73.4213 49.3568 71.602C39.2563 63.2215 34.5926 69.8429 27.2229 66.1368C21.7577 63.3918 20.3817 51.4542 27.3506 48.4077C31.1631 46.7409 34.1245 47.9609 37.7703 44.9889C40.7565 42.5524 41.1395 39.7897 43.466 36.8709C46.5834 32.9662 60.6312 29.7885 52.655 23.5644C49.8497 21.3762 46.4061 20.4292 43.6894 18.7305C40.9444 17.0139 37.8625 13.6979 35.3232 12.9248C26.1377 20.2555 22.0379 22.5997 13.3241 35.0054C8.81649 44.2547 7.07514 45.0527 10.111 50.9931C13.2816 57.1996 13.3312 59.2636 19.2255 63.6259C22.194 65.8247 23.609 65.3175 24.9283 69.0627C26.0951 72.3716 26.0029 75.4074 25.932 78.8936C25.7476 87.7351 30.3616 89.9375 33.596 93.3244C38.1852 98.13 38.32 101.971 40.5614 108.018C42.0368 112.004 47.3353 118.217 51.0946 119.863L51.091 119.874Z" fill="#819E27"/>
<path fill-rule="evenodd" clip-rule="evenodd" d="M77.2041 55.5365C88.3366 54.2491 91.9186 50.0962 104.218 52.9937C108.3 53.9548 112.708 54.5293 112.07 59.5548C111.403 64.7752 106.949 64.1014 104.104 66.6017C92.6953 76.6206 99.7068 83.3412 100.65 87.4552C101.664 91.8635 100.494 97.2401 101.42 101.79C103.033 109.699 106.034 110.192 107.208 111.412C121.287 95.1157 130.455 82.9051 126.072 56.0934C123.688 41.5065 108.378 15.4325 94.0749 12.0278C92.8301 13.8366 91.4327 15.3616 89.9255 16.9007C88.1274 18.7378 86.8081 19.6209 85.2051 21.4616C81.6727 25.5117 86.8861 27.7602 88.4466 32.5515C91.8867 43.1202 79.9349 47.8228 77.2041 55.5365Z" fill="#84A32A"/>
<path fill-rule="evenodd" clip-rule="evenodd" d="M5.66011 56.0439C4.89406 73.0602 6.08569 84.8204 15.0513 99.3221C20.5342 108.196 34.8622 120.044 45.3173 123.463C42.6148 118.236 36.1425 115.618 34.1883 106.454C33.2308 101.961 34.2592 100.649 30.6205 96.9531C27.9039 94.1939 26.8754 94.779 23.8679 90.5551C18.2538 82.6677 22.6054 72.7481 19.1404 69.6165C18.2786 68.8363 16.211 68.0489 14.9875 67.1623L8.81651 60.2714C7.26313 58.1187 7.55749 57.8952 5.66365 56.0439H5.66011Z" fill="#4B7C8B"/>
</svg>
