<?xml version="1.0" encoding="UTF-8"?>
<!DOCTYPE svg PUBLIC "-//W3C//DTD SVG 1.1//EN" "http://www.w3.org/Graphics/SVG/1.1/DTD/svg11.dtd">
<!-- Creator: CorelDRAW 2021 (64-Bit) -->
<svg xmlns="http://www.w3.org/2000/svg" xml:space="preserve" width="100px" height="96px" version="1.1" style="shape-rendering:geometricPrecision; text-rendering:geometricPrecision; image-rendering:optimizeQuality; fill-rule:evenodd; clip-rule:evenodd"
viewBox="0 0 296.63 284.24"
 xmlns:xlink="http://www.w3.org/1999/xlink"
 xmlns:xodm="http://www.corel.com/coreldraw/odm/2003">
 <defs>
  <style type="text/css">
   <![CDATA[
    .fil5 {fill:none}
    .fil1 {fill:#19CFBA}
    .fil4 {fill:#1E2F3F}
    .fil2 {fill:#498536}
    .fil3 {fill:#F0B16E}
    .fil0 {fill:#FA6E85}
   ]]>
  </style>
   <clipPath id="id0">
    <path d="M0 0l296.63 0 0 284.24 -296.63 0 0 -284.24zm0 0z"/>
   </clipPath>
 </defs>
 <g id="Capa_x0020_1">
  <metadata id="CorelCorpID_0Corel-Layer"/>
  <path class="fil0" d="M240.33 116.51c0,-6.46 -0.59,-12.49 -1.75,-18.68 -2.18,-11.58 -6.34,-22.45 -12.13,-32.26l-63.56 37.42c10.35,17.54 -2.19,40.17 -22.96,40.17 -7.04,0 -13.43,-2.73 -18.19,-7.18l-50.35 53.87c17.94,16.79 42.04,27.06 68.54,27.06 55.44,0 100.4,-44.95 100.4,-100.4zm0 0z"/>
  <path class="fil1" d="M139.93 16.11c-55.45,0 -100.4,44.96 -100.4,100.4 0,37.16 20.19,69.6 50.19,86.96l12.92 -22.37 9.13 5.27c5.27,3.04 12.06,1.22 15.1,-4.05 3.04,-5.27 1.23,-12.06 -4.04,-15.1l-9.13 -5.28 12.91 -22.35c-7.97,-4.61 -13.33,-13.22 -13.33,-23.08 0,-14.71 11.94,-26.65 26.65,-26.65l0 -73.75zm0 0z"/>
  <path class="fil2" d="M240.33 116.51c0,-55.44 -44.96,-100.4 -100.4,-100.4 -18.29,0 -35.44,4.9 -50.21,13.44l12.92 22.37 -9.14 5.27c-5.26,3.04 -7.08,9.84 -4.04,15.11 3.04,5.27 9.84,7.09 15.11,4.05l9.13 -5.27 12.91 22.35c17.52,-10.14 39.97,2.41 39.97,23.08l25.81 0 0 -10.54c0,-6.09 4.98,-11.06 11.06,-11.06 6.09,0 11.06,4.97 11.06,11.06l0 10.54 25.82 0zm0 0z"/>
  <path class="fil3" d="M53.35 65.64l0.01 0.01c1.94,4.08 3.49,8.32 4.61,12.72l21.33 30.11c3.71,5.24 2.46,12.57 -2.78,16.27 -5.25,3.72 -12.57,2.46 -16.29,-2.78l-18.55 -26.2c-6,28.54 0.71,57.74 17.55,80.48 -43.12,-25.68 -61.2,-82.46 -51.34,-158.27l33.04 0 0 29.31c5.16,5.71 9.31,11.82 12.42,18.35zm0 0z"/>
  <path class="fil3" d="M139.16 216.93l0.01 -0.02 0 0c2.55,-3.72 5.45,-7.18 8.7,-10.35l15.42 -33.52c2.69,-5.84 9.66,-8.41 15.49,-5.73 5.83,2.68 8.41,9.65 5.72,15.49l-13.41 29.18c27.34,-8.93 49.53,-29.27 60.92,-55.41 -0.7,50.17 -40.83,94.2 -111.39,123.56l-16.52 -28.62 25.38 -14.65c2.37,-7.32 5.59,-13.98 9.68,-19.93zm0 0z"/>
  <path class="fil3" d="M227.28 66.97l-0.01 0c-4.51,-0.35 -8.95,-1.14 -13.33,-2.36l-36.74 3.41c-6.39,0.59 -12.11,-4.15 -12.71,-10.55 -0.59,-6.4 4.16,-12.11 10.55,-12.7l31.95 -2.97c-20.88,-18.76 -49.09,-28.35 -78.43,-25.05 43.79,-24.5 102,-11.76 162.72,34.68l-16.52 28.61 -25.38 -14.65c-7.52,1.61 -14.89,2.14 -22.1,1.58zm0 0z"/>
  <g>
  </g>
  <g style="clip-path:url(#id0)">
   <g>
    <path class="fil4" d="M273.12 73.95l-21.5 -12.42c-0.97,-0.56 -2.11,-0.72 -3.17,-0.5 -7.09,1.52 -14.11,2.03 -20.78,1.5 0,0 -0.05,0 -0.05,-0.01 -4.22,-0.32 -8.41,-1.07 -12.48,-2.21 -0.52,-0.14 -1.05,-0.19 -1.61,-0.14l-36.75 3.41c-3.96,0.38 -7.47,-2.55 -7.84,-6.51 -0.34,-3.96 2.57,-7.48 6.53,-7.84l31.95 -2.97c3.9,-0.37 5.41,-5.22 2.55,-7.77 -16.44,-14.76 -37.03,-23.84 -58.68,-26.21 38.21,-10.34 84.86,3.53 134.16,40.34l-12.33 21.33zm-150.61 200.53l-12.29 -21.31 21.49 -12.43c0.98,-0.56 1.69,-1.44 2.03,-2.49 2.23,-6.92 5.29,-13.24 9.1,-18.78 0.04,-0.02 0.04,-0.04 0.04,-0.06 2.37,-3.46 5.12,-6.71 8.1,-9.64 0.42,-0.39 0.72,-0.84 0.95,-1.33l15.42 -33.53c2.67,-5.81 11.14,-5.45 13.32,0.52 0.64,1.82 0.57,3.78 -0.23,5.51l-13.39 29.18c-1.66,3.58 1.77,7.31 5.43,6.12 21.01,-6.86 39.16,-20.15 52.02,-37.71 -10.15,38.22 -45.49,71.68 -101.99,95.95zm-59.93 -101.26c6.98,9.5 15.64,17.69 25.57,24.07l10.63 -18.41c1.26,-2.15 3.95,-2.87 6.11,-1.64l9.13 5.28c3.13,1.81 7.17,0.72 8.98,-2.42 1.82,-3.11 0.72,-7.2 -2.42,-9l-9.12 -5.28c-2.11,-1.23 -2.87,-3.96 -1.63,-6.09l10.83 -18.79c-15.79,-12.49 -15.78,-36.33 0,-48.82l-8.6 -14.92 -5.24 3.04c-7.43,4.27 -16.94,1.72 -21.23,-5.69 -4.25,-7.4 -1.7,-16.94 5.69,-21.21l5.24 -3.04 -8.34 -14.46c-11.88,7.61 -22.14,17.84 -29.75,30.12 1.46,3.4 2.71,6.91 3.66,10.5l20.85 29.44c5.17,7.28 3.43,17.37 -3.85,22.52 -7.24,5.15 -17.34,3.42 -22.48,-3.85l-12.17 -17.17c-2.22,23.26 4.19,47 18.14,65.82zm-50.74 -150.76l24.63 0 0 24.84c0,1.11 0.41,2.17 1.13,2.99 8.14,9.15 12.98,17.75 16.03,29.2 0.15,0.52 0.39,1.02 0.72,1.47l21.32 30.11c2.3,3.25 1.5,7.76 -1.74,10.06 -3.25,2.29 -7.74,1.52 -10.04,-1.73l-18.55 -26.19c-2.24,-3.19 -7.22,-2.16 -8.03,1.65 -4.57,21.67 -2.12,44.03 6.63,63.92 -28.03,-27.91 -39.34,-75.24 -32.1,-136.32zm128.09 71.89c12.22,0 22.18,9.94 22.18,22.17 0,12.23 -9.96,22.18 -22.18,22.18 -12.22,0 -22.17,-9.95 -22.17,-22.18 0,-12.23 9.95,-22.17 22.17,-22.17zm88.03 60.35c4.68,-10.78 7.25,-22.23 7.81,-33.7l-21.27 0c-2.45,0 -4.45,-2.01 -4.45,-4.48l0 -10.54c0,-3.64 -2.98,-6.59 -6.6,-6.59 -3.62,0 -6.6,2.95 -6.6,6.59l0 10.54c0,2.47 -2,4.48 -4.45,4.48l-21.69 0c-2.85,19.89 -23.74,31.87 -42.28,24.42l-8.64 14.9 5.28 3.04c3.58,2.07 6.15,5.42 7.21,9.43 3.61,13.51 -10.94,24.29 -22.74,17.47l-5.25 -3.05 -8.41 14.53c12.67,6.56 26.74,10.21 41.04,10.66 2.22,-2.99 4.63,-5.82 7.24,-8.44l15.09 -32.78c3.69,-8.08 13.35,-11.64 21.42,-7.92 8.07,3.72 11.62,13.33 7.92,21.41l-8.83 19.14c21.43,-9.77 38.62,-27.19 48.17,-49.02 0,-0.02 0.03,-0.06 0.03,-0.09zm-67.92 -96.81c-0.78,-8.84 5.73,-16.74 14.6,-17.57l20.93 -1.93c-29.47,-21.01 -67.8,-23.46 -99.65,-7.03l10.59 18.34c1.25,2.14 0.49,4.87 -1.62,6.11l-9.12 5.27c-1.51,0.87 -2.61,2.29 -3.1,4 -1.52,5.53 4.56,10.36 9.66,7.41l9.13 -5.27c2.15,-1.23 4.87,-0.5 6.11,1.64l10.86 18.78c18.53,-7.49 39.44,4.53 42.28,24.42l17.2 0 0 -6.08c0,-8.56 6.98,-15.53 15.54,-15.53 8.56,0 15.54,6.97 15.54,15.53l0 6.08 16.75 0c-0.65,-14.15 -4.41,-28.14 -11.24,-40.86 -3.7,-0.41 -7.36,-1.09 -10.94,-2.06l-35.94 3.34c-8.83,0.82 -16.72,-5.66 -17.58,-14.59zm133.97 -9.99c-30.82,-23.58 -60.95,-38.63 -89.5,-44.77 -28.78,-6.18 -54.81,-3.03 -77.36,9.32 -14.11,1.73 -27.76,6.3 -40.02,13.47 -13.28,7.75 -24.7,18.37 -33.45,30.97 -2.38,-3.9 -5.14,-7.68 -8.27,-11.28l0 -27.62c0,-2.47 -1.99,-4.46 -4.48,-4.46l-33.05 0c-2.23,0 -4.1,1.66 -4.41,3.89 -5.02,38.48 -2.98,72.09 5.96,99.88 9.05,28.03 24.78,48.99 46.77,62.34 8.44,11.19 19.13,20.66 31.3,27.7 0,0.02 0.05,0.03 0.05,0.04 13.38,7.74 28.44,12.4 43.86,13.65 -2.18,4.03 -4.07,8.3 -5.62,12.82l-23.91 13.81c-2.12,1.22 -2.87,3.96 -1.67,6.1l16.53 28.61c1.14,1.98 3.58,2.74 5.62,1.9 35.79,-14.9 63.89,-33.45 83.47,-55.12 19.76,-21.82 30.06,-45.92 30.62,-71.59 11.77,-27.61 11.02,-59.02 -1.73,-85.91 4.56,-0.12 9.2,-0.63 13.88,-1.53l23.95 13.8c2.09,1.23 4.81,0.55 6.08,-1.63l16.51 -28.62c1.14,-1.94 0.64,-4.41 -1.13,-5.77zm0 0z"/>
   </g>
  </g>
  <path class="fil5" d="M0 0l296.63 0 0 284.24 -296.63 0 0 -284.24zm0 0z"/>
 </g>
</svg>
