<svg width="109" height="104" viewBox="0 0 109 104" fill="none" xmlns="http://www.w3.org/2000/svg">
<path fill-rule="evenodd" clip-rule="evenodd" d="M34.3574 93.6237C31.6761 103.461 16.2673 99.5863 19.0208 89.1981C21.5207 79.7665 37.2588 82.979 34.3574 93.6237ZM70.5915 92.4667C69.9886 80.8725 85.5573 81.0078 86.2842 90.5895C87.1524 102.034 71.0867 101.992 70.5915 92.4667ZM30.8187 80.3063L59.4106 80.2323L59.5013 88.9955C57.3273 89.5322 44.0881 89.2564 40.7493 89.2338C36.783 89.207 38.8267 87.5011 36.1325 84.4243C33.3096 81.2006 33.7761 82.373 30.8187 80.3063ZM15.0279 89.0986L9.69833 89.2125L9.59734 80.2258L22.1072 80.6676C16.742 83.1989 17.5272 84.2545 15.0279 89.0986ZM74.5855 53.8992L89.7941 54.0271L94.8468 64.8748L74.7783 64.9536L74.5855 53.8991V53.8992ZM96.3872 68.5272L96.3966 77.9891C85.6214 77.3191 85.078 81.6589 96.4456 81.1903L96.3682 89.287L90.1797 89.2337C87.3869 83.8242 84.6303 78.3785 76.752 79.7317C66.5469 81.4844 69.4321 90.8109 63.1698 89.016L63.0872 46.9536L86.6193 46.8211L88.5901 50.6969C84.7073 50.4626 76.912 50.3586 73.1953 50.6173C69.4943 50.8749 70.8939 60.503 71.004 63.581C71.2351 70.044 76.2238 68.5333 81.309 68.5412C86.335 68.5489 91.3616 68.5549 96.3873 68.5272L96.3872 68.5272ZM62.8871 43.3025C63.1563 12.7756 64.2319 17.1082 49.6826 17.0739C36.57 17.0428 23.4554 17.0813 10.3426 17.0663C0.242502 17.0547 0.343406 16.7864 0.344476 26.9009L0.345951 66.24C0.350231 74.1829 -2.08597 78.518 5.91109 80.5103C5.90323 90.9381 3.82665 92.4072 14.585 92.6592C16.0237 96.9896 18.0925 103.157 26.548 103.181C32.937 103.198 37.7711 98.9154 38.362 92.6036L66.2672 92.5839C67.3453 94.9432 68.7103 103.41 78.5893 103.152C87.7983 102.912 88.5355 96.6634 90.5654 92.5822C102.795 93.0771 99.9882 89.0543 100.015 78.1961C100.042 66.9569 100.159 68.2173 95.7365 58.3701C87.7424 40.5685 93.9445 42.5492 62.8871 43.3024L62.8871 43.3025Z" fill="#342B13"/>
<path fill-rule="evenodd" clip-rule="evenodd" d="M84.3944 24.2204C87.8718 20.7871 90.9176 17.1485 94.2671 13.6186C96.8925 10.8519 99.1995 13.2669 96.8263 16.1945C95.232 18.1612 93.5665 19.6211 91.8731 21.664C83.5693 31.6817 84.038 29.3788 81.1274 26.321C79.8371 24.9654 76.4854 22.2843 78.7975 20.515C80.8757 18.9246 82.71 23.3496 84.3944 24.2204ZM84.5069 3.58443C61.7421 8.29244 69.828 43.7465 91.9496 37.9532C114.683 31.9997 106.052 -0.871459 84.5069 3.58443Z" fill="#D68925"/>
<path fill-rule="evenodd" clip-rule="evenodd" d="M96.3874 68.5274C91.3617 68.555 86.3351 68.549 81.3092 68.5413C76.224 68.5334 71.2352 70.0442 71.0041 63.5812C70.8941 60.5031 69.4944 50.875 73.1954 50.6174C76.9122 50.3587 84.7076 50.4627 88.5902 50.6971L86.6194 46.8213L63.0874 46.9538L63.17 89.0161C69.4322 90.8111 66.547 81.4846 76.7522 79.7318C84.6304 78.3787 87.3871 83.8243 90.1799 89.2339L96.3684 89.2871L96.4458 81.1904C85.0781 81.659 85.6215 77.3192 96.3967 77.9893L96.3874 68.5273L96.3874 68.5274Z" fill="#F2B32C"/>
<path fill-rule="evenodd" clip-rule="evenodd" d="M84.507 3.58435C106.053 -0.871543 114.683 31.9995 91.9496 37.9532C69.8281 43.7465 61.7421 8.29242 84.507 3.58435ZM108.877 23.4288C111.525 -4.73464 70.6647 -8.71076 67.503 18.088C64.0977 46.9524 106.411 49.6501 108.877 23.4288Z" fill="#342B13"/>
<path fill-rule="evenodd" clip-rule="evenodd" d="M30.8186 80.3064C33.7759 82.3732 33.3096 81.2008 36.1324 84.4244C38.8266 87.5012 36.783 89.2071 40.7493 89.234C44.088 89.2565 57.3272 89.5324 59.5012 88.9957L59.4106 80.2324L30.8186 80.3064Z" fill="#CE821C"/>
<path fill-rule="evenodd" clip-rule="evenodd" d="M74.7785 64.9539L94.847 64.8751L89.7943 54.0274L74.5857 53.8994L74.7785 64.9539Z" fill="#8EB77A"/>
<path fill-rule="evenodd" clip-rule="evenodd" d="M81.8449 92.8524C79.2447 97.4334 73.5016 93.9999 75.2092 89.9005C77.0009 85.5991 84.1093 88.863 81.8449 92.8524ZM70.5915 92.4668C71.0868 101.992 87.1524 102.034 86.2842 90.5896C85.5575 81.0078 69.9887 80.8726 70.5915 92.4668Z" fill="#6C6C54"/>
<path fill-rule="evenodd" clip-rule="evenodd" d="M25.3837 88.034C30.1192 86.1554 32.3295 93.0873 28.0541 94.7483C23.2597 96.611 21.2265 89.6831 25.3837 88.034ZM34.3575 93.624C37.2589 82.9793 21.5208 79.7668 19.0209 89.1984C16.2674 99.5866 31.6763 103.461 34.3575 93.624Z" fill="#73745A"/>
<path fill-rule="evenodd" clip-rule="evenodd" d="M84.3943 24.2202C82.7099 23.3494 80.8757 18.9244 78.7975 20.5148C76.4854 22.2841 79.8371 24.9652 81.1274 26.3208C84.038 29.3786 83.5692 31.6815 91.873 21.6639C93.5664 19.6209 95.232 18.1611 96.8262 16.1944C99.1996 13.2666 96.8925 10.8517 94.267 13.6184C90.9175 17.1484 87.8718 20.787 84.3943 24.2202Z" fill="#FAFDF8"/>
<path fill-rule="evenodd" clip-rule="evenodd" d="M15.0277 89.0986C17.527 84.2545 16.7418 83.1989 22.107 80.6676L9.59717 80.2258L9.69816 89.2126L15.0277 89.0986Z" fill="#D68925"/>
<path fill-rule="evenodd" clip-rule="evenodd" d="M25.3835 88.034C21.2264 89.6831 23.2596 96.6111 28.0539 94.7483C32.3293 93.0873 30.1191 86.1554 25.3835 88.034Z" fill="#342B13"/>
<path fill-rule="evenodd" clip-rule="evenodd" d="M81.8449 92.8526C84.1093 88.8632 77.001 85.5993 75.2093 89.9007C73.5017 94.0001 79.2447 97.4335 81.8449 92.8526Z" fill="#342B13"/>
<path fill-rule="evenodd" clip-rule="evenodd" d="M58.7444 21.0593L3.72597 20.9968C3.71307 21.0253 4.02523 73.5043 4.64214 76.1915L58.8951 76.1415C58.9524 70.2044 59.2044 22.7569 58.7444 21.0592V21.0593Z" fill="#EBC13C"/>
<path fill-rule="evenodd" clip-rule="evenodd" d="M18.5911 56.1408C21.2206 54.4988 34.2934 35.1127 40.2427 37.4795C41.5012 40.3458 32.931 45.2609 30.6497 47.5816C28.0486 50.2274 21.7741 55.6558 21.0407 59.2874C40.6769 62.0429 45.0426 47.1478 46.4525 30.896C33.2641 30.9451 13.2302 39.6041 18.591 56.1409L18.5911 56.1408Z" fill="#749B22"/>
<path fill-rule="evenodd" clip-rule="evenodd" d="M18.591 56.1408C13.2301 39.604 33.264 30.945 46.4524 30.8959C45.0425 47.1478 40.6768 62.0428 21.0406 59.2874C21.7741 55.6558 28.0486 50.2274 30.6496 47.5815C32.931 45.2608 41.5012 40.3457 40.2427 37.4794C34.2933 35.1126 21.2205 54.4987 18.591 56.1407L18.591 56.1408ZM19.0142 62.6148C25.0602 61.7574 27.2108 65.1053 35.7369 60.7883C40.0041 58.6278 43.4114 54.7882 45.53 50.5251C47.9954 45.5644 49.0415 40.0128 49.6385 34.5427C50.6818 24.9834 46.8601 26.5021 37.7814 28.5062C27.9021 30.687 18.3208 35.7825 15.3365 46.1695C13.285 53.3104 17.3936 58.4499 15.0918 62.0701C14.2348 63.4181 11.4591 68.0901 14.635 68.3917C16.9277 68.6093 17.0716 64.1306 19.0142 62.6149L19.0142 62.6148Z" fill="#1C5612"/>
</svg>
