<svg width="140" height="139" viewBox="0 0 140 139" fill="none" xmlns="http://www.w3.org/2000/svg">
<path fill-rule="evenodd" clip-rule="evenodd" d="M48.0305 60.027C42.6897 36.0577 62.8136 17.9847 66.3172 18.7964C68.7525 19.3519 90.2864 38.7067 82.8094 60.3688C87.8083 58.5743 98.1052 53.6608 103.318 55.6689C105.497 62.8041 100.113 80.3218 95.3281 86.3461C87.4665 96.1731 79.8613 96.7712 67.6844 98.4803L67.1717 113.563L63.7109 113.221C62.6 110.572 63.1554 102.881 63.1554 99.5911C62.5573 97.7112 54.4394 98.8648 46.9196 95.4467C42.3479 93.3959 38.289 90.7469 35.4691 86.6452C31.4955 80.9626 24.8303 60.5397 28.4193 54.9853C32.7773 52.7635 43.8433 58.2325 48.0305 60.027ZM123.484 88.1406C133.055 59.5142 124.382 30.2897 98.618 13.8402C74.8624 -1.37018 39.2717 2.21879 20.8141 24.0945C-11.7004 62.5051 7.26995 112.409 46.4069 125.739C63.8391 131.678 74.2215 128.346 90.7564 123.475C87.381 113.349 88.1501 102.112 96.0971 94.5495C104.813 86.3034 111.778 85.3207 123.484 88.1406Z" fill="#FEF4C9"/>
<path fill-rule="evenodd" clip-rule="evenodd" d="M93.448 116.254C89.0045 88.0124 130.235 81.0481 135.234 108.863C137.413 120.826 130.021 131.935 118.058 134.071C106.138 136.207 95.2852 127.961 93.448 116.254ZM123.484 88.1406C111.777 85.3207 104.813 86.3034 96.097 94.5495C88.15 102.112 87.3809 113.349 90.7563 123.475C74.2214 128.346 63.839 131.678 46.4068 125.739C7.26985 112.409 -11.7005 62.5051 20.814 24.0945C39.2716 2.21882 74.8622 -1.37016 98.6179 13.8403C124.382 30.2897 133.055 59.5143 123.484 88.1406ZM92.7644 127.192C98.9597 133.259 101.053 137.575 111.222 138.643C119.511 139.54 127.501 136.763 133.098 130.696C138.866 124.458 141.045 116.083 139.549 107.709C137.712 97.6258 133.739 96.0449 127.372 89.9351C151.683 19.0528 66.2316 -29.8256 18.0368 20.89C-27.1245 68.3585 17.9941 155.648 92.7644 127.192Z" fill="#137525"/>
<path fill-rule="evenodd" clip-rule="evenodd" d="M58.4553 85.6198C55.9772 83.8253 46.1503 69.5976 42.6895 71.862C39.8696 73.742 43.8004 76.0064 45.253 77.7582C50.5938 84.1244 57.3445 90.0633 60.0362 93.2677C59.1817 93.8659 60.2498 93.3959 58.9681 93.6522L56.7036 93.5668C38.5451 90.6187 32.6062 77.8009 32.3925 59.4288C36.1097 59.6851 40.8095 61.3942 44.0994 63.1032C48.3293 65.325 50.1238 66.9485 53.7982 69.213C58.8826 72.4175 63.6252 84.0389 63.2406 90.7469C61.4462 89.636 60.8053 87.3288 58.4553 85.6198ZM67.556 90.9178C67.4705 81.219 70.3759 74.3829 77.5111 68.9567C80.5446 66.6067 96.1396 58.1043 99.1304 60.4542C99.2586 67.504 96.0114 78.0573 92.0379 83.4835C87.4235 89.8496 79.6901 92.4559 71.5722 93.6095C72.1704 92.0714 85.4581 78.1855 86.2272 77.6727C88.5771 76.0492 91.2688 75.3656 88.8335 71.8193C86.1417 69.8112 70.1622 88.3969 67.556 90.9178ZM54.3109 63.445C51.7474 58.7452 51.2774 53.1481 51.8756 47.6792C53.1146 36.5704 58.6262 31.0588 65.5051 23.7954C71.7431 29.0507 78.9211 38.7067 79.8183 47.6792C80.2456 52.0372 79.5619 59.3006 76.9557 63.1032C76.6139 63.5732 67.6414 72.7593 67.5132 72.8447L67.1714 41.7403L63.497 41.8257C62.5998 45.5001 62.6852 68.7858 63.1552 73.3147L54.3109 63.445ZM48.0302 60.027C43.8431 58.2325 32.7771 52.7635 28.419 54.9853C24.8301 60.5397 31.4953 80.9626 35.4688 86.6452C38.2887 90.7469 42.3477 93.3959 46.9193 95.4467C54.4391 98.8648 62.557 97.7112 63.1552 99.5911C63.1552 102.881 62.5998 110.572 63.7106 113.221L67.1714 113.563L67.6841 98.4803C79.861 96.7712 87.4662 96.1731 95.3278 86.3461C100.113 80.3218 105.497 62.8041 103.318 55.6689C98.105 53.6608 87.808 58.5743 82.8091 60.3688C90.2861 38.7067 68.7523 19.3519 66.3169 18.7964C62.8134 17.9847 42.6895 36.0577 48.0302 60.027Z" fill="#0E7226"/>
<path fill-rule="evenodd" clip-rule="evenodd" d="M109.812 117.493C115.537 113.99 125.535 97.7539 128.27 102.881C129.509 105.103 127.629 105.658 126.005 107.367L112.162 122.065C108.744 125.056 107.035 119.843 104.514 118.134C103.19 117.237 101.737 116.169 100.797 114.802C99.3443 112.751 100.498 110.657 102.378 110.743C104.343 110.871 107.249 116.169 109.812 117.493ZM93.4481 116.254C95.2853 127.961 106.138 136.207 118.058 134.071C130.021 131.935 137.413 120.826 135.234 108.863C130.235 81.0481 89.0046 88.0124 93.4481 116.254Z" fill="#89CE0B"/>
<path fill-rule="evenodd" clip-rule="evenodd" d="M63.1555 73.3147C62.6855 68.7858 62.6001 45.5002 63.4973 41.8257L67.1718 41.7403L67.5136 72.8448C67.6417 72.7593 76.6142 63.5732 76.956 63.1033C79.5623 59.3006 80.2459 52.0372 79.8186 47.6792C78.9214 38.7068 71.7434 29.0507 65.5054 23.7954C58.6266 31.0588 53.1149 36.5705 51.8759 47.6792C51.2777 53.1481 51.7477 58.7452 54.3113 63.4451L63.1555 73.3147Z" fill="#32C932"/>
<path fill-rule="evenodd" clip-rule="evenodd" d="M60.0362 93.2678C57.3445 90.0633 50.5938 84.1244 45.2531 77.7582C43.8004 76.0065 39.8696 73.742 42.6895 71.8621C46.1503 69.5976 55.9773 83.8253 58.4554 85.6198C60.8053 87.3289 61.4462 89.6361 63.2407 90.7469C63.6252 84.039 58.8826 72.4175 53.7983 69.2131C50.1238 66.9486 48.3293 65.325 44.0995 63.1033C40.8096 61.3942 36.1097 59.6852 32.3926 59.4288C32.6062 77.801 38.5451 90.6188 56.7036 93.5668L58.9681 93.6523C60.2499 93.3959 59.1817 93.8659 60.0362 93.2678Z" fill="#32C932"/>
<path fill-rule="evenodd" clip-rule="evenodd" d="M67.556 90.9178C70.1623 88.397 86.1418 69.8112 88.8335 71.8193C91.2689 75.3656 88.5772 76.0492 86.2272 77.6727C85.4582 78.1855 72.1704 92.0714 71.5723 93.6095C79.6902 92.4559 87.4236 89.8496 92.038 83.4835C96.0115 78.0573 99.2587 67.504 99.1305 60.4542C96.1397 58.1043 80.5447 66.6067 77.5112 68.9567C70.3759 74.3829 67.4706 81.219 67.556 90.9178Z" fill="#32C932"/>
<path fill-rule="evenodd" clip-rule="evenodd" d="M109.812 117.493C107.248 116.169 104.343 110.871 102.378 110.743C100.498 110.657 99.3442 112.751 100.797 114.802C101.737 116.169 103.189 117.237 104.514 118.134C107.035 119.843 108.744 125.056 112.162 122.065L126.005 107.367C127.629 105.658 129.509 105.103 128.27 102.881C125.535 97.7539 115.537 113.99 109.812 117.493Z" fill="#167225"/>
</svg>
