<svg width="124" height="108" viewBox="0 0 124 108" fill="none" xmlns="http://www.w3.org/2000/svg">
<path fill-rule="evenodd" clip-rule="evenodd" d="M41.1505 42.8369C42.5266 35.2627 37.0786 25.2493 29.4592 23.9549C9.15035 20.5062 4.66671 51.4715 23.5064 55.9636C31.9549 57.9798 39.7349 50.6368 41.1534 42.8369H41.1505Z" fill="#2C220D"/>
<path fill-rule="evenodd" clip-rule="evenodd" d="M82.4196 41.2691C84.7432 62.909 112.905 59.1867 111.792 38.1559C111.346 29.7329 103.941 22.8777 95.4109 23.7773C87.1852 24.6458 81.5342 33.0096 82.4196 41.2691Z" fill="#251B0A"/>
<path fill-rule="evenodd" clip-rule="evenodd" d="M43.4121 23.4868C43.8238 28.8418 44.6698 30.562 47.5122 34.586C48.4823 35.9593 52.9885 39.8592 55.783 40.9082C71.002 46.61 82.462 30.3477 80.6065 18.7833C76.0214 -9.78227 41.3141 -3.80129 43.4121 23.4897V23.4868Z" fill="#2D2313"/>
<path fill-rule="evenodd" clip-rule="evenodd" d="M122.919 99.8438C123.81 98.2054 122.908 80.6488 122.459 77.9276C120.026 63.2275 106.172 56.9757 95.1712 58.3716C89.3143 59.116 91.401 60.072 87.6224 55.6476C81.6329 48.6345 72.1186 45.1434 62.7876 45.3831C54.889 45.5862 50.9186 46.1501 43.8379 49.503C33.1025 54.5845 36.3539 59.3727 30.2967 58.7889C16.6569 57.4692 4.66386 61.8626 1.4802 76.1426C0.659606 79.8254 -0.397855 94.9851 0.152025 98.3549C1.33356 105.596 25.2181 101.674 29.6199 104.257C34.4081 107.066 31.7715 106.84 38.1868 107.113C52.3934 107.723 69.6371 108.594 83.6858 107.418C100.385 106.017 85.7161 103.538 103.14 103.324C106.767 103.278 121.128 103.135 122.916 99.8466L122.919 99.8438Z" fill="#2C220D"/>
<path fill-rule="evenodd" clip-rule="evenodd" d="M42.5718 103.347C42.2898 96.9876 42.5662 85.2907 43.4855 78.0351C43.9761 74.1521 46.2207 75.2744 46.6635 78.334C47.5799 84.6478 45.8316 97.3627 46.5704 103.535C56.9928 103.468 67.4151 103.397 77.8374 103.33C77.375 96.7028 76.7264 84.7267 77.4539 77.6431C77.7275 74.9727 81.1903 77.0481 81.2128 78.0943C81.3933 86.3594 81.5766 94.6274 81.7571 102.893C84.2217 103.521 88.6799 103.002 90.9838 101.688C91.5026 101.043 92.202 70.3368 88.0426 63.6085C81.0014 52.219 74.9527 49.5344 61.1916 49.6952C55.9015 49.7572 49.1675 50.5891 44.6613 53.4738C40.5781 56.0879 36.9095 59.8383 34.9835 64.2289C32.3412 70.255 32.7642 76.1091 32.7134 82.578C32.5443 104.19 29.4283 102.069 42.5746 103.347H42.5718Z" fill="#42646C"/>
<path fill-rule="evenodd" clip-rule="evenodd" d="M29.0758 74.2138C29.6454 66.0615 35.4883 59.3727 19.5953 62.985C17.6947 63.4164 12.3482 65.9572 11.0849 66.9864C2.48419 73.9798 4.22124 96.178 4.84444 96.9394C7.34287 99.6944 23.8928 99.0712 28.4836 99.4124L29.0758 74.2138Z" fill="#498786"/>
<path fill-rule="evenodd" clip-rule="evenodd" d="M119.391 97.8701C118.182 82.5863 121.743 70.1534 105.938 63.9637C100.732 61.9249 97.4779 62.4043 92.0693 62.2915C95.7606 71.349 95.0105 87.727 95.4053 99.1927C100.114 100.143 113.833 98.1295 119.388 97.8701H119.391Z" fill="#498786"/>
<path fill-rule="evenodd" clip-rule="evenodd" d="M47.374 22.9652C48.3356 31.4051 54.5704 39.1063 63.8563 37.9022C72.2399 36.8137 77.5469 26.6452 76.4754 18.7917C73.4778 -3.20908 44.9151 1.39861 47.374 22.9652Z" fill="#42646C"/>
<path fill-rule="evenodd" clip-rule="evenodd" d="M24.1521 27.9027C10.6956 31.3007 14.3784 55.7125 29.0503 51.4601C43.1752 47.3657 36.9996 24.6598 24.1521 27.9027Z" fill="#457678"/>
<path fill-rule="evenodd" clip-rule="evenodd" d="M107.666 41.7906C108.876 36.5033 104.263 28.8811 99.0684 27.9365C93.2932 26.8846 87.3545 31.9717 86.5142 37.3211C84.1455 52.3681 103.814 58.6169 107.666 41.7934V41.7906Z" fill="#457678"/>
</svg>
