<?xml version="1.0" encoding="UTF-8"?>
<svg viewBox="0 0 64 64" xmlns="http://www.w3.org/2000/svg">
<path d="m27.816 0.31249c-5.5226 0.89982-7.9745 1.7373-12.058 3.9958-10.504 5.8088-16.942 18.048-15.575 31.663 0.47027 4.6821 2.0603 8.4444 3.921 12.014 5.4484 10.451 18.144 17.39 31.825 15.784 5.0335-0.591 8.6696-1.9228 12.174-3.8156 16.53-8.929 21.369-33.919 8.5165-48.615l-4.0659-4.0256c-2.9962-2.3803-6.0932-4.1842-10.34-5.6292-4.1292-1.4051-9.6507-2.1446-14.398-1.3711z" clip-rule="evenodd" fill="#0D5D34" fill-rule="evenodd"/>
<path d="m10.689 52.12c2.0777-0.6747 3.6948-2.0039 7.9736-3.1782 2.6932-0.7391 6.7437-1.7387 9.6916-1.6711-0.1143-4.1332 0.7664-7.0005-3.241-8.0532-14.516-3.8133-13.496-20.363-12.556-21.133 3.1647-1.1007 8.2571 1.6552 10.207 2.9953 2.9002 1.9932 4.4768 4.7238 6.1898 7.3258 0.3069-0.5092 1.3108-3.7615 2.5019-6.0106 4.6439-8.7691 14.693-10.42 16.442-9.1049 1.3618 1.0245 0.9277 15.359-3.9576 20.964-5.1082 5.8608-9.8705 5.695-11.958 7.4775-1.5981 1.3647-1.1317 2.7666-1.187 5.2679 4.3408-0.1203 8.4983 0.1969 12.662 1.1126 6.5559 1.4416 5.67 1.8013 10.362 3.4516l3.137-4.6006c0.4077-0.7277 0.4135-1.0531 0.8801-1.8425 1.3562-2.2947 2.1567-5.1584 2.7038-8.0525 4.8017-25.397-25.234-45.479-48.043-26.572-2.9571 2.4512-5.0712 5.7382-6.8884 9.3045-2.5202 4.9463-3.3376 11.986-2.0494 17.99 1.5747 7.3383 3.5804 9.2929 7.1289 14.33z" clip-rule="evenodd" fill="#A7DBFF" fill-rule="evenodd"/>
<path d="m12.729 54.465c0.9567 0.2706 14.44 11.413 30.696 4.3522 2.5741-1.118 6.8566-3.3819 8.1741-5.077-0.0404-0.0519-0.1172-0.1861-0.1412-0.1381-0.0239 0.0479-0.1129-0.1082-0.1471-0.1314l-3.6537-1.4689c-9.6839-3.0387-21.087-2.9895-30.677 0.343-1.4632 0.5085-3.3499 0.9483-4.2513 2.1202z" clip-rule="evenodd" fill="#B14E29" fill-rule="evenodd"/>
<path d="m30.386 38.777c0.8545-0.4103 0.4257 0.6648 1.0859-2.3935 0.964-4.4651 3.2228-8.3022 5.7083-11.806 1.472-2.0752 2.2342-3.3752 4.0399-2.7576 0.1586 0.8718-0.2571 1.3399-0.7378 1.9977l-2.384 3.5516c-0.4352 0.6769-0.9167 1.3441-1.2958 1.9447-1.2209 1.9339-3.9235 5.8485-3.4788 8.7342 3.2526-0.0968 7.7869-4.1151 9.759-7.3404 2.0227-3.3082 3.2217-10.257 2.4514-14.788-2.641-0.1507-6.2693 1.918-8.2343 3.3905l-3.4002 3.8803c-2.2742 3.7108-4.0303 10.678-3.5136 15.586z" clip-rule="evenodd" fill="#85B413" fill-rule="evenodd"/>
<path d="m26.246 36.568-2.0294-2.6663c-0.2768-0.3882-0.6801-1.0131-0.9848-1.4424-0.3523-0.496-0.685-0.8357-1.069-1.3494-2.9617-3.9614-4.541-3.2877-3.218-5.2868 2.1465-0.3454 1.8961 1.4164 3.7032 2.6436 1.6419 1.1151 1.0553 1.0607 2.2066 2.3821 0.6264 0.7192 0.5453 0.5175 1.0901 1.3185 0.5874 0.8636 1.1903 1.9185 1.7936 2.7457 0.216-2.8249 0.2631-3.5058-1.0938-5.5717-2.9868-4.5479-1.7094-3.0492-4.6374-5.3653-0.4547-0.3597-0.383-0.3789-0.8733-0.7423-0.341-0.2528-0.7744-0.5026-1.167-0.7322-1.3287-0.7774-3.2148-1.9638-4.9768-1.7244-1.1918 4.4687 3.2156 14.789 11.256 15.791l1e-4 -1e-4z" clip-rule="evenodd" fill="#85B413" fill-rule="evenodd"/>
</svg>
