<?xml version="1.0" encoding="UTF-8"?>
<!DOCTYPE svg PUBLIC "-//W3C//DTD SVG 1.1//EN" "http://www.w3.org/Graphics/SVG/1.1/DTD/svg11.dtd">
<!-- Creator: CorelDRAW 2021 (64-Bit) -->
<svg xmlns="http://www.w3.org/2000/svg" xml:space="preserve" width="100px" height="100px" version="1.1" style="shape-rendering:geometricPrecision; text-rendering:geometricPrecision; image-rendering:optimizeQuality; fill-rule:evenodd; clip-rule:evenodd"
viewBox="0 0 26.56 26.56"
 xmlns:xlink="http://www.w3.org/1999/xlink"
 xmlns:xodm="http://www.corel.com/coreldraw/odm/2003">
 <defs>
  <style type="text/css">
   <![CDATA[
    .fil1 {fill:none;fill-rule:nonzero}
    .fil0 {fill:#498536;fill-rule:nonzero}
    .fil2 {fill:#6F4323;fill-rule:nonzero}
   ]]>
  </style>
   <clipPath id="id0" style="clip-rule:nonzero">
    <path d="M0 0l26.56 0 0 25.1 -26.56 0 0 -25.1zm0 0z"/>
   </clipPath>
   <clipPath id="id1" style="clip-rule:nonzero">
    <path d="M5.41 7.49l16.61 0 0 19.07 -16.61 0 0 -19.07zm0 0z"/>
   </clipPath>
 </defs>
 <g id="Capa_x0020_1">
  <metadata id="CorelCorpID_0Corel-Layer"/>
  <path class="fil0" d="M6.79 14.93c0,0 -1.03,0.38 -2.05,-0.36 -1.04,-0.77 -0.93,-1.75 -1.78,-2.19 0,0 4.3,-0.2 3.83,2.55z"/>
  <path class="fil0" d="M7.97 9.76c0,0 -0.96,-0.55 -1.02,-1.81 -0.07,-1.29 0.76,-1.83 0.56,-2.77 0,0 2.89,3.2 0.46,4.58z"/>
  <path class="fil0" d="M11.14 11.37c0,0 -0.67,-0.39 -0.72,-1.28 -0.05,-0.9 0.54,-1.28 0.39,-1.94 0,0 2.03,2.25 0.33,3.22z"/>
  <path class="fil0" d="M6.13 9.94c0,0 -0.68,0.37 -1.46,-0.06 -0.79,-0.44 -0.8,-1.14 -1.44,-1.37 0,0 2.98,-0.53 2.9,1.43z"/>
  <path class="fil0" d="M7.75 16.82c0,0 -0.51,0.59 -1.39,0.47 -0.9,-0.12 -1.16,-0.76 -1.83,-0.75 0,0 2.58,-1.57 3.22,0.28z"/>
  <path class="fil0" d="M19.78 13.12c0,0 1.09,-0.14 1.64,-1.28 0.56,-1.16 0,-1.98 0.55,-2.77 0,0 -3.9,1.84 -2.19,4.05z"/>
  <path class="fil0" d="M19.55 8.77c0,0 -0.12,-0.76 0.53,-1.36 0.67,-0.61 1.33,-0.4 1.75,-0.92 0,0 -0.45,2.99 -2.28,2.28z"/>
  <path class="fil0" d="M18.48 6.83c0,0 -0.77,-0.05 -1.21,-0.82 -0.45,-0.79 -0.1,-1.39 -0.52,-1.91 0,0 2.82,1.1 1.73,2.73z"/>
  <path class="fil0" d="M17.94 10.72c0,0 0.15,-0.92 -0.64,-1.63 -0.8,-0.73 -1.59,-0.48 -2.09,-1.11 0,0 0.54,3.58 2.73,2.74z"/>
  <path class="fil0" d="M13.26 8.88c0,0 -0.62,-0.69 -0.34,-1.71 0.28,-1.05 1.08,-1.26 1.17,-2.06 0,0 1.47,3.3 -0.83,3.77z"/>
  <path class="fil0" d="M11.29 7.61c0,0 0.88,-0.3 1.16,-1.32 0.27,-1.05 -0.32,-1.63 0.01,-2.37 0,0 -2.92,2.13 -1.17,3.69z"/>
  <path class="fil0" d="M19.16 16.2c0,0 0.75,0.19 1.4,-0.41 0.67,-0.61 0.52,-1.29 1.08,-1.66 0,0 -3.02,0.18 -2.48,2.07z"/>
  <path class="fil0" d="M14.15 13.37c0,0 0.76,-0.17 1.07,-1 0.33,-0.84 -0.12,-1.38 0.22,-1.97 0,0 -2.62,1.52 -1.29,2.97z"/>
  <g>
  </g>
  <g style="clip-path:url(#id0)">
   <g>
    <path class="fil0" d="M8.15 24.91c0.17,0.01 0.34,0.01 0.5,0.01 0.47,0 0.9,-0.04 1.28,-0.11 -4.94,-1.43 -8.57,-5.95 -8.65,-11.34 -0.11,-6.68 5.22,-12.14 11.9,-12.19 6.68,-0.06 12.11,5.34 12.11,12 0,5.34 -3.49,9.87 -8.3,11.43 0.26,0.09 0.57,0.14 0.93,0.14 0.23,0 0.47,-0.02 0.71,-0.07 1.56,-0.29 2.99,-1.04 4.11,-2.17 2.36,-2.4 3.82,-5.69 3.82,-9.33 0,-7.33 -5.94,-13.28 -13.28,-13.28 -7.33,0 -13.28,5.95 -13.28,13.28 0,4.3 2.04,8.11 5.2,10.54 0.85,0.66 1.88,1.03 2.95,1.09z"/>
   </g>
  </g>
  <path class="fil1" d="M0 0l26.56 0 0 25.1 -26.56 0 0 -25.1zm0 0z"/>
  <g>
  </g>
  <g style="clip-path:url(#id1)">
   <g>
    <path class="fil2" d="M21.8 12.27c-0.01,0.01 -0.01,0.02 -0.02,0.03 0,0.01 -0.01,0.02 -0.02,0.04 -0.02,0.02 -0.03,0.04 -0.05,0.07 -0.02,0.03 -0.04,0.06 -0.07,0.09 -0.02,0.03 -0.05,0.06 -0.07,0.09 -0.02,0.02 -0.03,0.04 -0.05,0.06 -0.01,0.01 -0.03,0.03 -0.04,0.05 -0.13,0.14 -0.3,0.29 -0.51,0.44 -0.1,0.07 -0.21,0.13 -0.32,0.2 -0.12,0.06 -0.24,0.12 -0.36,0.18 -0.13,0.05 -0.26,0.1 -0.39,0.14 -0.14,0.05 -0.27,0.08 -0.41,0.12 -0.13,0.03 -0.27,0.06 -0.4,0.08 -0.13,0.02 -0.26,0.04 -0.39,0.06 -0.25,0.03 -0.49,0.04 -0.7,0.06 -0.21,0.01 -0.39,0.03 -0.52,0.04 -0.07,0.01 -0.17,0.01 -0.27,0.03 -0.1,0.01 -0.22,0.02 -0.34,0.04 0.14,-0.15 0.27,-0.31 0.4,-0.48 0.16,-0.21 0.32,-0.43 0.46,-0.66 0.28,-0.47 0.52,-0.97 0.69,-1.47 0.18,-0.5 0.3,-1 0.37,-1.46 0.03,-0.24 0.05,-0.46 0.06,-0.67 0.02,-0.21 0.02,-0.41 0.02,-0.59 -0.01,-0.36 -0.04,-0.65 -0.07,-0.86 -0.01,-0.05 -0.01,-0.09 -0.02,-0.13 0,-0.04 -0.01,-0.07 -0.01,-0.1 -0.01,-0.05 -0.02,-0.08 -0.02,-0.08 0,0 0,0.03 0.01,0.08 0,0.03 0,0.06 0.01,0.1 0,0.04 0,0.09 0,0.14 0.01,0.2 0.01,0.49 -0.01,0.85 -0.02,0.18 -0.04,0.37 -0.07,0.57 -0.03,0.21 -0.07,0.42 -0.13,0.64 -0.1,0.45 -0.26,0.92 -0.48,1.38 -0.21,0.46 -0.47,0.91 -0.78,1.31 -0.15,0.2 -0.31,0.4 -0.47,0.57 -0.17,0.18 -0.34,0.35 -0.51,0.52 -0.17,0.16 -0.34,0.31 -0.51,0.46 -0.16,0.15 -0.31,0.29 -0.46,0.43 -0.14,0.14 -0.27,0.27 -0.38,0.39 -0.12,0.12 -0.22,0.23 -0.31,0.33 -0.09,0.11 -0.2,0.25 -0.33,0.42 -0.12,0.17 -0.25,0.37 -0.37,0.6 -0.02,0.02 -0.03,0.05 -0.04,0.08 -0.02,0.03 -0.03,0.06 -0.05,0.09 -0.01,0.03 -0.02,0.06 -0.04,0.09 -0.01,0.03 -0.02,0.06 -0.03,0.09 -0.02,-0.03 -0.04,-0.06 -0.06,-0.1 -0.08,-0.15 -0.18,-0.3 -0.28,-0.45 -0.11,-0.16 -0.22,-0.31 -0.34,-0.46 -0.07,-0.08 -0.14,-0.17 -0.22,-0.26 0,0 0,-0.01 0,-0.01 -0.01,-0.02 -0.01,-0.05 -0.02,-0.07 0,-0.02 -0.01,-0.05 -0.01,-0.07 -0.01,-0.05 -0.03,-0.1 -0.04,-0.15 0,-0.02 0,-0.03 -0.01,-0.04 0,-0.02 -0.01,-0.03 -0.01,-0.04 -0.01,-0.03 -0.01,-0.06 -0.02,-0.09 -0.01,-0.03 -0.02,-0.05 -0.03,-0.08 0,-0.02 0,-0.03 -0.01,-0.05 0,-0.01 -0.01,-0.03 -0.01,-0.04 -0.02,-0.06 -0.04,-0.12 -0.06,-0.18 -0.01,-0.03 -0.02,-0.06 -0.03,-0.09 -0.02,-0.03 -0.03,-0.06 -0.04,-0.09 -0.01,-0.03 -0.02,-0.06 -0.03,-0.09 -0.01,-0.03 -0.02,-0.06 -0.04,-0.08 -0.02,-0.06 -0.04,-0.12 -0.07,-0.17 -0.02,-0.05 -0.05,-0.11 -0.07,-0.16 -0.01,-0.02 -0.02,-0.05 -0.03,-0.07 -0.01,-0.02 -0.03,-0.05 -0.04,-0.07 -0.02,-0.04 -0.04,-0.08 -0.06,-0.12 -0.01,-0.02 -0.02,-0.04 -0.03,-0.06 -0.01,-0.01 -0.02,-0.03 -0.03,-0.04 -0.03,-0.06 -0.06,-0.12 -0.11,-0.19 -0.02,-0.04 -0.04,-0.07 -0.06,-0.11 -0.02,-0.02 -0.03,-0.04 -0.04,-0.06 -0.01,-0.02 -0.03,-0.04 -0.04,-0.06 -0.03,-0.04 -0.06,-0.09 -0.09,-0.13 -0.01,-0.02 -0.03,-0.04 -0.04,-0.07 -0.02,-0.02 -0.04,-0.04 -0.05,-0.06 -0.04,-0.05 -0.07,-0.09 -0.11,-0.14 -0.03,-0.05 -0.07,-0.09 -0.11,-0.14 -0.02,-0.02 -0.04,-0.05 -0.06,-0.07 -0.02,-0.02 -0.04,-0.05 -0.06,-0.07 -0.02,-0.02 -0.04,-0.05 -0.07,-0.07 -0.02,-0.02 -0.04,-0.05 -0.06,-0.07 -0.09,-0.09 -0.18,-0.18 -0.27,-0.28 -0.19,-0.18 -0.38,-0.35 -0.56,-0.53 -0.18,-0.17 -0.35,-0.35 -0.49,-0.53 -0.07,-0.08 -0.13,-0.17 -0.18,-0.25 -0.06,-0.09 -0.1,-0.17 -0.14,-0.25 -0.07,-0.15 -0.12,-0.29 -0.14,-0.39 -0.01,-0.02 -0.01,-0.04 -0.02,-0.06 0,-0.02 0,-0.04 -0.01,-0.05 0,-0.03 0,-0.04 0,-0.04 0,0 0,0.01 0,0.04 0,0.01 0,0.03 0,0.05 0,0.02 0.01,0.04 0.01,0.06 0.01,0.1 0.04,0.25 0.09,0.42 0.03,0.08 0.07,0.17 0.11,0.27 0.05,0.09 0.1,0.19 0.16,0.29 0.12,0.2 0.27,0.4 0.43,0.6 0.16,0.2 0.33,0.4 0.49,0.6 0.08,0.1 0.16,0.2 0.23,0.29 0.02,0.03 0.04,0.05 0.05,0.08 0.02,0.02 0.04,0.05 0.05,0.07 0.02,0.02 0.04,0.05 0.05,0.07 0.02,0.03 0.03,0.05 0.05,0.07 0.03,0.05 0.06,0.1 0.09,0.14 0.03,0.05 0.05,0.1 0.08,0.14 0.01,0.02 0.02,0.05 0.04,0.07 0.01,0.02 0.02,0.04 0.03,0.06 0.02,0.05 0.05,0.09 0.07,0.13 0.01,0.02 0.02,0.04 0.03,0.06 0,0.02 0.01,0.04 0.02,0.06 0.02,0.03 0.04,0.07 0.05,0.1 0.03,0.07 0.06,0.13 0.08,0.19 0.01,0.01 0.01,0.03 0.02,0.04 0.01,0.02 0.01,0.04 0.02,0.05 0.01,0.04 0.03,0.08 0.04,0.12 0.01,0.02 0.02,0.05 0.02,0.07 0.01,0.02 0.02,0.04 0.03,0.07 0.01,0.05 0.03,0.09 0.04,0.15 0.01,0.05 0.03,0.1 0.04,0.15 0.01,0.03 0.02,0.07 0.03,0.1 0,0 0,0 0,0 -0.05,-0.04 -0.11,-0.08 -0.16,-0.12 -0.17,-0.12 -0.35,-0.23 -0.54,-0.34 -0.19,-0.1 -0.38,-0.19 -0.57,-0.28 -0.37,-0.18 -0.74,-0.33 -1.08,-0.51 -0.04,-0.02 -0.09,-0.05 -0.13,-0.07 -0.04,-0.02 -0.08,-0.05 -0.12,-0.07l-0.03 -0.02 -0.03 -0.02 -0.06 -0.04c-0.02,-0.01 -0.04,-0.03 -0.05,-0.04l-0.06 -0.04 -0.06 -0.04c-0.02,-0.02 -0.04,-0.03 -0.05,-0.04 -0.04,-0.03 -0.08,-0.06 -0.11,-0.09 -0.07,-0.06 -0.15,-0.12 -0.21,-0.19 -0.07,-0.07 -0.13,-0.14 -0.2,-0.2 -0.03,-0.04 -0.06,-0.08 -0.09,-0.11l-0.05 -0.05 -0.04 -0.06c-0.03,-0.03 -0.06,-0.07 -0.09,-0.11 -0.03,-0.04 -0.06,-0.07 -0.08,-0.11 -0.02,-0.02 -0.03,-0.04 -0.05,-0.06 -0.01,-0.02 -0.02,-0.04 -0.04,-0.05 -0.02,-0.04 -0.05,-0.08 -0.08,-0.12 -0.2,-0.31 -0.38,-0.63 -0.54,-0.94 -0.16,-0.32 -0.3,-0.63 -0.44,-0.92 -0.13,-0.3 -0.25,-0.57 -0.37,-0.82 -0.12,-0.26 -0.23,-0.48 -0.33,-0.68 -0.05,-0.1 -0.1,-0.19 -0.15,-0.28 -0.02,-0.04 -0.05,-0.08 -0.07,-0.12 -0.02,-0.03 -0.04,-0.07 -0.06,-0.1 -0.04,-0.07 -0.08,-0.13 -0.11,-0.18 -0.02,-0.03 -0.03,-0.05 -0.05,-0.07 -0.01,-0.02 -0.03,-0.04 -0.04,-0.06 -0.04,-0.07 -0.07,-0.11 -0.07,-0.11 0,0 0.02,0.04 0.06,0.12 0.01,0.01 0.02,0.03 0.04,0.06 0.01,0.02 0.02,0.05 0.03,0.07 0.03,0.06 0.06,0.12 0.1,0.19 0.01,0.04 0.03,0.07 0.05,0.11 0.02,0.04 0.04,0.08 0.06,0.13 0.04,0.08 0.08,0.18 0.12,0.28 0.08,0.2 0.17,0.44 0.26,0.7 0.1,0.26 0.19,0.55 0.3,0.85 0.1,0.31 0.22,0.63 0.35,0.97 0.13,0.34 0.29,0.69 0.48,1.03 0.02,0.05 0.04,0.09 0.07,0.13 0.01,0.03 0.02,0.05 0.04,0.07 0.01,0.02 0.02,0.04 0.03,0.06 0.03,0.05 0.06,0.09 0.08,0.13 0.03,0.05 0.06,0.09 0.09,0.13 0.01,0.02 0.02,0.03 0.03,0.04 0.01,0.03 0.04,0.07 0.06,0.09 0.03,0.04 0.06,0.08 0.09,0.13 0.06,0.08 0.13,0.16 0.2,0.24 0.06,0.08 0.14,0.16 0.21,0.24 0.04,0.04 0.08,0.08 0.12,0.11 0.02,0.02 0.04,0.04 0.06,0.06l0.06 0.05 0.06 0.06c0.02,0.01 0.04,0.03 0.07,0.05l0.06 0.05 0.03 0.03 0.04 0.02c0.04,0.03 0.08,0.07 0.13,0.1 0.04,0.03 0.09,0.06 0.13,0.09 0.36,0.24 0.73,0.43 1.07,0.63 0.17,0.1 0.34,0.2 0.49,0.3 0.15,0.11 0.3,0.22 0.43,0.34 0.28,0.23 0.53,0.49 0.74,0.75 0.11,0.14 0.2,0.27 0.29,0.41 0.1,0.14 0.18,0.27 0.25,0.41 0.08,0.14 0.15,0.28 0.22,0.42 -0.1,-0.01 -0.2,-0.02 -0.31,-0.03 -0.15,-0.01 -0.31,-0.02 -0.48,-0.02 -0.16,0 -0.32,0.01 -0.46,0.02 -0.14,0 -0.28,0.01 -0.39,0.02 -0.12,0 -0.22,0 -0.3,0 -0.14,-0.01 -0.33,-0.02 -0.56,-0.06 -0.11,-0.02 -0.23,-0.05 -0.35,-0.08 -0.13,-0.04 -0.26,-0.08 -0.39,-0.14 -0.26,-0.11 -0.53,-0.25 -0.79,-0.44 -0.25,-0.19 -0.5,-0.41 -0.77,-0.61 -0.14,-0.1 -0.28,-0.19 -0.42,-0.26 -0.15,-0.07 -0.3,-0.13 -0.44,-0.16 -0.15,-0.04 -0.29,-0.06 -0.42,-0.07 -0.14,-0.01 -0.26,-0.01 -0.37,0 -0.23,0 -0.41,0.02 -0.54,0.04 -0.13,0.01 -0.2,0.02 -0.2,0.02 0,0 0.07,0 0.2,-0.01 0.13,0 0.31,0 0.53,0.02 0.12,0 0.24,0.02 0.36,0.04 0.13,0.02 0.26,0.05 0.4,0.09 0.13,0.05 0.26,0.11 0.39,0.19 0.12,0.08 0.25,0.18 0.37,0.28 0.23,0.21 0.46,0.45 0.71,0.68 0.13,0.11 0.26,0.21 0.4,0.31 0.14,0.09 0.28,0.18 0.42,0.25 0.14,0.07 0.28,0.14 0.42,0.19 0.13,0.05 0.26,0.09 0.39,0.13 0.24,0.07 0.46,0.1 0.62,0.12 0.09,0.01 0.2,0.02 0.33,0.03 0.12,0.01 0.26,0.01 0.4,0.02 0.14,0.01 0.29,0.02 0.43,0.03 0.14,0.02 0.29,0.04 0.42,0.07 0.14,0.03 0.27,0.06 0.39,0.09 0.03,0.01 0.06,0.01 0.09,0.02 0.01,0.01 0.02,0.01 0.04,0.01 0.01,0.01 0.02,0.01 0.04,0.02 0.02,0.01 0.05,0.01 0.07,0.02 0.03,0.01 0.05,0.02 0.07,0.02 0.02,0.08 0.04,0.16 0.06,0.23 0.03,0.11 0.05,0.21 0.06,0.31 0.02,0.1 0.03,0.18 0.04,0.27 0.01,0.05 0.01,0.1 0.02,0.15 0,0.02 0,0.03 0,0.04 0,0.02 0,0.03 0.01,0.04 0,0.03 0,0.06 0,0.09 0.01,0.06 0.01,0.12 0.01,0.18 0.01,0.07 0.01,0.14 0.01,0.21 0,0.03 0,0.06 0,0.1 0,0.03 0,0.07 0,0.11 0,0.04 0,0.07 0,0.11 0,0.02 0,0.04 0,0.06 0,0.02 0,0.04 0,0.06 0,0.15 -0.01,0.31 -0.02,0.48 0,0.05 0,0.09 -0.01,0.13 0,0.02 0,0.04 0,0.07 0,0.02 0,0.04 0,0.06 -0.01,0.09 -0.02,0.18 -0.02,0.27 -0.01,0.04 -0.01,0.09 -0.01,0.13 -0.01,0.05 -0.01,0.1 -0.02,0.14 0,0.09 -0.01,0.19 -0.02,0.28 -0.03,0.37 -0.07,0.75 -0.1,1.11 -0.01,0.06 -0.02,0.15 -0.03,0.27 -0.11,1.21 -1.42,2.77 -4.9,2.59 1.59,0.67 3.33,1.04 5.16,1.04 1.95,0 3.8,-0.42 5.47,-1.17 -2.59,0.49 -3.94,-1.36 -3.97,-2.65 0,0 0,-0.01 0,-0.01 0,-0.37 -0.01,-0.75 -0.02,-1.13 0,-0.09 0,-0.19 -0.01,-0.28 0,-0.05 0,-0.1 0,-0.15 0,-0.04 0,-0.09 0,-0.14 -0.01,-0.09 -0.01,-0.19 -0.01,-0.28 0,-0.02 0,-0.05 -0.01,-0.07 0,-0.02 0,-0.05 0,-0.07 0,-0.04 0,-0.09 -0.01,-0.14 0,-0.18 -0.02,-0.36 -0.03,-0.53 0,-0.02 0,-0.05 -0.01,-0.07 0,-0.02 0,-0.04 0,-0.06 -0.01,-0.05 -0.01,-0.09 -0.02,-0.13 0,-0.04 0,-0.08 -0.01,-0.12 0,-0.04 -0.01,-0.08 -0.01,-0.12 -0.01,-0.05 -0.02,-0.1 -0.02,-0.15 0,-0.01 0,-0.03 0,-0.05 0,-0.17 -0.01,-0.37 -0.01,-0.57 0,-0.03 0,-0.05 0,-0.07 0.01,-0.02 0.02,-0.03 0.03,-0.05 0.03,-0.06 0.06,-0.13 0.11,-0.19 0.01,-0.01 0.01,-0.02 0.02,-0.02 0.01,-0.01 0.01,-0.02 0.02,-0.03l0.02 -0.02 0.04 -0.04 0.03 -0.03 0.02 -0.02 0.02 -0.02c0.07,-0.06 0.14,-0.11 0.21,-0.16 0.15,-0.09 0.29,-0.16 0.39,-0.2 0.09,-0.04 0.21,-0.09 0.36,-0.14 0.15,-0.05 0.33,-0.11 0.51,-0.17 0.1,-0.02 0.2,-0.05 0.3,-0.08 0.1,-0.02 0.21,-0.05 0.31,-0.07 0.22,-0.05 0.44,-0.1 0.65,-0.16 0.22,-0.06 0.42,-0.13 0.6,-0.22 0.18,-0.08 0.33,-0.17 0.46,-0.25 0.13,-0.09 0.23,-0.16 0.29,-0.22 0.04,-0.02 0.06,-0.05 0.08,-0.06 0.02,-0.01 0.03,-0.02 0.03,-0.02 0,0 -0.01,0 -0.03,0.02 -0.02,0.01 -0.05,0.03 -0.09,0.05 -0.07,0.04 -0.17,0.11 -0.31,0.17 -0.13,0.07 -0.29,0.14 -0.48,0.2 -0.18,0.06 -0.38,0.1 -0.59,0.14 -0.21,0.03 -0.43,0.05 -0.65,0.07 -0.11,0.01 -0.22,0.02 -0.33,0.03 -0.11,0.02 -0.21,0.03 -0.31,0.05 -0.21,0.03 -0.4,0.07 -0.56,0.11 -0.16,0.03 -0.3,0.07 -0.4,0.1 -0.11,0.04 -0.29,0.09 -0.48,0.18 -0.08,0.03 -0.17,0.08 -0.25,0.13 0.01,-0.11 0.02,-0.21 0.04,-0.31 0.02,-0.1 0.04,-0.2 0.07,-0.3 0.01,-0.03 0.01,-0.05 0.02,-0.07 0.01,-0.03 0.02,-0.05 0.03,-0.08 0,-0.02 0.01,-0.04 0.02,-0.07 0.01,-0.02 0.02,-0.05 0.03,-0.07 0.07,-0.18 0.16,-0.36 0.25,-0.51 0.08,-0.15 0.17,-0.28 0.24,-0.38 0.07,-0.1 0.15,-0.2 0.25,-0.32 0.1,-0.13 0.22,-0.28 0.36,-0.43 0,0 0,0 0,0 0.01,-0.01 0.03,-0.03 0.04,-0.04 0.01,-0.01 0.02,-0.01 0.03,-0.02 0.01,-0.01 0.02,-0.02 0.03,-0.02 0.01,-0.01 0.02,-0.02 0.03,-0.03 0.01,0 0.02,-0.01 0.03,-0.02 0.02,-0.01 0.04,-0.03 0.06,-0.04 0.05,-0.03 0.09,-0.06 0.14,-0.09 0.1,-0.06 0.21,-0.11 0.32,-0.16 0.12,-0.04 0.23,-0.08 0.34,-0.11 0.12,-0.03 0.23,-0.06 0.32,-0.08 0.1,-0.02 0.19,-0.04 0.26,-0.05 0.13,-0.03 0.3,-0.05 0.51,-0.09 0.21,-0.03 0.45,-0.07 0.71,-0.13 0.13,-0.03 0.26,-0.06 0.4,-0.09 0.13,-0.04 0.27,-0.08 0.41,-0.13 0.14,-0.05 0.28,-0.1 0.41,-0.16 0.13,-0.05 0.27,-0.12 0.39,-0.19 0.13,-0.06 0.25,-0.14 0.36,-0.22 0.12,-0.07 0.22,-0.16 0.32,-0.24 0.19,-0.17 0.35,-0.34 0.47,-0.49 0.02,-0.02 0.03,-0.04 0.04,-0.06 0.02,-0.02 0.03,-0.04 0.04,-0.06 0.03,-0.03 0.05,-0.07 0.07,-0.1 0.02,-0.03 0.04,-0.07 0.06,-0.09 0.02,-0.03 0.03,-0.06 0.04,-0.09 0.01,-0.01 0.02,-0.02 0.02,-0.03 0.01,-0.01 0.01,-0.02 0.02,-0.03 0.01,-0.02 0.01,-0.04 0.02,-0.05 0.01,-0.03 0.02,-0.04 0.02,-0.04 0,0 -0.01,0.01 -0.02,0.04 -0.01,0.01 -0.02,0.03 -0.03,0.04z"/>
   </g>
  </g>
  <path class="fil1" d="M5.41 7.49l16.61 0 0 19.07 -16.61 0 0 -19.07zm0 0z"/>
 </g>
</svg>
