<?xml version="1.0" encoding="UTF-8"?>
<!DOCTYPE svg PUBLIC "-//W3C//DTD SVG 1.1//EN" "http://www.w3.org/Graphics/SVG/1.1/DTD/svg11.dtd">
<!-- Creator: CorelDRAW 2021 (64-Bit) -->
<svg xmlns="http://www.w3.org/2000/svg" xml:space="preserve" width="100px" height="77px" version="1.1" style="shape-rendering:geometricPrecision; text-rendering:geometricPrecision; image-rendering:optimizeQuality; fill-rule:evenodd; clip-rule:evenodd"
viewBox="0 0 42.81 33.08"
 xmlns:xlink="http://www.w3.org/1999/xlink"
 xmlns:xodm="http://www.corel.com/coreldraw/odm/2003">
 <defs>
  <style type="text/css">
   <![CDATA[
    .fil11 {fill:none;fill-rule:nonzero}
    .fil4 {fill:#349370;fill-rule:nonzero}
    .fil10 {fill:#3A322B;fill-rule:nonzero}
    .fil2 {fill:#5CC096;fill-rule:nonzero}
    .fil9 {fill:#65B39F;fill-rule:nonzero}
    .fil7 {fill:#8BCB8F;fill-rule:nonzero}
    .fil8 {fill:#96D4C6;fill-rule:nonzero}
    .fil3 {fill:#A7D276;fill-rule:nonzero}
    .fil1 {fill:#A9DDE0;fill-rule:nonzero}
    .fil5 {fill:#C19B7A;fill-rule:nonzero}
    .fil6 {fill:#D1AF8F;fill-rule:nonzero}
    .fil0 {fill:#FFD7D2;fill-rule:nonzero}
   ]]>
  </style>
   <clipPath id="id0" style="clip-rule:nonzero">
    <path d="M0 0l42.81 0 0 33.08 -42.81 0 0 -33.08zm0 0z"/>
   </clipPath>
 </defs>
 <g id="Capa_x0020_1">
  <metadata id="CorelCorpID_0Corel-Layer"/>
  <path class="fil0" d="M33.03 31.75c-1.8,0.96 -6.95,1.28 -7.21,0.04 -0.37,-1.79 3.84,-1.56 6.41,-3.9 1.82,-1.66 2.91,-3.77 3.33,-4.68 0.03,-0.07 0.04,-0.15 0.04,-0.22 0,-0.19 -0.1,-0.37 -0.27,-0.47 -0.24,-0.14 -0.56,-0.07 -0.72,0.16 -0.65,0.96 -2.37,3.25 -3.91,3.47 -0.89,0.13 -1.49,-0.05 -1.88,-0.27 -0.37,-0.21 -0.38,-0.74 -0.04,-0.98 3.99,-2.82 5.78,-8.37 7.72,-10.39 0.73,-0.77 1.71,-1.37 2.67,-1.83l0 -0.01c1.69,-0.81 3.3,-1.18 3.3,-1.18 0,0 0,8.38 -0.61,10.45 -0.6,2.06 -3.54,7.33 -5.12,8.61 -0.34,0.28 -0.71,0.5 -1.08,0.67 -1.32,0.58 -2.63,0.53 -2.63,0.53zm0 0z"/>
  <path class="fil1" d="M38.75 11.66c-2.93,-6.65 -9.59,-11.3 -17.35,-11.3 -7.24,0 -13.53,4.06 -16.72,10.01 -0.21,0.39 -0.4,0.79 -0.59,1.2 -0.16,0.36 -0.31,0.73 -0.45,1.1l0 0.01c-0.32,1.05 -0.54,2.11 -0.67,3.17 0.65,5.14 2.45,10.16 7.9,15.57 0.64,0.63 1.47,1.02 2.36,1.13 1.2,0.15 2.79,0.35 3.08,0.37 0.13,0.01 0.25,0.02 0.37,0.03 2.95,0.2 5.97,0.16 9.08,-0.04 1.02,-0.07 2.05,-0.16 3.09,-0.25 0.43,-0.05 0.62,-0.08 1.04,-0.13 -0.47,0.04 -0.95,0.07 -1.41,0.07 -1.38,0 -2.54,-0.24 -2.66,-0.81 -0.37,-1.79 3.84,-1.56 6.41,-3.9 1.82,-1.66 2.91,-3.77 3.33,-4.68 0.03,-0.07 0.04,-0.15 0.04,-0.22 0,-0.19 -0.1,-0.37 -0.27,-0.47 -0.24,-0.14 -0.56,-0.07 -0.72,0.16 -0.65,0.96 -2.37,3.25 -3.91,3.47 -0.89,0.13 -1.49,-0.05 -1.88,-0.27 -0.37,-0.21 -0.38,-0.74 -0.04,-0.98 3.99,-2.82 5.78,-8.37 7.72,-10.39 0.73,-0.77 1.71,-1.37 2.67,-1.83l0 -0.01c-0.13,-0.34 -0.27,-0.68 -0.42,-1.01zm-6.18 6.79c-0.55,0.93 -1.18,1.9 -1.76,2.67 -1.54,2.01 -4.25,3.19 -4.47,4.31 -0.02,0.07 -0.03,0.14 -0.03,0.22 -0.02,0.88 0.99,1.22 1.12,1.26 -0.12,-0.03 -0.92,-0.2 -1.61,0 -0.75,0.22 -1.18,1.18 -1.18,1.18 0.97,-0.15 1.15,0.21 2.05,0.28 0.87,0.07 2.41,-0.41 2.39,-0.4 -1.51,1.71 -3.26,1.12 -4.07,1.71 -0.69,0.49 -0.55,1.54 -1.22,1.9 -0.66,0.36 -1.87,-0.28 -3.18,-0.35 -1.33,-0.07 -2.6,0.85 -2.6,0.85 0,0 0.02,-1.16 0.81,-1.7 0.77,-0.53 1.7,-0.14 2.29,-0.42 0.59,-0.28 1.12,-0.94 1.12,-0.94 -1.53,0.17 -2.47,-0.93 -3.47,-1.05 -1.01,-0.12 -1.26,0.6 -1.89,0.6 -0.63,0 -1.07,-0.54 -1.57,-0.49 -0.5,0.05 -0.6,0.41 -1.52,0.29 -0.91,-0.12 -1.62,-0.87 -1.62,-0.87 0,0 3.21,-0.12 3.56,-1.5 0.03,-0.12 0.04,-0.24 0.05,-0.35 0.15,-1.77 -2.22,-2.43 -4.7,-6.08 -0.63,-0.92 -1.22,-1.97 -1.73,-2.96 -0.99,-1.93 -1.66,-3.63 -1.66,-3.63 0,0 0.48,-1.68 2.78,-1.68 0.9,0 1.77,0.5 2.63,1.31 -0.02,-0.11 -0.19,-1.26 0.52,-1.92 0.74,-0.7 2.05,-0.66 2.05,-0.66 0,0 -0.46,-2.97 2.03,-4.1 2.49,-1.13 4.4,0.51 4.4,0.51 0,0 2.89,-2.27 5.06,-1.04 2.18,1.23 1.05,3.76 1.05,3.76 0,0 2.12,0.78 2.59,2.81 0.47,2.03 -0.7,3.53 -0.7,3.53 0.49,-0.32 0.99,-0.56 1.52,-0.68 1.88,-0.4 2.62,0.64 2.62,0.64 0,0 -0.73,1.42 -1.66,2.99zm0 0z"/>
  <path class="fil2" d="M34.23 15.46c0,0 -0.73,1.42 -1.66,2.99l-0.73 -0.37c-0.26,-0.12 -0.53,-0.19 -0.8,-0.19 -0.43,0 -0.85,0.16 -1.18,0.46 -0.55,0.49 -1.34,0.6 -1.99,0.26l-0.65 -0.33c0.94,-1.1 1.88,-2.12 2.87,-2.78 0.49,-0.32 0.99,-0.56 1.52,-0.68 1.88,-0.4 2.62,0.64 2.62,0.64zm0 0z"/>
  <path class="fil3" d="M31.84 18.08l0.73 0.37c-0.55,0.93 -1.18,1.9 -1.76,2.67 -1.54,2.01 -4.25,3.19 -4.47,4.31 -0.02,0.07 -0.03,0.14 -0.03,0.22l-1.51 0c-1.22,-0.4 -2.35,-1.2 -3.4,-2.23 0.72,-0.24 1.4,-0.64 2.04,-1.15 1.06,-0.82 2.02,-1.93 2.96,-3.03 0.27,-0.33 0.55,-0.65 0.82,-0.96l0.65 0.33c0.65,0.34 1.44,0.23 1.99,-0.26 0.33,-0.3 0.75,-0.46 1.18,-0.46 0.27,0 0.54,0.07 0.8,0.19zm0 0z"/>
  <path class="fil4" d="M27.22 18.28c-0.27,0.31 -0.55,0.63 -0.82,0.96 0,0 -1.19,0.7 -2.15,0.62 -0.92,-0.07 -1.44,-0.77 -1.48,-0.84 0,-1.03 0.27,-2.18 0.46,-2.9 0.11,-0.42 0.5,-0.71 0.94,-0.69l2.08 0.06 0.49 -1.07 -0.69 -0.14c-0.32,-0.07 -0.44,-0.48 -0.19,-0.7l0.88 -0.8 -0.94 -0.97 -1.16 1.05c-0.28,0.25 -0.72,0.12 -0.81,-0.24l-0.39 -1.52 -1.17 0.2 0.55 2.35c0.06,0.27 -0.02,0.55 -0.21,0.76l-0.8 0.85c-0.22,0.22 -0.59,0.22 -0.8,-0.01l-0.77 -0.83c-0.19,-0.2 -0.29,-0.48 -0.27,-0.75l0.15 -2.18 -1.42 -0.19 -0.1 1.07c-0.01,0.42 -0.42,0.71 -0.82,0.58l-1.1 -0.42 -0.34 1.11c0,0 3.81,1.9 4.04,3.68 0.06,0.48 0.06,1.04 0.03,1.6 0,0 -0.46,0.39 -1.21,0.39 -0.76,0 -1.53,-0.59 -1.53,-0.59 -0.56,-0.81 -1.1,-1.63 -1.63,-2.4l0 0c-1,-1.46 -1.97,-2.79 -2.95,-3.71 0,0 0,0 0,0 -0.02,-0.11 -0.19,-1.26 0.52,-1.92 0.74,-0.7 2.05,-0.66 2.05,-0.66 0,0 -0.46,-2.97 2.03,-4.1 2.49,-1.13 4.4,0.51 4.4,0.51 0,0 2.89,-2.27 5.06,-1.04 2.18,1.23 1.05,3.76 1.05,3.76 0,0 2.12,0.78 2.59,2.81 0.47,2.03 -0.7,3.53 -0.7,3.53 -0.99,0.66 -1.93,1.68 -2.87,2.78zm0 0z"/>
  <path class="fil5" d="M26.69 28.37c0.87,0.07 2.41,-0.41 2.39,-0.4 -1.51,1.71 -3.26,1.12 -4.07,1.71 -0.69,0.49 -0.55,1.54 -1.22,1.9 -0.66,0.36 -1.87,-0.28 -3.18,-0.35 -1.33,-0.07 -2.6,0.85 -2.6,0.85 0,0 0.02,-1.16 0.81,-1.7 0.77,-0.53 1.7,-0.14 2.29,-0.42 0.59,-0.28 1.12,-0.94 1.12,-0.94 -1.53,0.17 -2.47,-0.93 -3.47,-1.05 -1.01,-0.12 -1.26,0.6 -1.89,0.6 -0.63,0 -1.07,-0.54 -1.57,-0.49 -0.5,0.05 -0.6,0.41 -1.52,0.29 -0.91,-0.12 -1.62,-0.87 -1.62,-0.87 0,0 3.21,-0.12 3.56,-1.5 0.03,-0.12 0.04,-0.24 0.05,-0.35l10.54 0c-0.02,0.88 0.99,1.22 1.12,1.26 -0.12,-0.03 -0.92,-0.2 -1.61,0 -0.75,0.22 -1.18,1.18 -1.18,1.18 0.97,-0.15 1.15,0.21 2.05,0.28zm0 0z"/>
  <path class="fil6" d="M22.77 19.02c-0.01,0.02 -0.01,0.04 -0.01,0.06 0,1.66 0.68,3.19 0.68,3.19 -0.64,0.51 -1.32,0.91 -2.04,1.15 -0.46,-0.45 -0.91,-0.95 -1.35,-1.48 0,0 0.29,-1.51 0.36,-3.02 0.03,-0.56 0.03,-1.12 -0.03,-1.6 -0.23,-1.78 -4.04,-3.68 -4.04,-3.68l0.34 -1.11 1.1 0.42c0.4,0.13 0.81,-0.16 0.82,-0.58l0.1 -1.07 1.42 0.19 -0.15 2.18c-0.02,0.27 0.08,0.55 0.27,0.75l0.77 0.83c0.21,0.23 0.58,0.23 0.8,0.01l0.8 -0.85c0.19,-0.21 0.27,-0.49 0.21,-0.76l-0.55 -2.35 1.17 -0.2 0.39 1.52c0.09,0.36 0.53,0.49 0.81,0.24l1.16 -1.05 0.94 0.97 -0.88 0.8c-0.25,0.22 -0.13,0.63 0.19,0.7l0.69 0.14 -0.49 1.07 -2.08 -0.06c-0.44,-0.02 -0.83,0.27 -0.94,0.69 -0.19,0.72 -0.46,1.87 -0.46,2.9zm0 0z"/>
  <path class="fil7" d="M24.8 25.65l-9.03 0c0.15,-1.77 -2.22,-2.43 -4.7,-6.08 -0.63,-0.92 -1.22,-1.97 -1.73,-2.96l1.17 -0.7c0.36,-0.22 0.81,-0.19 1.15,0.08l1.13 0.89c0.45,0.36 1.11,0.27 1.45,-0.2 0.19,-0.26 0.49,-0.42 0.81,-0.42 0.02,0 0.04,0.01 0.06,0.01l0.93 0.05 0 0c0.53,0.77 1.07,1.59 1.63,2.4 0.76,1.11 1.55,2.22 2.38,3.22 0.44,0.53 0.89,1.03 1.35,1.48 1.05,1.03 2.18,1.83 3.4,2.23zm0 0z"/>
  <path class="fil8" d="M24.25 19.86c0.96,0.08 2.15,-0.62 2.15,-0.62 -0.94,1.1 -1.9,2.21 -2.96,3.03 0,0 -0.68,-1.53 -0.68,-3.19 0,-0.02 0,-0.04 0.01,-0.06 0.04,0.07 0.56,0.77 1.48,0.84zm0 0z"/>
  <path class="fil8" d="M19.2 19.31c0.75,0 1.21,-0.39 1.21,-0.39 -0.07,1.51 -0.36,3.02 -0.36,3.02 -0.83,-1 -1.62,-2.11 -2.38,-3.22 0,0 0.77,0.59 1.53,0.59zm0 0z"/>
  <path class="fil9" d="M16.04 16.32l-0.93 -0.05c-0.02,0 -0.04,-0.01 -0.06,-0.01 -0.32,0 -0.62,0.16 -0.81,0.42 -0.34,0.47 -1,0.56 -1.45,0.2l-1.13 -0.89c-0.34,-0.27 -0.79,-0.3 -1.15,-0.08l-1.17 0.7c-0.99,-1.93 -1.66,-3.63 -1.66,-3.63 0,0 0.48,-1.68 2.78,-1.68 0.9,0 1.77,0.5 2.63,1.31 0,0 0,0 0,0 0.98,0.92 1.95,2.25 2.95,3.71zm0 0z"/>
  <path class="fil0" d="M9.78 31.75c0,0 -0.08,0 -0.21,0 -0.58,-0.02 -2.23,-0.15 -3.51,-1.2 -1.57,-1.28 -4.51,-6.55 -5.11,-8.61 -0.61,-2.07 -0.61,-10.45 -0.61,-10.45 0,0 1.61,0.37 3.3,1.18l0 0.01c0.96,0.46 1.94,1.06 2.67,1.83 1.94,2.02 3.73,7.57 7.71,10.39 0.35,0.24 0.34,0.77 -0.03,0.98 -0.39,0.22 -0.99,0.4 -1.88,0.27 -1.54,-0.22 -3.26,-2.51 -3.92,-3.47 -0.15,-0.23 -0.47,-0.3 -0.72,-0.16 -0.17,0.1 -0.26,0.28 -0.26,0.47 0,0.07 0.01,0.15 0.04,0.22 0.42,0.91 1.51,3.02 3.33,4.68 2.57,2.34 6.78,2.11 6.41,3.9 -0.26,1.24 -5.41,0.92 -7.21,-0.04zm0 0z"/>
  <g>
  </g>
  <g style="clip-path:url(#id0)">
   <g>
    <path class="fil10" d="M42.68 11.23c-0.08,-0.07 -0.19,-0.09 -0.29,-0.07 -0.09,0.02 -1.49,0.35 -3.04,1.05 -2.88,-7.3 -10.04,-12.19 -17.95,-12.19 -7.9,0 -15.06,4.89 -17.94,12.19 -1.55,-0.7 -2.95,-1.03 -3.04,-1.05 -0.11,-0.02 -0.21,0 -0.29,0.07 -0.08,0.06 -0.13,0.16 -0.13,0.26 0,0.35 0.01,8.46 0.62,10.54 0.61,2.07 3.59,7.45 5.23,8.79 1.48,1.21 3.41,1.27 3.85,1.27 1.02,0.51 2.96,0.85 4.63,0.85 0.94,0 1.78,-0.11 2.33,-0.36 0.37,-0.17 0.6,-0.42 0.66,-0.72 0.26,-1.25 -1.06,-1.71 -2.6,-2.23 -1.23,-0.42 -2.76,-0.95 -3.91,-1.99 -1.79,-1.63 -2.87,-3.74 -3.25,-4.57 -0.04,-0.09 0,-0.2 0.09,-0.26 0.09,-0.05 0.2,-0.02 0.26,0.06 0.86,1.26 2.54,3.39 4.15,3.62 0.83,0.11 1.54,0.01 2.1,-0.32 0.27,-0.16 0.44,-0.43 0.45,-0.75 0.02,-0.31 -0.13,-0.61 -0.39,-0.8 -2.47,-1.74 -4.11,-4.64 -5.44,-6.96 -0.8,-1.4 -1.49,-2.62 -2.22,-3.38 -0.7,-0.73 -1.59,-1.31 -2.49,-1.77 2.77,-7.07 9.69,-11.81 17.33,-11.81 7.65,0 14.57,4.74 17.34,11.81 -0.9,0.46 -1.8,1.04 -2.49,1.77 -0.73,0.76 -1.42,1.98 -2.22,3.38 -1.33,2.32 -2.98,5.22 -5.44,6.96 -0.26,0.19 -0.41,0.49 -0.4,0.8 0.02,0.32 0.19,0.59 0.46,0.75 0.56,0.33 1.27,0.43 2.1,0.32 1.6,-0.23 3.28,-2.37 4.14,-3.62 0.06,-0.08 0.18,-0.11 0.27,-0.06 0.09,0.06 0.13,0.17 0.09,0.26 -0.38,0.83 -1.46,2.94 -3.25,4.57 -1.15,1.04 -2.68,1.57 -3.92,1.99 -1.53,0.52 -2.85,0.98 -2.59,2.23 0.06,0.3 0.28,0.55 0.66,0.72 0.54,0.25 1.39,0.36 2.33,0.36 1.67,0 3.61,-0.34 4.63,-0.85 0.44,0.01 2.36,-0.06 3.85,-1.27 1.64,-1.34 4.62,-6.72 5.23,-8.79 0.61,-2.08 0.62,-10.2 0.62,-10.54 0,-0.1 -0.05,-0.2 -0.13,-0.26zm-34.49 6.76c1.36,2.39 3.05,5.35 5.64,7.19 0.1,0.07 0.11,0.17 0.11,0.21 -0.01,0.05 -0.02,0.14 -0.12,0.19 -0.43,0.25 -0.99,0.33 -1.67,0.24 -1.43,-0.21 -3.18,-2.6 -3.68,-3.33 -0.25,-0.38 -0.77,-0.49 -1.17,-0.26 -0.39,0.23 -0.54,0.71 -0.36,1.12 0.4,0.87 1.53,3.07 3.41,4.79 1.25,1.14 2.86,1.69 4.15,2.13 1.47,0.5 2.29,0.82 2.16,1.45 -0.02,0.08 -0.13,0.17 -0.29,0.25 -1.23,0.57 -4.95,0.27 -6.43,-0.52 0,0 0,0 -0.01,0 -1.84,-1 -3.68,-4.38 -3.7,-4.41 -0.09,-0.16 -0.29,-0.23 -0.46,-0.14 -0.17,0.09 -0.23,0.3 -0.14,0.46 0.07,0.12 1.36,2.51 2.96,3.94 -0.69,-0.12 -1.57,-0.4 -2.31,-1.01 -1.53,-1.24 -4.44,-6.5 -5.01,-8.45 -0.51,-1.72 -0.58,-8.16 -0.59,-9.91 1.05,0.29 3.83,1.19 5.39,2.81 0.67,0.71 1.34,1.89 2.12,3.25zm33.35 3.85c-0.58,1.95 -3.48,7.21 -5.01,8.45 -0.74,0.6 -1.62,0.88 -2.31,1.01 1.6,-1.43 2.89,-3.82 2.96,-3.94 0.09,-0.17 0.02,-0.37 -0.14,-0.46 -0.17,-0.09 -0.37,-0.03 -0.46,0.14 -0.02,0.03 -1.86,3.42 -3.71,4.41 -1.47,0.79 -5.2,1.09 -6.43,0.52 -0.17,-0.08 -0.27,-0.17 -0.29,-0.25 -0.13,-0.63 0.69,-0.95 2.16,-1.45 1.29,-0.44 2.9,-0.99 4.15,-2.13 1.88,-1.72 3.01,-3.92 3.4,-4.79 0.19,-0.41 0.04,-0.89 -0.36,-1.12 -0.13,-0.08 -0.29,-0.12 -0.44,-0.12 -0.28,0 -0.56,0.14 -0.73,0.38 -0.5,0.73 -2.24,3.12 -3.67,3.32 -0.68,0.1 -1.24,0.02 -1.67,-0.23 -0.1,-0.05 -0.12,-0.14 -0.12,-0.19 0,-0.04 0.01,-0.14 0.11,-0.21 2.59,-1.84 4.28,-4.8 5.64,-7.19 0.78,-1.36 1.45,-2.54 2.12,-3.25 1.55,-1.62 4.34,-2.52 5.39,-2.81 -0.01,1.75 -0.09,8.19 -0.59,9.91zm0 0z"/>
   </g>
  </g>
  <path class="fil11" d="M0 0l42.81 0 0 33.08 -42.81 0 0 -33.08zm0 0z"/>
  <path class="fil10" d="M29.33 28.19c0.08,-0.08 0.11,-0.21 0.07,-0.32 -0.05,-0.18 -0.25,-0.27 -0.43,-0.22 -0.69,0.2 -1.69,0.43 -2.26,0.38 -0.32,-0.03 -0.53,-0.09 -0.75,-0.16 -0.21,-0.06 -0.42,-0.13 -0.69,-0.15 0.16,-0.2 0.38,-0.4 0.65,-0.48 0.65,-0.19 1.44,0 1.44,0 0.18,0.05 0.37,-0.06 0.42,-0.24 0.04,-0.18 -0.06,-0.36 -0.24,-0.41 -0.04,-0.01 -1.03,-0.3 -0.87,-1.1 0.09,-0.45 0.88,-1.05 1.7,-1.68 0.91,-0.69 1.94,-1.48 2.71,-2.49 1.58,-2.07 3.37,-5.56 3.45,-5.71 0.06,-0.11 0.05,-0.24 -0.03,-0.35 -0.03,-0.05 -0.89,-1.21 -2.96,-0.77 -0.22,0.05 -0.43,0.12 -0.64,0.2 0.27,-0.68 0.48,-1.66 0.22,-2.79 -0.4,-1.72 -1.84,-2.6 -2.49,-2.91 0.35,-1.07 0.43,-2.9 -1.31,-3.88 -2.02,-1.15 -4.49,0.39 -5.23,0.9 -0.6,-0.41 -2.36,-1.38 -4.54,-0.39 -2.15,0.97 -2.29,3.2 -2.26,4.09 -0.48,0.04 -1.33,0.19 -1.91,0.73 -0.44,0.42 -0.6,0.97 -0.64,1.42 -0.73,-0.56 -1.48,-0.9 -2.28,-0.9 -2.53,0 -3.1,1.91 -3.11,1.93 -0.02,0.07 -0.02,0.15 0.01,0.22 0.06,0.16 1.57,3.93 3.42,6.65 1.15,1.68 2.25,2.72 3.13,3.55 1.23,1.16 1.71,1.66 1.48,2.61 -0.23,0.92 -2.48,1.21 -3.25,1.24 -0.13,0 -0.25,0.09 -0.3,0.21 -0.05,0.12 -0.02,0.26 0.07,0.36 0.03,0.03 0.81,0.84 1.83,0.97 0.68,0.1 0.99,-0.05 1.25,-0.17 0.12,-0.06 0.21,-0.1 0.34,-0.11 0.15,-0.02 0.33,0.08 0.54,0.18 0.28,0.15 0.6,0.31 1,0.31 0.36,0 0.63,-0.17 0.86,-0.32 0.28,-0.19 0.53,-0.34 0.99,-0.28 0.33,0.04 0.67,0.21 1.07,0.42 0.48,0.24 1.01,0.51 1.64,0.61 -0.14,0.12 -0.3,0.24 -0.47,0.32 -0.18,0.08 -0.45,0.08 -0.73,0.08 -0.48,0 -1.07,0 -1.61,0.37 -0.91,0.62 -0.95,1.91 -0.95,1.97 0,0.13 0.07,0.25 0.18,0.3 0.05,0.03 0.11,0.04 0.16,0.04 0.07,0 0.14,-0.02 0.2,-0.06 0.01,-0.01 1.2,-0.85 2.38,-0.79 0.5,0.03 0.98,0.14 1.45,0.25 0.75,0.18 1.4,0.33 1.91,0.06 0.45,-0.25 0.62,-0.7 0.77,-1.1 0.12,-0.33 0.23,-0.64 0.49,-0.82 0.22,-0.17 0.6,-0.22 1.03,-0.28 0.87,-0.13 2.05,-0.29 3.09,-1.49zm1.21 -7.28c-0.72,0.94 -1.71,1.69 -2.58,2.36 -0.99,0.76 -1.77,1.36 -1.94,2.04l-1.16 0c-1,-0.33 -1.94,-0.96 -2.83,-1.77 1.87,-0.82 3.4,-2.64 4.89,-4.39 0.13,-0.15 0.26,-0.3 0.38,-0.45l0.41 0.21c0.3,0.16 0.63,0.23 0.96,0.23 0.52,0 1.02,-0.18 1.42,-0.54 0.43,-0.39 1.07,-0.48 1.59,-0.22l0.41 0.21c-0.5,0.82 -1.04,1.65 -1.55,2.32zm-11.86 -1.33c0.17,0.04 0.34,0.07 0.52,0.07 0.33,0 0.61,-0.06 0.83,-0.15 -0.05,0.62 -0.13,1.2 -0.19,1.63 -0.4,-0.5 -0.78,-1.02 -1.16,-1.55zm2.07 -0.63c0,0 0,0 0,0 0.03,-0.58 0.03,-1.16 -0.04,-1.67 -0.21,-1.69 -3.04,-3.32 -3.96,-3.82l0.15 -0.49 0.77 0.3c0.29,0.1 0.61,0.05 0.86,-0.13 0.25,-0.17 0.4,-0.45 0.41,-0.74l0.06 -0.72 0.76 0.1 -0.13 1.86c-0.02,0.37 0.11,0.74 0.36,1.01l0.77 0.83c0.17,0.18 0.4,0.28 0.64,0.28 0.24,0.02 0.48,-0.09 0.65,-0.27l0.81 -0.85c0.27,-0.29 0.38,-0.69 0.29,-1.07l-0.46 -2 0.5 -0.08 0.31 1.21c0.07,0.29 0.29,0.51 0.57,0.59 0.28,0.09 0.58,0.02 0.8,-0.18l0.91 -0.83 0.47 0.49 -0.62 0.56c-0.21,0.19 -0.29,0.48 -0.22,0.75 0.08,0.27 0.3,0.47 0.57,0.53l0.27 0.06 -0.21 0.48 -1.86 -0.06c-0.6,-0.02 -1.12,0.37 -1.28,0.94 -0.22,0.8 -0.48,1.99 -0.48,3.05 0,1.34 0.41,2.57 0.61,3.08 -0.49,0.37 -1,0.67 -1.54,0.87 -0.37,-0.37 -0.73,-0.77 -1.08,-1.19 0.08,-0.44 0.28,-1.66 0.34,-2.89zm2.84 2.76c-0.15,-0.42 -0.35,-1.11 -0.44,-1.88 0.28,0.18 0.63,0.33 1.07,0.37 0.06,0 0.12,0.01 0.18,0.01 0.27,0 0.55,-0.05 0.81,-0.12 -0.52,0.59 -1.06,1.14 -1.62,1.62zm8.09 -6.55c1.22,-0.27 1.87,0.13 2.13,0.35 -0.21,0.42 -0.74,1.4 -1.38,2.5l-0.44 -0.23c-0.77,-0.39 -1.72,-0.26 -2.36,0.32 -0.44,0.4 -1.08,0.48 -1.61,0.21l-0.26 -0.14c1.28,-1.47 2.53,-2.71 3.92,-3.01zm-17.84 -4.22c0.63,-0.59 1.8,-0.57 1.81,-0.57 0.1,0.01 0.2,-0.04 0.27,-0.12 0.06,-0.07 0.09,-0.17 0.08,-0.27 -0.01,-0.03 -0.4,-2.73 1.83,-3.74 2.25,-1.02 3.97,0.39 4.04,0.45 0.12,0.11 0.3,0.11 0.43,0.01 0.03,-0.02 2.73,-2.11 4.68,-1.01 1.88,1.07 0.95,3.25 0.91,3.34 -0.04,0.08 -0.04,0.18 0,0.27 0.03,0.08 0.1,0.15 0.19,0.18 0.02,0.01 1.96,0.75 2.38,2.57 0.38,1.67 -0.44,2.96 -0.61,3.2 -1.2,0.81 -2.3,2.11 -3.45,3.46 -0.07,0.09 -0.14,0.17 -0.22,0.26 -0.22,0.12 -1.16,0.61 -1.9,0.56 -0.62,-0.05 -1.02,-0.45 -1.17,-0.62 0.03,-0.95 0.25,-1.98 0.45,-2.7 0.07,-0.27 0.31,-0.45 0.6,-0.44l2.08 0.06c0.14,0.01 0.27,-0.07 0.32,-0.2l0.49 -1.07c0.04,-0.09 0.04,-0.2 -0.01,-0.29 -0.05,-0.09 -0.13,-0.16 -0.23,-0.18l-0.69 -0.14c-0.03,-0.01 -0.04,-0.02 -0.05,-0.05 -0.01,-0.03 0,-0.05 0.02,-0.07l0.88 -0.8c0.06,-0.06 0.1,-0.15 0.11,-0.24 0,-0.09 -0.04,-0.18 -0.1,-0.25l-0.94 -0.96c-0.13,-0.14 -0.34,-0.14 -0.47,-0.02l-1.16 1.05c-0.05,0.05 -0.11,0.04 -0.15,0.03 -0.03,-0.01 -0.08,-0.03 -0.1,-0.11l-0.39 -1.51c-0.04,-0.17 -0.21,-0.28 -0.38,-0.25l-1.17 0.2c-0.1,0.01 -0.18,0.06 -0.23,0.14 -0.05,0.08 -0.07,0.18 -0.05,0.27l0.55 2.34c0.03,0.17 -0.01,0.33 -0.13,0.46l-0.8 0.84c-0.05,0.06 -0.12,0.07 -0.15,0.07 -0.02,0 -0.1,-0.01 -0.15,-0.07l-0.77 -0.83c-0.13,-0.13 -0.19,-0.32 -0.18,-0.5l0.15 -2.18c0.01,-0.17 -0.12,-0.33 -0.29,-0.35l-1.43 -0.2c-0.09,-0.01 -0.19,0.02 -0.26,0.08 -0.07,0.05 -0.12,0.14 -0.12,0.23l-0.1 1.09c0,0.09 -0.05,0.18 -0.12,0.23 -0.08,0.05 -0.17,0.07 -0.24,0.05l-1.1 -0.43c-0.08,-0.03 -0.18,-0.03 -0.27,0.01 -0.08,0.04 -0.15,0.12 -0.17,0.2l-0.35 1.11c-0.05,0.16 0.03,0.33 0.18,0.41 1.01,0.51 3.69,2.11 3.85,3.42 0.05,0.42 0.06,0.89 0.04,1.38 -0.15,0.09 -0.46,0.23 -0.88,0.23 -0.54,0 -1.12,-0.38 -1.28,-0.49 -0.26,-0.38 -0.52,-0.76 -0.77,-1.13 -1.3,-1.93 -2.51,-3.72 -3.74,-4.91 -0.02,-0.28 -0.05,-1.05 0.43,-1.5zm-3.38 0.7c1.63,0 3.24,1.92 4.91,4.3l-0.24 -0.01c-0.46,-0.03 -0.9,0.18 -1.17,0.55 -0.11,0.15 -0.27,0.25 -0.45,0.27 -0.19,0.03 -0.36,-0.02 -0.51,-0.13l-1.13 -0.9c-0.44,-0.35 -1.06,-0.39 -1.54,-0.1l-0.85 0.51c-0.74,-1.48 -1.28,-2.77 -1.44,-3.15 0.14,-0.33 0.71,-1.34 2.42,-1.34zm3.92 11.18c-0.86,-0.81 -1.93,-1.82 -3.03,-3.44 -0.56,-0.82 -1.09,-1.75 -1.56,-2.64l0.89 -0.54c0.24,-0.14 0.55,-0.12 0.76,0.05l1.14 0.9c0.24,0.19 0.53,0.29 0.83,0.29 0.07,0 0.13,-0.01 0.19,-0.01 0.37,-0.06 0.69,-0.25 0.91,-0.55 0.14,-0.19 0.35,-0.29 0.58,-0.28l0.77 0.05c0.24,0.35 0.48,0.71 0.73,1.08 0.26,0.38 0.52,0.77 0.79,1.16 0,0 0,0 0,0 0.75,1.1 1.54,2.21 2.38,3.22 0.01,0.02 0.02,0.03 0.03,0.05 0.44,0.52 0.88,1.01 1.34,1.47 0.02,0.03 0.05,0.05 0.08,0.07 0.65,0.63 1.33,1.18 2.05,1.61l-7.15 0c-0.08,-0.93 -0.8,-1.62 -1.73,-2.49zm10.43 6.59c-0.42,0.3 -0.59,0.75 -0.73,1.14 -0.12,0.33 -0.23,0.61 -0.45,0.73 -0.28,0.15 -0.84,0.02 -1.43,-0.12 -0.48,-0.11 -1.01,-0.24 -1.58,-0.27 -0.81,-0.04 -1.6,0.25 -2.14,0.52 0.1,-0.27 0.26,-0.56 0.53,-0.75 0.34,-0.23 0.72,-0.24 1.12,-0.24 0.03,0 0.06,0 0.09,0 0.35,0 0.72,0 1.03,-0.15 0.66,-0.32 1.22,-1.01 1.24,-1.04 0.09,-0.11 0.1,-0.26 0.04,-0.38 -0.07,-0.12 -0.2,-0.19 -0.34,-0.17 -0.82,0.09 -1.47,-0.24 -2.09,-0.56 -0.43,-0.22 -0.85,-0.43 -1.3,-0.49 -0.71,-0.08 -1.13,0.19 -1.44,0.39 -0.21,0.13 -0.33,0.21 -0.49,0.21 -0.24,0 -0.46,-0.11 -0.69,-0.23 -0.28,-0.14 -0.57,-0.29 -0.91,-0.26 -0.25,0.03 -0.42,0.11 -0.57,0.17 -0.21,0.1 -0.39,0.19 -0.87,0.12 -0.29,-0.04 -0.55,-0.15 -0.78,-0.28 1.07,-0.14 2.72,-0.55 3,-1.67 0.01,-0.03 0.01,-0.06 0.02,-0.1l9.94 0c0.04,0.2 0.13,0.37 0.23,0.51 -0.17,0.02 -0.34,0.05 -0.51,0.1 -0.9,0.26 -1.38,1.31 -1.4,1.36 -0.05,0.11 -0.04,0.24 0.04,0.34 0.07,0.1 0.2,0.15 0.32,0.13 0.51,-0.07 0.74,0 1.07,0.1 0.23,0.07 0.5,0.15 0.9,0.19 0.28,0.02 0.61,-0.01 0.95,-0.06 -0.5,0.22 -1,0.29 -1.46,0.36 -0.5,0.07 -0.98,0.14 -1.34,0.4zm0 0z"/>
  <path class="fil10" d="M18.46 26.67c-0.63,-0.27 -1.28,-0.27 -1.91,0 -0.17,0.08 -0.25,0.28 -0.17,0.45 0.06,0.13 0.18,0.2 0.31,0.2 0.05,0 0.09,-0.01 0.14,-0.02 0.45,-0.2 0.9,-0.2 1.35,0 0.17,0.07 0.38,-0.01 0.45,-0.18 0.08,-0.17 0,-0.37 -0.17,-0.45zm0 0z"/>
  <path class="fil10" d="M23.43 26.84l-0.44 0.24c-0.15,0.08 -0.33,0.07 -0.48,-0.02l-0.21 -0.13c-0.34,-0.21 -0.76,-0.22 -1.12,-0.04l-0.47 0.23c-0.17,0.09 -0.24,0.29 -0.15,0.46 0.08,0.16 0.28,0.23 0.45,0.15l0.47 -0.24c0.15,-0.07 0.32,-0.07 0.46,0.02l0.22 0.13c0.18,0.11 0.39,0.17 0.6,0.17 0.19,0 0.38,-0.05 0.55,-0.14l0.44 -0.24c0.17,-0.09 0.23,-0.29 0.14,-0.46 -0.09,-0.16 -0.3,-0.22 -0.46,-0.13zm0 0z"/>
 </g>
</svg>
