<svg width="109" height="130" viewBox="0 0 109 130" fill="none" xmlns="http://www.w3.org/2000/svg">
<path fill-rule="evenodd" clip-rule="evenodd" d="M6.3161 84.7608C12.1718 86.076 14.9668 88.859 17.5875 93.9643C12.2591 92.5585 7.79601 90.2062 6.3161 84.7608ZM26.723 70.5358C28.3541 64.8712 32.3439 60.9077 38.2193 59.9187C36.8547 62.6812 36.3165 64.3136 33.9339 66.5162C31.9841 68.3186 29.5614 70.1997 26.723 70.5358ZM17.804 70.4567C12.5005 69.3563 7.29582 65.3692 6.37522 59.8864C8.58935 60.9717 11.7511 61.8254 13.6753 63.5565C14.7103 64.4876 17.3981 68.999 17.804 70.4567ZM23.1845 52.3917C19.4355 50.4878 20.8996 44.7697 22.1301 41.7552C24.6104 43.9471 24.0604 49.3393 23.1845 52.3917ZM20.1145 111.931L24.6155 111.679L24.524 98.4297C33.4148 98.2088 47.3318 89.2024 42.4771 81.5248C35.3233 77.2998 28.3266 87.0316 24.5149 89.3135L24.6653 75.6957C34.0452 73.6169 44.4223 66.9786 42.7801 55.9501C32.5092 53.2632 30.0528 59.9572 24.7375 63.8819C22.9317 53.8753 27.5535 57.3635 28.3336 49.0029C28.7158 44.9069 26.6906 37.3574 23.0644 35.7637C18.495 35.9215 16.0214 44.6028 16.242 48.602C16.456 52.4788 17.3884 52.8278 19.1922 55.5495C20.8426 58.0397 20.0828 61.3977 20.2325 64.8901C15.0082 59.676 11.0081 54.4579 1.98237 56.0737C0.550783 61.0279 4.07095 66.326 7.26781 69.4548C13.4536 75.509 15.6364 73.1569 20.201 76.0505L20.0845 88.3454C16.8966 85.804 7.01483 76.3306 2.25921 81.6673C-3.0134 87.8048 10.9336 98.1603 20.1781 98.3047L20.1144 111.931H20.1145Z" fill="#1C5612"/>
<path fill-rule="evenodd" clip-rule="evenodd" d="M5.9087 125.014C11.7321 118.516 20.0092 115.445 28.8044 116.646C35.1045 117.506 35.8555 120.526 42.0664 116.944C46.3809 114.455 48.6819 112.884 53.9189 112.77C63.9911 112.552 64.9239 120.793 80.0048 117.559C88.5295 115.732 98.4948 116.123 102.838 125.066C70.5281 125.048 38.2185 125.031 5.90878 125.014L5.9087 125.014ZM24.6155 111.679C23.1152 111.763 21.6149 111.847 20.1146 111.931C15.9488 114.479 -1.47271 119.055 0.100095 127.747C0.26276 128.646 0.594591 129.063 0.594672 130C36.4819 129.988 72.3691 129.977 108.256 129.965C108.255 127.031 109.974 126.482 107.769 123.051C104.187 117.477 92.9647 112.732 88.7794 111.68C87.3081 111.729 85.8367 111.778 84.3654 111.827C62.7082 117.327 69.313 108.509 54.4152 108.414C47.2556 108.368 45.7303 109.917 40.0471 112.987C36.9449 114.662 28.6739 112.172 24.6154 111.679H24.6155Z" fill="#312611"/>
<path fill-rule="evenodd" clip-rule="evenodd" d="M82.1533 79.9031C77.7952 79.2791 73.9868 75.5212 72.4026 71.6691C77.6225 73.4304 79.8244 75.1965 82.1533 79.9031ZM90.794 79.873C92.1212 76.3526 95.9649 72.0074 100.01 71.8534C99.9579 76.0465 94.5412 79.1936 90.794 79.873ZM84.3657 111.827L88.7797 111.68L88.974 102.646C93.811 101.225 104.521 98.5213 102.034 91.143C96.5631 88.4642 93.1061 91.6081 88.7751 94.3152L88.7645 85.5064C91.775 83.5413 95.9544 84.4919 100.184 79.9977C109.743 69.8393 104.579 60.4846 88.7445 73.5777C88.8359 66.429 92.9855 68.8663 92.7086 60.6462C92.5909 57.1527 90.0344 50.7259 86.7674 49.519C83.071 50.3984 80.7166 57.0432 80.4692 60.7189C79.9907 67.8276 84.1858 66.7514 84.3508 73.7237C80.5136 71.6056 76.1173 65.1239 69.0866 67.7921C64.2165 75.6782 76.5231 84.1884 84.3229 84.9542L84.3634 95.0563C79.1013 92.2872 79.6275 89.0042 70.994 90.651C69.805 97.9134 78.0817 102.171 84.275 102.789L84.3657 111.827V111.827Z" fill="#1C5612"/>
<path fill-rule="evenodd" clip-rule="evenodd" d="M33.4236 4.83405L79.5593 4.67155L79.5772 19.3714L33.7445 19.3562L33.4237 4.83405H33.4236ZM84.2944 14.3304C87.732 14.1781 105.598 16.1367 105.475 11.8991C105.347 7.46755 87.9501 10.2136 84.4094 9.37008C83.2131 0.515179 84.9482 -0.0399776 74.8335 0.0166263L37.4811 0.00184635C28.5041 -0.0490728 28.6961 0.898901 28.6569 9.66967C24.23 9.54639 5.38843 7.20013 6.69138 13.3924L28.5945 14.1873C28.8232 26.5837 29.533 24.3006 56.4088 24.2969C82.3106 24.2932 83.9941 26.7486 84.2944 14.3304Z" fill="#1C5612"/>
<path fill-rule="evenodd" clip-rule="evenodd" d="M5.90853 125.014L102.838 125.066C98.4946 116.123 88.5293 115.732 80.0046 117.56C64.9237 120.793 63.9909 112.552 53.9186 112.771C48.6817 112.884 46.3807 114.456 42.0662 116.944C35.8552 120.527 35.1043 117.506 28.8042 116.646C20.0089 115.445 11.7318 118.516 5.90845 125.014L5.90853 125.014Z" fill="#A67234"/>
<path fill-rule="evenodd" clip-rule="evenodd" d="M33.7447 19.3562L79.5775 19.3715L79.5596 4.67163L33.4238 4.83413L33.7447 19.3562Z" fill="#D6912B"/>
<path fill-rule="evenodd" clip-rule="evenodd" d="M55.9116 48.9742C58.6141 51.7106 62.4196 61.3456 55.9713 60.6508C49.9898 60.0061 53.1838 51.5892 55.9116 48.9742ZM48.0812 58.134C49.8796 70.4268 69.9263 65.3928 62.9741 51.0744C61.6404 48.3272 56.9121 39.7779 53.3777 44.1263C50.2257 48.0043 47.3001 52.7943 48.0812 58.1339V58.134Z" fill="#1C5612"/>
<path fill-rule="evenodd" clip-rule="evenodd" d="M39.6992 37.2319C41.3258 45.0688 54.9394 42.0597 49.8375 31.8763C48.771 29.7475 45.882 24.4344 43.2008 27.4436C41.1152 29.7844 38.9946 33.837 39.6992 37.2319Z" fill="#1C5612"/>
<path fill-rule="evenodd" clip-rule="evenodd" d="M67.2022 37.9945L65.8594 37.305C65.2946 34.7496 65.6874 34.0777 66.9254 31.9796C68.3265 33.6591 69.6149 36.5392 67.2022 37.9945ZM72.5034 37.7294C73.4686 34.698 70.9972 30.4768 69.3057 28.2903C66.3425 24.4602 64.4295 28.2649 62.7275 31.106C56.5087 41.4871 70.098 45.2841 72.5034 37.7294L72.5034 37.7294Z" fill="#1C5612"/>
<path fill-rule="evenodd" clip-rule="evenodd" d="M55.9112 48.9746C53.1834 51.5895 49.9893 60.0064 55.9709 60.6512C62.4193 61.3459 58.6137 51.711 55.9112 48.9746Z" fill="#6FCD8C"/>
<path fill-rule="evenodd" clip-rule="evenodd" d="M26.7231 70.5356C29.5615 70.1995 31.9842 68.3184 33.934 66.5159C36.3166 64.3133 36.8548 62.681 38.2194 59.9185C32.3441 60.9075 28.3543 64.871 26.7231 70.5356Z" fill="#87B339"/>
<path fill-rule="evenodd" clip-rule="evenodd" d="M17.804 70.4566C17.3982 68.9989 14.7103 64.4875 13.6754 63.5564C11.7512 61.8253 8.58938 60.9715 6.37524 59.8862C7.29593 65.3691 12.5006 69.3561 17.804 70.4566Z" fill="#87B339"/>
<path fill-rule="evenodd" clip-rule="evenodd" d="M26.4734 93.6525C29.178 93.272 32.0631 92.7763 34.3144 91.2714C36.6166 89.7325 37.2621 87.8095 38.4901 84.7371C31.8122 86.1824 29.5799 88.3739 26.4734 93.6525V93.6525Z" fill="#699B29"/>
<path fill-rule="evenodd" clip-rule="evenodd" d="M6.31616 84.7612C7.79607 90.2066 12.2592 92.5589 17.5876 93.9648C14.9668 88.8595 12.1719 86.0764 6.31616 84.7612Z" fill="#699B29"/>
<path fill-rule="evenodd" clip-rule="evenodd" d="M90.7937 79.8732C94.5409 79.1938 99.9576 76.0467 100.01 71.8535C95.9646 72.0076 92.1209 76.3527 90.7937 79.8732Z" fill="#79A935"/>
<path fill-rule="evenodd" clip-rule="evenodd" d="M82.1531 79.9031C79.8241 75.1967 77.6222 73.4306 72.4023 71.6692C73.9866 75.5212 77.7951 79.2791 82.1531 79.9031Z" fill="#79A935"/>
<path fill-rule="evenodd" clip-rule="evenodd" d="M82.3469 98.8733C80.5711 96.0056 78.3652 94.3198 74.9202 93.5112C76.1676 95.8779 79.5221 98.7396 82.3469 98.8733Z" fill="#79A935"/>
<path fill-rule="evenodd" clip-rule="evenodd" d="M90.1594 97.9858C93.5134 97.6283 95.7099 96.051 97.9315 93.2966C95.258 93.3952 91.5039 95.4981 90.1594 97.9858Z" fill="#79A935"/>
<path fill-rule="evenodd" clip-rule="evenodd" d="M23.1845 52.3915C24.0604 49.3392 24.6104 43.947 22.1301 41.7551C20.8997 44.7696 19.4354 50.4876 23.1845 52.3915Z" fill="#70A431"/>
<path fill-rule="evenodd" clip-rule="evenodd" d="M86.766 65.6886C88.2174 64.0717 88.4742 62.9608 88.3306 60.7466C88.2007 58.7409 87.5056 56.5626 86.0817 55.4302C85.7578 57.3023 85.1661 58.8829 85.0967 60.746C84.9848 63.7511 85.1167 63.6617 86.766 65.6885V65.6886Z" fill="#70A431"/>
<path fill-rule="evenodd" clip-rule="evenodd" d="M68.5511 35.6777C68.5442 34.3871 67.7546 32.9733 66.9257 31.9797C66.0243 33.5074 65.4101 34.4145 65.3496 35.7808C65.2916 37.0889 65.5302 38.0428 66.9532 38.0041C67.9151 37.9784 68.5558 36.5461 68.5512 35.6777H68.5511Z" fill="#6FCD8C"/>
<path fill-rule="evenodd" clip-rule="evenodd" d="M44.8757 30.6523C44.705 32.3315 42.2791 37.7409 45.024 37.9155C48.3318 38.1258 45.963 31.5346 44.8757 30.6523Z" fill="#6FCD8C"/>
</svg>
