<svg width="103" height="117" viewBox="0 0 103 117" fill="none" xmlns="http://www.w3.org/2000/svg">
<path fill-rule="evenodd" clip-rule="evenodd" d="M33.1576 87.1874C31.3186 87.2143 29.4797 87.241 27.6407 87.2678C20.9118 88.5062 20.0384 92.3065 16.485 96.456C10.7761 98.2348 8.32964 97.0846 3.82078 102.753C-2.08363 110.175 0.615732 115.084 0.61628 117C29.294 116.731 57.9718 116.462 86.6496 116.193C91.4757 109.653 80.4637 97.077 70.4511 97.0056C65.2045 96.9683 64.7175 92.6765 58.326 91.141C50.7065 89.3107 49.3065 93.034 43.9838 94.2351C40.8622 91.358 37.401 88.849 33.1575 87.1874L33.1576 87.1874Z" fill="#312611"/>
<path fill-rule="evenodd" clip-rule="evenodd" d="M101.82 49.1465C102.142 45.9785 102.299 24.0586 101.077 22.7207C100.141 21.6967 83.8533 15.9997 81.1546 14.9417C74.3658 12.2806 66.7355 17.2754 60.3043 19.6477C56.2916 21.1278 52.5838 20.9617 52.5156 25.558C52.0496 56.9156 51.4225 60.0378 73.8315 73.1096C82.5821 78.2142 100.759 59.5769 101.82 49.1464V49.1465Z" fill="#1C5614"/>
<path fill-rule="evenodd" clip-rule="evenodd" d="M76.0429 17.9175C71.1724 19.112 64.0602 22.416 58.9642 24.1848C54.2405 25.8243 56.5595 40.8492 56.557 45.3786C56.5528 53.1937 58.5116 56.3816 63.7659 61.7382C66.0492 64.066 75.4458 70.829 78.4456 69.8255C92.2045 65.2228 96.1694 56.7539 97.3109 47.2438C97.9558 41.8719 97.6999 36.1675 97.7997 30.6401C97.9123 24.4043 98.3946 25.5802 93.0505 23.6234C90.1519 22.5621 78.2008 17.3884 76.0429 17.9175Z" fill="#D6912B"/>
<path fill-rule="evenodd" clip-rule="evenodd" d="M33.3037 75.6149C38.4606 66.6969 38.738 65.3577 49.3059 62.4189C48.3258 67.4259 47.8328 69.221 43.9804 72.2924C41.3805 74.3652 36.6497 76.6828 33.3036 75.6149H33.3037ZM10.8855 62.5676C20.0447 64.3519 23.6293 67.5787 27.165 76.0513C18.7833 75.9318 12.3695 70.6792 10.8855 62.5676ZM26.578 48.6985C22.8078 49.6719 16.0042 46.6089 13.6873 44.1253C10.4519 40.6572 8.48969 37.5497 7.83891 32.1579C12.546 32.5608 17.3485 34.1565 20.5873 37.2357C22.7083 39.252 26.1049 45.0256 26.578 48.6985ZM30.8276 29.0348C21.1861 23.4123 25.1742 5.15738 30.2777 4.42675C33.796 3.92299 40.7292 21.4548 30.8276 29.0348ZM48.2857 35.1431C46.0489 37.0887 48.6761 43.4222 45.4781 45.196C40.0929 48.1828 42.0206 47.9295 33.8958 49.1174C36.1583 43.7702 41.5631 34.4001 48.2858 35.1431H48.2857ZM50.8373 45.0755C53.5169 40.1755 55.1399 35.5862 55.5768 31.3458C51.1261 31.1771 46.4875 30.0657 42.6519 32.3193C38.5191 34.7473 34.3092 39.6122 32.6731 41.8459C30.1081 28.4328 38.7512 31.4417 40.0347 20.0349C40.6832 14.274 36.9138 0.89467 30.8283 0.0382165C24.567 -0.842934 20.2375 13.7507 20.8256 19.2907C21.2835 23.6038 22.636 26.4009 25.3083 29.5563C29.7375 34.7858 28.5637 33.6152 28.4663 41.2121C25.3397 37.877 24.8186 34.4725 19.6811 31.4334C15.4152 28.9098 9.18616 27.4694 4.36926 28.8646C0.585265 42.9757 15.3808 52.7888 28.4681 52.979L28.4327 69.2197C25.4948 66.4009 24.6895 63.7558 20.374 61.4068C17.7526 59.9801 10.0939 57.2294 7.91575 59.745C5.12185 62.9101 10.4149 72.4216 13.049 74.6139C18.1498 78.8591 21.7906 79.5717 28.6176 80.0418L27.6405 87.2678L33.1574 87.1874L32.4159 80.0607C39.5612 79.9771 48.3927 74.9546 51.8816 69.1996C53.8683 65.9228 53.6608 61.8536 53.1042 57.7227C49.6577 57.5826 45.4463 58.8012 43.0898 59.853C38.2116 62.0306 34.9114 67.0597 32.4514 68.384L32.9429 53.9505C40.42 51.706 47.1935 51.7382 50.8373 45.0755H50.8373Z" fill="#1C5612"/>
<path fill-rule="evenodd" clip-rule="evenodd" d="M83.4229 113.035C80.3714 96.6197 69.0994 103.517 64.3793 98.974C52.2406 87.2897 47.2446 102.512 40.8922 96.8101C33.9626 90.5901 25.9538 86.0639 20.6074 97.6416C18.1676 102.925 3.15789 99.2907 3.94121 112.924C30.4351 112.961 56.929 112.998 83.4229 113.035Z" fill="#AA651D"/>
<path fill-rule="evenodd" clip-rule="evenodd" d="M30.8278 29.0348C40.7294 21.4548 33.7962 3.92301 30.278 4.42677C25.1744 5.1574 21.1864 23.4123 30.8278 29.0348Z" fill="#699B29"/>
<path fill-rule="evenodd" clip-rule="evenodd" d="M26.5782 48.6985C26.1051 45.0257 22.7085 39.252 20.5875 37.2358C17.3486 34.1565 12.5462 32.5609 7.83911 32.158C8.48989 37.5498 10.4521 40.6573 13.6875 44.1253C16.0044 46.6089 22.808 49.672 26.5782 48.6985Z" fill="#699B29"/>
<path fill-rule="evenodd" clip-rule="evenodd" d="M73.7438 48.4198C71.1151 47.4276 69.512 42.5901 66.6237 42.544C61.3482 42.4597 67.6156 48.5844 68.7003 49.6586C75.2988 56.1924 78.9966 49.1774 83.9579 44.1391C86.1964 41.8657 88.4484 39.6674 90.6952 37.4161C92.7002 35.4072 92.4598 29.8338 86.9335 35.3414L73.7438 48.4197V48.4198Z" fill="#1C5614"/>
<path fill-rule="evenodd" clip-rule="evenodd" d="M50.8897 34.2399C47.8511 33.9041 43.487 35.2878 40.5724 37.9809C37.0387 41.2461 35.1359 46.1872 33.896 49.1175C46.2912 48.1201 47.5645 45.8522 50.8896 34.2399H50.8897Z" fill="#699B29"/>
<path fill-rule="evenodd" clip-rule="evenodd" d="M27.165 76.0513C23.6293 67.5787 20.0448 64.352 10.8855 62.5676C12.3695 70.6792 18.7833 75.9318 27.165 76.0513Z" fill="#699B29"/>
<path fill-rule="evenodd" clip-rule="evenodd" d="M33.3037 75.615C36.6499 76.6828 41.3806 74.3652 43.9806 72.2924C47.8329 69.2211 48.3259 67.4259 49.306 62.4189C38.7381 65.3578 38.4607 66.697 33.3038 75.615H33.3037Z" fill="#699B29"/>
<path fill-rule="evenodd" clip-rule="evenodd" d="M57.1293 105.311C59.6016 107.042 61.4728 105.154 60.7293 102.748C58.4273 100.224 55.5449 103.013 57.1293 105.311Z" fill="#2D240C"/>
<path fill-rule="evenodd" clip-rule="evenodd" d="M26.3264 108.901C28.7875 108.633 29.6295 104.551 25.9199 104.725C22.5969 104.881 22.9749 109.211 26.3264 108.901Z" fill="#2D240C"/>
</svg>
