<svg width="146" height="140" viewBox="0 0 146 140" fill="none" xmlns="http://www.w3.org/2000/svg">
<g clip-path="url(#clip0_12072_593)">
<path fill-rule="evenodd" clip-rule="evenodd" d="M53.5557 24.7787L92.4875 24.7596L92.5077 30.6149L53.6113 30.591L53.5557 24.7787ZM65.8941 15.8671L80.2376 15.86L80.326 20.3717L65.7955 20.3574L65.8941 15.8671ZM75.4792 4.62348C86.829 4.421 98.3659 4.48532 109.726 4.53296C119.589 4.57345 127.111 6.85315 133.798 13.9233C141.121 21.6676 141.495 29.1713 141.426 39.0285C141.351 49.7386 141.424 60.4701 141.421 71.1801C141.421 81.9045 141.384 92.6336 141.442 103.353C141.495 112.81 140.16 120.507 132.777 127.477C125.164 134.666 117.498 135.631 107.175 135.555C95.8022 135.471 84.4018 135.54 73.0267 135.54C61.5934 135.543 50.1374 135.474 38.7041 135.557C28.4895 135.631 20.7021 134.499 13.2207 127.367C5.60023 120.099 4.62681 112.991 4.71277 103.194C4.80632 92.4811 4.733 81.7377 4.73047 71.0205C4.72794 60.3105 4.80632 49.5742 4.73047 38.8666C4.65968 28.8735 4.74311 21.6057 12.222 13.7327C18.8817 6.71737 26.7753 4.53772 36.5171 4.53058C47.8391 4.52105 59.1965 4.48532 70.5312 4.58298L70.5868 11.4626C61.5807 12.6203 60.443 8.24669 61.1509 20.367C58.9588 20.2979 56.7136 20.336 54.5165 20.3408C52.9818 20.3431 49.8719 19.8572 49.1993 21.3817C48.9238 22.0059 48.8808 32.0966 49.0451 33.1852C49.4724 36.0461 57.7654 35.0266 60.1219 35.029H86.1034C88.566 35.0266 96.4621 36.0652 97.0714 33.2042C97.3672 31.8083 97.3925 22.1893 96.7705 21.296C95.6125 19.6309 87.0414 20.2979 84.8139 20.3646C85.5117 10.7265 85.2033 11.2196 75.4716 11.5245L75.4792 4.62348ZM0.0175981 34.8289L0.0251832 104.973C0.0529952 126.507 14.0298 140.021 36.9949 140H109.739C132.001 139.974 146.069 126.336 145.975 105.111L145.983 34.3715C145.98 24.6333 143.237 16.446 135.831 9.44967C124.284 -1.46047 111.541 0.090291 96.7983 0.0593233L33.3339 0.0545591C24.4087 0.126023 15.2055 4.23996 9.16522 10.3739C2.16418 17.4846 0.010013 25.3218 0.0175981 34.8289Z" fill="#214649"/>
<path fill-rule="evenodd" clip-rule="evenodd" d="M108.308 124.061L37.756 124.109C40.6459 117.532 45.1085 111.429 53.4825 111.483C57.2674 111.51 56.1094 112.126 58.4001 109.399C62.2559 104.804 66.5288 102.443 73.0343 102.529C78.8268 102.605 84.1186 104.806 87.6558 109.237C89.7468 111.853 89.0843 111.376 92.5634 111.376C100.922 111.378 105.541 117.412 108.308 124.061ZM60.706 71.111C64.3822 73.648 66.4353 80.0488 67.482 84.1389C55.7074 83.5457 47.0402 77.4904 45.8948 65.9609C49.0578 66.4921 51.0805 66.3158 54.3573 67.4878C57.6568 68.6717 58.1372 69.3363 60.706 71.111ZM78.1214 81.085C79.2743 76.4946 81.7976 71.7328 85.5143 68.8671C90.4749 65.0414 93.8933 64.7698 99.9007 63.4858C99.0309 68.6598 98.1106 73.8814 94.0728 77.7262C88.743 82.8025 87.9744 82.6381 80.7306 84.7439C81.0214 83.7268 85.5067 79.6057 86.695 78.7696C87.6735 78.0811 88.8239 76.8043 89.9238 76.0611C91.2714 75.1535 92.71 74.3841 91.8782 72.4569C90.5129 69.3006 85.575 74.2531 84.417 75.1868C82.1389 77.0282 80.2578 79.1698 78.1214 81.085ZM72.4325 87.8455L72.387 87.8359C72.1797 87.8193 71.4288 60.6606 43.455 61.8708C39.4551 62.0447 42.1705 69.3745 42.8886 71.5779C43.8848 74.6413 45.5788 77.7977 47.7835 80.2441C53.4117 86.4924 59.4873 87.6716 67.8132 88.1409C69.0218 91.0447 70.6096 95.3754 70.6248 98.496C66.4201 99.2868 64.1269 99.5941 60.4304 101.869C57.1536 103.887 55.9097 107.06 52.2865 107.324C44.0567 107.922 40.0113 111.836 35.9685 118.184C28.1457 130.471 33.3567 128.27 45.1768 128.277H100.707C112.426 128.294 117.941 130.488 110.095 118.17C106.174 112.012 101.87 107.736 93.8099 107.281C90.2019 107.076 89.0313 103.846 85.7065 101.793C82.0909 99.5632 79.3451 99.375 75.3351 98.4316C74.9255 96.8761 76.488 91.271 77.0797 89.4915C85.714 88.2528 91.6001 86.6901 97.5872 80.4013C100.08 77.781 101.81 74.4365 102.788 71.0586C103.39 68.979 105.971 60.1771 103.043 59.5005C100.1 58.8192 93.0564 60.4296 90.1235 61.5325C85.1704 63.3929 84.1793 64.9437 81.0391 67.3616C78.7433 69.1291 76.2731 73.4932 75.1986 76.1016C72.8219 81.8663 73.0672 86.2042 72.4325 87.8455Z" fill="#214649"/>
<path fill-rule="evenodd" clip-rule="evenodd" d="M58.582 120.14C57.467 122.422 52.8224 121.36 54.2838 118.804C55.3078 117.012 59.9802 117.282 58.582 120.14ZM81.3651 114.449C82.9655 114.047 84.4623 115.497 85.37 116.35C86.0501 116.989 86.5583 117.136 86.5027 118.38C86.4699 119.133 86.0122 119.962 85.2284 120.159C84.2955 120.395 83.499 119.911 82.8695 119.345C82.5332 119.042 82.427 118.801 82.1287 118.599C81.843 118.401 81.5623 118.361 81.1932 118.044C78.814 116.021 80.556 114.652 81.3651 114.449ZM108.307 124.061C105.541 117.413 100.922 111.379 92.5632 111.376C89.0842 111.376 89.7466 111.853 87.6557 109.237C84.1185 104.806 78.8266 102.605 73.0341 102.529C66.5286 102.443 62.2557 104.804 58.4 109.399C56.1093 112.127 57.2673 111.51 53.4823 111.484C45.1083 111.429 40.6458 117.532 37.7559 124.109L108.307 124.061Z" fill="#AA793C"/>
<path fill-rule="evenodd" clip-rule="evenodd" d="M53.6113 30.5912L92.5076 30.615L92.4874 24.7598L53.5557 24.7788L53.6113 30.5912Z" fill="#768953"/>
<path fill-rule="evenodd" clip-rule="evenodd" d="M67.4819 84.139C66.4352 80.0488 64.3822 73.6481 60.7059 71.1111C58.1371 69.3364 57.6567 68.6718 54.3572 67.4879C51.0805 66.3159 49.0578 66.4922 45.8948 65.9609C47.0401 77.4904 55.7074 83.5458 67.4819 84.139Z" fill="#849245"/>
<path fill-rule="evenodd" clip-rule="evenodd" d="M73.019 46.1511C73.3401 46.4727 75.9064 51.3703 76.3489 52.2183C77.6308 54.6862 75.9191 57.3709 73.0291 57.359C69.9698 57.3471 68.3264 54.7053 69.6892 52.0278C70.0659 51.2893 72.7409 46.4036 73.019 46.1511ZM72.4501 39.9385C70.4806 40.3816 65.7272 49.729 65.085 51.8586C63.4643 57.216 68.1368 62.1161 73.8534 61.5491C79.6863 60.9703 82.7077 55.813 80.4903 50.6962C79.6332 48.7238 78.0429 46.5441 77.1352 44.5908C76.3185 42.8328 74.8395 39.4001 72.4501 39.9385Z" fill="#214649"/>
<path fill-rule="evenodd" clip-rule="evenodd" d="M78.1213 81.085C80.2578 79.1698 82.1389 77.0282 84.417 75.1868C85.575 74.2531 90.5129 69.3006 91.8782 72.4569C92.71 74.3841 91.2714 75.1535 89.9237 76.0611C88.8239 76.8043 87.6735 78.0811 86.695 78.7696C85.5067 79.6057 81.0214 83.7268 80.7306 84.7439C87.9744 82.6381 88.743 82.8025 94.0728 77.7262C98.1106 73.8814 99.0309 68.6598 99.9007 63.4858C93.8933 64.7698 90.4749 65.0414 85.5143 68.8671C81.7976 71.7328 79.2743 76.4946 78.1213 81.085Z" fill="#7D853A"/>
<path fill-rule="evenodd" clip-rule="evenodd" d="M90.2625 46.0296C90.4319 46.8657 91.7239 48.1187 91.9869 48.8476C93.2864 52.4589 86.7911 51.9682 88.3435 48.8286C88.6722 48.1663 89.7897 46.3369 90.2625 46.0296ZM89.7568 39.6145C88.0881 39.9147 84.2753 46.4631 83.9138 48.164C83.0541 52.216 86.2171 55.8654 90.6544 55.4509C94.9703 55.0483 97.6959 51.2202 96.1511 47.3112C95.4861 45.6294 91.7947 39.2453 89.7568 39.6145Z" fill="#214649"/>
<path fill-rule="evenodd" clip-rule="evenodd" d="M55.7681 45.9652C56.2965 46.2605 56.4229 46.7346 56.7693 47.3087C57.0474 47.7684 57.3913 48.1472 57.6593 48.7237C58.2737 50.0338 57.2118 51.4155 55.8819 51.3797C54.514 51.3416 53.528 50.2196 54.0994 48.9023C54.5823 47.7851 55.4799 47.0133 55.7681 45.9652ZM55.2928 39.8074C53.6898 40.6268 49.968 46.7751 49.7127 48.564C49.1286 52.6804 52.4408 55.9987 56.8325 55.4317C61.1282 54.8767 63.3683 50.8962 61.8842 47.1205C61.3204 45.6888 60.0612 44.0999 59.1991 42.7731C58.4305 41.5916 57.1536 38.8569 55.2928 39.8074Z" fill="#214649"/>
<path fill-rule="evenodd" clip-rule="evenodd" d="M65.7954 20.3573L80.3259 20.3716L80.2374 15.8599L65.894 15.867L65.7954 20.3573Z" fill="#798B55"/>
<path fill-rule="evenodd" clip-rule="evenodd" d="M73.0192 46.1509C72.7411 46.4034 70.066 51.2891 69.6893 52.0276C68.3265 54.7051 69.97 57.3469 73.0293 57.3588C75.9192 57.3707 77.6309 54.686 76.349 52.2182C75.9066 51.3701 73.3403 46.4725 73.0192 46.1509Z" fill="#86AAA3"/>
<path fill-rule="evenodd" clip-rule="evenodd" d="M81.3652 114.449C80.5561 114.651 78.8141 116.021 81.1932 118.044C81.5624 118.36 81.843 118.401 82.1287 118.599C82.4271 118.801 82.5333 119.042 82.8696 119.344C83.4991 119.911 84.2955 120.395 85.2285 120.159C86.0123 119.961 86.4699 119.132 86.5028 118.38C86.5584 117.136 86.0502 116.988 85.3701 116.35C84.4624 115.497 82.9656 114.046 81.3652 114.449Z" fill="#214649"/>
<path fill-rule="evenodd" clip-rule="evenodd" d="M58.5822 120.14C59.9803 117.281 55.3079 117.012 54.2839 118.804C52.8226 121.36 57.4672 122.422 58.5822 120.14Z" fill="#204548"/>
<path fill-rule="evenodd" clip-rule="evenodd" d="M90.2624 46.0298C89.7896 46.3371 88.6721 48.1666 88.3434 48.8288C86.791 51.9684 93.2863 52.4591 91.9868 48.8478C91.7238 48.1189 90.4318 46.8659 90.2624 46.0298Z" fill="#86AAA3"/>
<path fill-rule="evenodd" clip-rule="evenodd" d="M55.7679 45.9653C55.4797 47.0135 54.5821 47.7853 54.0992 48.9025C53.5278 50.2198 54.5139 51.3418 55.8817 51.3799C57.2116 51.4156 58.2735 50.034 57.6591 48.7238C57.3911 48.1474 57.0473 47.7686 56.7692 47.3089C56.4228 46.7348 56.2964 46.2607 55.7679 45.9653Z" fill="#86AAA3"/>
</g>
<defs>
<clipPath id="clip0_12072_593">
<rect width="146" height="140" fill="white"/>
</clipPath>
</defs>
</svg>
