<?xml version="1.0" encoding="UTF-8"?>
<svg viewBox="0 0 96 55" xmlns="http://www.w3.org/2000/svg">
<path d="m56.758 14.247-6.4844 0.0028c-0.0553-11.98 2.0039-10.081-17.898-10.064-9.2738 0.00748-18.593-0.1022-27.859-0.02582-5.7502 0.04742-4.3727 4.4085-4.3693 9.6034l-0.002439 27.994c-0.024732 6.0342 1.3778 5.4999 8.7279 5.4232 0.58703 8.1197 13.491 11.344 15.981 0.0103l26.417-0.0042c0.9979 3.8899 2.7376 7.2242 7.8774 7.2884 4.3235 0.0539 7.8154-3.1748 7.9003-7.2827 6.4382-0.0485 6.9717 0.0458 6.7963-6.7124 5.6898-0.2942 7.2626-0.1897 11.682-2.5932 10.036-5.4586 13.644-19.106 6.4108-29.558-9.2448-13.359-31.051-10.112-35.179 5.9188l-1e-4 -1e-4z" clip-rule="evenodd" fill="#662601" fill-rule="evenodd"/>
<path d="m3.0794 7.1872 0.1056 27.203 44.067-0.3099-0.04-26.98-44.132 0.08737z" clip-rule="evenodd" fill="#FE9501" fill-rule="evenodd"/>
<path d="m60.042 14.032c3.0206 1.6849 1.1421-1.5842 5.9111 5.346l2.9637 4.3233c2.5703 3.524 6.0222 7.1307 5.1033 13.411 4.7988-0.1798 6.0465 0.0448 9.9351-1.9125 0.7522-0.3785 1.1554-0.7657 1.7646-1.1849 7.8514-5.4014 9.4088-17.966 2.8434-25.053-0.561-0.60539-1.0246-0.87364-1.524-1.4151-0.5624-0.60985-0.8809-0.88787-1.6158-1.3612-3.5813-2.3069-6.9546-3.6686-12.212-2.8922-6.2984 0.93023-10.98 5.1256-13.169 10.739v2e-4z" clip-rule="evenodd" fill="#FCC626" fill-rule="evenodd"/>
<path d="m50.368 44.061 1.3288-0.0327c1.1264-2.2278 1.129-2.5637 2.9531-4.0711 0.1577-0.1303 0.3377-0.2427 0.4964-0.3303 0.0847-0.0467 0.8633-0.3803 1.1641-0.4998 4.3346-1.7209 9.1234 0.4365 10.489 4.9247l3.8836 1e-4c-0.1291-4.2628 0.8343-10.668-0.5111-13.04-1.5434-2.7206-5.4603-8.3363-7.3971-10.916l-1.9268-2.6403-10.545-0.063 0.0647 26.668h-1e-4z" clip-rule="evenodd" fill="#FE721A" fill-rule="evenodd"/>
<path d="m3.122 43.991 6.139 0.0411c0.90867-2.4948 1.1144-2.1226 2.5614-3.6308 3.0288-3.1574 9.0245-2.0277 11.556 1.4404 0.4754 0.6511 0.6404 1.2804 1.0412 2.1705l22.696 0.0208-0.0024-6.7857-44 0.0827 0.0085 6.661z" clip-rule="evenodd" fill="#FA5923" fill-rule="evenodd"/>
<path d="m53.28 19.692c-0.8855 2.8281-0.4625 5.0316-0.486 8.6057-0.0244 3.7255 3.143 2.8212 7.4356 2.8338 0.9985 0.0031 8.1033 1.0495 5.0371-3.7596l-4.2348-5.7421c-1.0781-1.535-0.6567-2.2271-2.9321-2.362-1.3544-0.0803-3.8039-0.014-4.8199 0.4243l1e-4 -1e-4z" clip-rule="evenodd" fill="#662601" fill-rule="evenodd"/>
<path d="m16.007 41.923c-6.3401 1.0321-4.4523 10.678 1.9683 9.2033 5.874-1.3493 4.1924-10.206-1.9683-9.2033z" clip-rule="evenodd" fill="#1B5396" fill-rule="evenodd"/>
<path d="m58.543 41.855c-5.9925 1.0102-4.8421 10.459 1.6391 9.3038 2.2486-0.4006 4.2617-2.7028 3.7692-5.5574-0.3519-2.039-2.7735-4.1905-5.4083-3.7463v-1e-4z" clip-rule="evenodd" fill="#1B5396" fill-rule="evenodd"/>
<path d="m74.477 6.7157c-0.7435 1.5279-0.8905 12.211 0.0344 14.056l5.5841 5.7845c0.7063 0.7049 1.6198 1.5857 2.8513 0.6688 2.1323-2.208-5.4208-4.5654-5.6629-8.5973-0.1417-2.3597-0.1937-4.8603-0.2177-7.2881-0.028-2.8417 0.6899-5.2514-2.5892-4.6243z" clip-rule="evenodd" fill="#662601" fill-rule="evenodd"/>
<path d="m55.657 28.225 6.1215-0.0956c-0.058-0.8818-1.1838-2.0199-1.673-2.6785-0.6758-0.9098-1.5529-1.9592-2.0295-2.8259l-2.4491-0.0802 0.0301 5.6801v1e-4z" clip-rule="evenodd" fill="#A7DBFF" fill-rule="evenodd"/>
</svg>
