<svg width="177" height="114" viewBox="0 0 177 114" fill="none" xmlns="http://www.w3.org/2000/svg">
<path fill-rule="evenodd" clip-rule="evenodd" d="M139.019 88.3148C130.473 87.973 126.03 85.1531 123.424 77.0352C131.798 76.4797 136.199 81.5214 139.019 88.3148ZM149.786 84.2131C151.324 76.0525 159.399 69.1309 167.602 68.3618C166.192 76.9924 158.16 83.0595 149.786 84.2131ZM116.545 32.0448C127.141 34.0102 135.729 41.9999 138.164 52.425C126.286 52.3396 119.194 42.4699 116.545 32.0448ZM149.615 55.9286C152.52 45.7171 160.51 33.6684 171.661 32.2584C171.319 44.0935 161.236 54.5186 149.615 55.9286ZM144.915 35.5056C139.318 30.8912 136.669 20.5942 140.557 12.1772C141.497 10.1691 143.718 6.96466 144.103 5.55471C148.418 7.56283 150.768 15.4671 150.896 20.4661C150.982 25.5077 148.675 32.5148 144.915 35.5056ZM142.266 50.2887C140.129 47.8106 140.001 41.9999 132.012 34.6938C127.483 30.5921 119.023 26.405 112.785 28.2849C110.264 36.2319 118.553 49.8187 128.423 54.5186C141.796 60.8848 142.095 46.0589 142.266 84.2131C138.634 80.4532 140.044 78.8724 133.763 75.0698C130.602 73.1898 122.185 71.0108 119.365 73.9589C117.357 77.847 122.612 85.7513 125.432 88.2294C132.524 94.3819 135.643 91.0492 142.138 93.0146L142.437 98.9963C135.942 99.5944 130.986 101.004 125.346 103.568C122.612 104.807 111.674 108.866 114.408 112.882C116.587 114.42 119.108 111.771 121.031 110.703C155.511 91.3911 171.576 117.069 175.336 112.327C177.173 108.054 167.175 104.38 164.099 103.098C157.861 100.449 153.716 99.5517 146.795 98.9108L146.966 89.3829C148.717 88.3575 154.058 87.973 156.793 86.8194C159.826 85.4949 161.92 84.1704 164.44 82.1196C167.773 79.4278 173.883 69.6009 171.789 65.1146C168.243 62.1238 159.484 65.5846 156.023 68.02C150.768 71.6944 148.846 77.1633 146.837 78.7442C147.179 73.1044 146.068 65.7982 147.649 60.5002C156.323 59.0048 162.561 57.8512 168.115 50.716C171.448 46.4434 178.711 33.4975 175.25 28.3703C171.533 25.2514 160.339 32.2584 157.177 34.9501C152.435 39.0091 149.23 44.4353 147.179 50.3742C146.41 49.007 146.752 44.6916 146.795 42.3844C146.88 37.2146 152.99 35.6765 154.784 25.0804C156.793 13.3308 148.76 1.06848 145.257 0.726676C141.369 0.342143 133.08 13.1172 134.575 23.7132C136.199 35.3347 142.223 36.6592 142.351 41.4872C142.437 44.3071 142.266 47.4688 142.266 50.2887Z" fill="#01832D"/>
<path fill-rule="evenodd" clip-rule="evenodd" d="M35.3658 76.5652C39.4248 65.841 43.6119 59.3467 55.8743 58.3212C55.7034 64.2174 52.4135 67.2509 49.209 70.9254C45.6628 75.0271 40.7066 75.5398 35.3658 76.5652ZM7.4231 58.3212C19.4291 59.4748 24.2571 65.4137 28.1024 76.3088C15.6265 74.0444 10.1576 71.609 7.4231 58.3212ZM21.4799 37.6846C24.2144 40.4191 27.4188 45.9307 27.9315 50.0751C23.0181 50.8015 17.5064 48.1097 14.0883 45.0762C9.77302 41.2309 8.27762 38.0692 7.08129 31.9593C13.0629 32.6002 17.3355 33.4975 21.4799 37.6846ZM35.4513 50.246C36.7758 42.6835 47.1155 29.4385 56.0025 32.5575C55.8743 37.2146 52.7553 42.2563 49.5936 44.9907C44.851 49.007 41.7747 49.3915 35.4513 50.246ZM31.6914 29.9512C28.9142 28.584 25.5389 20.9361 25.6243 17.3898C25.7952 11.3227 29.4697 8.97281 31.4351 4.8284C39.7666 10.1264 39.2112 25.1232 31.6914 29.9512ZM29.6833 41.6154C27.077 39.18 27.3334 35.6338 19.8136 31.0194C15.4128 28.3276 7.97854 26.6613 3.19324 28.8404C1.14239 37.001 8.10671 48.5797 17.9764 52.6387C20.7109 53.7496 28.5724 54.8604 29.0424 55.1168C30.6233 57.2958 29.4697 65.4565 29.7688 68.7036C27.7179 67.1655 26.137 61.4402 19.9845 57.5949C16.3101 55.245 7.03857 52.2114 3.36414 55.3731C1.74055 61.6539 6.22678 69.7718 10.4139 73.7453C17.6346 80.5387 20.7109 78.8297 29.3842 80.7096L29.6833 98.6118C26.9488 100.022 21.6081 98.9536 12.2939 103.312C9.7303 104.508 7.50855 105.533 4.98772 106.986C1.99691 108.652 -0.908452 109.55 0.416051 113.181C5.79952 114.933 21.309 96.0055 47.9273 106.516C50.8754 107.67 59.4205 113.737 61.5568 112.754C64.8467 108.61 54.4643 104.38 51.3453 103.055C45.7055 100.62 40.2793 99.3809 33.9132 98.9536L33.9559 80.7951C41.5184 79.1715 46.9446 79.9406 52.7126 73.5744C56.9424 68.9173 61.8132 62.2093 60.1041 55.245C55.4043 52.5532 47.9273 54.6041 43.5692 57.3813C38.1858 60.7993 37.4167 63.662 33.9559 68.4045L34.0413 55.1168C36.9467 53.5787 44.8937 55.245 52.8407 47.8107C56.6861 44.179 62.4541 34.4802 59.8905 29.1394C56.6861 26.0632 47.2009 29.0113 43.6974 31.1476C37.2885 35.0783 38.0576 37.2146 33.9986 41.9572C34.2977 34.5229 32.6741 36.061 37.1603 30.293C42.3302 23.6705 43.6119 14.9544 39.3821 7.4774C38.2285 5.42656 34.4686 0.0858184 32.0332 0.000366564C27.8888 -0.0850853 15.4128 14.7835 25.6243 29.994C30.3242 36.9156 29.3842 32.0875 29.6833 41.6154Z" fill="#01832D"/>
<path fill-rule="evenodd" clip-rule="evenodd" d="M144.915 35.5056C148.675 32.5147 150.982 25.5077 150.897 20.466C150.769 15.4671 148.419 7.56281 144.103 5.55469C143.719 6.96464 141.497 10.1691 140.557 12.1772C136.669 20.5942 139.318 30.8912 144.915 35.5056Z" fill="#36C939"/>
<path fill-rule="evenodd" clip-rule="evenodd" d="M149.615 55.9286C161.236 54.5186 171.32 44.0935 171.661 32.2584C160.51 33.6684 152.52 45.7171 149.615 55.9286Z" fill="#36C939"/>
<path fill-rule="evenodd" clip-rule="evenodd" d="M31.6912 29.9512C39.211 25.1232 39.7664 10.1264 31.4349 4.82837C29.4695 8.97278 25.7951 11.3227 25.6241 17.3898C25.5387 20.936 28.914 28.584 31.6912 29.9512Z" fill="#36C939"/>
<path fill-rule="evenodd" clip-rule="evenodd" d="M27.9313 50.0751C27.4186 45.9307 24.2141 40.4191 21.4797 37.6846C17.3353 33.4975 13.0627 32.6002 7.08105 31.9594C8.27738 38.0692 9.77279 41.2309 14.0881 45.0762C17.5062 48.1097 23.0178 50.8015 27.9313 50.0751Z" fill="#36C939"/>
<path fill-rule="evenodd" clip-rule="evenodd" d="M138.164 52.4251C135.729 41.9999 127.141 34.0102 116.545 32.0448C119.194 42.4699 126.286 52.3396 138.164 52.4251Z" fill="#36C939"/>
<path fill-rule="evenodd" clip-rule="evenodd" d="M35.4512 50.246C41.7746 49.3915 44.8509 49.007 49.5934 44.9908C52.7552 42.2563 55.8742 37.2146 56.0023 32.5575C47.1153 29.4385 36.7757 42.6836 35.4512 50.246Z" fill="#36C939"/>
<path fill-rule="evenodd" clip-rule="evenodd" d="M28.1022 76.3089C24.2569 65.4138 19.4288 59.4749 7.42285 58.3213C10.1573 71.609 15.6262 74.0444 28.1022 76.3089Z" fill="#36C939"/>
<path fill-rule="evenodd" clip-rule="evenodd" d="M35.3657 76.5652C40.7065 75.5398 45.6627 75.0271 49.2089 70.9254C52.4134 67.251 55.7033 64.2175 55.8742 58.3213C43.6118 59.3467 39.4247 65.841 35.3657 76.5652Z" fill="#36C939"/>
<path fill-rule="evenodd" clip-rule="evenodd" d="M149.786 84.2131C158.16 83.0595 166.192 76.9925 167.602 68.3618C159.399 69.1309 151.324 76.0525 149.786 84.2131Z" fill="#36C939"/>
<path fill-rule="evenodd" clip-rule="evenodd" d="M139.019 88.3149C136.199 81.5214 131.798 76.4798 123.424 77.0352C126.03 85.1532 130.474 87.9731 139.019 88.3149Z" fill="#36C939"/>
</svg>
